<svg width="126" height="127" viewBox="0 0 126 127" fill="none" xmlns="http://www.w3.org/2000/svg">
<path fill-rule="evenodd" clip-rule="evenodd" d="M110.456 66.3981C110.731 100.19 95.9495 124.875 67.6906 126.276C47.0942 127.298 59.4152 94.9823 33.6017 73.5262C17.0784 59.7923 6.17274 24.1081 46.896 14.8815C87.6193 5.65506 110.182 32.6065 110.456 66.3981Z" fill="#EBF1FA"/>
<path d="M27.0661 115.465C24.5025 110.74 24.9212 105.021 25.4504 99.6709C26.6678 87.3642 28.5421 74.1117 37.1623 65.2444C39.4422 62.8991 42.2251 60.9107 45.4189 60.2045C47.8937 59.6574 50.2779 58.7026 52.4464 57.3904C52.969 54.3294 50.089 51.9192 48.0768 49.5541C45.8235 46.9055 44.4177 43.5466 44.1129 40.0826C43.9325 38.0321 43.502 35.2384 41.4454 35.151C39.755 35.0791 38.4823 33.0393 39.1609 31.4894C39.8395 29.9394 42.2016 29.491 43.401 30.6844C41.6901 24.2701 45.3045 16.8694 51.4151 14.2751C50.4188 12.8501 52.5936 11.1425 54.3203 11.3466C56.0469 11.5506 57.7183 12.5936 59.4137 12.2083C58.8327 11.1852 59.7636 9.82587 60.9106 9.56379C62.0577 9.30172 63.2347 9.79967 64.2636 10.3705C70.868 14.0346 75.2325 21.4238 75.2533 28.9765C75.4241 27.5979 77.4929 27.1259 78.5047 28.0776C79.5166 29.0294 79.4684 30.7329 78.7499 31.9218C78.0314 33.1106 76.8068 33.8912 75.5947 34.5697C75.6253 39.5783 73.7205 44.5742 70.3632 48.291C67.9202 50.9956 64.459 53.8645 65.2607 57.4198C66.5603 57.1322 67.875 58.6315 67.4202 59.8824C72.9923 59.4183 78.1921 62.7813 82.1398 66.7411C87.9268 72.5458 92.0861 79.9564 94.0267 87.92C94.3657 89.311 96.3447 89.6902 97.5691 88.9481C98.7935 88.2059 99.4227 86.8024 99.9807 85.4838L111.003 59.4366C110.292 55.9276 110.867 52.3008 111.443 48.7672L113.354 37.0397C113.527 35.9752 114.272 34.5705 115.255 35.0143C115.594 35.1676 115.784 35.4991 115.904 35.8644C115.959 36.0337 116 36.2103 116.033 36.3798C116.629 39.387 116.82 42.4741 116.598 45.5317L120.414 39.0047C121.031 37.9485 122.311 36.7801 123.266 37.2171C123.625 37.2875 123.868 37.6457 123.919 38.0109C124.055 38.5076 123.94 39.1047 123.785 39.6198C123.089 41.927 121.954 44.1011 120.46 45.9915C122.475 46.6788 124.809 47.7224 125.161 49.822C124.952 53.6284 122.146 57.9984 120.078 60.2671C120.552 59.9807 120.863 60.8329 120.768 61.3792C118.5 74.5061 112.971 87.057 104.816 97.5914C102.41 100.7 99.6156 103.106 95.2316 103.54C89.2574 104.131 85.34 95.3186 82.0958 95.5544C82.0958 95.5544 79.06 111.228 76.862 113.321C74.664 115.415 60.22 119.811 55.8674 118.345C51.5148 116.88 47.1611 120.799 41.4454 120.406C35.5217 119.999 27.0661 115.465 27.0661 115.465Z" fill="white"/>
<path d="M117.843 63.1041C117.791 63.035 117.755 62.9535 117.74 62.8684C117.683 62.5471 117.971 62.2111 118.297 62.2177C118.623 62.2243 118.897 62.5717 118.827 62.8904C118.757 63.2091 118.363 63.4101 118.064 63.2796C117.977 63.2415 117.9 63.1804 117.843 63.1041Z" fill="#00160A"/>
<path d="M64.6004 29.5876C64.3787 29.5376 64.2707 29.2596 64.332 29.0408C64.3932 28.8219 64.5733 28.6579 64.7591 28.5269C66.0244 27.635 67.9494 27.8658 68.968 29.0316C69.0492 29.1245 69.1289 29.2334 69.1248 29.3567C69.1208 29.48 68.986 29.5994 68.8766 29.5424C68.3032 29.2433 67.7186 28.9404 67.0823 28.8249C66.4459 28.7095 65.738 28.8082 65.2536 29.2368C65.0604 29.4078 64.8521 29.6444 64.6004 29.5876Z" fill="#00160A"/>
<path d="M53.7382 29.5444C53.6688 29.7582 53.3904 29.8363 53.1739 29.7759C52.9574 29.7154 52.7835 29.5592 52.6 29.4294C51.9968 29.0026 51.2319 28.8396 50.4945 28.8875C49.7572 28.9354 49.044 29.1822 48.3835 29.5135C48.2322 29.5895 48.052 29.4132 48.0613 29.2442C48.0706 29.0751 48.1977 28.9378 48.326 28.8273C49.0131 28.2357 49.9469 27.9654 50.8524 28.0121C51.7579 28.0587 52.6332 28.4064 53.379 28.9221C53.5908 29.0686 53.8177 29.2994 53.7382 29.5444Z" fill="black"/>
<path d="M118.154 65.491C118.077 65.5936 117.967 65.6657 117.856 65.7289C117.74 65.7945 117.612 65.8543 117.48 65.8441C117.303 65.8305 117.156 65.6919 117.084 65.5307C116.905 65.1337 117.209 64.5911 117.644 64.5757C118.079 64.5603 118.415 65.1424 118.154 65.491Z" fill="#00160A"/>
<path d="M79.4328 82.0417C79.6441 82.1387 79.4935 82.4801 79.278 82.5673C79.0625 82.6544 78.791 82.6571 78.6505 82.8423C78.5505 82.9742 78.5546 83.155 78.5646 83.3202C78.5849 83.6577 78.6062 84.016 78.4454 84.3134C78.2847 84.6108 77.8654 84.7942 77.5972 84.5883C77.351 84.3993 77.3729 84.0322 77.3644 83.722C77.3558 83.4117 77.1998 83.0233 76.8898 83.0374C75.3717 83.1068 73.8536 83.1762 72.3355 83.2456C72.1431 83.2544 71.9241 83.2529 71.793 83.1119C71.6133 82.9186 71.7352 82.5775 71.962 82.4426C72.1888 82.3076 72.4703 82.3187 72.7338 82.334C73.8493 82.3984 74.9647 82.4628 76.0802 82.5273C76.2535 82.5373 76.4352 82.5458 76.592 82.4713C76.7487 82.3969 76.8667 82.2099 76.8031 82.0485C76.6327 81.6157 76.8591 81.0679 77.2853 80.8817C77.4333 80.8171 77.5004 80.6463 77.5371 80.489C77.5738 80.3318 77.6002 80.1606 77.7121 80.0443C77.8241 79.9279 78.0594 79.9205 78.1182 80.0709C78.2538 80.4179 78.5859 80.642 78.8193 80.9324C79.0527 81.2229 79.1607 81.7054 78.8652 81.9325C78.8816 82.1454 79.2387 81.9527 79.4328 82.0417Z" fill="#00160A"/>
<path d="M49.7428 42.8587C49.531 42.8458 49.443 42.5063 49.622 42.3922C49.8469 42.3762 49.9459 42.7615 49.7411 42.8559L49.7428 42.8587Z" fill="#FFB61D"/>
<path d="M66.6762 37.5444C66.6154 37.4347 66.679 37.2766 66.7987 37.2395C66.9185 37.2025 67.0603 37.2971 67.072 37.422C67.0389 37.5843 66.802 37.658 66.6826 37.5431L66.6762 37.5444Z" fill="#FFB61D"/>
<path d="M65.9659 35.4525C65.8764 35.6296 65.5527 35.5802 65.5202 35.3845C65.5856 35.2953 65.6795 35.2275 65.7847 35.1933C65.8739 35.2589 65.9425 35.352 65.9788 35.4566L65.9659 35.4525Z" fill="#FFB61D"/>
<path d="M61.6326 43.3434C61.7652 43.3345 61.8994 43.4141 61.9551 43.5348C61.9103 43.6714 61.7409 43.766 61.6137 43.699C61.4865 43.632 61.4988 43.3974 61.6399 43.3702L61.6326 43.3434Z" fill="#FFB61D"/>
<path d="M65.6086 43.5411C65.674 43.378 65.9779 43.4402 65.9739 43.6159C65.8822 43.7069 65.7632 43.77 65.6365 43.7948C65.5344 43.7599 65.509 43.5989 65.5953 43.5342L65.6086 43.5411Z" fill="#FFB61D"/>
<path d="M58.7643 36.1741C58.6303 36.1747 58.5318 36.347 58.5993 36.4628C58.6668 36.5785 58.8653 36.5776 58.9318 36.4613C58.9983 36.3449 58.8983 36.1735 58.7643 36.1741Z" fill="#FFB61D"/>
<path d="M50.6832 38.2162C50.5752 38.1354 50.3915 38.214 50.3755 38.348C50.3595 38.482 50.5194 38.6017 50.6435 38.5486C50.7675 38.4955 50.7912 38.2971 50.6832 38.2162Z" fill="#FFB61D"/>
<path d="M68.7432 38.5381C68.6142 38.5805 68.4677 38.436 68.5065 38.3058C68.5452 38.1756 68.7437 38.1332 68.8338 38.2348C68.924 38.3364 68.8609 38.5264 68.7284 38.5561L68.7432 38.5381Z" fill="#FFB61D"/>
<path d="M57.9945 42.5239C57.9446 42.3984 57.7467 42.3695 57.663 42.4755C57.5793 42.5814 57.6532 42.7672 57.7868 42.7867C57.9205 42.8062 58.0444 42.6493 57.9945 42.5239Z" fill="#FFB61D"/>
<path d="M57.7834 45.8389C57.6895 45.8663 57.6171 45.7521 57.601 45.6556C57.6936 45.4801 58.0144 45.5291 58.0504 45.7242C57.9937 45.8098 57.8843 45.8571 57.7831 45.8397L57.7834 45.8389Z" fill="#FFB61D"/>
<path d="M59.0647 45.682C58.9192 45.7179 58.7144 45.6467 58.729 45.4975C58.8158 45.408 58.9514 45.3435 59.0644 45.3962C59.1774 45.449 59.1836 45.6569 59.0605 45.6774L59.0647 45.682Z" fill="#FFB61D"/>
<path d="M65.6362 45.6135C65.5761 45.5693 65.5349 45.5001 65.5246 45.4262C65.5874 45.3359 65.6811 45.2676 65.7863 45.2354C65.8484 45.2981 65.9105 45.3608 65.9726 45.4235C65.9041 45.5413 65.772 45.6193 65.6358 45.6225L65.6362 45.6135Z" fill="#FFB61D"/>
<path d="M59.8951 36.5503C59.7887 36.6947 59.5119 36.6243 59.4874 36.4467C59.5778 36.2545 59.9378 36.3402 59.932 36.5525L59.8951 36.5503Z" fill="#FFB61D"/>
<path d="M62.8432 43.6476C62.723 43.7635 62.4794 43.6426 62.4991 43.4767C62.5188 43.3109 62.7839 43.2503 62.8737 43.3911C62.8074 43.4397 62.7805 43.5354 62.8117 43.6114L62.8432 43.6476Z" fill="#FFB61D"/>
<path d="M55.5056 36.2288C55.6347 36.1864 55.7811 36.3309 55.7423 36.4611C55.7036 36.5913 55.5051 36.6337 55.415 36.5321C55.3248 36.4304 55.3879 36.2404 55.5204 36.2107L55.5056 36.2288Z" fill="#FFB61D"/>
<path d="M58.6562 40.4465C58.7828 40.3407 59.0132 40.4327 59.0322 40.5966C58.9455 40.6754 58.8271 40.7402 58.7148 40.7065C58.6026 40.6727 58.5494 40.4948 58.6514 40.4371L58.6562 40.4465Z" fill="#FFB61D"/>
<path d="M61.5305 41.5046C61.6173 41.328 61.9392 41.3745 61.9725 41.5684C61.8761 41.7448 61.5541 41.6975 61.5126 41.5008L61.5305 41.5046Z" fill="#FFB61D"/>
<path d="M61.708 42.5175C61.797 42.3865 62.0501 42.4715 62.0421 42.6296C61.9844 42.7209 61.8916 42.7896 61.7874 42.818C61.6833 42.7623 61.6409 42.6154 61.6992 42.5127L61.708 42.5175Z" fill="#FFB61D"/>
<path d="M65.9003 36.3637C65.8175 36.2557 65.6176 36.2819 65.5655 36.4077C65.5133 36.5334 65.636 36.6933 65.7709 36.6756C65.9059 36.6579 65.9831 36.4717 65.9003 36.3637Z" fill="#FFB61D"/>
<path d="M63.7516 46.3748C63.7773 46.2571 63.9844 46.3141 63.9973 46.4339C64.0102 46.5537 63.9132 46.654 63.824 46.7351C63.7565 46.6918 63.6849 46.6436 63.6563 46.5686C63.6277 46.4937 63.6704 46.3882 63.7506 46.3861L63.7516 46.3748Z" fill="#FFB61D"/>
<path d="M53.766 35.3506C53.7161 35.2251 53.5183 35.1962 53.4346 35.3022C53.3509 35.4081 53.4248 35.5939 53.5584 35.6134C53.692 35.6329 53.8159 35.476 53.766 35.3506Z" fill="#FFB61D"/>
<path d="M58.9057 46.375C58.8373 46.2664 58.6474 46.2736 58.5875 46.3872C58.5276 46.5007 58.6289 46.6615 58.7571 46.6566C58.8854 46.6518 58.9741 46.4836 58.9057 46.375Z" fill="#FFB61D"/>
<path d="M50.4925 42.3323C50.5646 42.2507 50.7122 42.3499 50.709 42.4588C50.7058 42.5677 50.6181 42.6528 50.5366 42.7251C50.3613 42.6972 50.3315 42.3968 50.4979 42.3349L50.4925 42.3323Z" fill="#FFB61D"/>
<path d="M59.8985 44.6339C59.8242 44.6799 59.75 44.7259 59.6757 44.7719C59.5399 44.7219 59.5239 44.4964 59.6514 44.4279C59.7788 44.3593 59.9582 44.4971 59.9249 44.6379L59.8985 44.6339Z" fill="#FFB61D"/>
<path d="M68.5563 42.439C68.5148 42.3105 68.7657 42.2691 68.8151 42.3947C68.8645 42.5203 68.7647 42.6561 68.6533 42.7324C68.5435 42.6835 68.4722 42.5595 68.4853 42.4399L68.5563 42.439Z" fill="#FFB61D"/>
<path d="M65.5233 42.5563C65.6048 42.4388 65.783 42.4025 65.9039 42.4788C65.9356 42.6548 65.7127 42.8165 65.5552 42.7319C65.5397 42.6741 65.5242 42.6163 65.5087 42.5585L65.5233 42.5563Z" fill="#FFB61D"/>
<path d="M53.5424 41.3634C53.6714 41.321 53.8179 41.4655 53.7791 41.5957C53.7404 41.7259 53.5419 41.7683 53.4518 41.6666C53.3616 41.565 53.4247 41.375 53.5572 41.3453L53.5424 41.3634Z" fill="#FFB61D"/>
<path d="M67.5548 34.4766C67.5563 34.3633 67.6743 34.2667 67.7856 34.2876C67.8969 34.3085 67.9719 34.4414 67.9322 34.5474C67.815 34.6361 67.6271 34.6086 67.5402 34.4901L67.5548 34.4766Z" fill="#FFB61D"/>
<path d="M64.6913 40.441C64.8001 40.3536 64.9943 40.4526 64.9877 40.592C64.892 40.7407 64.6369 40.7408 64.5411 40.5921C64.5913 40.5419 64.6415 40.4917 64.6917 40.4415L64.6913 40.441Z" fill="#FFB61D"/>
<path d="M52.342 43.4214C52.4519 43.3053 52.67 43.3251 52.757 43.4591C52.6909 43.5505 52.6042 43.6439 52.4916 43.6493C52.379 43.6547 52.2727 43.5083 52.3506 43.4268L52.342 43.4214Z" fill="#FFB61D"/>
<path d="M68.769 44.5939C68.7242 44.6537 68.6554 44.695 68.5816 44.7064C68.4473 44.6297 68.4475 44.3904 68.5919 44.3349C68.7363 44.2793 68.8922 44.5034 68.7765 44.6061L68.769 44.5939Z" fill="#FFB61D"/>
<path d="M50.6252 44.655C50.7308 44.5817 50.7148 44.392 50.5985 44.3373C50.4822 44.2826 50.3259 44.3912 50.3367 44.5193C50.3475 44.6474 50.5197 44.7284 50.6252 44.655Z" fill="#FFB61D"/>
<path d="M68.71 40.7547C68.6045 40.8624 68.4265 40.6386 68.5286 40.5276C68.6307 40.4166 68.8283 40.4734 68.9195 40.5935C68.8568 40.6561 68.7941 40.7187 68.7314 40.7813L68.71 40.7547Z" fill="#FFB61D"/>
<path d="M49.4523 35.6068C49.4234 35.4238 49.7198 35.3042 49.826 35.456C49.7377 35.572 49.6495 35.6879 49.5612 35.8039C49.497 35.7591 49.4523 35.6872 49.4407 35.6097L49.4523 35.6068Z" fill="#FFB61D"/>
<path d="M50.588 40.7547C50.4825 40.8624 50.3045 40.6386 50.4066 40.5276C50.5087 40.4166 50.7063 40.4734 50.7975 40.5935C50.7348 40.6561 50.6721 40.7187 50.6094 40.7813L50.588 40.7547Z" fill="#FFB61D"/>
<path d="M66.6711 35.5212C66.581 35.4353 66.5985 35.2647 66.7042 35.1989C66.81 35.1332 66.9707 35.1928 67.0079 35.3117C66.9554 35.4316 66.8221 35.5108 66.6917 35.4995L66.6711 35.5212Z" fill="#FFB61D"/>
<path d="M53.3709 36.4444C53.4541 36.2956 53.7038 36.2868 53.7971 36.4296C53.7676 36.6384 53.394 36.6497 53.352 36.443L53.3709 36.4444Z" fill="#FFB61D"/>
<path d="M60.9754 37.3067C60.9777 37.4131 60.9408 37.5199 60.8733 37.6022C60.7561 37.6682 60.5991 37.5206 60.6397 37.3923C60.6803 37.2641 60.8617 37.2182 60.9732 37.2934L60.9754 37.3067Z" fill="#FFB61D"/>
<path d="M57.896 44.493C57.8582 44.372 57.675 44.3308 57.589 44.4241C57.5031 44.5173 57.5591 44.6966 57.6828 44.7244C57.8065 44.7522 57.9338 44.6141 57.896 44.493Z" fill="#FFB61D"/>
<path d="M61.8435 45.4908C61.898 45.6341 61.7899 45.8143 61.6378 45.8336C61.5374 45.791 61.4905 45.6545 61.5435 45.5592C61.5965 45.4639 61.7372 45.4317 61.8263 45.4945L61.8435 45.4908Z" fill="#FFB61D"/>
<path d="M55.3959 46.5573C55.396 46.4198 55.4772 46.2854 55.5989 46.2214C55.687 46.3096 55.7501 46.4455 55.6963 46.5578C55.6424 46.6702 55.4342 46.6736 55.4161 46.5503L55.3959 46.5573Z" fill="#FFB61D"/>
<path d="M66.7141 45.414C66.8196 45.3063 66.9976 45.5301 66.8955 45.6411C66.7934 45.7521 66.5957 45.6953 66.5045 45.5752C66.5672 45.5126 66.6299 45.45 66.6927 45.3874L66.7141 45.414Z" fill="#FFB61D"/>
<path d="M57.7286 36.353C57.8341 36.2452 58.0121 36.4691 57.91 36.58C57.8079 36.691 57.6102 36.6343 57.519 36.5142C57.5817 36.4515 57.6445 36.3889 57.7072 36.3263L57.7286 36.353Z" fill="#FFB61D"/>
<path d="M51.5182 42.6691C51.4412 42.5857 51.5462 42.4386 51.6597 42.4423C51.7732 42.446 51.8622 42.5397 51.9253 42.6341C51.8357 42.765 51.6222 42.7848 51.51 42.6726L51.5182 42.6691Z" fill="#FFB61D"/>
<path d="M53.7029 39.1881C53.8104 39.1796 53.8536 39.348 53.7798 39.4266C53.7061 39.5052 53.5835 39.5089 53.4765 39.4965C53.3788 39.3635 53.549 39.144 53.7022 39.2055L53.7029 39.1881Z" fill="#FFB61D"/>
<path d="M58.9903 48.6332C58.8782 48.7762 58.6012 48.7026 58.5749 48.5228C58.6706 48.3532 58.9912 48.439 58.9893 48.6337L58.9903 48.6332Z" fill="#FFB61D"/>
<path d="M53.4293 42.7264C53.3694 42.6093 53.4483 42.4425 53.5783 42.423C53.7083 42.4035 53.8341 42.5525 53.7854 42.6747C53.7368 42.7968 53.5315 42.8111 53.473 42.6933L53.4293 42.7264Z" fill="#FFB61D"/>
<path d="M57.7079 46.6694C57.6136 46.6998 57.5458 46.5794 57.5205 46.4836C57.6172 46.3351 57.8714 46.3336 57.9698 46.481C57.9055 46.5705 57.8127 46.6391 57.7083 46.6743L57.7079 46.6694Z" fill="#FFB61D"/>
<path d="M58.5608 38.4773C58.5971 38.2831 58.9115 38.2277 59.0119 38.398C58.9647 38.5798 58.6799 38.635 58.5682 38.484L58.5608 38.4773Z" fill="#FFB61D"/>
<path d="M68.7692 41.5482C68.7314 41.4271 68.5482 41.386 68.4622 41.4792C68.3763 41.5725 68.4323 41.7517 68.556 41.7795C68.6797 41.8073 68.807 41.6692 68.7692 41.5482Z" fill="#FFB61D"/>
<path d="M60.0106 42.7073C59.9018 42.7947 59.7075 42.6958 59.7142 42.5564C59.8099 42.4077 60.065 42.4076 60.1608 42.5562C60.1106 42.6064 60.0604 42.6566 60.0102 42.7068L60.0106 42.7073Z" fill="#FFB61D"/>
<path d="M57.8575 48.3336C57.9519 48.3035 58.0197 48.4237 58.0448 48.5195C57.9482 48.6681 57.6939 48.6696 57.5956 48.5221C57.6599 48.4327 57.7527 48.3641 57.8571 48.3289L57.8575 48.3336Z" fill="#FFB61D"/>
<path d="M69.9017 34.3253C69.9512 34.3748 70.0006 34.4243 70.0501 34.4737C69.9625 34.6078 69.7357 34.6545 69.6474 34.5209C69.5591 34.3873 69.8075 34.1976 69.8803 34.3403L69.9017 34.3253Z" fill="#FFB61D"/>
<path d="M65.6413 37.6035C65.7386 37.6889 65.9202 37.6273 65.9455 37.5004C65.9708 37.3734 65.8267 37.2469 65.7041 37.2884C65.5815 37.33 65.544 37.518 65.6413 37.6035Z" fill="#FFB61D"/>
<path d="M59.6001 45.6182C59.6391 45.5276 59.7815 45.5069 59.8447 45.5827C59.9156 45.6968 59.8512 45.881 59.7177 45.8964C59.5841 45.9117 59.4926 45.6952 59.6097 45.6293L59.6001 45.6182Z" fill="#FFB61D"/>
<path d="M53.5535 43.4256C53.648 43.3955 53.7158 43.5158 53.7409 43.6116C53.6776 43.7016 53.5843 43.7701 53.4794 43.8033C53.4199 43.7567 53.3785 43.6874 53.3657 43.6129C53.4286 43.55 53.4914 43.487 53.5542 43.4241L53.5535 43.4256Z" fill="#FFB61D"/>
<path d="M67.0219 40.6252C67.0482 40.8012 66.7906 40.9364 66.6606 40.8148C66.6051 40.6386 66.8962 40.4753 66.9947 40.6316L67.0219 40.6252Z" fill="#FFB61D"/>
<path d="M56.7992 40.4823C56.8855 40.5351 56.9334 40.6442 56.9137 40.7435C56.8063 40.7851 56.688 40.7984 56.5741 40.7816C56.5388 40.7262 56.5254 40.6573 56.5372 40.5927C56.6252 40.5549 56.7131 40.5171 56.8011 40.4793L56.7992 40.4823Z" fill="#FFB61D"/>
<path d="M61.7898 44.4784C61.8289 44.559 61.8383 44.6537 61.8155 44.7404C61.7129 44.8296 61.5205 44.7469 61.5146 44.6111C61.5086 44.4753 61.6931 44.3762 61.803 44.456L61.7898 44.4784Z" fill="#FFB61D"/>
<path d="M68.0084 42.6993C67.8889 42.808 67.6588 42.7214 67.6406 42.5609C67.6804 42.4681 67.7992 42.4183 67.8933 42.455C67.9873 42.4916 68.0411 42.6087 68.0075 42.704L68.0084 42.6993Z" fill="#FFB61D"/>
<path d="M57.8948 35.4566C57.9638 35.503 57.9947 35.5991 57.9654 35.677C57.8615 35.7752 57.6529 35.7421 57.6171 35.6037C57.5813 35.4652 57.8115 35.3477 57.8814 35.4725L57.8948 35.4566Z" fill="#FFB61D"/>
<path d="M50.6565 41.6105C50.663 41.4835 50.505 41.381 50.3918 41.4389C50.2785 41.4967 50.2688 41.6847 50.3755 41.7539C50.4822 41.8231 50.6499 41.7374 50.6565 41.6105Z" fill="#FFB61D"/>
<path d="M60.7242 40.8825C60.5992 40.8427 60.5899 40.6356 60.7055 40.5735C60.821 40.5115 60.9814 40.6118 60.9904 40.7426C60.9363 40.8281 60.8272 40.875 60.7279 40.8553L60.7242 40.8825Z" fill="#FFB61D"/>
<path d="M50.4525 36.35C50.3687 36.2376 50.6295 36.1412 50.6887 36.2684C50.7479 36.3955 50.6429 36.5391 50.5287 36.6206C50.4458 36.5674 50.4016 36.4601 50.4229 36.3639L50.4525 36.35Z" fill="#FFB61D"/>
<path d="M58.8772 44.5942C58.8321 44.6541 58.763 44.6954 58.6889 44.7067C58.629 44.6629 58.588 44.594 58.5782 44.5204C58.6382 44.4302 58.7317 44.3627 58.8363 44.3344C58.9392 44.3695 58.9667 44.5304 58.8813 44.5977L58.8772 44.5942Z" fill="#FFB61D"/>
<path d="M67.7875 44.67C67.6994 44.7078 67.6113 44.7455 67.5232 44.7833C67.4632 44.7356 67.4212 44.6658 67.4071 44.5905C67.4851 44.5264 67.5753 44.4607 67.6759 44.4688C67.7765 44.4768 67.8633 44.6054 67.7969 44.6814L67.7875 44.67Z" fill="#FFB61D"/>
<path d="M60.7445 45.355C60.8305 45.3997 60.9166 45.4443 61.0026 45.489C60.9089 45.5879 60.7849 45.6578 60.6516 45.6867C60.5915 45.643 60.5502 45.5742 60.5399 45.5005C60.5844 45.4404 60.6537 45.3993 60.7278 45.3889L60.7445 45.355Z" fill="#FFB61D"/>
<path d="M50.646 45.4237C50.715 45.4701 50.7459 45.5661 50.7167 45.6441C50.6127 45.7423 50.4041 45.7092 50.3683 45.5708C50.3325 45.4323 50.5627 45.3148 50.6326 45.4396L50.646 45.4237Z" fill="#FFB61D"/>
<path d="M57.6813 41.7232C57.7115 41.9034 58.0557 41.8457 58.0255 41.6655C57.9953 41.4853 57.651 41.543 57.6813 41.7232Z" fill="#FFB61D"/>
<path d="M61.5929 37.1653C61.7552 37.148 61.8918 37.3549 61.8119 37.4973C61.7329 37.5581 61.6046 37.5384 61.5475 37.4567C61.4903 37.3751 61.5157 37.2478 61.5998 37.1943L61.5929 37.1653Z" fill="#FFB61D"/>
<path d="M49.5745 41.562C49.6632 41.4735 49.8323 41.6073 49.7928 41.7261C49.7534 41.845 49.5892 41.8828 49.4774 41.8265C49.4023 41.7404 49.4477 41.5822 49.557 41.549L49.5745 41.562Z" fill="#FFB61D"/>
<path d="M57.7059 39.4207C57.7972 39.2904 58.0503 39.3776 58.0418 39.5366C57.9685 39.6372 57.827 39.6821 57.709 39.6422C57.6538 39.582 57.6516 39.4804 57.7042 39.4178L57.7059 39.4207Z" fill="#FFB61D"/>
<path d="M66.7668 36.2519C66.8284 36.2922 66.8689 36.3628 66.8727 36.4363C66.8083 36.5985 66.5071 36.5398 66.5082 36.3654C66.5597 36.2788 66.6695 36.2313 66.7679 36.2531L66.7668 36.2519Z" fill="#FFB61D"/>
<path d="M52.6975 46.5381C52.7574 46.6551 52.6785 46.822 52.5485 46.8415C52.4185 46.861 52.2928 46.712 52.3414 46.5898C52.39 46.4677 52.5953 46.4534 52.6538 46.5712L52.6975 46.5381Z" fill="#FFB61D"/>
<path d="M55.4417 44.485C55.5673 44.4714 55.7281 44.4773 55.776 44.5942C55.7194 44.6842 55.6267 44.7508 55.5233 44.7758C55.4637 44.7431 55.4001 44.7063 55.3726 44.6442C55.3451 44.582 55.3792 44.4904 55.4471 44.4885L55.4417 44.485Z" fill="#FFB61D"/>
<path d="M68.7314 36.5529C68.852 36.511 68.8875 36.3254 68.791 36.2419C68.6945 36.1585 68.5159 36.2205 68.4919 36.3458C68.4679 36.4712 68.6109 36.5948 68.7314 36.5529Z" fill="#FFB61D"/>
<path d="M63.8591 37.3463C63.9935 37.4282 63.9085 37.6858 63.7518 37.6717C63.6624 37.6413 63.6085 37.5326 63.6384 37.4431C63.6684 37.3535 63.7768 37.2991 63.8665 37.3286L63.8591 37.3463Z" fill="#FFB61D"/>
<path d="M59.9127 46.411C59.878 46.2363 59.5442 46.3026 59.5789 46.4774C59.6137 46.6521 59.9474 46.5858 59.9127 46.411Z" fill="#FFB61D"/>
<path d="M51.3487 36.5107C51.3834 36.6855 51.7172 36.6191 51.6824 36.4444C51.6477 36.2696 51.314 36.336 51.3487 36.5107Z" fill="#FFB61D"/>
<path d="M67.9002 45.6874C67.8183 45.8217 67.5607 45.7368 67.5749 45.5801C67.6052 45.4907 67.7139 45.4368 67.8034 45.4667C67.893 45.4966 67.9474 45.605 67.9179 45.6947L67.9002 45.6874Z" fill="#FFB61D"/>
<path d="M50.5664 35.2179C50.6967 35.1684 50.8488 35.3284 50.7928 35.456C50.6776 35.5176 50.5318 35.5179 50.4164 35.4568C50.4316 35.3645 50.4921 35.2807 50.5749 35.2373L50.5664 35.2179Z" fill="#FFB61D"/>
<path d="M57.784 37.6089C57.7225 37.5686 57.6819 37.4979 57.6781 37.4244C57.7425 37.2623 58.0438 37.321 58.0427 37.4954C57.9912 37.582 57.8814 37.6295 57.783 37.6076L57.784 37.6089Z" fill="#FFB61D"/>
<path d="M63.6383 43.7635C63.5801 43.6581 63.6789 43.5064 63.799 43.5155C63.9191 43.5246 63.9946 43.6869 63.9254 43.7855C63.8563 43.8841 63.6799 43.87 63.6258 43.7624L63.6383 43.7635Z" fill="#FFB61D"/>
<path d="M60.5398 38.4796C60.5801 38.4181 60.6508 38.3776 60.7242 38.3737C60.8864 38.4381 60.8277 38.7394 60.6533 38.7383C60.5667 38.6868 60.5192 38.577 60.541 38.4786L60.5398 38.4796Z" fill="#FFB61D"/>
<path d="M68.898 35.2668C68.9067 35.3303 68.9154 35.3937 68.9241 35.4572C68.8072 35.5166 68.6621 35.5171 68.5449 35.4583C68.5408 35.292 68.7509 35.1636 68.897 35.2431L68.898 35.2668Z" fill="#FFB61D"/>
<path d="M56.9131 47.4644C56.8339 47.3055 56.5304 47.4568 56.6096 47.6157C56.6889 47.7747 56.9924 47.6233 56.9131 47.4644Z" fill="#FFB61D"/>
<path d="M63.941 39.38C63.8153 39.2551 63.5769 39.4951 63.7026 39.62C63.8283 39.7448 64.0667 39.5048 63.941 39.38Z" fill="#FFB61D"/>
<path d="M60.8396 35.3075C60.7603 35.1486 60.4568 35.3 60.5361 35.4589C60.6153 35.6178 60.9188 35.4664 60.8396 35.3075Z" fill="#FFB61D"/>
<path d="M67.7965 43.6842C67.7197 43.5189 67.4039 43.6654 67.4807 43.8308C67.5574 43.9962 67.8732 43.8496 67.7965 43.6842Z" fill="#FFB61D"/>
<path d="M50.3114 43.6486C50.3892 43.8063 50.6903 43.6578 50.6125 43.5001C50.5348 43.3425 50.2336 43.491 50.3114 43.6486Z" fill="#FFB61D"/>
<path d="M62.8029 46.6319C62.7626 46.6934 62.6919 46.734 62.6185 46.7378C62.4563 46.6734 62.515 46.3722 62.6894 46.3733C62.776 46.4248 62.8235 46.5346 62.8017 46.6329L62.8029 46.6319Z" fill="#FFB61D"/>
<path d="M56.948 41.5384C56.8703 41.3807 56.5691 41.5292 56.6469 41.6869C56.7247 41.8446 57.0258 41.6961 56.948 41.5384Z" fill="#FFB61D"/>
<path d="M66.7645 38.3662C66.86 38.4659 66.7586 38.667 66.6217 38.6495C66.5222 38.6207 66.4673 38.4911 66.5159 38.3996C66.5644 38.3081 66.7026 38.2809 66.7822 38.3472L66.7645 38.3662Z" fill="#FFB61D"/>
<path d="M59.6326 48.672C59.5826 48.6218 59.5326 48.5717 59.4825 48.5216C59.5756 48.3723 59.8298 48.3694 59.9264 48.5165C59.8782 48.6292 59.7529 48.7038 59.6308 48.6922L59.6326 48.672Z" fill="#FFB61D"/>
<path d="M68.9579 37.5345C68.9078 37.5845 68.8577 37.6345 68.8075 37.6846C68.6583 37.5915 68.6553 37.3373 68.8024 37.2407C68.9152 37.2888 68.9897 37.4142 68.9782 37.5363L68.9579 37.5345Z" fill="#FFB61D"/>
<path d="M54.4991 37.347C54.5395 37.2855 54.6101 37.245 54.6836 37.2411C54.8457 37.3055 54.7871 37.6068 54.6126 37.6057C54.526 37.5542 54.4786 37.4444 54.5004 37.346L54.4991 37.347Z" fill="#FFB61D"/>
<path d="M50.8248 37.6117C50.7312 37.6621 50.5986 37.6137 50.5595 37.5148C50.5204 37.4159 50.5841 37.2899 50.687 37.2628C50.8245 37.2854 50.8998 37.4758 50.8148 37.5864L50.8248 37.6117Z" fill="#FFB61D"/>
<path d="M62.8144 38.5538C62.8137 38.378 62.4779 38.3794 62.4786 38.5552C62.4794 38.731 62.8152 38.7296 62.8144 38.5538Z" fill="#FFB61D"/>
<path d="M60.9151 44.5951C60.8358 44.4362 60.5323 44.5875 60.6116 44.7464C60.6908 44.9053 60.9943 44.754 60.9151 44.5951Z" fill="#FFB61D"/>
<path d="M69.4707 36.5107C69.5054 36.6855 69.8392 36.6191 69.8044 36.4444C69.7697 36.2696 69.436 36.336 69.4707 36.5107Z" fill="#FFB61D"/>
<path d="M59.5155 41.5333C59.6262 41.4171 59.8453 41.4381 59.932 41.5732C59.87 41.663 59.7769 41.7309 59.6725 41.7626C59.5935 41.711 59.5337 41.6306 59.5072 41.5401L59.5155 41.5333Z" fill="#FFB61D"/>
<path d="M66.5266 41.5129C66.6498 41.4394 66.8342 41.5173 66.8675 41.6568C66.796 41.7545 66.6575 41.7969 66.5436 41.7559C66.4884 41.6962 66.486 41.5949 66.5384 41.5326L66.5266 41.5129Z" fill="#FFB61D"/>
<path d="M59.6473 40.5123C59.603 40.4312 59.7034 40.3313 59.7949 40.3439C59.8865 40.3565 59.9528 40.437 59.9974 40.5179C59.9285 40.6601 59.6881 40.6652 59.6131 40.5261L59.6473 40.5123Z" fill="#FFB61D"/>
<path d="M69.6381 42.52C69.72 42.3856 69.9776 42.4706 69.9634 42.6273C69.9331 42.7167 69.8244 42.7706 69.7349 42.7407C69.6453 42.7107 69.5909 42.6023 69.6204 42.5126L69.6381 42.52Z" fill="#FFB61D"/>
<path d="M58.6891 41.4645C58.7946 41.4064 58.9463 41.5052 58.9372 41.6253C58.9281 41.7454 58.7658 41.8209 58.6672 41.7517C58.5686 41.6825 58.5826 41.5062 58.6902 41.4521L58.6891 41.4645Z" fill="#FFB61D"/>
<path d="M59.559 43.5384C59.6225 43.4842 59.7249 43.4829 59.7899 43.5353C59.7955 43.6708 59.7152 43.8061 59.5935 43.866C59.4723 43.8095 59.4501 43.6157 59.5552 43.5331L59.559 43.5384Z" fill="#FFB61D"/>
<path d="M68.4627 43.6928C68.5884 43.8176 68.8268 43.5776 68.7011 43.4528C68.5755 43.328 68.337 43.568 68.4627 43.6928Z" fill="#FFB61D"/>
<path d="M56.8334 37.6525C56.6899 37.5332 56.8578 37.247 57.032 37.314C57.1106 37.4484 56.9939 37.6486 56.8382 37.6464L56.8334 37.6525Z" fill="#FFB61D"/>
<path d="M56.8725 36.4038C56.7948 36.2461 56.4936 36.3946 56.5714 36.5523C56.6492 36.71 56.9503 36.5615 56.8725 36.4038Z" fill="#FFB61D"/>
<path d="M49.4018 36.628C49.3418 36.5838 49.3007 36.5147 49.2903 36.4409C49.352 36.3517 49.4441 36.284 49.5477 36.2517C49.6527 36.3783 49.5651 36.607 49.4025 36.6311L49.4018 36.628Z" fill="#FFB61D"/>
<path d="M66.6214 44.8035C66.5027 44.8032 66.4123 44.6541 66.4686 44.5495C66.5249 44.445 66.7015 44.4398 66.7622 44.5419C66.823 44.6439 66.7316 44.7978 66.613 44.7916L66.6214 44.8035Z" fill="#FFB61D"/>
<path d="M68.6594 34.3515C68.7656 34.3862 68.8589 34.4587 68.9189 34.553C68.8342 34.6765 68.6427 34.7092 68.5218 34.6207C68.5564 34.531 68.591 34.4413 68.6256 34.3516L68.6594 34.3515Z" fill="#FFB61D"/>
<path d="M58.6889 43.5378C58.6907 43.4335 58.8022 43.346 58.9039 43.369C59.0057 43.392 59.0686 43.5191 59.0253 43.614C58.9077 43.694 58.7265 43.6554 58.6518 43.5343L58.6889 43.5378Z" fill="#FFB61D"/>
<path d="M60.5198 39.5453C60.4644 39.4398 60.5518 39.2903 60.6709 39.2867C60.79 39.2832 60.8861 39.4272 60.837 39.5358C60.749 39.5946 60.6256 39.595 60.5372 39.5366L60.5198 39.5453Z" fill="#FFB61D"/>
<path d="M52.6673 35.424C52.6307 35.5658 52.4259 35.6282 52.3165 35.5309C52.2752 35.4434 52.3198 35.3241 52.4106 35.291C52.5014 35.2579 52.6161 35.3273 52.6229 35.4237L52.6673 35.424Z" fill="#FFB61D"/>
<path d="M51.2752 41.6947C51.2412 41.6073 51.2907 41.4969 51.3786 41.4642C51.4664 41.4316 51.5761 41.4828 51.6074 41.5711C51.5789 41.7094 51.3929 41.7863 51.2751 41.7084L51.2752 41.6947Z" fill="#FFB61D"/>
<path d="M54.5361 43.7258C54.4763 43.6804 54.4349 43.6115 54.4229 43.5374C54.4851 43.4759 54.5474 43.4144 54.6096 43.3529C54.7708 43.4218 54.7117 43.721 54.5364 43.7235L54.5361 43.7258Z" fill="#FFB61D"/>
<path d="M51.5137 44.7723C51.3942 44.816 51.2928 44.6213 51.3809 44.5296C51.469 44.4378 51.6409 44.4843 51.7023 44.5957C51.64 44.6582 51.5778 44.7207 51.5155 44.7833L51.5137 44.7723Z" fill="#FFB61D"/>
<path d="M51.3642 35.6471C51.2762 35.5389 51.3755 35.3441 51.5147 35.3517C51.6016 35.4033 51.6496 35.5129 51.6285 35.6117C51.5475 35.6513 51.4531 35.6628 51.3649 35.6439L51.3642 35.6471Z" fill="#FFB61D"/>
<path d="M65.8588 40.5553C65.9654 40.5842 65.9212 40.7688 65.8133 40.7927C65.7054 40.8165 65.6023 40.743 65.5176 40.6719C65.5931 40.569 65.7375 40.5228 65.8587 40.5628L65.8588 40.5553Z" fill="#FFB61D"/>
<path d="M67.6584 40.6533C67.5997 40.6103 67.541 40.5672 67.4822 40.5242C67.5747 40.3692 67.8373 40.3644 67.9354 40.5159C67.8828 40.6021 67.7733 40.6493 67.6745 40.6283L67.6584 40.6533Z" fill="#FFB61D"/>
<path d="M69.4677 35.5979C69.4014 35.5053 69.489 35.354 69.6027 35.3582C69.7165 35.3624 69.7948 35.5074 69.7427 35.6086C69.657 35.6684 69.5342 35.669 69.4479 35.61L69.4677 35.5979Z" fill="#FFB61D"/>
<path d="M62.8044 41.7255C62.6959 41.8132 62.5014 41.7143 62.5085 41.575C62.5446 41.5123 62.6153 41.4711 62.6876 41.4707C62.7891 41.5069 62.8527 41.6264 62.8261 41.7309L62.8044 41.7255Z" fill="#FFB61D"/>
<path d="M53.6475 45.2887C53.7067 45.3336 53.7658 45.3785 53.8249 45.4234C53.7289 45.5155 53.6078 45.5812 53.4783 45.6116C53.3896 45.5048 53.4914 45.3099 53.6297 45.3217L53.6475 45.2887Z" fill="#FFB61D"/>
<path d="M52.6847 37.3463C52.6054 37.1874 52.3019 37.3387 52.3812 37.4976C52.4604 37.6565 52.7639 37.5052 52.6847 37.3463Z" fill="#FFB61D"/>
<path d="M51.3271 45.5009C51.3722 45.441 51.4413 45.3997 51.5154 45.3881C51.5752 45.4333 51.6166 45.5022 51.6285 45.5761C51.5658 45.6388 51.5032 45.7014 51.4405 45.764C51.3554 45.7092 51.3089 45.6003 51.3281 45.5009L51.3271 45.5009Z" fill="#FFB61D"/>
<path d="M58.5813 35.5287C58.6867 35.658 58.9335 35.4567 58.8281 35.3275C58.7228 35.1983 58.4759 35.3995 58.5813 35.5287Z" fill="#FFB61D"/>
<path d="M67.5591 39.5377C67.55 39.3643 67.8491 39.2951 67.9171 39.4548C67.8951 39.614 67.6444 39.6741 67.5526 39.5422L67.5591 39.5377Z" fill="#FFB61D"/>
<path d="M69.6386 41.6879C69.5769 41.8052 69.3521 41.7004 69.4022 41.5778C69.4148 41.4827 69.5344 41.4198 69.6199 41.4632C69.7054 41.5067 69.7251 41.6403 69.6557 41.7066L69.6386 41.6879Z" fill="#FFB61D"/>
<path d="M59.8196 38.5051C59.7002 38.5489 59.5987 38.3541 59.6868 38.2624C59.775 38.1706 59.9469 38.2171 60.0082 38.3285C59.946 38.391 59.8837 38.4536 59.8214 38.5161L59.8196 38.5051Z" fill="#FFB61D"/>
<path d="M52.5756 45.4024C52.6565 45.356 52.7585 45.4573 52.7457 45.5496C52.7329 45.6419 52.6514 45.7085 52.5702 45.7541C52.4339 45.6879 52.4395 45.4519 52.5788 45.3922L52.5756 45.4024Z" fill="#FFB61D"/>
<path d="M55.4831 35.6862C55.4447 35.5269 55.65 35.3431 55.7687 35.456C55.7613 35.5459 55.7505 35.6436 55.6874 35.708C55.6243 35.7724 55.4904 35.7678 55.4649 35.6813L55.4831 35.6862Z" fill="#FFB61D"/>
<path d="M62.9569 47.3861C62.966 47.5595 62.6669 47.6287 62.5989 47.469C62.6209 47.3098 62.8716 47.2497 62.9634 47.3816L62.9569 47.3861Z" fill="#FFB61D"/>
<path d="M54.6487 45.4222C54.4764 45.4458 54.5214 45.7749 54.6937 45.7513C54.866 45.7278 54.821 45.3987 54.6487 45.4222Z" fill="#FFB61D"/>
<path d="M62.6128 45.3898C62.7622 45.4853 62.7643 45.7405 62.6165 45.8384C62.4676 45.741 62.467 45.4856 62.6155 45.3876L62.6128 45.3898Z" fill="#FFB61D"/>
<path d="M55.7044 38.4775C55.5852 38.5582 55.4023 38.52 55.3253 38.3983C55.4039 38.3347 55.4941 38.269 55.5948 38.2771C55.6956 38.2852 55.7823 38.4144 55.7151 38.4899L55.7044 38.4775Z" fill="#FFB61D"/>
<path d="M58.8409 47.6531C58.7792 47.7703 58.5544 47.6656 58.6046 47.5429C58.6171 47.4479 58.7367 47.3849 58.8222 47.4284C58.9078 47.4718 58.9274 47.6055 58.858 47.6717L58.8409 47.6531Z" fill="#FFB61D"/>
<path d="M49.626 39.6377C49.5065 39.6815 49.4051 39.4867 49.4932 39.395C49.5813 39.3032 49.7532 39.3497 49.8146 39.4611C49.7523 39.5237 49.6901 39.5862 49.6278 39.6487L49.626 39.6377Z" fill="#FFB61D"/>
<path d="M65.9387 34.5902C65.877 34.7074 65.6522 34.6027 65.7023 34.48C65.7149 34.385 65.8345 34.322 65.92 34.3655C66.0056 34.4089 66.0252 34.5426 65.9558 34.6088L65.9387 34.5902Z" fill="#FFB61D"/>
<path d="M61.661 36.3684C61.7068 36.4876 61.6603 36.6355 61.5544 36.7069C61.485 36.6213 61.4112 36.5189 61.4347 36.4113C61.4582 36.3036 61.644 36.2607 61.67 36.3678L61.661 36.3684Z" fill="#FFB61D"/>
<path d="M58.8402 42.5176C58.9279 42.6261 58.8289 42.8205 58.6896 42.8135C58.6269 42.7774 58.5858 42.7067 58.5854 42.6344C58.6216 42.5329 58.7411 42.4693 58.8455 42.4959L58.8402 42.5176Z" fill="#FFB61D"/>
<path d="M59.609 35.5721C59.5987 35.7366 59.9128 35.7563 59.9232 35.5918C59.9335 35.4274 59.6193 35.4076 59.609 35.5721Z" fill="#FFB61D"/>
<path d="M64.8043 38.2899C64.8645 38.3341 64.9057 38.4033 64.9157 38.4773C64.8622 38.563 64.7533 38.6102 64.6542 38.5905C64.5646 38.484 64.666 38.2878 64.8048 38.2993L64.8043 38.2899Z" fill="#FFB61D"/>
<path d="M60.7649 48.5206C60.7198 48.5805 60.6507 48.6218 60.5765 48.6333C60.5167 48.5883 60.4754 48.5194 60.464 48.4455C60.5213 48.3773 60.6033 48.3156 60.6913 48.3291C60.7793 48.3426 60.8374 48.4722 60.7656 48.5247L60.7649 48.5206Z" fill="#FFB61D"/>
<path d="M67.8618 38.4005C67.7854 38.5189 67.6076 38.5564 67.4899 38.479C67.4362 38.3985 67.5212 38.2827 67.6177 38.2754C67.7142 38.2681 67.8013 38.3324 67.8672 38.4033L67.8618 38.4005Z" fill="#FFB61D"/>
<path d="M53.4614 37.5572C53.3881 37.4686 53.4727 37.3096 53.5876 37.3143C53.7026 37.3191 53.7766 37.4729 53.7143 37.5697C53.652 37.6664 53.4903 37.669 53.4189 37.5789L53.4614 37.5572Z" fill="#FFB61D"/>
<path d="M56.8341 46.5581C56.8562 46.6181 56.8434 46.6896 56.8017 46.738C56.6859 46.7922 56.5224 46.6826 56.5512 46.558C56.5801 46.4334 56.81 46.4376 56.8164 46.5653L56.8341 46.5581Z" fill="#FFB61D"/>
<path d="M66.6953 43.6395C66.611 43.6322 66.605 43.4941 66.6746 43.446C66.7442 43.3979 66.8378 43.4138 66.9205 43.4317C66.96 43.4841 66.9739 43.5549 66.9574 43.6184C66.8757 43.6567 66.7813 43.6673 66.6932 43.6482L66.6953 43.6395Z" fill="#FFB61D"/>
<path d="M58.6888 37.3079C58.7644 37.3079 58.8401 37.3078 58.9157 37.3077C58.9512 37.3636 58.9646 37.4331 58.9524 37.4982C58.8673 37.5321 58.7692 37.5656 58.6877 37.5239C58.6061 37.4822 58.6006 37.3288 58.6916 37.3184L58.6888 37.3079Z" fill="#FFB61D"/>
<path d="M62.9688 37.3926C62.9099 37.2387 62.6159 37.3511 62.6748 37.505C62.7337 37.6589 63.0276 37.5465 62.9688 37.3926Z" fill="#FFB61D"/>
<path d="M67.5654 37.649C67.5462 37.5638 67.5644 37.4621 67.6366 37.4129C67.7088 37.3638 67.8334 37.4082 67.8336 37.4956C67.8201 37.5716 67.8022 37.655 67.7404 37.7013C67.6787 37.7476 67.563 37.7154 67.5661 37.6383L67.5654 37.649Z" fill="#FFB61D"/>
<path d="M49.6429 37.7211C49.5242 37.7612 49.3902 37.6197 49.4367 37.5033C49.4832 37.387 49.6778 37.3768 49.7362 37.4877C49.6997 37.5533 49.6633 37.619 49.6268 37.6846L49.6429 37.7211Z" fill="#FFB61D"/>
<path d="M54.3471 47.6163C54.3345 47.4773 54.5316 47.3751 54.638 47.4654C54.6839 47.5418 54.6523 47.654 54.5732 47.6953C54.4942 47.7366 54.384 47.6985 54.3475 47.6171L54.3471 47.6163Z" fill="#FFB61D"/>
<path d="M63.877 42.7242C63.9977 42.6135 63.7863 42.3831 63.6657 42.4938C63.545 42.6044 63.7564 42.8349 63.877 42.7242Z" fill="#FFB61D"/>
<path d="M57.8577 43.8688C57.7538 43.9019 57.6484 43.7679 57.6925 43.6682C57.7366 43.5684 57.8851 43.5441 57.9703 43.6121C57.9957 43.711 57.946 43.8242 57.8559 43.8724L57.8577 43.8688Z" fill="#FFB61D"/>
<path d="M64.604 34.791C64.4905 34.6801 64.6598 34.4504 64.7993 34.526C64.9083 34.6335 64.7463 34.8547 64.6109 34.7833L64.604 34.791Z" fill="#FFB61D"/>
<path d="M57.9335 38.4369C57.8067 38.4512 57.6449 38.4426 57.5967 38.3245C57.6728 38.2257 57.8133 38.182 57.932 38.22C57.987 38.2806 57.9892 38.3821 57.9369 38.445L57.9335 38.4369Z" fill="#FFB61D"/>
<path d="M63.6293 36.3521C63.7576 36.299 63.9116 36.4602 63.8527 36.5859C63.7923 36.6496 63.6781 36.6504 63.6169 36.5874C63.5557 36.5244 63.5597 36.4103 63.6252 36.3518L63.6293 36.3521Z" fill="#FFB61D"/>
<path d="M62.5778 35.3828C62.6229 35.3229 62.692 35.2815 62.7662 35.2701C62.8261 35.315 62.8673 35.384 62.8786 35.458C62.8337 35.5179 62.7647 35.5591 62.6907 35.5703C62.6306 35.5256 62.5894 35.4563 62.579 35.3821L62.5778 35.3828Z" fill="#FFB61D"/>
<path d="M57.9221 40.6061C57.8412 40.7442 57.6011 40.7366 57.5291 40.5937C57.5978 40.4505 57.8391 40.4438 57.9156 40.583L57.9221 40.6061Z" fill="#FFB61D"/>
<path d="M52.5704 44.4757C52.6515 44.4649 52.7127 44.5676 52.6863 44.6451C52.6598 44.7225 52.5774 44.7679 52.4969 44.7823C52.4372 44.7374 52.396 44.6685 52.3849 44.5946C52.4295 44.5344 52.4988 44.4932 52.5729 44.4828L52.5704 44.4757Z" fill="#FFB61D"/>
<path d="M60.898 46.5914C60.9015 46.6503 60.9049 46.7093 60.9083 46.7683C60.8353 46.8727 60.6349 46.8164 60.627 46.6893C60.619 46.5621 60.8109 46.4814 60.8963 46.576L60.898 46.5914Z" fill="#FFB61D"/>
<path d="M64.8046 43.4245C64.8646 43.4696 64.9059 43.5387 64.9173 43.6128C64.8724 43.6727 64.8034 43.714 64.7294 43.7252C64.6696 43.6803 64.6283 43.6114 64.6171 43.5374C64.6618 43.4773 64.7312 43.4361 64.8053 43.4256L64.8046 43.4245Z" fill="#FFB61D"/>
<path d="M55.4872 47.6901C55.4596 47.6065 55.4829 47.5021 55.5576 47.4555C55.6323 47.409 55.7522 47.4503 55.7648 47.5375C55.7328 47.6027 55.7009 47.6678 55.6689 47.733C55.6051 47.7257 55.5413 47.7184 55.4774 47.711L55.4872 47.6901Z" fill="#FFB61D"/>
<path d="M60.923 36.5154C60.9317 36.6166 60.8237 36.7094 60.725 36.6856C60.6263 36.6618 60.5726 36.5299 60.6265 36.4439C60.7095 36.3644 60.8723 36.4095 60.9026 36.5203L60.923 36.5154Z" fill="#FFB61D"/>
<path d="M52.415 42.5891C52.4903 42.4796 52.7041 42.5744 52.6736 42.7037C52.6419 42.7689 52.5712 42.8131 52.4987 42.813C52.4153 42.781 52.3742 42.6693 52.4171 42.5909L52.415 42.5891Z" fill="#FFB61D"/>
<path d="M67.6809 36.2493C67.7733 36.3929 67.5916 36.6108 67.4337 36.5457C67.4118 36.4039 67.5314 36.2567 67.6747 36.2491L67.6809 36.2493Z" fill="#FFB61D"/>
<path d="M51.3237 39.4607C51.3193 39.3196 51.5137 39.22 51.6257 39.306C51.6839 39.4625 51.4159 39.6021 51.321 39.4648L51.3237 39.4607Z" fill="#FFB61D"/>
<path d="M69.4853 39.3456C69.5366 39.2782 69.6321 39.2484 69.7126 39.2745C69.7498 39.3266 69.7632 39.395 69.7483 39.4573C69.6861 39.4936 69.6239 39.5299 69.5617 39.5662C69.4793 39.5328 69.4395 39.4218 69.482 39.3436L69.4853 39.3456Z" fill="#FFB61D"/>
<path d="M61.7513 35.3759C61.8608 35.4512 61.766 35.665 61.6367 35.6344C61.5715 35.6028 61.5273 35.5321 61.5274 35.4596C61.5593 35.3762 61.6711 35.3351 61.7494 35.3779L61.7513 35.3759Z" fill="#FFB61D"/>
<path d="M52.6148 36.433C52.7243 36.5084 52.6295 36.7221 52.5002 36.6916C52.435 36.6599 52.3908 36.5892 52.3909 36.5168C52.4228 36.4334 52.5346 36.3923 52.6129 36.4351L52.6148 36.433Z" fill="#FFB61D"/>
<path d="M61.8966 39.3086C61.8153 39.4259 61.6372 39.4621 61.5166 39.3857C61.5144 39.2075 61.8226 39.1469 61.8881 39.3127L61.8966 39.3086Z" fill="#FFB61D"/>
<path d="M55.4045 43.6887C55.4496 43.6288 55.5187 43.5875 55.5929 43.5761C55.6528 43.6209 55.6941 43.6899 55.7053 43.7639C55.6604 43.8238 55.5914 43.865 55.5174 43.8762C55.4573 43.8316 55.4161 43.7622 55.4057 43.688L55.4045 43.6887Z" fill="#FFB61D"/>
<path d="M56.914 38.5535C56.8689 38.6134 56.7998 38.6547 56.7256 38.6662C56.6657 38.6213 56.6244 38.5523 56.6132 38.4783C56.6581 38.4184 56.7271 38.3772 56.8011 38.366C56.8612 38.4107 56.9024 38.48 56.9128 38.5542L56.914 38.5535Z" fill="#FFB61D"/>
<path d="M67.5692 41.6547C67.6287 41.5166 67.8626 41.5111 67.9284 41.6463C67.8614 41.7909 67.6184 41.7993 67.5416 41.6596L67.5692 41.6547Z" fill="#FFB61D"/>
<path d="M61.7442 48.5166C61.6816 48.5548 61.6191 48.5929 61.5565 48.6311C61.497 48.5877 61.4566 48.5191 61.4474 48.4461C61.5015 48.3606 61.6104 48.3135 61.7097 48.3328C61.7458 48.3874 61.7586 48.4567 61.7443 48.5206L61.7442 48.5166Z" fill="#FFB61D"/>
<path d="M61.5959 46.4828C61.561 46.3986 61.6984 46.3571 61.7886 46.3703C61.8277 46.4513 61.8389 46.5455 61.8198 46.6335C61.7656 46.6696 61.6968 46.6831 61.633 46.67C61.5969 46.6156 61.5841 46.5463 61.5984 46.4826L61.5959 46.4828Z" fill="#FFB61D"/>
<path d="M55.4045 37.5725C55.4496 37.5126 55.5187 37.4713 55.5929 37.4599C55.6528 37.5047 55.6941 37.5737 55.7053 37.6477C55.6604 37.7076 55.5914 37.7488 55.5174 37.76C55.4573 37.7154 55.4161 37.646 55.4057 37.5718L55.4045 37.5725Z" fill="#FFB61D"/>
<path d="M65.7101 39.347C65.7934 39.3101 65.8362 39.448 65.8226 39.5381C65.7417 39.5774 65.6478 39.5894 65.5596 39.5717C65.5238 39.5169 65.5105 39.448 65.5232 39.3838C65.5776 39.3478 65.6469 39.3349 65.7106 39.3492L65.7101 39.347Z" fill="#FFB61D"/>
<path d="M52.6819 38.4793C52.7009 38.5421 52.689 38.6136 52.6506 38.6668C52.5853 38.6823 52.5137 38.6688 52.4584 38.6308C52.459 38.555 52.4596 38.4792 52.4601 38.4035C52.5238 38.3216 52.6843 38.3747 52.6866 38.4784L52.6819 38.4793Z" fill="#FFB61D"/>
<path d="M55.7505 41.7674C55.6752 41.8769 55.4614 41.7821 55.492 41.6528C55.5237 41.5876 55.5944 41.5434 55.6668 41.5435C55.7502 41.5754 55.7913 41.6872 55.7485 41.7655L55.7505 41.7674Z" fill="#FFB61D"/>
<path d="M53.7396 38.262C53.8131 38.2781 53.8403 38.3906 53.7823 38.4385C53.6568 38.4512 53.4966 38.4446 53.4487 38.328C53.5013 38.2239 53.6491 38.1822 53.7484 38.2435L53.7396 38.262Z" fill="#FFB61D"/>
<path d="M57.8579 47.5019C57.9178 47.547 57.9591 47.6161 57.9705 47.6903C57.9257 47.7502 57.8567 47.7915 57.7827 47.8027C57.7228 47.7578 57.6816 47.6888 57.6704 47.6148C57.715 47.5547 57.7844 47.5135 57.8586 47.5031L57.8579 47.5019Z" fill="#FFB61D"/>
<path d="M60.5379 41.4969C60.6336 41.4271 60.7895 41.4693 60.837 41.5777C60.7607 41.6762 60.6204 41.7197 60.5018 41.6815C60.451 41.6304 60.4745 41.5286 60.5425 41.5048L60.5379 41.4969Z" fill="#FFB61D"/>
<path d="M54.6934 40.7858C54.6181 40.8952 54.4043 40.8005 54.4349 40.6712C54.4665 40.606 54.5372 40.5618 54.6097 40.5619C54.6931 40.5938 54.7342 40.7056 54.6914 40.7839L54.6934 40.7858Z" fill="#FFB61D"/>
<path d="M60.7312 43.4972C60.6491 43.3711 60.4084 43.5279 60.4905 43.654C60.5726 43.78 60.8133 43.6233 60.7312 43.4972Z" fill="#FFB61D"/>
<path d="M52.6626 41.6127C52.6461 41.7707 52.3712 41.7995 52.3223 41.6484C52.3765 41.5268 52.5713 41.5044 52.6516 41.6105L52.6626 41.6127Z" fill="#FFB61D"/>
<path d="M59.6751 47.7165C59.5119 47.6548 59.5708 47.3512 59.7452 47.3549C59.8256 47.4715 59.7888 47.6518 59.6692 47.7276L59.6751 47.7165Z" fill="#FFB61D"/>
<path d="M51.5754 38.4637C51.5178 38.4215 51.4602 38.3793 51.4026 38.3372C51.4625 38.1921 51.7088 38.1867 51.775 38.329C51.7323 38.389 51.6636 38.4298 51.5905 38.4387L51.5754 38.4637Z" fill="#FFB61D"/>
<path d="M62.6523 44.4417C62.763 44.5172 62.7416 44.7179 62.6175 44.7684C62.4675 44.7187 62.4947 44.4467 62.6515 44.4276L62.6523 44.4417Z" fill="#FFB61D"/>
<path d="M67.595 35.6492C67.6771 35.7753 67.9179 35.6185 67.8358 35.4924C67.7537 35.3664 67.5129 35.5231 67.595 35.6492Z" fill="#FFB61D"/>
<path d="M60.5468 47.393C60.6072 47.2546 60.8423 47.2504 60.9077 47.3865C60.8441 47.5248 60.6067 47.5234 60.5447 47.3845L60.5468 47.393Z" fill="#FFB61D"/>
<path d="M56.6647 35.4424C56.7069 35.3848 56.749 35.3271 56.7912 35.2695C56.9362 35.3294 56.9416 35.5757 56.7994 35.6419C56.7393 35.5992 56.6985 35.5306 56.6897 35.4575L56.6647 35.4424Z" fill="#FFB61D"/>
<path d="M65.7157 38.431C65.6193 38.4153 65.6314 38.2491 65.7233 38.2161C65.8152 38.1831 65.9156 38.2474 65.9722 38.327C65.919 38.4126 65.8099 38.4592 65.7113 38.4387L65.7157 38.431Z" fill="#FFB61D"/>
<path d="M64.6245 41.5782C64.6722 41.4715 64.8236 41.4279 64.9207 41.493C64.9502 41.5755 64.8968 41.6774 64.8122 41.7002C64.7276 41.7229 64.6303 41.6615 64.6144 41.5754L64.6245 41.5782Z" fill="#FFB61D"/>
<path d="M55.6638 40.4133C55.7602 40.429 55.7482 40.5952 55.6562 40.6282C55.5643 40.6612 55.4639 40.5969 55.4073 40.5173C55.4605 40.4317 55.5696 40.3851 55.6682 40.4056L55.6638 40.4133Z" fill="#FFB61D"/>
<path d="M63.6686 41.7653C63.7507 41.8914 63.9915 41.7346 63.9094 41.6086C63.8273 41.4825 63.5865 41.6393 63.6686 41.7653Z" fill="#FFB61D"/>
<path d="M56.9923 45.6554C57.1183 45.5733 56.9615 45.3325 56.8355 45.4146C56.7094 45.4967 56.8662 45.7375 56.9923 45.6554Z" fill="#FFB61D"/>
<path d="M66.6771 39.5963C66.6195 39.5541 66.5618 39.5119 66.5042 39.4698C66.5641 39.3247 66.8104 39.3193 66.8766 39.4616C66.8339 39.5216 66.7653 39.5624 66.6922 39.5713L66.6771 39.5963Z" fill="#FFB61D"/>
<path d="M65.8918 41.5694C65.8314 41.7078 65.5963 41.712 65.5309 41.5759C65.5945 41.4377 65.8319 41.439 65.8939 41.5779L65.8918 41.5694Z" fill="#FFB61D"/>
<path d="M68.8366 39.4552C68.7762 39.5936 68.5411 39.5978 68.4757 39.4617C68.5393 39.3235 68.7767 39.3248 68.8387 39.4637L68.8366 39.4552Z" fill="#FFB61D"/>
<path d="M54.317 44.6558C54.3582 44.5694 54.3995 44.4831 54.4407 44.3967C54.523 44.4531 54.5974 44.5471 54.574 44.6441C54.5505 44.741 54.3796 44.7686 54.3598 44.6709L54.317 44.6558Z" fill="#FFB61D"/>
<path d="M69.7743 38.4706C69.688 38.4293 69.6016 38.3881 69.5152 38.3468C69.5716 38.2646 69.6657 38.1901 69.7626 38.2136C69.8596 38.2371 69.8872 38.408 69.7894 38.4278L69.7743 38.4706Z" fill="#FFB61D"/>
<path d="M64.6555 45.3909C64.7219 45.3729 64.7959 45.3858 64.8522 45.4253C64.8225 45.5324 64.75 45.6271 64.6544 45.6839C64.5371 45.6403 64.5389 45.437 64.657 45.3956L64.6555 45.3909Z" fill="#FFB61D"/>
<path d="M49.4726 40.6061C49.4254 40.4344 49.756 40.3479 49.7988 40.5207C49.751 40.624 49.6026 40.6639 49.5095 40.5984L49.4726 40.6061Z" fill="#FFB61D"/>
<path d="M49.4814 38.5065C49.385 38.4909 49.3971 38.3246 49.489 38.2916C49.5809 38.2587 49.6813 38.323 49.7379 38.4026C49.6847 38.4881 49.5756 38.5348 49.4771 38.5142L49.4814 38.5065Z" fill="#FFB61D"/>
<path d="M63.8674 44.443C63.8632 44.5189 63.8159 44.5908 63.748 44.6249C63.609 44.561 63.6104 44.3221 63.7502 44.2599C63.8099 44.3028 63.8505 44.3713 63.8593 44.4442L63.8674 44.443Z" fill="#FFB61D"/>
<path d="M51.5171 43.8892C51.4029 43.8905 51.3855 43.7253 51.4084 43.6134C51.4658 43.5563 51.5697 43.5557 51.6277 43.6122C51.653 43.7112 51.6032 43.8243 51.5132 43.8725L51.5171 43.8892Z" fill="#FFB61D"/>
<path d="M64.9081 44.597C64.8712 44.4494 64.5892 44.5199 64.6261 44.6676C64.6631 44.8152 64.9451 44.7447 64.9081 44.597Z" fill="#FFB61D"/>
<path d="M64.7619 36.6569C64.6805 36.7028 64.5922 36.5705 64.64 36.4902C64.6878 36.4099 64.7967 36.3922 64.8898 36.4004C64.9277 36.4988 64.8641 36.6232 64.7621 36.6502L64.7619 36.6569Z" fill="#FFB61D"/>
<path d="M61.7045 38.2991C61.8009 38.3148 61.7888 38.481 61.6969 38.514C61.605 38.5469 61.5045 38.4827 61.448 38.4031C61.5012 38.3175 61.6102 38.2708 61.7088 38.2914L61.7045 38.2991Z" fill="#FFB61D"/>
<path d="M50.6891 39.3709C50.7363 39.5425 50.4057 39.629 50.3628 39.4563C50.4106 39.3529 50.559 39.3131 50.6522 39.3786L50.6891 39.3709Z" fill="#FFB61D"/>
<path d="M55.7413 42.5183C55.8176 42.6029 55.7792 42.7604 55.6725 42.8004C55.5041 42.7621 55.5863 42.4391 55.7526 42.4858L55.7413 42.5183Z" fill="#FFB61D"/>
<path d="M58.7786 39.2691C58.789 39.3333 58.7994 39.3975 58.8097 39.4617C58.714 39.5333 58.556 39.4924 58.507 39.3834C58.5579 39.2977 58.6672 39.2511 58.7642 39.2739L58.7786 39.2691Z" fill="#FFB61D"/>
<path d="M53.519 46.7088C53.3636 46.7458 53.3416 46.4615 53.4768 46.3764C53.5993 46.433 53.624 46.6274 53.5196 46.7129L53.519 46.7088Z" fill="#FFB61D"/>
<path d="M56.9475 48.4928C57.0439 48.5084 57.0318 48.6747 56.9399 48.7076C56.848 48.7406 56.7475 48.6763 56.691 48.5967C56.7441 48.5112 56.8532 48.4645 56.9518 48.4851L56.9475 48.4928Z" fill="#FFB61D"/>
<path d="M64.7633 39.31C64.7818 39.3727 64.7702 39.4435 64.7327 39.497C64.6336 39.5198 64.5193 39.4755 64.4722 39.3854C64.5252 39.2812 64.6729 39.2394 64.7726 39.3004L64.7633 39.31Z" fill="#FFB61D"/>
<path d="M64.4657 35.459C64.5079 35.398 64.5781 35.3572 64.6521 35.3508C64.7676 35.3984 64.7684 35.5965 64.6533 35.645C64.5906 35.5826 64.5278 35.5203 64.4651 35.458L64.4657 35.459Z" fill="#FFB61D"/>
<path d="M52.5346 39.4573C52.4499 39.5337 52.2924 39.4952 52.2524 39.3886C52.2908 39.2202 52.6137 39.3023 52.567 39.4686L52.5346 39.4573Z" fill="#FFB61D"/>
<path d="M60.8827 42.6178C60.9299 42.7894 60.5993 42.8759 60.5565 42.7031C60.6043 42.5998 60.7527 42.5599 60.8458 42.6254L60.8827 42.6178Z" fill="#FFB61D"/>
<path d="M62.4977 36.3557C62.5795 36.3168 62.6897 36.3576 62.7263 36.4405C62.6645 36.5021 62.6027 36.5636 62.5408 36.6252C62.4393 36.5872 62.4137 36.4281 62.4982 36.3602L62.4977 36.3557Z" fill="#FFB61D"/>
<path d="M63.5539 35.6177C63.4788 35.5653 63.4778 35.4365 63.5519 35.3828C63.6261 35.3292 63.7481 35.3706 63.7743 35.4583C63.7308 35.5402 63.6495 35.6011 63.5586 35.6198L63.5539 35.6177Z" fill="#FFB61D"/>
<path d="M63.7973 45.5763C63.7894 45.6811 63.6291 45.7314 63.5628 45.6499C63.5286 45.5506 63.5922 45.4388 63.6817 45.3838C63.7202 45.4456 63.7587 45.5073 63.7972 45.569L63.7973 45.5763Z" fill="#FFB61D"/>
<path d="M70.6935 37.5306C70.6308 37.5491 70.56 37.5375 70.5065 37.5C70.4837 37.4009 70.528 37.2866 70.6181 37.2395C70.7223 37.2925 70.7641 37.4402 70.7031 37.5399L70.6935 37.5306Z" fill="#FFB61D"/>
<path d="M59.594 37.5354C59.5231 37.4418 59.564 37.2859 59.6718 37.2392C59.757 37.2914 59.8035 37.3999 59.7825 37.4976C59.7281 37.5334 59.6589 37.5461 59.5953 37.532L59.594 37.5354Z" fill="#FFB61D"/>
<path d="M64.5931 37.4056C64.6357 37.3473 64.6783 37.289 64.7209 37.2307C64.8135 37.2783 64.8655 37.3935 64.8399 37.4945C64.7786 37.578 64.616 37.5244 64.6165 37.4207L64.5931 37.4056Z" fill="#FFB61D"/>
<path d="M65.7857 46.6719C65.7147 46.5783 65.7557 46.4224 65.8635 46.3757C65.9487 46.4279 65.9951 46.5364 65.9742 46.6341C65.9197 46.6699 65.8506 46.6826 65.7869 46.6685L65.7857 46.6719Z" fill="#FFB61D"/>
<path d="M54.4597 39.5007C54.4115 39.4343 54.4387 39.3268 54.5127 39.2913C54.5868 39.2559 54.6876 39.3022 54.709 39.3815C54.6785 39.4845 54.5558 39.5497 54.4533 39.5175L54.4597 39.5007Z" fill="#FFB61D"/>
<path d="M53.5684 47.245C53.6543 47.286 53.7401 47.327 53.826 47.368C53.7777 47.4643 53.6614 47.5212 53.5557 47.5003C53.5019 47.4374 53.4992 47.3365 53.5497 47.2709L53.5684 47.245Z" fill="#FFB61D"/>
<path d="M61.7994 47.4992C61.809 47.5626 61.8187 47.6261 61.8283 47.6896C61.7744 47.7276 61.7028 47.7393 61.6396 47.7204C61.5292 47.634 61.6702 47.4177 61.7939 47.4839L61.7994 47.4992Z" fill="#FFB61D"/>
<path d="M64.8492 46.633C64.8441 46.709 64.797 46.7809 64.7293 46.8158C64.6404 46.7687 64.5923 46.6559 64.6198 46.5592C64.6816 46.4763 64.8432 46.5306 64.8424 46.6339L64.8492 46.633Z" fill="#FFB61D"/>
<path d="M62.7663 39.4976C62.7166 39.5443 62.6669 39.591 62.6172 39.6377C62.5136 39.6164 62.4737 39.4584 62.5548 39.3904C62.6359 39.3224 62.7844 39.3894 62.7873 39.4952L62.7663 39.4976Z" fill="#FFB61D"/>
<path d="M69.7446 37.423C69.7885 37.5381 69.6871 37.6819 69.5639 37.6791C69.4584 37.5672 69.6166 37.3482 69.756 37.4132L69.7446 37.423Z" fill="#FFB61D"/>
<path d="M69.7139 40.7059C69.6294 40.7414 69.5876 40.6032 69.6011 40.5126C69.6963 40.4444 69.8501 40.4874 69.8961 40.5951C69.8535 40.6547 69.7851 40.6953 69.7124 40.7039L69.7139 40.7059Z" fill="#FFB61D"/>
<path d="M51.6267 37.4963C51.6455 37.6084 51.5003 37.7083 51.4024 37.6508C51.3987 37.5687 51.3997 37.4747 51.4612 37.4202C51.5227 37.3656 51.6535 37.4202 51.6234 37.4966L51.6267 37.4963Z" fill="#FFB61D"/>
<path d="M63.5979 47.652C63.5368 47.6099 63.496 47.5396 63.4896 47.4657C63.5372 47.3501 63.7353 47.3493 63.7838 47.4645C63.7215 47.5272 63.6591 47.5899 63.5968 47.6526L63.5979 47.652Z" fill="#FFB61D"/>
<path d="M56.7259 44.7074C56.666 44.6623 56.6246 44.5932 56.6131 44.5191C56.6583 44.4592 56.7273 44.4178 56.8014 44.4062C56.8744 44.4985 56.8311 44.6567 56.7214 44.699L56.7259 44.7074Z" fill="#FFB61D"/>
<path d="M63.5925 40.7854C63.5335 40.6896 63.6296 40.5439 63.7408 40.5604C63.8523 40.6464 63.713 40.8646 63.588 40.7997L63.5925 40.7854Z" fill="#FFB61D"/>
<path d="M51.7297 40.5007C51.8014 40.6272 51.5771 40.7766 51.488 40.6615C51.4107 40.555 51.617 40.4203 51.7042 40.5189L51.7297 40.5007Z" fill="#FFB61D"/>
<path d="M66.6935 34.519C66.7537 34.4957 66.8265 34.5097 66.8738 34.5535C66.9246 34.6474 66.8196 34.7794 66.7167 34.7509C66.6138 34.7224 66.5916 34.5552 66.6835 34.5008L66.6935 34.519Z" fill="#FFB61D"/>
<path d="M65.8664 44.4017C65.9254 44.4974 65.8293 44.6432 65.7181 44.6267C65.6066 44.5406 65.7459 44.3225 65.8709 44.3873L65.8664 44.4017Z" fill="#FFB61D"/>
<path d="M62.6516 40.8144C62.5526 40.8605 62.4907 40.7007 62.5033 40.5922C62.5566 40.5289 62.6711 40.535 62.7174 40.6036C62.7637 40.6722 62.7266 40.7806 62.648 40.8064L62.6516 40.8144Z" fill="#FFB61D"/>
<path d="M55.7471 39.4196C55.7934 39.4884 55.7626 39.5958 55.6868 39.6296C55.6111 39.6634 55.5105 39.6146 55.4902 39.5342C55.5384 39.4474 55.6486 39.4005 55.7446 39.4259L55.7471 39.4196Z" fill="#FFB61D"/>
<path d="M56.8412 39.5499C56.7776 39.56 56.7141 39.5701 56.6506 39.5802C56.5873 39.4865 56.687 39.3369 56.7978 39.3592C56.8722 39.3757 56.8992 39.4898 56.8401 39.5378L56.8412 39.5499Z" fill="#FFB61D"/>
<path d="M54.5386 36.6307C54.403 36.6648 54.4211 36.4175 54.5333 36.334C54.6519 36.3738 54.6515 36.5798 54.5327 36.6191L54.5386 36.6307Z" fill="#FFB61D"/>
<path d="M53.5585 44.4771C53.6176 44.5729 53.5215 44.7187 53.4102 44.7022C53.2988 44.6161 53.4381 44.3979 53.563 44.4628L53.5585 44.4771Z" fill="#FFB61D"/>
<path d="M52.3584 40.7277C52.3995 40.6757 52.4407 40.6237 52.4819 40.5717C52.5765 40.5755 52.6403 40.7016 52.5874 40.7801C52.5344 40.8586 52.3936 40.8466 52.3546 40.7603L52.3584 40.7277Z" fill="#FFB61D"/>
<path d="M63.6652 38.369C63.6234 38.2891 63.6656 38.1771 63.7497 38.1446C63.8101 38.1848 63.8505 38.2539 63.8559 38.3263C63.8307 38.3984 63.7225 38.423 63.6686 38.3689L63.6652 38.369Z" fill="#FFB61D"/>
<path d="M53.3961 40.7097C53.3543 40.6298 53.3964 40.5178 53.4806 40.4853C53.541 40.5256 53.5813 40.5946 53.5867 40.667C53.5615 40.7391 53.4534 40.7637 53.3994 40.7096L53.3961 40.7097Z" fill="#FFB61D"/>
<path d="M70.7099 36.4005C70.7198 36.4667 70.7297 36.5329 70.7397 36.5991C70.6738 36.6121 70.608 36.6251 70.5422 36.6381C70.4801 36.5396 70.5776 36.3877 70.693 36.4031L70.7099 36.4005Z" fill="#FFB61D"/>
<path d="M54.6182 41.5329C54.6724 41.6341 54.5732 41.7776 54.4594 41.7628C54.4244 41.7072 54.4112 41.6382 54.4232 41.5736C54.4778 41.5375 54.5472 41.5247 54.6111 41.5389L54.6182 41.5329Z" fill="#FFB61D"/>
<path d="M54.4646 38.581C54.346 38.5457 54.3426 38.3403 54.46 38.301C54.5778 38.3399 54.575 38.5457 54.4562 38.5814L54.4646 38.581Z" fill="#FFB61D"/>
<path d="M54.6517 46.6316C54.6587 46.7046 54.6084 46.779 54.5381 46.7998C54.4457 46.7884 54.3929 46.6601 54.4506 46.5871C54.5083 46.514 54.6453 46.5355 54.6778 46.6227L54.6517 46.6316Z" fill="#FFB61D"/>
<path d="M55.5103 45.6933C55.4685 45.6133 55.5107 45.5014 55.5948 45.4688C55.6552 45.5091 55.6956 45.5781 55.701 45.6505C55.6758 45.7226 55.5676 45.7473 55.5137 45.6932L55.5103 45.6933Z" fill="#FFB61D"/>
<path d="M54.4929 35.3836C54.5006 35.2703 54.6345 35.157 54.7213 35.2302C54.733 35.3041 54.7333 35.3901 54.6787 35.4413C54.6241 35.4924 54.5056 35.4541 54.5208 35.3808L54.4929 35.3836Z" fill="#FFB61D"/>
<path d="M64.7663 42.7751C64.6945 42.8106 64.6068 42.7241 64.6225 42.6456C64.6383 42.5671 64.7235 42.518 64.8036 42.5172C64.8696 42.5934 64.8515 42.7263 64.7675 42.7821L64.7663 42.7751Z" fill="#FFB61D"/>
<path d="M56.6616 43.5208C56.7032 43.47 56.7449 43.4191 56.7866 43.3683C56.876 43.3645 56.9446 43.4805 56.8983 43.5571C56.8519 43.6336 56.7173 43.6266 56.6792 43.5456L56.6616 43.5208Z" fill="#FFB61D"/>
<path d="M62.7655 42.8167C62.7011 42.833 62.6303 42.8223 62.5737 42.7877C62.5744 42.6862 62.6628 42.5788 62.7621 42.6C62.8613 42.6212 62.861 42.8087 62.7597 42.8032L62.7655 42.8167Z" fill="#FFB61D"/>
<path d="M61.7805 40.4156C61.8659 40.4391 61.9097 40.555 61.8612 40.6291C61.7897 40.6463 61.7107 40.6295 61.6524 40.5847C61.6922 40.5218 61.7321 40.459 61.7719 40.3961L61.7805 40.4156Z" fill="#FFB61D"/>
<path d="M54.4941 42.4666C54.6173 42.462 54.557 42.6647 54.4595 42.74C54.3951 42.6646 54.415 42.5335 54.4989 42.4806L54.4941 42.4666Z" fill="#FFB61D"/>
<path d="M66.6533 42.48C66.7517 42.5277 66.7259 42.707 66.618 42.7249C66.4898 42.6998 66.5278 42.4572 66.6575 42.4724L66.6533 42.48Z" fill="#FFB61D"/>
<path d="M59.5459 39.4852C59.4843 39.4516 59.5229 39.345 59.5911 39.3286C59.6593 39.3123 59.7272 39.3516 59.7864 39.3893C59.7834 39.4926 59.6194 39.5406 59.5611 39.4552L59.5459 39.4852Z" fill="#FFB61D"/>
<path d="M56.8768 42.743C56.8292 42.8413 56.6499 42.8155 56.632 42.7076C56.6571 42.5795 56.8997 42.6174 56.8844 42.7471L56.8768 42.743Z" fill="#FFB61D"/>
<path d="M51.4848 46.4099C51.5126 46.3212 51.6658 46.3187 51.6964 46.4065C51.6662 46.4946 51.5125 46.4924 51.4849 46.4035L51.4848 46.4099Z" fill="#FFB61D"/>
<path d="M55.5622 48.4486C55.59 48.3599 55.7432 48.3575 55.7738 48.4452C55.7436 48.5333 55.5899 48.5311 55.5623 48.4422L55.5622 48.4486Z" fill="#FFB61D"/>
<path d="M70.6448 35.4531C70.6237 35.5375 70.5099 35.5825 70.4368 35.5351C70.4007 35.4672 70.4287 35.3686 70.5006 35.3411C70.5725 35.3137 70.6651 35.3837 70.648 35.4587L70.6448 35.4531Z" fill="#FFB61D"/>
<path d="M68.6393 45.7156C68.5885 45.6739 68.5376 45.6323 68.4868 45.5906C68.483 45.5012 68.599 45.4325 68.6756 45.4789C68.7521 45.5252 68.7451 45.6599 68.6641 45.698L68.6393 45.7156Z" fill="#FFB61D"/>
<path d="M66.6552 46.7113C66.581 46.6785 66.6085 46.5408 66.6896 46.539C66.7978 46.5423 66.7406 46.7665 66.658 46.6967L66.6552 46.7113Z" fill="#FFB61D"/>
<path d="M55.8674 117.717C51.1145 113.375 47.0914 108.237 44.017 102.581C42.7202 100.195 41.5613 97.5144 42.0467 94.8429C42.9546 89.8456 41.0782 84.8241 39.6 79.9649C38.1218 75.1057 37.0746 69.6183 39.4523 65.1302C35.7015 68.5891 34.1972 73.8303 33.3931 78.8687C31.5289 90.5495 32.5781 102.684 36.4196 113.872C31.909 105.615 31.7317 95.7358 32.1594 86.3369C32.4923 79.0233 33.3102 71.2351 37.9043 65.5349C30.8316 71.303 28.6795 81.0401 27.1188 90.0323C25.6534 98.4759 24.349 107.338 27.0661 115.465C24.5025 110.74 24.9212 105.021 25.4504 99.6709C26.6678 87.3642 28.5421 74.1117 37.1623 65.2444C39.4422 62.8991 42.2251 60.9107 45.4189 60.2045C47.8937 59.6574 50.2779 58.7026 52.4464 57.3904C52.969 54.3294 50.089 51.9192 48.0768 49.5541C45.8235 46.9055 44.4177 43.5466 44.1129 40.0826C43.9325 38.0321 43.502 35.2384 41.4455 35.151C39.755 35.0791 38.4823 33.0393 39.1609 31.4894C39.8395 29.9394 42.2016 29.491 43.401 30.6844C41.6901 24.2701 45.3045 16.8694 51.4151 14.2751C50.4188 12.8501 52.5936 11.1425 54.3203 11.3466C56.0469 11.5506 57.7183 12.5936 59.4137 12.2083C58.8327 11.1852 59.7636 9.82587 60.9106 9.56379C62.0577 9.30172 63.2347 9.79967 64.2636 10.3705C70.868 14.0346 75.2325 21.4238 75.2533 28.9765C75.4241 27.5979 77.4929 27.1259 78.5047 28.0776C79.5166 29.0294 79.4684 30.7329 78.7499 31.9218C78.0314 33.1106 76.8068 33.8912 75.5947 34.5697C75.6253 39.5783 73.7205 44.5742 70.3632 48.291C67.9202 50.9956 64.459 53.8645 65.2607 57.4198C66.5603 57.1322 67.875 58.6315 67.4202 59.8824C72.9923 59.4183 78.1921 62.7813 82.1398 66.7411C87.9268 72.5458 92.0861 79.9564 94.0267 87.92C94.3657 89.311 96.3447 89.6902 97.5691 88.9481C98.7935 88.2059 99.4227 86.8024 99.9807 85.4838C103.655 76.8014 107.329 68.119 111.003 59.4366C109.773 51.8798 110.867 52.3008 111.443 48.7672C113.018 44.66 112.717 40.9489 113.354 37.0397C113.527 35.9752 114.272 34.5705 115.255 35.0143C115.752 35.2387 115.927 35.8448 116.033 36.3798C116.629 39.387 116.82 42.4741 116.598 45.5317C117.87 43.356 119.142 41.1804 120.414 39.0047C121.11 37.814 122.647 36.4806 123.613 37.4657C124.143 38.0068 124.003 38.8945 123.785 39.6198C123.089 41.927 121.954 44.1011 120.46 45.9915C122.475 46.6788 124.809 47.7224 125.161 49.822C125.308 50.6929 125.061 51.5794 124.769 52.4127C123.752 55.3096 122.146 57.9984 120.078 60.2671C120.552 59.9807 120.863 60.8329 120.768 61.3792C118.5 74.5061 112.971 87.057 104.816 97.5914C102.41 100.7 99.1458 103.907 95.2315 103.54C92.7816 103.31 90.7113 101.703 88.7945 100.16C86.7304 98.4984 84.6664 96.837 82.6023 95.1756C87.407 96.2489 90.0827 102.243 94.9701 102.834C98.9439 103.315 102.28 99.9872 104.681 96.7849C112.518 86.3359 117.871 74.0363 120.176 61.1801C117.042 61.7061 113.78 61.4494 110.767 60.4398C107.777 69.7088 104.012 78.7276 99.5238 87.371C98.7481 88.865 97.368 90.6015 95.7747 90.0583C95.0615 89.8151 94.5796 89.1605 94.1778 88.5231C90.1615 82.1533 89.2283 73.6592 83.3706 68.927C85.7314 83.5685 82.0093 98.4575 77.7961 112.677C81.0215 101.597 82.9863 90.15 83.6404 78.6284C83.7905 75.9832 83.8655 73.2797 83.1169 70.7383C82.3683 68.1968 80.6593 65.8054 78.1787 64.8749C76.563 75.3831 67.0997 83.1997 64.7049 93.5581C62.7686 101.934 59.7928 110.069 55.8674 117.717ZM65.595 88.9518C69.1954 82.1072 73.9154 75.8414 76.8461 68.6844C77.5124 67.0573 78.062 65.1232 77.1561 63.6162C76.8291 63.0721 76.3417 62.6464 75.8624 62.2301C75.1045 61.572 74.2734 60.8818 73.2729 60.8004C71.9454 60.6924 70.7942 61.6854 69.9401 62.7074C67.8689 65.1858 66.5315 68.1814 65.2596 71.1503C62.2174 78.2518 59.3894 85.4796 57.6107 92.9978C55.8321 100.516 55.123 108.364 56.3462 115.992C57.895 108.996 63.103 103.069 63.8168 95.9391C63.9343 94.7649 63.9265 93.573 64.182 92.4208C64.4531 91.1981 65.0119 90.0602 65.595 88.9518ZM72.7224 24.354C72.2349 23.414 71.6265 22.515 70.7946 21.8599C68.9417 20.4007 66.3325 20.3968 64.0142 20.8305C62.5322 21.1077 61.0784 21.5351 59.6823 22.1041C59.3178 22.2526 58.9307 22.4142 58.5435 22.3438C58.1562 22.2734 57.8079 21.8558 57.9666 21.4957C57.9971 21.4264 58.0444 21.3621 58.0525 21.2868C58.0752 21.0759 57.8071 20.9704 57.5972 20.9401C54.4066 20.4801 51.0091 21.0181 48.3269 22.8062C45.6446 24.5943 43.7877 27.7122 43.8871 30.9343C43.9094 31.6573 44.4531 32.2488 44.9987 32.7237C45.8333 33.4501 46.753 34.0785 47.733 34.592C48.173 34.8226 48.7764 35.0054 49.1126 34.6399C49.7796 33.9149 50.8875 33.8586 51.8723 33.8797C55.2955 33.953 58.7371 34.3479 62.1305 33.8918C64.1978 33.6139 66.2112 33.024 68.2705 32.692C68.9013 32.5903 69.5525 32.5137 70.1742 32.6609C70.7959 32.8082 71.3897 33.2217 71.5876 33.8292C72.3894 32.9232 73.1105 31.9457 73.7395 30.9122C73.9282 30.6021 74.1114 30.2796 74.1813 29.9234C74.2433 29.6072 74.2126 29.2806 74.1706 28.9612C73.9597 27.357 73.4673 25.7903 72.7224 24.354ZM67.5883 46.8615C68.7965 46.3317 69.4752 45.047 69.9323 43.8095C71.0215 40.8601 71.3716 37.641 70.9419 34.5265C70.8987 34.2134 70.8409 33.8854 70.6412 33.6404C70.3249 33.2523 69.7595 33.1922 69.2593 33.2126C68.0828 33.2605 66.9381 33.5847 65.7928 33.858C63.3814 34.4337 60.911 34.7915 58.4319 34.7998C55.9819 34.808 53.536 34.4757 51.0878 34.5708C50.6005 34.5897 50.0853 34.6354 49.6898 34.9207C49.0627 35.3731 48.9525 36.2494 48.9274 37.0222C48.8321 39.9601 49.1788 42.9119 49.9523 45.7477C49.9988 45.9181 50.0512 46.0958 50.1751 46.2216C50.3087 46.3573 50.5026 46.4099 50.6853 46.4635C53.6431 47.3296 56.2017 49.8104 59.2762 49.5964C61.5569 49.4377 63.4746 47.8018 65.7071 47.309C66.3379 47.1697 66.9967 47.121 67.5883 46.8615ZM42.3031 95.393C42.1196 98.0587 43.6279 100.513 45.0784 102.757C46.5467 105.029 48.015 107.3 49.4833 109.572C47.3178 102.365 46.2962 94.8636 45.6014 87.3703C44.8759 79.5461 44.5157 71.5196 46.6552 63.9587C46.9947 62.7589 47.4015 61.5645 48.0583 60.5046C46.0889 60.4534 43.9937 60.6043 42.3872 61.7445C41.3428 62.4858 40.6014 63.5858 40.0523 64.7428C38.3555 68.3182 38.3513 72.4909 39.1015 76.3767C39.8517 80.2625 41.3069 83.9707 42.4473 87.7605C42.7786 88.8617 43.0864 89.9924 43.0461 91.1417C42.9956 92.5816 42.402 93.9557 42.3031 95.393ZM51.8688 47.623C50.8537 47.2331 49.6225 46.9149 49.2189 45.9053C49.0293 45.4312 49.0755 44.9009 49.0208 44.3933C48.9662 43.8856 48.7534 43.3289 48.2785 43.1413C47.1344 42.6892 46.0369 42.1192 45.009 41.4432C45.519 44.442 46.8769 47.2918 48.8846 49.5769C49.8901 50.7213 51.0558 51.7291 51.9468 52.9648C52.8378 54.2006 53.4438 55.7552 53.1156 57.2429C53.0111 57.717 53.6921 57.9234 54.1775 57.9119C57.4014 57.8357 60.6249 57.7456 63.848 57.6417C64.3942 57.6241 64.7163 56.9862 64.7036 56.4399C64.6908 55.8936 64.4708 55.3656 64.478 54.8192C64.4885 54.0162 64.9809 53.3071 65.4819 52.6795C66.9663 50.8204 68.6998 49.1752 70.2428 47.3645C71.7858 45.5537 73.1607 43.5251 73.7474 41.2195C72.7262 42.9419 70.5719 43.8298 69.7731 45.6659C69.3198 46.708 68.2233 47.3211 67.1374 47.6561C66.0514 47.9912 64.9004 48.1273 63.864 48.5934C63.3326 48.8324 62.8425 49.1535 62.3221 49.4156C60.494 50.3363 58.2909 50.4824 56.3572 49.8111C54.783 49.2647 53.4243 48.2204 51.8688 47.623ZM116.427 52.1776C117.547 52.1111 118.9 52.5468 119.642 51.7051C119.812 51.5124 119.924 51.2472 119.862 50.9978C119.778 50.6583 119.421 50.4716 119.096 50.3431C117.019 49.5226 114.693 49.3421 112.514 49.8322C111.756 50.0029 111.312 50.7035 111.146 51.4633C110.98 52.2232 111.02 53.0458 111.146 53.8134C111.466 55.7629 111.785 57.7125 112.105 59.6621C112.12 59.7499 112.135 59.8408 112.185 59.9149C112.259 60.0261 112.394 60.0776 112.52 60.1208C114.094 60.657 115.769 60.8962 117.43 60.822C118.091 60.7924 118.805 60.6879 119.269 60.2165C121.539 57.9089 123.198 55.0064 124.034 51.8798C123.579 52.2874 122.994 52.6046 122.384 52.5575C121.775 52.5104 121.183 51.9918 121.223 51.382C120.054 52.2822 118.678 53.2349 117.234 52.9359C116.13 52.7073 114.911 53.1966 114.271 54.1253C113.881 54.0227 114.031 53.4191 114.315 53.1326C114.871 52.5714 115.638 52.2245 116.427 52.1776ZM49.3495 69.5314C48.5847 69.6504 47.8235 69.7929 47.0685 69.9634C46.5375 70.0833 45.9055 70.3271 45.8368 70.8671C45.6998 71.9436 45.6254 73.0281 45.6142 74.1133C51.3881 72.7513 57.519 72.9344 63.2014 74.6383C63.8052 73.2238 64.4089 71.8094 65.0127 70.3949C59.9284 69.0179 54.5543 68.7216 49.3495 69.5314ZM70.6815 61.0461C69.7679 60.5626 68.7038 60.3684 67.6783 60.498C67.4759 60.5236 67.2485 60.5796 67.151 60.7588C66.7617 61.4743 65.9104 61.7836 65.123 61.9921C61.1608 63.0415 56.9771 63.018 52.9158 62.4644C52.1608 62.3615 51.3955 62.2367 50.7095 61.9049C50.0236 61.5731 49.4172 61.0024 49.2136 60.2681C48.673 60.26 48.3482 60.8506 48.1561 61.356C47.5752 62.8844 47.0731 64.4428 46.6526 66.0229C53.237 64.5313 60.1958 64.7242 66.6875 66.5783C67.307 65.8218 67.7669 64.9352 68.0283 63.993C68.1504 63.5532 68.4879 63.2115 68.8127 62.8909C69.4357 62.276 70.0586 61.6611 70.6815 61.0461ZM59.927 83.3254C60.5633 81.9182 61.1037 80.4677 61.5431 78.9872C56.4737 78.1474 51.282 78.049 46.1844 78.696C45.9681 78.7235 45.7283 78.7656 45.5976 78.9401C45.4828 79.0935 45.4887 79.3027 45.4996 79.4941C45.5539 80.4435 45.6083 81.3929 45.6626 82.3422C45.6772 82.5973 45.7989 82.9421 46.0492 82.8905C50.6239 81.9472 55.4203 82.0975 59.927 83.3254ZM123.162 39.754C123.308 39.3937 123.447 39.015 123.415 38.6279C123.384 38.2408 123.132 37.8441 122.75 37.7723C122.512 37.7276 122.267 37.8138 122.061 37.9409C121.555 38.2526 121.239 38.7877 120.942 39.3018C119.599 41.6294 118.255 43.957 116.912 46.2846C116.738 46.5864 116.234 46.4929 116.043 46.2015C115.852 45.9101 115.878 45.5331 115.905 45.1857C116.13 42.2745 115.961 39.3329 115.402 36.4669C115.368 36.2889 115.329 36.1049 115.222 35.9586C114.911 35.5344 114.187 35.6818 113.875 36.1044C113.563 36.527 113.545 37.0914 113.54 37.6169C113.509 41.62 113.547 45.7652 111.93 49.4273C113.573 48.7898 115.422 48.6978 117.119 49.1691C117.362 49.2364 117.613 49.3157 117.861 49.2689C118.108 49.2221 118.343 48.9967 118.3 48.7486C118.138 47.8191 118.805 46.9739 119.392 46.2349C120.951 44.2706 122.226 42.0803 123.162 39.754ZM66.8377 58.9213C66.7259 58.4624 66.3145 58.0411 65.8441 58.0832C61.0447 58.5129 56.2177 58.6351 51.4026 58.4487C51.1176 58.4376 50.8175 58.4287 50.5646 58.5607C50.3861 58.6539 50.2466 58.8118 50.1519 58.9895C49.7676 59.7108 50.1578 60.6515 50.8128 61.1401C51.4679 61.6288 52.3116 61.7715 53.1224 61.8739C56.6621 62.3207 60.2696 62.2737 63.7836 61.6564C64.5423 61.5231 65.3207 61.3531 65.9487 60.907C66.5767 60.4609 67.0201 59.6697 66.8377 58.9213ZM58.2814 88.3109C58.3093 88.215 58.3358 88.1061 58.2853 88.0199C58.2314 87.9279 58.1134 87.9007 58.0083 87.8828C54.1929 87.2357 50.2877 87.5536 46.431 87.8733C46.3219 87.8824 46.1979 87.8997 46.1366 87.9904C46.0888 88.0611 46.0956 88.1539 46.1042 88.2388C46.216 89.3337 46.3278 90.4286 46.4395 91.5236C46.461 91.7338 46.55 92.0064 46.761 91.9956C50.1146 91.8244 53.4845 91.973 56.81 92.4387C57.0213 92.4683 57.1484 92.2162 57.2078 92.0114C57.5657 90.7779 57.9236 89.5444 58.2814 88.3109ZM56.0945 98.1625C56.111 98.0051 56.1205 97.8255 56.0114 97.7107C55.9279 97.6228 55.7986 97.6001 55.6786 97.5834C53.0679 97.2198 50.4153 97.4779 47.7921 97.7364C47.661 97.7494 47.5093 97.7752 47.4461 97.8908C47.4027 97.9701 47.4164 98.0671 47.4314 98.1563C47.6073 99.2053 47.7833 100.254 47.9593 101.303C47.9846 101.454 48.0644 101.648 48.2158 101.626C50.718 101.253 53.3807 101.143 55.6692 102.221C55.8109 100.868 55.9527 99.5154 56.0945 98.1625ZM45.5993 41.0374C46.5445 41.6865 47.5822 42.2009 48.6711 42.5601C48.197 40.3734 48.1041 38.1046 48.3979 35.8864C48.4351 35.606 48.1192 35.4248 47.8586 35.3149C46.3338 34.6722 44.95 33.6975 43.8313 32.4783C43.9468 34.7924 44.197 37.0997 44.58 39.3848C44.6375 39.7275 44.7016 40.0796 44.8872 40.3735C45.0617 40.6498 45.3299 40.8523 45.5993 41.0374ZM70.7951 43.3868C71.8105 42.5617 72.6998 41.5886 73.4868 40.5435C73.9114 39.9796 74.3115 39.3856 74.5468 38.7201C74.7832 38.051 74.8446 37.3337 74.8727 36.6246C74.9463 34.7685 74.8047 32.904 74.4515 31.0804C73.6362 32.188 72.821 33.2956 72.0057 34.4031C71.8806 34.5731 71.7526 34.7493 71.7044 34.9548C71.6658 35.1195 71.6814 35.2914 71.6951 35.4601C71.9129 38.1272 71.6053 40.8363 70.7951 43.3868ZM55.0447 111.121C55.2232 111.157 55.305 110.908 55.3093 110.726C55.3351 109.637 55.361 108.549 55.3869 107.46C55.3892 107.362 55.3907 107.26 55.3483 107.172C55.27 107.008 55.0737 106.946 54.8983 106.901C53.9076 106.643 52.9025 106.384 51.8788 106.396C51.0286 106.406 50.1867 106.605 49.3367 106.584C49.2404 106.581 49.1148 106.597 49.0945 106.691C49.0875 106.724 49.0967 106.758 49.106 106.79C49.4811 108.092 49.9748 109.36 50.5792 110.572C50.6584 110.731 50.753 110.902 50.9185 110.966C51.0353 111.012 51.1657 110.995 51.29 110.979C52.5382 110.823 53.8118 110.871 55.0447 111.121ZM75.4377 29.3935C75.2433 29.6941 75.0712 30.0226 75.0393 30.3792C75.0198 30.5979 75.0539 30.8174 75.0879 31.0343C75.219 31.8702 75.3502 32.7062 75.4813 33.5421C75.4889 33.5907 75.4978 33.6421 75.5302 33.6791C75.6062 33.766 75.7472 33.7198 75.8501 33.6675C76.2652 33.4568 76.685 33.2428 77.0354 32.9363C77.3165 32.6905 77.5455 32.3915 77.7612 32.0867C78.212 31.4497 78.6258 30.7393 78.6551 29.9595C78.6844 29.1797 78.206 28.3321 77.4385 28.1912C76.6257 28.0421 75.8865 28.6997 75.4377 29.3935ZM40.1215 31.0489C39.81 31.3218 39.6972 31.7552 39.6454 32.1661C39.598 32.5423 39.5899 32.9342 39.7204 33.2903C39.9004 33.7815 40.3282 34.1496 40.8016 34.3722C41.2751 34.5947 41.7966 34.6902 42.3113 34.7835C42.5654 34.8296 42.8195 34.8757 43.0735 34.9218C43.1365 34.9332 43.2109 34.9412 43.2555 34.8952C43.2924 34.8571 43.2924 34.7975 43.29 34.7445C43.248 33.8035 43.206 32.8625 43.164 31.9216C43.1462 31.5218 42.8604 31.1697 42.5081 30.9799C42.1559 30.7901 41.7458 30.739 41.3458 30.7288C40.9138 30.7178 40.4465 30.7641 40.1215 31.0489ZM121.789 47.1506C121.602 46.9464 121.326 46.8528 121.061 46.7734C120.78 46.6892 120.476 46.6123 120.198 46.704C119.881 46.8081 119.672 47.104 119.505 47.3922C119.252 47.8281 119.043 48.2889 118.881 48.7657C118.823 48.9346 118.771 49.1121 118.795 49.2888C118.819 49.4656 118.939 49.6412 119.115 49.6741C119.83 49.8083 120.456 50.3476 120.693 51.0358C121.026 50.3392 121.358 49.6427 121.691 48.9461C121.828 48.658 121.967 48.3645 122.015 48.0488C122.062 47.7331 122.004 47.386 121.789 47.1506ZM124.28 48.6093C123.939 48.2893 123.373 48.3117 122.979 48.5636C122.586 48.8155 122.341 49.2462 122.182 49.6858C122.002 50.1865 121.914 50.7204 121.925 51.2525C121.927 51.3795 121.937 51.5108 121.995 51.6236C122.136 51.8957 122.509 51.9565 122.807 51.8815C123.456 51.7175 123.889 51.1139 124.21 50.5261C124.375 50.2231 124.529 49.9053 124.572 49.5628C124.615 49.2204 124.531 48.8457 124.28 48.6093ZM55.7798 116.548C55.6201 115.624 55.4603 114.7 55.3006 113.777C55.282 113.669 55.257 113.551 55.1695 113.486C55.112 113.443 55.0378 113.432 54.9669 113.423C54.1435 113.316 53.307 113.31 52.4824 113.407C53.4557 114.576 54.5647 115.632 55.7798 116.548Z" fill="#00160A"/>
<path d="M8.50049 26.4936C7.67858 28.0692 7.25221 29.8172 7.26259 31.5857C6.58004 30.2412 5.76272 28.8509 4.18684 28.4434C2.86695 28.0904 1.33837 28.8156 1.15966 30.2414C0.945885 31.9543 2.48846 33.4499 3.64552 34.5056C5.00109 35.7528 6.56778 36.7544 8.1737 37.6573C8.99597 38.1175 9.82702 38.5429 10.6615 38.9776C10.4769 39.5617 10.3005 40.2272 10.6529 40.753C10.9294 41.1587 11.4874 41.3354 11.8935 40.9766C12.2996 40.6178 12.2891 39.9992 12.0221 39.59C11.7883 39.2426 11.4232 39.0063 11.0365 38.7989C11.0575 38.7386 11.0723 38.691 11.0933 38.6306C11.2447 38.1324 11.409 37.6401 11.5862 37.1537C11.9276 36.1749 12.3043 35.2045 12.6423 34.2164C13.2441 32.4783 13.749 30.6806 13.8293 28.8369C13.8875 27.4338 13.8221 25.3373 12.4661 24.5017C10.8255 23.4743 9.20333 25.1512 8.50049 26.4936ZM11.8211 39.8636C11.9479 40.1234 11.965 40.4653 11.7471 40.6923C11.3796 41.0687 10.919 40.6878 10.8118 40.3048C10.7046 39.9219 10.81 39.5038 10.9351 39.1101C11.2927 39.2964 11.651 39.5141 11.8211 39.8636ZM13.518 27.8637C13.5604 28.7766 13.4945 29.6867 13.3264 30.5812C13.0037 32.4076 12.3606 34.1502 11.7176 35.8927C11.3842 36.8052 11.0447 37.7305 10.7595 38.6571C10.5373 38.5481 10.322 38.4577 10.1221 38.3511C9.33309 37.9526 8.55961 37.5379 7.78882 37.1011C6.21472 36.1972 4.69202 35.1691 3.38994 33.8919C2.63795 33.1529 1.80398 32.3066 1.48521 31.2833C1.14949 30.2135 1.56738 29.0909 2.69256 28.7024C4.81971 27.9704 6.36737 30.1288 7.25658 31.7461C7.26274 31.881 7.2689 32.0159 7.27507 32.1508C7.2887 32.3357 7.56156 32.2891 7.5547 32.1229C7.49963 30.3496 7.80818 28.6022 8.58131 26.9811C8.96483 26.1769 9.46139 25.2999 10.2696 24.837C11.1659 24.3209 12.2385 24.4368 12.8402 25.2938C13.3532 26.0249 13.4796 26.9916 13.518 27.8637Z" fill="#FFB61D"/>
<path d="M117.796 4.68415C116.153 5.3628 114.703 6.42783 113.574 7.78921C113.916 6.32056 114.183 4.73013 113.238 3.40503C112.454 2.28623 110.817 1.85917 109.763 2.83656C108.499 4.01131 108.719 6.14854 108.927 7.70102C109.163 9.52776 109.72 11.3021 110.37 13.026C110.704 13.9071 111.067 14.7672 111.427 15.6365C110.91 15.9653 110.347 16.3617 110.279 16.991C110.23 17.4795 110.544 17.9735 111.086 17.9597C111.627 17.9459 112.017 17.4653 112.075 16.9803C112.12 16.5639 111.992 16.1481 111.829 15.7407C111.884 15.7079 111.926 15.681 111.98 15.6482C112.417 15.364 112.859 15.0924 113.307 14.8337C114.198 14.3034 115.11 13.8021 116.005 13.2625C117.583 12.3179 119.125 11.2652 120.372 9.90455C121.318 8.86712 122.616 7.21905 122.114 5.70729C121.518 3.86572 119.197 4.10763 117.796 4.68415ZM111.745 17.0607C111.676 17.3411 111.469 17.614 111.156 17.6479C110.633 17.7 110.525 17.1121 110.689 16.7498C110.853 16.3876 111.202 16.1351 111.551 15.9139C111.705 16.2865 111.84 16.6836 111.745 17.0607ZM120.759 8.95891C120.204 9.68548 119.569 10.3403 118.865 10.9175C117.444 12.1091 115.831 13.0307 114.219 13.9522C113.377 14.4369 112.522 14.9275 111.708 15.454C111.608 15.2277 111.501 15.02 111.416 14.8099C111.068 13.9975 110.742 13.1826 110.432 12.3525C109.807 10.6483 109.302 8.88193 109.125 7.06657C109.024 6.01709 108.929 4.83273 109.343 3.84396C109.774 2.80862 110.815 2.21727 111.927 2.64297C114.027 3.44951 113.825 6.0977 113.467 7.90824C113.385 8.01554 113.303 8.12283 113.221 8.23013C113.112 8.38055 113.351 8.52027 113.453 8.38847C114.551 6.99467 115.91 5.85442 117.544 5.10953C118.355 4.74002 119.299 4.38741 120.216 4.5523C121.234 4.73305 121.981 5.51134 121.891 6.55461C121.814 7.44435 121.29 8.26614 120.759 8.95891Z" fill="#FFB61D"/>
</svg>
