<svg width="112" height="132" viewBox="0 0 112 132" fill="none" xmlns="http://www.w3.org/2000/svg">
<path fill-rule="evenodd" clip-rule="evenodd" d="M46.3446 14.0863C42.9166 16.6999 40.046 19.9464 37.8795 23.6421C34.33 22.9337 30.5051 22.7829 26.6324 23.3376C27.6044 19.1148 29.5959 15.1404 32.473 11.8205C33.1426 11.0515 34.1341 10.6389 35.1514 10.7124C39.1107 10.9932 42.9339 12.1661 46.3446 14.0863ZM55.9998 33.9864C59.4292 30.1969 63.4416 27.4245 67.7091 25.6142C65.169 21.8061 61.6568 18.6763 57.4491 16.5725C56.5376 16.1167 55.4619 16.1167 54.5504 16.5725C50.3427 18.6763 46.8306 21.8061 44.2904 25.6142C48.5581 27.4245 52.5703 30.1971 55.9998 33.9864ZM76.6602 65.9998C79.6194 64.5245 82.3345 62.5762 84.7019 60.2088C91.845 53.0635 94.3463 42.4946 91.1473 32.8999C90.8255 31.9344 90.0651 31.1741 89.0996 30.8522C79.5135 27.6576 68.9425 30.1481 61.7907 37.2977C59.4234 39.665 57.4729 42.3801 55.9998 45.3415C54.5266 42.3801 52.5762 39.665 50.2088 37.2977C43.0635 30.1545 32.4946 27.6533 22.8999 30.8522C21.9322 31.1741 21.1741 31.9344 20.8522 32.8999C17.6576 42.486 20.1481 53.057 27.2977 60.2088C29.6629 62.574 32.3802 64.5245 35.3394 65.9998C32.3802 67.475 29.665 69.4234 27.2977 71.7907C20.1546 78.936 17.6533 89.5049 20.8522 99.0996C21.1741 100.065 21.9344 100.825 22.8999 101.147C32.486 104.342 43.057 101.851 50.2088 94.7018C52.5762 92.3345 54.5266 89.6194 55.9998 86.658C57.4729 89.6194 59.4234 92.3345 61.7907 94.7018C68.9749 101.886 79.5567 104.329 89.0996 101.147C90.0673 100.825 90.8255 100.065 91.1473 99.0996C94.3419 89.5135 91.8515 78.9425 84.7019 71.7907C82.3367 69.4255 79.6194 67.475 76.6602 65.9998ZM104.258 67.4491C102.319 71.3285 99.5087 74.6138 96.098 77.0957C94.2653 73.0085 91.5834 69.2309 88.0131 65.9998C91.4382 62.9002 94.1862 59.1683 96.0959 54.9017C99.5065 57.3835 102.319 60.671 104.258 64.5504C104.714 65.4619 104.714 66.5376 104.258 67.4491ZM15.9037 77.0978C17.8133 72.8312 20.5613 69.0993 23.9864 65.9998C20.4163 62.7688 17.7343 58.9906 15.9015 54.9038C12.4909 57.3857 9.68071 60.671 7.74103 64.5504C7.28527 65.4619 7.28527 66.5376 7.74103 67.4491C9.68071 71.3285 12.493 74.616 15.9037 77.0978ZM67.7523 106.403C65.2273 110.079 61.7886 113.103 57.6867 115.155C56.7975 115.597 55.7293 115.622 54.7902 115.155C50.63 113.075 47.1502 109.992 44.6166 106.243C48.91 104.368 52.7656 101.587 55.9998 98.0131C59.4346 101.808 63.46 104.586 67.7523 106.403ZM110.179 90.7944C106.803 93.7212 102.749 95.73 98.4459 96.6826C99.2516 92.328 99.1782 87.8482 98.2148 83.4936C101.589 81.3466 104.557 78.5947 106.965 75.3612C109.447 79.1455 110.961 83.5411 111.287 88.116C111.361 89.1334 110.948 90.1248 110.179 90.7944ZM79.5265 120.179C82.4058 116.859 84.3951 112.883 85.3671 108.66C81.6744 109.194 77.8456 109.09 74.1891 108.368C71.9773 112.057 69.0591 115.287 65.5837 117.874C69.0116 119.818 72.8629 121.004 76.8481 121.287C76.9259 121.294 77.0015 121.296 77.0792 121.296C78.0145 121.296 78.9087 120.892 79.5265 120.179ZM35.1514 121.287C39.2446 120.996 43.1931 119.754 46.688 117.719C43.2752 115.14 40.411 111.936 38.2359 108.286C34.471 109.076 30.5007 109.221 26.6324 108.662C27.6044 112.885 29.5959 116.859 32.473 120.179C33.0908 120.892 33.985 121.296 34.9203 121.296C34.9981 121.296 35.0737 121.294 35.1514 121.287ZM85.3671 23.3376C81.4947 22.7829 77.6698 22.9337 74.12 23.6421C71.9535 19.9464 69.0829 16.6999 65.655 14.0863C69.0656 12.1661 72.8888 10.9932 76.8481 10.7124C77.8655 10.6389 78.8569 11.0515 79.5265 11.8205C82.4036 15.1404 84.3951 19.1148 85.3671 23.3376ZM1.82047 91.1983C5.21815 94.1446 9.30055 96.1598 13.6357 97.1038C12.7436 92.6174 12.7911 87.9864 13.7869 83.4936C10.4778 81.3898 7.55959 78.7049 5.17711 75.5513C2.61103 79.3831 1.04287 83.8586 0.71239 88.5199C0.63895 89.5373 1.05151 90.5287 1.82047 91.1983ZM111.287 43.8835C110.961 48.4584 109.447 52.854 106.965 56.6383C104.557 53.4026 101.589 50.653 98.2127 48.5059C99.176 44.1535 99.2516 39.6715 98.4459 35.3169C102.749 36.2695 106.803 38.2783 110.179 41.2051C110.948 41.8747 111.361 42.8661 111.287 43.8835ZM5.03455 56.6383C7.44295 53.4048 10.4108 50.653 13.7847 48.5059C12.8214 44.1513 12.7501 39.6693 13.5536 35.3169C9.25087 36.2695 5.19655 38.2783 1.82047 41.2051C1.05151 41.8747 0.63895 42.8661 0.71239 43.8835C1.03855 48.4584 2.55271 52.854 5.03455 56.6383ZM46.2798 65.9998C46.2798 60.6408 50.6408 56.2798 55.9998 56.2798C61.3587 56.2798 65.7198 60.6408 65.7198 65.9998C65.7198 71.3587 61.3587 75.7197 55.9998 75.7197C50.6408 75.7197 46.2798 71.3587 46.2798 65.9998ZM52.7598 65.9998C52.7598 67.7882 54.2113 69.2397 55.9998 69.2397C57.7882 69.2397 59.2398 67.7882 59.2398 65.9998C59.2398 64.2113 57.7882 62.7598 55.9998 62.7598C54.2113 62.7598 52.7598 64.2113 52.7598 65.9998Z" fill="#EBF1FA"/>
<path d="M30.7935 114.962C26.9468 114.993 23.9229 115.164 21.3627 115.525C15.2073 116.392 11.5476 118.43 9.92644 122.274C9.09888 124.236 9.4974 125.932 11.017 127.253C12.3217 128.387 14.4444 129.245 17.3335 129.873L17.4948 129.907C22.4374 130.956 29.4552 131.336 38.3544 131.203L38.9017 131.194C43.0823 131.122 47.3689 130.95 52.5286 130.673L57.6656 130.381C59.4705 130.277 61.3299 130.17 61.9919 130.135L62.8872 130.089C64.7887 129.994 66.0144 129.959 66.7709 129.983L67.6191 130.015C79.883 130.464 89.4535 129.851 95.6108 128.405C98.4196 127.745 100.429 126.928 101.553 125.997C102.77 124.989 102.98 123.776 102.078 122.705C99.2628 119.364 94.643 117.475 87.179 116.469L86.7933 116.418C80.5919 115.613 72.8788 115.366 58.2212 115.356L56.1121 115.354C53.2599 115.346 50.5293 115.307 46.9047 115.229L37.9885 115.027C35.3199 114.971 33.8189 114.954 32.1464 114.956L30.7935 114.962Z" fill="white"/>
<ellipse cx="56.0679" cy="125.884" rx="46.0246" ry="4.80408" fill="#A9B5C6"/>
<path fill-rule="evenodd" clip-rule="evenodd" d="M65.508 91.7739C66.3436 91.9213 66.9158 91.1051 68.2094 88.3832L68.3048 88.1858L68.3989 87.9976C69.9409 84.9655 71.7241 83.9989 73.7485 85.098L74.561 82.7003L74.2881 82.5749L74.0257 82.4565C69.8229 80.5787 67.553 80.4646 67.2159 82.1141L67.1827 82.2944L67.1548 82.4396C66.9078 83.6972 66.3048 86.1191 65.8685 88.1809L65.795 88.5327C65.4307 90.2998 65.2176 91.7227 65.508 91.7739Z" fill="white"/>
<path fill-rule="evenodd" clip-rule="evenodd" d="M56.558 67.4566C56.558 67.4566 62.702 68.2708 65.8096 68.1297C68.9172 67.9886 73.4617 66.6892 73.4617 66.6892L73.3537 70.6132C73.3537 70.6132 87.8508 70.3205 85.6615 82.1962C84.2196 90.0181 73.1867 86.8017 73.1867 86.8017L75.2968 82.1962C75.2968 82.1962 81.9145 82.675 79.5048 80.6615C79.0576 80.2879 76.1998 79.7726 72.439 79.8733C69.2088 79.9597 66.4029 78.992 66.1109 78.1231C65.0163 74.8656 66.6058 73.152 66.6058 73.152C66.6058 73.152 65.0683 73.9003 65.36 75.7197C65.6517 77.5392 63.503 114.791 63.503 114.791C63.503 114.791 61.5593 115.136 60.5818 115.136C59.6042 115.136 58.2587 114.791 58.2587 114.791L56.558 67.4566Z" fill="white"/>
<path fill-rule="evenodd" clip-rule="evenodd" d="M56.558 67.4566C56.558 67.4566 59.7988 115.098 59.3475 115.024C59.0073 114.967 58.2586 114.791 58.2586 114.791L56.558 67.4566Z" fill="#A9B5C6"/>
<path fill-rule="evenodd" clip-rule="evenodd" d="M59.2267 115.525C59.4397 117.399 59.0415 118.151 59.0941 118.151C59.9626 118.151 60.4813 118.134 61.8743 118.025C61.8743 118.025 61.7964 117.218 61.7964 116.838C61.7964 116.384 61.8743 115.525 61.8743 115.525H59.2267Z" fill="white"/>
<path d="M57.08 24.1059C57.08 24.1059 53.84 25.3226 53.84 23.0323C53.84 20.7421 56.3396 21.8838 56.3396 21.8838" fill="white"/>
<path d="M71.336 24.3449C72.0161 24.4962 74.144 25.8232 74.144 22.6103C74.144 21.0769 71.7141 22.1845 71.7141 22.1845" fill="white"/>
<path d="M63.6039 10.9451C60.9271 11.2048 55.3174 13.7501 56.3387 21.0222C57.1305 26.6596 61.347 32.736 63.9379 32.736C66.4818 32.736 70.7648 27.6207 71.3866 22.5844C72.6566 12.2991 66.2806 10.6854 63.6039 10.9451Z" fill="white"/>
<path fill-rule="evenodd" clip-rule="evenodd" d="M63.7031 16.149C63.8454 15.8188 64.3052 15.7968 64.4784 16.1119C65.3616 17.7189 66.351 18.8388 67.4398 19.4799C68.5391 20.1272 69.8361 20.1911 71.1593 19.5978C71.377 19.5002 71.6326 19.5975 71.7302 19.8153C71.8278 20.033 71.7305 20.2886 71.5128 20.3862C69.9359 21.0932 68.3437 21.0148 67.0014 20.2244C65.9552 19.6084 65.013 18.6294 64.1708 17.2927L64.1398 17.243L64.1121 17.297C63.4318 18.5885 62.5541 19.6199 61.4796 20.3861L61.3715 20.4618C60.0187 21.3929 58.4309 21.8069 56.6237 21.7049C56.3855 21.6914 56.2033 21.4874 56.2167 21.2492C56.2301 21.011 56.4341 20.8288 56.6724 20.8422C58.2935 20.9337 59.6915 20.5693 60.8817 19.7501C62.0834 18.9231 63.0235 17.726 63.7031 16.149Z" fill="#A9B5C6"/>
<path fill-rule="evenodd" clip-rule="evenodd" d="M77.5196 57.5273C77.2591 62.4298 75.4273 64.5099 73.1383 64.8087C72.8342 64.8484 73.2599 66.5956 72.9952 66.8247C71.4864 68.1297 68.8267 68.186 64.6563 68.224C60.8809 68.2583 58.4461 67.9534 56.7542 67.2599C56.6248 67.2068 56.7413 65.0078 56.6075 64.996C54.4878 64.8087 52.046 62.9275 51.4527 57.8115C49.444 40.4901 55.4859 37.1424 61.2363 34.3826C61.5483 34.2328 61.7177 33.9721 62.0277 33.8238C62.6814 33.511 62.511 34.2309 63.9969 34.2309C65.4828 34.2309 65.4828 33.6667 66.152 33.9864C66.4017 34.1056 66.4429 34.8508 66.6914 34.9819C72.5761 38.087 78.2397 43.9778 77.5196 57.5273Z" fill="white"/>
<path fill-rule="evenodd" clip-rule="evenodd" d="M66.6914 34.9819C74.4623 37.7942 78.0717 45.3093 77.5196 57.5273C76.8577 72.1763 60.2201 59.0623 65.7666 46.4425C67.0881 43.4358 68.8243 56.1658 68.8433 56.2196C69.2856 57.4713 70.637 58.4422 72.0035 58.9611C72.0035 58.9611 72.6152 50.1378 71.552 45.9776C70.5519 42.0647 66.6914 34.9819 66.6914 34.9819Z" fill="white"/>
<path fill-rule="evenodd" clip-rule="evenodd" d="M61.6876 32.088C61.6876 32.088 61.9058 32.7426 61.83 33.1472C61.7541 33.5517 61.2905 34.2063 61.2905 34.2063C61.2905 34.2063 48.3904 38.1413 51.3777 57.7796C54.7008 72.0216 66.3512 62.7597 64.3297 51.4035C64.2458 42.971 62.3368 45.826 60.9027 55.1182C60.5519 57.3914 56.2406 58.0369 56.2406 58.0369" fill="white"/>
<ellipse cx="67.772" cy="26.58" rx="1.18799" ry="0.972006" fill="#FFB61D"/>
<ellipse cx="60.644" cy="26.58" rx="1.188" ry="0.972006" fill="#FFB61D"/>
<path d="M61.8421 27.8909C61.8936 27.6579 62.9571 27.8408 63.2562 28.2386L63.3486 28.3619C63.6273 28.7314 63.7973 28.848 64.1569 28.848C64.6163 28.848 64.7728 28.7656 65.034 28.4235L65.1037 28.3297C65.4071 27.9143 66.477 27.6127 66.5582 27.837C66.6394 28.0614 66.5233 28.309 66.299 28.3902C66.1308 28.4511 66.0351 28.5308 65.8711 28.7457L65.7941 28.8494C65.3457 29.4634 64.9728 29.712 64.1569 29.712C63.4944 29.712 63.1106 29.4638 62.7013 28.9377L62.5657 28.7579L62.5045 28.6783C62.3696 28.5074 62.2872 28.4383 62.1916 28.4111L62.1709 28.4058C61.9379 28.3544 61.7907 28.1239 61.8421 27.8909Z" fill="#00160A"/>
<path d="M62.6814 21.4677C62.1667 21.3103 61.6975 21.2652 61.4261 21.2981C61.1341 21.3336 60.7649 21.4842 60.4243 21.6231C60.1516 21.7343 59.8972 21.8381 59.7154 21.8693C59.5348 21.9003 59.2639 21.8902 58.9999 21.8804C58.6662 21.868 58.3436 21.856 58.2284 21.9278C58.0222 22.0565 58.3301 22.2644 58.5101 22.2883C59.1325 22.3706 59.5858 22.3902 59.8862 22.3422C60.1526 22.2996 60.3931 22.2258 60.7198 22.1005L61.0609 21.9707C61.2876 21.8863 61.3461 21.8727 61.4261 21.8709L61.4824 21.8711C61.7107 21.8768 62.0476 21.9452 62.4841 22.0788C62.6575 22.1318 62.8422 22.038 62.8967 21.8693C62.9512 21.7005 62.8548 21.5208 62.6814 21.4677Z" fill="#00160A"/>
<path d="M63.9549 26.1035C64.1986 25.3917 64.3399 21.8848 64.0715 21.882C63.8031 21.8792 63.5833 22.0945 63.5805 22.3629C63.5766 22.7403 63.579 23.1023 63.5812 23.4417C63.5879 24.4602 63.5932 25.2752 63.4229 25.6918L63.3866 25.7778C63.1666 26.3237 63.1049 26.7883 63.6929 26.897C64.0439 26.9619 65.6203 26.0678 65.5295 25.8152C65.4387 25.5626 65.1604 25.4315 64.9078 25.5223L64.8415 25.5458C64.6915 25.5984 64.4954 25.7626 64.3189 25.9103C64.1621 26.0416 64.0207 26.1599 63.9407 26.1757L63.9282 26.178L63.9549 26.1035Z" fill="#00160A"/>
<path d="M65.9504 21.4677C66.4651 21.3103 66.9343 21.2652 67.2056 21.2981C67.4977 21.3336 67.8669 21.4842 68.2075 21.6231C68.4802 21.7343 68.7346 21.8381 68.9164 21.8693C69.097 21.9003 69.3679 21.8902 69.6319 21.8804C69.9656 21.868 70.2882 21.856 70.4034 21.9278C70.6096 22.0565 70.3017 22.2644 70.1217 22.2883C69.4993 22.3706 69.046 22.3902 68.7456 22.3422C68.4792 22.2996 68.2387 22.2258 67.912 22.1005L67.5709 21.9707C67.3442 21.8863 67.2857 21.8727 67.2056 21.8709L67.1494 21.8711C66.9211 21.8768 66.5842 21.9452 66.1477 22.0788C65.9743 22.1318 65.7896 22.038 65.7351 21.8693C65.6806 21.7005 65.777 21.5208 65.9504 21.4677Z" fill="#00160A"/>
<path d="M68.7313 23.9098C68.867 23.6782 68.7893 23.3804 68.5577 23.2447C68.4761 23.1968 68.4113 23.2877 68.3131 23.4254C68.1328 23.6782 67.8401 24.0888 67.124 24.0888C66.4023 24.0888 66.1063 23.6744 65.9262 23.4222C65.8303 23.2879 65.7672 23.1996 65.6902 23.2447C65.4586 23.3804 65.381 23.6782 65.5167 23.9098C65.8592 24.494 66.4164 24.798 67.124 24.798C67.8315 24.798 68.3888 24.494 68.7313 23.9098Z" fill="#00160A"/>
<path d="M62.527 23.2554C62.7527 23.4008 62.8178 23.7015 62.6724 23.9272C62.3003 24.5049 61.7058 24.798 60.9497 24.798C60.188 24.798 59.5994 24.4995 59.2529 23.9103C59.1169 23.679 59.0646 23.3668 59.4255 23.2451C59.5832 23.1918 59.7431 23.3458 59.9406 23.536C60.1952 23.7811 60.5123 24.0865 60.9678 24.0865C61.8299 24.0865 62.1352 23.6544 62.3093 23.4079C62.397 23.2838 62.4515 23.2068 62.527 23.2554Z" fill="#00160A"/>
<path fill-rule="evenodd" clip-rule="evenodd" d="M64.0665 1.0856C61.3433 1.57137 59.2575 3.63463 58.8501 6.68272C58.8307 6.82764 58.818 6.96896 58.8119 7.1067C58.3398 7.25473 56.9419 7.70604 56.9803 7.84696C57.016 7.97812 58.256 7.68331 58.8147 7.54333C58.8957 8.87975 59.6507 9.8378 60.9229 10.424C61.2467 10.5732 61.5947 10.6957 61.9645 10.7944C60.6498 11.2085 59.3059 11.9661 58.2443 13.0069C56.2826 14.9302 55.3734 17.6428 55.8575 21.0898C55.8619 21.1209 55.8663 21.152 55.8709 21.1832C54.306 20.7011 53.3539 21.3408 53.3539 23.0323C53.3539 24.7293 55.8353 25.683 56.8849 24.9931C57.9428 27.7945 59.5904 30.3844 61.2466 31.8837C61.1963 31.9921 61.1857 32.1193 61.2265 32.2417C61.3481 32.6066 61.3851 32.882 61.3522 33.0576L61.3453 33.0897C61.308 33.2443 61.2003 33.465 61.0198 33.7407L60.9852 33.7924L60.8842 33.8243C52.2119 36.6094 48.8934 44.6804 50.8972 57.8527L50.9044 57.8901L50.9413 58.0456C51.9082 62.0509 53.7384 64.388 56.0181 64.9936C56.0177 65.0045 56.0177 65.0155 56.0181 65.0266C56.4165 78.5182 56.7647 89.2682 57.0629 97.2768L57.1712 100.121L57.2791 102.816C57.4317 106.521 57.5687 109.37 57.6901 111.363L57.7678 112.586C57.901 114.587 57.9787 115.028 58.2645 115.229L58.2923 115.248L58.3136 115.261C58.375 115.297 58.4508 115.328 58.5412 115.357C58.4349 115.356 58.3282 115.356 58.2212 115.356L56.1121 115.354C53.2599 115.346 50.5293 115.307 46.9047 115.229L37.9885 115.027C35.3199 114.971 33.8189 114.954 32.1464 114.956L30.7935 114.962C26.9468 114.993 23.9229 115.164 21.3627 115.525C15.2073 116.392 11.5476 118.43 9.92644 122.274C9.09888 124.236 9.4974 125.932 11.017 127.253C12.3217 128.387 14.4444 129.245 17.3335 129.873L17.4948 129.907C22.4374 130.956 29.4552 131.336 38.3544 131.202L38.9017 131.194C43.0823 131.122 47.3689 130.95 52.5286 130.673L57.6656 130.381C59.4705 130.277 61.3299 130.17 61.9919 130.135L62.8872 130.089C64.7887 129.994 66.0144 129.959 66.7709 129.983L67.6191 130.015C79.883 130.464 89.4535 129.851 95.6108 128.405C98.4196 127.745 100.429 126.928 101.553 125.997C102.77 124.989 102.98 123.776 102.078 122.705C99.2628 119.364 94.643 117.475 87.179 116.469L86.7933 116.418C81.4461 115.724 74.9749 115.445 63.8969 115.375L63.9576 115.371C64.233 115.352 64.4501 115.129 64.4607 114.853L65.2622 92.3706C65.2847 92.371 65.308 92.3704 65.3321 92.3688C66.3791 92.2968 67.0883 91.6496 68.3802 89.2152L68.5339 88.9225L68.7097 88.5821C69.0246 88.0005 69.8612 87.0971 70.5782 86.3228L70.5784 86.3227C71.049 85.8145 71.4681 85.3619 71.6544 85.0924C72.0407 85.168 72.602 85.2273 73.3382 85.2703L73.4302 85.2754L72.846 86.6941L72.8349 86.7242C72.7619 86.9465 72.8801 87.1897 73.105 87.2671C80.8128 89.918 85.0031 87.849 86.0854 82.2786C87.6291 74.3338 83.4515 70.3421 73.8245 70.4438L73.9766 65.3583C74.5683 65.2747 75.122 65.0365 75.6186 64.6335C77.0241 63.4929 77.8436 61.1289 78.0053 57.5493C78.5549 45.388 75.0053 37.7313 67.332 34.7045L67.071 34.604L67.0462 34.5353C66.9112 34.1529 66.8207 33.8433 66.7747 33.6102L66.7649 33.5578C66.7166 33.2845 66.7166 32.8276 66.7705 32.2025C66.7772 32.1246 66.7652 32.0495 66.7382 31.9815C68.6284 30.4521 70.4734 27.7045 71.3737 24.8627L71.3966 24.8706C71.4059 24.8739 71.4156 24.8773 71.4257 24.8808L71.8404 25.0283C72.1126 25.1198 72.3404 25.1788 72.5736 25.2094C73.852 25.3773 74.63 24.544 74.63 22.6103C74.63 21.8794 74.2782 21.3737 73.6204 21.2585C73.1902 21.1831 72.65 21.2828 71.9792 21.5442C72.2992 17.3409 71.3147 14.3345 69.3074 12.4555C68.5511 11.7477 67.6662 11.2291 66.7477 10.8941C67.6016 10.6656 68.4573 10.279 69.1225 9.75001C70.6487 8.53627 71.1302 6.71076 70.2546 4.33995L73.231 3.67579L73.2549 3.66751C73.3548 3.62618 73.3799 3.37824 73.3799 3.19303C73.3799 3.00781 73.2279 2.79563 73.1131 2.8282L70.0679 3.87705C69.0885 1.7024 66.6201 0.630097 64.0665 1.0856ZM59.4218 116.006L59.5678 116.006C60.2692 116.007 60.9539 116.01 61.6229 116.015C61.5713 116.602 61.5589 117.317 61.61 117.84H59.5761C59.5563 117.421 59.5039 116.647 59.4218 116.006ZM58.8254 116.005C58.7789 116.376 58.7411 116.794 58.7072 117.169C58.6806 117.464 58.6563 117.733 58.632 117.933C58.6152 117.946 58.5994 117.96 58.5846 117.976C57.4475 119.184 56.271 119.97 55.0554 120.343L54.8574 120.402C53.8179 120.706 51.8711 121.185 51.9096 121.174C51.0613 121.416 50.6504 121.695 50.506 122.277C50.2683 123.235 51.2377 123.655 53.752 123.671L53.9435 123.672C54.3563 123.671 54.7206 123.629 55.523 123.502L56.1472 123.403C56.7767 123.305 57.1492 123.263 57.4903 123.26L57.6379 123.261C57.8171 123.265 58.0019 123.284 58.4064 123.336L58.9004 123.4C59.1865 123.437 59.3884 123.459 59.602 123.477C60.4859 123.55 61.1609 123.488 61.7264 123.217C63.1899 122.515 63.3679 120.768 62.4101 118.125C62.4089 118.122 62.4078 118.119 62.4066 118.116C62.4115 118.086 62.4141 118.056 62.4141 118.025V116.021C74.6324 116.128 81.4397 116.785 87.0347 117.539L87.4647 117.599C94.4329 118.585 98.6968 120.368 101.252 123.401C102.283 124.625 100.423 126.166 95.3639 127.354C89.2519 128.789 79.6392 129.394 67.2831 128.921L66.9079 128.907C66.0235 128.872 64.5355 128.919 62.0699 129.049L59.8028 129.177C58.9401 129.226 57.9471 129.283 57.0082 129.338C55.6052 129.418 54.323 129.492 53.7772 129.523L52.4716 129.594C47.5381 129.859 43.4065 130.028 39.4044 130.104L38.8831 130.114C29.7996 130.27 22.6627 129.9 17.7191 128.851C11.9792 127.632 9.24919 125.635 10.4896 122.694C11.9199 119.302 15.629 117.019 21.3397 116.187L21.5135 116.162C23.2203 115.922 25.1473 115.959 27.4046 116.003C28.5278 116.025 29.7328 116.049 31.0332 116.04L32.1476 116.036C33.9563 116.033 46.0126 115.858 46.0126 115.858C50.2334 115.952 53.2379 115.997 56.4461 116.003L58.8254 116.005ZM66.0107 32.5075C65.2931 32.9632 64.5858 33.222 63.9379 33.222C63.4294 33.222 62.8836 33.0358 62.3239 32.699C62.3435 32.8926 62.3385 33.0716 62.3076 33.2367C62.2414 33.5896 62.0331 34.2147 61.687 34.7032C61.6774 34.7168 61.6672 34.7297 61.6564 34.7421C62.1201 35.0049 62.8371 35.2779 63.8271 35.1392C64.9175 34.9864 65.5202 34.5988 65.8862 34.2976C65.8293 33.7189 65.9024 33.0326 66.0107 32.5075ZM66.0054 34.8767C65.5527 35.4688 64.7898 36.1112 63.8271 36.1112C62.3764 36.1112 61.4235 35.7512 61.1137 34.9874C53.0907 37.5925 49.5553 44.8396 51.3689 57.3218L51.4231 57.687L51.4527 57.8115C52.5656 62.4335 55.191 64.4638 57.7761 64.1472L57.8554 64.1367C60.1701 63.8113 62.4262 61.5831 63.0302 59.044L63.1196 58.6618C63.5702 56.7019 63.8437 54.9692 63.8437 53.5454L63.8422 52.9544C63.8272 49.8524 63.6944 47.5565 63.5276 46.544L63.5156 46.4749L63.4972 46.525C63.4268 46.7157 63.3513 46.9494 63.2721 47.2248L63.2482 47.3087C62.8836 48.6021 62.4557 50.7044 61.9692 53.6252C61.6117 55.772 55.8703 58.4665 55.7844 58.2122C55.7576 58.1329 56.228 57.809 56.8968 57.3484L56.8974 57.3479L56.9001 57.3461C57.1606 57.1666 57.4511 56.9666 57.7539 56.7522C57.7431 56.7323 57.7323 56.7111 57.7212 56.6888C56.8751 54.9919 56.3541 53.5031 56.1615 52.2162C55.9711 50.944 56.4154 45.8246 56.6977 45.826L56.7332 45.8274C56.8755 45.8373 56.8442 46.5007 56.7978 47.4842C56.7473 48.556 56.6788 50.008 56.7976 51.4084C56.9266 52.929 57.6008 54.4607 58.0691 55.5247C58.1984 55.8185 58.312 56.0766 58.3942 56.289C59.6317 55.3708 60.872 54.2965 61.0104 53.4655L61.1208 52.8109C61.5584 50.2486 61.9485 48.3578 62.2913 47.1214L62.3127 47.045C62.5004 46.3789 62.6756 45.9029 62.8486 45.6003C63.1204 45.1246 63.5323 44.8771 63.965 45.2213C64.4458 45.6036 64.6863 47.2484 64.7747 50.2472C64.8483 48.904 64.9705 47.8168 65.1362 47.0026C65.2746 46.3221 65.4432 45.8296 65.6535 45.5182C65.9521 45.076 66.419 44.9252 66.8436 45.2221L66.8721 45.243C67.7841 45.9413 68.399 49.3282 68.435 53.7327L68.4367 54.1012L68.4455 54.1526C69.0024 56.2579 70.1568 57.485 71.2043 58.2201C73.3416 54.7175 72.0976 48.2291 71.5699 45.4767C71.4178 44.6836 71.3253 44.2007 71.3902 44.1889C71.6837 44.1359 71.9646 44.3307 72.0177 44.6242C72.6932 48.3588 73.0409 51.1199 73.0597 52.9212C73.0787 54.7437 72.7735 56.6644 72.1462 58.6825C72.1371 58.7117 72.1258 58.7396 72.1124 58.7661C72.432 58.9302 72.7125 59.0489 72.9242 59.1384C73.1974 59.254 73.3559 59.3211 73.3354 59.3747C73.2395 59.6254 69.3658 59.6254 67.471 54.2213C67.4644 54.2024 67.4645 54.1755 67.4646 54.1512L67.4646 54.1428C67.4646 51.8887 67.3102 49.8787 67.039 48.3452C66.9156 47.647 66.7712 47.0701 66.6171 46.6466L66.5965 46.591C66.5277 46.4095 66.4601 46.2673 66.4023 46.1688L66.3999 46.1645L66.3879 46.1883C66.2862 46.398 66.1819 46.7383 66.0887 47.1964L66.0735 47.2726C66.0262 47.5143 65.9674 47.7822 65.903 48.0756C65.6251 49.3413 65.2429 51.0821 65.2341 53.2514L65.2334 53.5751C65.2334 57.3593 67.8935 61.9414 70.9175 63.7367C74.0598 65.6023 76.7513 63.7686 77.0343 57.5054C77.5778 45.4788 74.257 37.4203 66.5263 35.4389C66.2738 35.3742 66.1078 35.1653 66.0054 34.8767ZM64.7641 54.7343C64.6541 56.0775 64.3734 57.597 63.9758 59.2689C63.2827 62.183 60.718 64.7158 57.9907 65.0993C57.5195 65.1655 57.0602 65.1694 56.6157 65.1114C56.6431 65.508 56.6744 66.0796 56.7088 66.8007C56.806 66.7872 56.9081 66.8 57.0043 66.8432C57.716 67.1631 61.6548 67.6053 65.0766 67.6738L65.3308 67.6782C69.4011 67.7393 72.316 67.2869 72.8633 66.4562L72.8965 65.3472C72.2376 65.2478 71.5493 64.9857 70.8533 64.5725C67.8428 62.7852 65.2218 58.5839 64.7641 54.7343ZM54.3259 23.0323C54.2417 21.7737 55.2611 21.8563 56.0133 21.9998C56.1738 22.7972 56.3968 23.6023 56.6694 24.3956L56.6311 24.3945C55.7953 24.3714 54.4129 24.333 54.3259 23.0323ZM71.9193 22.2037C71.904 22.3491 71.8872 22.4958 71.8689 22.6439C71.8028 23.1796 71.694 23.7224 71.5487 24.2646C72.5224 24.3799 74.1531 24.4436 73.8485 22.2806C73.7299 21.4383 72.6442 21.8951 71.9193 22.2037ZM63.7927 10.4429C64.2081 10.4182 64.6387 10.433 65.0745 10.4877C66.1777 10.4742 67.8284 9.97089 68.5847 9.07378C71.5518 5.55431 67.4378 1.56708 64.2425 2.08246C61.8697 2.46518 59.6307 4.1314 59.2745 6.79718C59.1033 8.07769 59.9395 10.117 63.7927 10.4429ZM57.4466 86.9215C57.8978 100.159 58.3836 114.409 58.6029 114.791C58.6399 114.858 59.2031 114.863 59.6497 114.867L59.6504 114.867H59.6525C59.7696 114.868 59.8787 114.869 59.968 114.871L60.2084 114.875L60.4812 114.875C61.1426 114.872 61.9763 114.841 62.9813 114.782L63.4002 114.757L65.0515 75.402C65.0061 74.5068 64.1803 73.4836 63.6251 72.7957C63.2946 72.3862 63.0599 72.0955 63.1429 72.0213C63.3623 71.8251 65.0789 73.7499 65.3954 74.4306C65.4013 74.4538 65.4081 74.4847 65.4157 74.5224C65.6105 74.0116 65.8849 73.4759 66.2419 72.9189C66.3707 72.718 68.0041 70.4522 66.8388 72.7883C64.3434 77.7909 67.17 79.824 72.1038 79.8419L72.1221 79.842L72.1242 79.842C72.1652 79.8424 72.1954 79.8427 72.2629 79.8341C74.184 79.5899 76.2687 79.7027 77.9109 79.9169C79.525 80.1275 82.3154 81.6993 79.1571 82.5866C78.4023 82.7987 77.1897 82.6706 75.7896 82.3663L75.4102 82.3035L73.1865 86.8017L73.5707 86.8846C80.3099 89.0274 84.2183 87.0278 85.2072 82.2637L85.2373 82.1138C86.648 74.8529 83.6198 70.3592 73.8127 70.8387L73.8 71.2651C73.7909 71.5632 73.542 71.7976 73.2439 71.7885C72.9458 71.7795 72.7114 71.5305 72.7205 71.2324L72.7302 70.9088C69.2962 71.1608 71.5451 70.7297 72.7413 70.5375L72.8224 67.8236C71.4083 68.5431 68.8029 68.8114 65.3391 68.7586L65.055 68.7535C61.6991 68.6864 57.9443 68.2838 56.7589 67.9021C56.9384 72.0107 57.1868 79.2975 57.4466 86.9204L57.4466 86.9215ZM74.4486 82.8021L73.6472 84.7484C73.0917 84.6639 72.7086 84.5656 72.4213 84.4919C72.3261 84.4674 72.2414 84.4457 72.1644 84.428C72.0598 83.6546 72.0625 83.0935 72.1601 82.7625C72.2449 82.4747 72.3675 82.3125 72.5273 82.2394C72.8717 82.352 73.2772 82.4745 73.7437 82.607L74.0945 82.7052L74.4486 82.8021ZM71.434 84.4821C71.4763 84.4544 71.5211 84.4333 71.567 84.4187C71.4507 83.7962 71.4498 82.8491 71.5473 82.5183C71.6137 82.2931 71.6699 82.116 71.7458 81.973C71.6347 81.9349 71.4658 81.8485 71.2578 81.742C70.3008 81.2522 68.5169 80.3391 67.7312 81.7719C66.4055 84.1896 65.2409 91.7852 65.5798 91.7873C66.062 91.7904 67.2875 90.0762 68.0942 88.5537L68.1299 88.4857L68.338 88.0809C68.971 86.8529 69.9827 85.4342 71.434 84.4821ZM75.2178 81.8253C75.045 81.7949 74.8739 81.872 74.7809 82.0148C74.7441 81.9924 74.7033 81.9751 74.6593 81.9642L71.6682 81.2257L71.6024 81.1882C69.3282 79.9028 67.8576 80.0118 66.8314 81.4437C66.4675 81.9514 66.2853 82.5898 66.1977 83.4367L66.1872 83.5437L66.1746 83.6899C66.1629 83.8366 66.1536 83.9883 66.1443 84.1756L66.1077 84.9565L66.1009 85.075C66.0896 85.2588 66.0782 85.3787 66.062 85.4913L66.0516 85.5586L66.0184 85.74L65.9981 85.8336C65.9867 85.8839 65.9726 85.9418 65.9542 86.0136L65.9011 86.2157L65.5767 87.3865C65.5187 87.6539 65.4642 87.9055 65.4129 88.1415L65.7606 78.3898C66.8532 79.7461 69.1749 80.4604 72.4919 80.2543L72.7652 80.2388C72.8936 80.2323 73.0233 80.2253 73.154 80.2183L73.1579 80.2181L73.1819 80.2168L73.1869 80.2165C74.6314 80.1389 76.199 80.0546 77.6193 80.37C81.1608 81.1567 79.7123 81.8797 79.4003 82.0354L79.3817 82.0447L79.3723 82.0495L79.3316 82.0689C78.8327 82.2907 77.6621 82.2457 75.4504 81.8659L75.2178 81.8253ZM52.0285 121.824L52.1464 121.789C52.0893 121.807 56.361 121.202 58.6473 118.823C59.0788 118.374 61.6975 118.704 61.6975 118.704L61.7 118.711C62.6857 120.343 62.8279 122.04 61.5913 122.54C61.1547 122.717 60.4174 122.893 59.6731 122.832L59.5648 122.822L59.4123 122.807C59.3075 122.796 59.1947 122.782 59.0625 122.766L58.3267 122.671C57.9395 122.623 57.7685 122.612 57.5346 122.612C57.126 122.612 55.1622 122.9 55.1622 122.9C54.5629 122.992 54.2577 123.024 53.9422 123.024C52.6798 123.026 51.8847 122.715 51.4937 122.556L51.4565 122.54C51.4214 122.524 51.3929 122.509 51.3706 122.494L51.3465 122.477L51.3446 122.485C51.3899 122.302 51.5428 121.972 52.0285 121.824ZM71.1379 22.6439C71.2614 21.6442 71.302 20.7097 71.2694 19.841C69.7728 20.4353 68.2746 20.3262 67.0013 19.5764C65.9551 18.9604 65.0129 17.9814 64.1707 16.6447L64.1398 16.5952L64.112 16.649C63.4317 17.9405 62.554 18.9719 61.4795 19.7381L61.3714 19.8138C60.0229 20.742 58.4409 21.1562 56.6408 21.0578L56.648 21.0898C57.6744 25.608 61.242 32.5691 63.9969 32.736C65.0507 32.7998 66.5798 31.0978 67.9977 29.2527C69.5286 27.2604 70.8568 24.9205 71.1379 22.6439ZM68.6431 13.1652C69.9912 14.427 70.9429 16.3547 71.2064 18.9318C71.1905 18.9368 71.1748 18.9428 71.1592 18.9498C69.836 19.5431 68.539 19.6952 67.4397 19.0479C66.3509 18.4068 65.3615 17.0709 64.4783 15.4639C64.3051 15.1488 63.8453 15.1708 63.703 15.501C63.6747 15.5666 63.6438 15.6405 63.61 15.7215C63.2196 16.655 62.435 18.5315 60.7327 19.5221C59.4935 20.2432 57.665 20.4258 56.7621 20.516L56.7611 20.5161L56.7596 20.5162C56.6791 20.5243 56.606 20.5316 56.5414 20.5385C56.5077 20.3282 56.4824 20.1193 56.4648 19.9119C57.4965 19.7251 59.6645 19.0111 60.5362 18.4636C61.6419 17.769 61.9804 17.0602 62.5433 15.8818C62.6465 15.6659 62.7572 15.4341 62.8815 15.1838C62.9889 14.9676 63.2434 13.5273 62.64 14.6226C62.6033 14.6892 62.5644 14.7618 62.5227 14.8398L62.5225 14.8403L62.5223 14.8405L62.5222 14.8407C61.8944 16.0144 60.6189 18.3987 56.4397 19.4863C56.3585 17.0666 57.3366 14.8983 58.7669 13.4961C60.1026 12.1866 62.1229 11.3207 63.6579 11.1718C65.2727 11.0151 67.225 11.8378 68.6431 13.1652Z" fill="#00160A"/>
<path fill-rule="evenodd" clip-rule="evenodd" d="M24.922 88.6436C24.6633 85.8876 23.3808 83.1594 21.3481 81.2863C19.8682 79.9223 17.7471 78.7801 15.7679 79.7568C12.723 81.5742 11.9053 85.3039 12.2123 88.6436C12.5929 92.7829 14.5264 95.3352 18.241 96.8598C20.3339 97.7184 21.7252 98.8514 22.8613 100.826C23.7701 102.404 24.3 104.381 25.442 105.812C27.1494 107.952 29.286 108.903 31.9195 108.547C32.4415 108.547 34.123 110.113 34.6485 111.061C36.0207 113.538 37.1986 116.153 37.7392 118.949C37.8969 119.765 37.7853 122.818 38.3424 123.407C39.3609 124.485 39.0625 122.409 39.0016 121.783C38.4957 116.596 36.6336 112.177 33.9299 107.816C34.7605 106.732 34.8804 103.971 34.6195 103.1C33.9299 100.4 25.4426 94.192 24.922 88.6436Z" fill="white"/>
<path fill-rule="evenodd" clip-rule="evenodd" d="M15.4563 79.1311L15.4412 79.1393C12.6127 80.8276 11.5781 83.1868 11.7812 88.6633C11.9946 94.4178 14.0818 95.4377 17.8288 97.0122L17.943 97.0596C20.0464 97.9225 21.373 99.0477 22.4581 100.933L22.5451 101.087C22.7348 101.429 22.9042 101.778 23.143 102.311L23.5708 103.281C24.1483 104.584 24.5162 105.269 25.0572 105.947C26.8331 108.172 29.0544 109.123 31.7324 108.761L31.7579 108.756L31.7826 108.748C32.1976 108.585 33.6086 110.02 34.2435 111.166C35.7857 113.949 36.7816 116.376 37.2773 118.819L37.3111 118.99C37.3431 119.155 37.3641 119.41 37.3886 119.893L37.4224 120.609C37.4305 120.776 37.4381 120.921 37.446 121.058L37.4509 121.14C37.5315 122.472 37.6637 123.232 37.9694 123.555C38.3777 123.987 38.7546 124.069 38.9612 123.694C39.0787 123.48 39.1062 123.136 39.081 122.651L39.0709 122.489C39.0649 122.406 39.0576 122.32 39.0488 122.228L38.9789 121.547C38.4838 116.831 36.8725 112.551 34.0277 107.914L33.9723 107.824L34.0076 107.768C34.6885 106.644 34.9367 104.127 34.6104 103.038C34.0526 101.177 32.9492 99.671 30.9415 97.6853L30.5919 97.3409C27.1971 93.9831 26.0584 92.2511 25.1253 88.5553L24.8042 87.2767L24.7961 87.2454C24.0298 84.2911 23.2256 82.5327 21.7047 81.1312C19.8799 79.4495 17.3148 78.214 15.4563 79.1311ZM21.4119 81.4489C22.8072 82.7346 23.7936 84.3591 24.5179 87.0651L24.6736 87.6638L24.8903 88.5327C25.1253 90.8621 25.8516 93.6062 30.2884 97.6484L30.5243 97.8808C32.5568 99.8757 33.6544 101.353 34.1966 103.162C34.5048 104.19 34.2226 106.797 33.5424 107.685C33.4878 107.756 33.483 107.854 33.5303 107.93C36.4235 112.596 38.0532 116.873 38.5489 121.589L38.6097 122.177L38.6267 122.355C38.6342 122.44 38.6404 122.52 38.6452 122.597L38.6496 122.673C38.6705 123.076 38.6473 123.368 38.5828 123.485L38.5796 123.493L38.5873 123.495C38.5301 123.483 38.4242 123.408 38.2833 123.259C38.0878 123.052 37.9613 122.349 37.8879 121.207L37.8726 120.951L37.8163 119.797C37.7933 119.36 37.7726 119.115 37.7402 118.934L37.7353 118.908C37.2419 116.356 36.2196 113.841 34.6214 110.956L34.5863 110.894C33.839 109.581 32.3874 108.111 31.6587 108.334L31.6542 108.336L31.6747 108.333C29.151 108.674 27.0782 107.787 25.3949 105.677C24.8684 105.018 24.5076 104.336 23.9153 102.992L23.61 102.297C23.2879 101.572 23.0887 101.163 22.8325 100.718C21.719 98.7829 20.3478 97.6019 18.2256 96.7093L18.107 96.66C14.4336 95.1522 12.5814 92.6472 12.2114 88.6238L12.2009 88.5038C11.8889 84.788 13.0042 81.5834 15.579 79.993L15.6549 79.9467L15.6475 79.9505C17.316 79.1272 19.7045 79.8753 21.4119 81.4489Z" fill="#00160A"/>
<path fill-rule="evenodd" clip-rule="evenodd" d="M36.8864 108.613C38.136 108.805 39.2247 108.073 39.6439 106.854C40.006 105.8 40.0414 104.574 40.4528 103.578C40.7361 102.892 41.1868 102.309 41.738 101.816C43.1919 100.516 44.7098 100.191 45.1432 98.0341C45.4829 96.3431 45.061 92.8963 42.7009 93.2399C41.0589 93.4801 39.7321 95.6741 38.9673 97.0578C38.021 98.7699 37.138 100.605 36.6408 102.486C35.8216 105.584 35.7109 109.022 35.7008 112.195C35.6995 112.578 35.6197 117.248 36.1658 117.172C36.7068 117.096 36.3642 112.248 36.4103 111.244" fill="white"/>
<path fill-rule="evenodd" clip-rule="evenodd" d="M19.1107 82.6968C18.6947 82.9102 18.7763 83.5965 19.274 84.8216C19.7726 86.049 20.5079 86.9732 21.2592 87.3935C22.0276 87.8234 22.7294 87.6462 22.9233 86.8922C23.0983 86.2121 21.9015 84.5099 20.6307 83.3845C19.9693 82.7988 19.453 82.5212 19.1107 82.6968ZM20.3443 83.7079C21.3642 84.9411 22.6214 86.5482 22.505 87.0006C22.3911 87.4431 22.0158 87.5378 21.4701 87.2325C20.8122 86.8644 20.0203 85.8195 19.5562 84.677L19.4879 84.5052C19.0635 83.6869 19.0647 82.9484 19.3079 82.8652C19.5394 82.7859 20.041 83.3413 20.3443 83.7079ZM40.5138 96.1133C40.3441 95.6494 40.8541 95.0784 41.7944 94.667C42.8042 94.2251 43.4611 94.1933 43.4578 94.7433C43.4556 95.1148 42.9545 95.6338 42.19 96.1006C41.415 96.5738 40.6915 96.5993 40.5138 96.1133ZM43.0197 94.7725C43.0022 94.77 42.9808 94.7686 42.9543 94.7688L42.926 94.7696C42.8978 94.771 42.8632 94.77 42.8216 94.7688C42.5627 94.7615 42.0299 94.7464 41.0335 95.2406C40.8199 95.3465 40.6833 95.9097 40.7035 95.9649C40.7523 96.0983 41.3891 96.2994 41.9649 95.9479C42.2048 95.8014 42.4154 95.5428 42.5867 95.3324C42.6588 95.2439 42.7239 95.1639 42.7814 95.1044C42.9107 94.9705 42.9893 94.8547 43.0158 94.7844L43.0197 94.7725ZM41.3894 98.9724L41.285 99.1416C40.8284 99.8867 40.5521 100.415 40.4412 100.748C40.2929 101.194 40.4516 101.509 40.8642 101.374C41.2404 101.251 41.9654 100.642 42.8671 99.7521C43.5965 99.0324 43.9615 97.9384 43.6817 97.4144C43.3015 96.7022 42.414 97.3249 41.3894 98.9724ZM43.3006 97.4019C43.4732 97.7252 43.1719 98.8445 42.5637 99.4446L42.3595 99.644C42.2009 99.7971 42.031 99.9691 41.8625 100.14C41.3451 100.663 40.8409 101.174 40.7198 101.085C40.5787 100.981 41.0379 100.008 41.5403 99.2006C42.0246 98.4217 42.6595 97.7029 42.9806 97.4775C43.1896 97.3309 43.2644 97.3341 43.3006 97.4019ZM37.2961 105.635C37.1736 106.45 37.2832 107.058 37.6945 107.142C38.1174 107.229 38.5667 106.666 39.0675 105.517C39.5456 104.42 39.4206 103.381 38.7949 103.224C38.1497 103.061 37.5636 103.961 37.309 105.552L37.2961 105.635ZM38.6895 103.643C38.9689 103.713 39.1138 104.446 38.7523 105.386C38.4683 106.125 37.6945 107.88 37.4898 106.506C37.4587 106.297 37.4586 106.024 37.5073 105.7L37.5335 105.536C37.7561 104.227 38.4037 103.571 38.6895 103.643ZM14.9174 92.0502C13.8595 90.8962 13.2331 89.4584 13.7536 88.8293C14.3739 88.0797 17.2365 90.6729 17.1992 91.9683C17.1774 92.7243 16.8484 93.1123 16.3032 93.0131C15.899 92.9395 15.4064 92.5835 14.9174 92.0502ZM14.0848 88.8909L14.0699 88.9106C13.7863 89.3216 14.1176 90.7741 15.0198 91.7582C15.4505 92.2281 16.0921 92.7515 16.3806 92.804C16.6215 92.8479 16.7523 92.6936 16.7674 92.1719C16.7812 91.6927 16.2478 90.6902 15.4671 89.983C15.3807 89.9047 15.2775 89.7993 15.1655 89.685C14.8262 89.3383 14.4063 88.9095 14.1311 88.9061C14.0874 88.9055 14.078 88.901 14.0848 88.8909ZM26.5876 104.647C26.8288 105.696 27.3054 106.378 27.9508 106.753C28.3883 107.006 28.7945 107.081 29.2601 107.081C30.2589 107.081 30.7222 106.636 30.5484 105.913C30.418 105.371 29.9165 104.698 29.2483 104.111C28.5821 103.525 27.8675 103.129 27.3483 103.096C26.6385 103.052 26.3524 103.625 26.5876 104.647ZM27.3214 103.527C27.7231 103.552 28.3624 103.907 28.9632 104.435C29.5705 104.969 30.0231 105.577 30.1284 106.014C30.2292 106.433 30.0046 106.865 29.2601 106.865C28.8638 106.865 28.5262 106.803 28.1675 106.595C27.6293 106.283 27.0079 105.486 26.7926 104.55C26.6135 103.772 26.9627 103.505 27.3214 103.527ZM28.3905 100.21C27.4963 99.4673 27.0685 98.6866 27.3261 98.257C27.6194 97.7676 28.3877 98.0859 29.1659 98.941C29.6527 99.4759 30.3347 100.401 30.5359 100.859C30.6179 101.045 30.6457 101.184 30.583 101.31C30.4882 101.502 30.2994 101.507 30.0787 101.417C29.7969 101.301 29.3204 100.97 28.6163 100.396L28.3905 100.21ZM27.948 98.5143C27.8533 98.4751 27.778 98.461 27.7288 98.4669C27.7058 98.4696 27.7002 98.473 27.6966 98.4791C27.6911 98.4882 27.6813 98.5002 27.6693 98.5149C27.6089 98.5891 27.4924 98.7319 27.5934 98.9162C27.7523 99.206 28.2589 99.7553 28.6666 100.094C29.211 100.547 29.7816 100.864 30.1213 101.053L30.1214 101.053L30.122 101.053C30.1852 101.089 30.2405 101.119 30.286 101.146L30.3148 101.162L30.2829 101.102C30.0481 100.673 29.2983 99.7388 28.8945 99.2852L28.8465 99.2318C28.5072 98.859 28.1943 98.6163 27.948 98.5143ZM18.9021 94.369C18.6445 94.7986 19.0723 95.5793 19.9665 96.3223L20.1923 96.5083C20.8964 97.0823 21.3729 97.4134 21.6547 97.5288C21.8754 97.6193 22.0642 97.6141 22.159 97.4225C22.2217 97.2957 22.1939 97.1569 22.1119 96.9706C21.9107 96.5135 21.2288 95.5879 20.742 95.053C19.9637 94.1978 19.1954 93.8796 18.9021 94.369ZM19.3048 94.5789C19.354 94.573 19.4293 94.5871 19.524 94.6263C19.7703 94.7283 20.0832 94.971 20.4225 95.3438L20.4705 95.3972C20.8743 95.8508 21.4081 96.7851 21.6429 97.2137L21.6748 97.2738L21.646 97.2576C21.356 97.0901 20.8888 96.7432 20.2426 96.2061C19.8348 95.8673 19.3282 95.318 19.1694 95.0282C19.0684 94.8439 19.1849 94.7011 19.2453 94.6269L19.2453 94.6269C19.2573 94.6122 19.2671 94.6002 19.2726 94.5911C19.2762 94.585 19.2818 94.5816 19.3048 94.5789ZM24.2865 95.0263C23.3923 94.2833 22.9645 93.5026 23.2221 93.0729C23.5154 92.5836 24.2837 92.9018 25.062 93.757C25.5488 94.2919 26.2307 95.2174 26.4319 95.6746C26.5139 95.8609 26.5417 95.9997 26.479 96.1264C26.3842 96.318 26.1954 96.3232 25.9747 96.2328C25.6929 96.1173 25.2164 95.7863 24.5123 95.2123L24.2865 95.0263ZM23.844 93.3303C23.7493 93.291 23.674 93.277 23.6248 93.2829C23.6018 93.2856 23.5962 93.289 23.5926 93.2951C23.5916 93.2968 23.5905 93.2986 23.5893 93.3006C23.5524 93.3617 23.4427 93.5431 23.56 93.757C23.7188 94.0469 24.1832 94.7808 24.3466 94.9101C24.8314 95.294 25.4397 95.5916 25.8427 95.7888C25.9873 95.8595 26.1054 95.9174 26.182 95.9616L26.2108 95.9778L26.1789 95.9177C25.9441 95.4891 25.1943 94.5548 24.7905 94.1012L24.7425 94.0478C24.4032 93.675 24.0903 93.4323 23.844 93.3303Z" fill="#FFB61D"/>
<path fill-rule="evenodd" clip-rule="evenodd" d="M42.6697 93.0261C43.8621 92.8525 44.9163 93.5421 45.3545 94.8031C45.6988 95.7937 45.5504 97.1039 45.3549 98.0766C45.1042 99.3243 44.582 99.9911 43.4317 100.817L42.7404 101.302C42.5017 101.472 42.3059 101.62 42.1185 101.774C42.0371 101.841 41.9585 101.909 41.8819 101.977C41.3256 102.474 40.9106 103.035 40.6524 103.66L40.6171 103.748C40.4803 104.099 40.3937 104.446 40.2689 105.095L40.1617 105.662C40.0531 106.226 39.9713 106.566 39.8481 106.924C39.3754 108.299 38.3773 109.027 37.0696 108.827C36.9517 108.808 36.5643 108.838 37.4324 108.662C38.3005 108.486 39.0303 107.974 39.4396 106.784C39.5547 106.449 39.6329 106.124 39.7382 105.577L39.8459 105.006C39.9861 104.279 40.0814 103.911 40.2531 103.495C40.5374 102.807 40.9912 102.194 41.594 101.655C41.675 101.583 41.7581 101.511 41.8439 101.441C42.0155 101.3 42.1928 101.164 42.3994 101.015L42.6096 100.866C42.7838 100.744 43.0492 100.559 43.103 100.521L43.2523 100.414C44.2696 99.6716 44.927 99.0882 45.1474 97.9915C45.3281 97.0922 45.0485 95.8601 44.7304 94.9449C44.3536 93.8605 43.6896 93.0982 42.7321 93.2376C41.3223 93.4438 37.8224 98.5671 36.8547 101.704C36.0584 104.285 35.8563 108.247 35.9091 111.804L35.9176 112.311L35.9164 113.01C35.9168 113.576 35.9224 114.049 35.9374 114.541L35.9413 114.665C35.965 115.376 36.0061 115.961 36.0676 116.382C36.0879 116.521 36.1102 116.639 36.134 116.736L36.1462 116.783L36.1527 116.754C36.1796 116.624 36.2015 116.455 36.2182 116.248L36.2236 116.178L36.2332 116.03C36.2597 115.57 36.2651 114.981 36.2538 114.246L36.2439 113.732C36.2396 113.543 36.2343 113.34 36.2276 113.104L36.1914 111.747C36.1874 111.536 36.1877 111.426 36.191 111.323L36.2072 110.93C36.2189 110.61 36.2261 110.278 36.2343 109.751L36.2465 108.987C36.2792 107.24 36.343 106.371 36.5511 105.301C36.5825 105.14 36.6168 104.981 36.6541 104.823C37.1992 102.528 38.3723 100.876 39.5073 98.852C39.8481 98.2441 41.6371 97.3131 41.6536 97.4312C41.67 97.5494 40.1217 98.2482 39.6518 99.0298C38.6521 100.693 37.6073 102.68 37.0744 104.923C37.0384 105.075 37.0054 105.228 36.9751 105.384L36.9357 105.594C36.7647 106.543 36.7084 107.393 36.6784 109L36.6559 110.338C36.6502 110.61 36.6438 110.827 36.635 111.048L36.622 111.368C36.6192 111.487 36.6204 111.632 36.6279 111.945L36.6738 113.64C36.6778 113.807 36.681 113.96 36.6837 114.114L36.6908 114.61C36.7111 116.531 36.6216 117.326 36.1958 117.386C35.8625 117.433 35.7373 117.108 35.6402 116.444C35.5796 116.03 35.5388 115.476 35.514 114.806L35.5095 114.679C35.4915 114.136 35.4849 113.628 35.4844 113.011L35.4848 112.201C35.3935 108.504 35.817 104.302 36.6579 101.576C37.6717 98.2902 41.0343 93.2654 42.6697 93.0261Z" fill="#00160A"/>
<ellipse cx="36.128" cy="119.352" rx="8.424" ry="6.264" fill="white"/>
<ellipse cx="32.7811" cy="119.352" rx="5.07704" ry="6.264" fill="#A9B5C6"/>
<path fill-rule="evenodd" clip-rule="evenodd" d="M44.552 112.818H27.704C27.5549 112.818 27.434 112.939 27.434 113.088C27.434 117.703 27.8695 120.575 29.0266 122.57C30.3312 124.819 32.5792 125.886 36.128 125.886C39.6769 125.886 41.9248 124.819 43.2295 122.57C44.3866 120.575 44.822 117.703 44.822 113.088C44.822 112.939 44.7011 112.818 44.552 112.818ZM28.4065 113.358H44.0654L44.0652 113.42C44.0447 117.751 44.047 120.457 42.9784 122.299C41.7796 124.366 39.4981 125.562 36.128 125.562C32.758 125.562 30.6925 124.15 29.4937 122.083L29.4534 122.013C28.4281 120.197 28.4384 117.768 28.4078 113.59L28.4065 113.358Z" fill="#00160A"/>
</svg>
