<svg width="121" height="94" viewBox="0 0 121 94" fill="none" xmlns="http://www.w3.org/2000/svg">
<path fill-rule="evenodd" clip-rule="evenodd" d="M102.435 13.4982C83.0513 2.37462 67.9374 35.0261 56.9597 39.1366C34.8359 47.4206 -6.25736 54.6256 1.57952 70.7309C12.3401 92.8446 49.781 95.0511 76.5556 92.8446C111.381 89.9747 140.546 35.3681 102.435 13.4982Z" fill="#EBF1FA"/>
<path fill-rule="evenodd" clip-rule="evenodd" d="M99.6246 49.14C99.8243 49.3161 99.8923 49.592 99.9422 49.856L100.246 51.5129C100.288 51.7433 100.481 51.8524 100.556 51.7213C100.635 51.5824 100.845 51.64 100.986 51.715L102.746 52.6518C102.148 53.0816 101.441 53.3601 100.71 53.4545C100.349 53.5011 100.291 53.9947 100.329 54.3561L100.434 55.3394C100.466 55.6457 99.9842 55.7498 99.7435 55.5576C99.5027 55.3654 99.4114 55.0436 99.2217 54.8009C98.9153 54.4087 98.3736 54.2625 97.878 54.308C97.3825 54.3534 96.9183 54.5611 96.4648 54.766C96.1724 54.8981 95.8508 54.5482 95.8737 54.2282C95.8938 53.9458 96.0744 53.7091 96.2586 53.4887L96.3321 53.4014C96.5388 53.156 96.7455 52.8651 96.7105 52.5462C96.6815 52.2806 96.4918 52.0667 96.3017 51.8757L96.1903 51.7641C96.014 51.5838 95.8466 51.3835 95.8156 51.137C95.7803 50.8553 96.0374 50.5311 96.3076 50.6184C97.3479 50.9547 98.6006 50.299 98.9171 49.2525C98.9994 48.9806 99.4116 48.952 99.6246 49.14Z" fill="white"/>
<path fill-rule="evenodd" clip-rule="evenodd" d="M99.6246 49.14C99.8243 49.3161 99.8923 49.592 99.9422 49.856L100.246 51.5129C100.288 51.7433 100.195 52.1 99.9754 52.0194C99.6622 51.3553 99.4956 50.6225 99.4908 49.8882C99.3713 49.7734 99.1934 49.9442 99.1191 50.0923L98.3763 51.5722C98.2455 51.8328 97.8551 51.7753 97.5973 51.639L97.4592 51.5659C97.2356 51.4499 96.992 51.3472 96.78 51.4616C96.6719 51.7856 97.1529 51.9472 97.4025 52.1805C97.6875 52.4469 97.6707 52.9251 97.4715 53.2605C97.2722 53.5959 96.9354 53.8219 96.6097 54.0366C97.0777 54.1138 97.5766 53.9771 97.9399 53.6721C98.104 53.5344 98.2543 53.3576 98.464 53.3138C98.7884 53.2459 99.0799 53.5272 99.2483 53.8127C99.4167 54.0982 99.5501 54.4325 99.8377 54.5972C99.9818 54.3703 99.9048 54.0854 99.8141 53.8229L99.7709 53.7006C99.6669 53.4073 99.6201 53.0188 99.8753 52.8407C99.9713 52.7738 100.091 52.7542 100.208 52.7415L101.463 52.6158L100.74 52.0888C100.618 52 100.481 51.8524 100.556 51.7213C100.635 51.5824 100.845 51.64 100.986 51.715L102.746 52.6518C102.148 53.0816 101.441 53.3601 100.71 53.4545C100.349 53.5011 100.291 53.9947 100.329 54.3561L100.434 55.3394C100.466 55.6457 99.9842 55.7498 99.7435 55.5576C99.5027 55.3654 99.4114 55.0436 99.2217 54.8009C98.9153 54.4087 98.3736 54.2625 97.878 54.308C97.3825 54.3534 96.9183 54.5611 96.4648 54.766C96.1724 54.8981 95.8508 54.5482 95.8737 54.2282C95.8938 53.9458 96.0744 53.7091 96.2586 53.4887L96.3321 53.4014C96.5388 53.156 96.7455 52.8651 96.7105 52.5462C96.6815 52.2806 96.4918 52.0667 96.3017 51.8757L96.1903 51.7641C96.014 51.5838 95.8466 51.3835 95.8156 51.137C95.7803 50.8553 96.0374 50.5311 96.3076 50.6184C97.3479 50.9547 98.6006 50.299 98.9171 49.2525C98.9994 48.9806 99.4116 48.952 99.6246 49.14Z" fill="#FFB61D"/>
<path fill-rule="evenodd" clip-rule="evenodd" d="M30.3649 19.4255C29.6116 16.0779 31.6639 10.5209 35.3307 8.28662C38.9975 6.05231 43.6877 5.89926 47.7715 7.22609C47.6413 3.28108 51.6421 -0.104177 55.5757 0.221755C59.5094 0.547688 62.7733 4.07938 63.3018 7.991C63.7136 11.0388 62.149 14.6693 59.1234 15.2213C60.1929 19.0426 60.7876 23.0631 60.2005 26.9875C59.6135 30.9119 57.7459 34.7454 54.5942 37.1562C53.7239 38.3267 54.3812 40.0923 55.5268 40.9951C56.6724 41.8978 58.155 42.2151 59.5258 42.7133C65.2694 44.8008 69.3133 50.4674 70.2559 56.5056C71.1985 62.5437 69.3158 68.8057 65.9132 73.8822C63.5827 77.3592 60.4123 80.4472 56.4458 81.7844C50.8783 83.6613 44.7741 81.8338 39.3678 79.5332C37.307 78.6562 35.2083 77.6595 33.7536 75.9567C32.1941 74.1311 29.2466 75.1171 27.1211 76.2336C28.5344 76.82 29.9477 77.4064 31.361 77.9928C31.6647 78.1188 31.9942 78.2685 32.135 78.5656C32.4315 79.191 31.7012 79.7929 31.083 80.1042C30.4188 80.4387 29.7545 80.7732 29.0902 81.1077C25.0129 83.1609 20.7664 85.2587 16.203 85.3855C11.2139 85.5241 6.50107 83.2942 2.01091 81.1148C1.51182 80.8726 0.982783 80.6029 0.711409 80.119C0.440036 79.6352 0.591727 78.8806 1.12806 78.7387C6.16525 77.4066 10.9343 75.0686 15.0724 71.9026C14.7558 69.9316 14.8304 67.8987 15.2906 65.9563C15.3572 65.6753 15.4529 65.3673 15.7033 65.2235C16.3188 64.8699 16.8534 65.8014 16.9622 66.5028C17.2367 68.2735 17.5112 70.0442 17.7857 71.8149C21.0821 71.4502 24.2813 70.2394 26.993 68.33C24.878 66.6268 22.763 64.9235 20.648 63.2202C19.4277 62.2374 18.2498 61.6495 17.5907 59.7251C17.1513 58.4422 17.5059 57.1243 18.6545 55.7715C17.3723 49.3814 16.8113 44.5645 16.9714 41.3207C17.0142 40.4548 17.1111 39.5201 17.6939 38.8783C18.7226 37.7455 20.7426 38.234 21.6816 39.4422C22.6206 40.6505 22.7778 42.272 22.8992 43.7974C26.4746 43.3606 30.0499 42.9238 33.6253 42.487C34.9334 42.3271 36.288 42.171 37.547 42.5603C39.1266 43.0488 40.3952 44.4322 40.7453 46.048C42.254 45.6402 43.8973 45.138 44.7493 43.8279C45.6013 42.5177 44.8797 40.239 43.3183 40.3066C38.4342 40.5179 33.6576 36.8937 32.546 32.1331C32.2632 30.9223 32.1534 29.5768 31.3034 28.6694C29.9565 27.2314 28.9302 25.3777 28.9368 23.4074C28.9434 21.4372 29.7689 21.2021 30.3649 19.4255ZM1.21061 80.0587C1.32058 80.223 1.51251 80.309 1.69429 80.3868C3.55938 81.185 5.42447 81.9832 7.28957 82.7814C8.13821 83.1446 8.98961 83.5087 9.87709 83.7627C12.3522 84.4708 15.0192 84.2981 17.4801 85.0541C17.7786 85.1458 18.099 85.0511 18.3962 84.9554C20.5425 84.264 22.6636 83.4943 24.7538 82.6483C26.9406 81.7633 29.1076 80.7868 31.0491 79.4468C31.2258 79.3249 31.4091 79.1894 31.4897 78.9905C31.5703 78.7916 31.496 78.515 31.2896 78.4564C29.9793 78.0842 28.688 77.6452 27.4223 77.1417C27.0154 76.9798 26.5574 76.749 26.4711 76.3197C25.3561 76.3645 24.3811 77.0678 23.5586 77.822C22.7362 78.5762 21.9636 79.4279 20.9502 79.8951C19.9369 80.3623 18.5767 80.3219 17.8747 79.4545C17.7997 79.3619 17.7244 79.2553 17.6091 79.2252C17.4938 79.195 17.3458 79.3099 17.3995 79.4163C17.5387 79.6918 17.2397 80.0403 16.9316 80.0211C16.6235 80.0019 16.3826 79.7213 16.3068 79.422C16.2309 79.1228 15.8193 79.6573 15.2227 79.7463C14.626 79.8353 13.9931 79.4524 13.7949 78.8827C13.6316 78.4131 12.9912 78.4049 12.5019 78.317C11.3893 78.1172 10.5444 76.9513 10.7009 75.8318C7.50345 76.8982 4.36395 78.1384 1.30089 79.545C1.1212 79.6276 1.10065 79.8943 1.21061 80.0587Z" fill="white"/>
<path d="M46.1 34C47.0389 34 47.8 33.2389 47.8 32.3C47.8 31.3611 47.0389 30.6 46.1 30.6C45.1611 30.6 44.4 31.3611 44.4 32.3C44.4 33.2389 45.1611 34 46.1 34Z" fill="#FFB61D"/>
<path d="M34.3 32.6C34.797 32.6 35.2 32.1971 35.2 31.7C35.2 31.203 34.797 30.8 34.3 30.8C33.8029 30.8 33.4 31.203 33.4 31.7C33.4 32.1971 33.8029 32.6 34.3 32.6Z" fill="#FFB61D"/>
<path fill-rule="evenodd" clip-rule="evenodd" d="M54.2183 39.1229C54.3741 39.931 54.8368 40.7138 55.4529 41.1993C56.5985 42.102 59.1734 43.0315 60.5442 43.5297C60.6689 43.575 59.9656 43.9722 59.0577 44.8506C56.5996 47.2285 51.2251 51.4865 45.9744 49.3467C45.3607 49.0966 44.8476 48.8086 44.4296 48.5035C44.0444 48.2223 47.5795 48.6273 50.8843 48.0008C54.2071 47.3709 57.2986 45.7065 56.4711 44.387C55.6933 43.1467 53.5058 41.046 53.3352 39.8104C53.1079 38.1641 54.0844 38.4285 54.2183 39.1229Z" fill="#A9B5C6"/>
<path fill-rule="evenodd" clip-rule="evenodd" d="M1.14313 79.5911C1.14313 78.9316 3.22252 78.398 6.77724 77.0609C9.22216 76.1412 13.9877 73.4802 16.3323 73.3562C17.8925 73.2737 24.1275 75.5563 28.1965 77.1957C30.2425 78.02 31.8208 78.5363 31.8208 78.8007C31.8208 79.3318 27.4766 81.8962 23.0365 83.5817C20.8694 84.4044 18.8361 85.1411 16.9714 85.0914C11.2864 84.9397 1.14313 81.2606 1.14313 79.5911Z" fill="white"/>
<path fill-rule="evenodd" clip-rule="evenodd" d="M81.4564 24.8187C73.3043 28.3005 66.4939 34.2501 60.0052 40.3002L59.6083 40.6707C59.2298 41.0245 58.6552 41.3945 58.2467 41.0757L59.5076 39.9279C66.1048 33.934 72.9258 27.9905 81.0884 24.4594C87.3642 21.7445 87.2975 22.324 81.4564 24.8187ZM46.3415 82.8155L50.1657 86.981C50.3531 87.1851 50.5483 87.4041 50.6007 87.6763C50.6531 87.9484 50.4954 88.2806 50.2198 88.3094L42.3461 89.1328C41.0382 89.2696 39.7045 88.3628 39.328 87.1029C38.9514 85.843 39.5541 84.3672 40.6932 83.7102C41.8322 83.0532 43.3946 83.2604 44.3401 84.1742C44.5743 84.4006 44.9856 84.2083 45.1519 83.9282C45.3182 83.6481 45.3541 83.3047 45.5259 83.0279C45.6977 82.7512 46.1212 82.5755 46.3415 82.8155ZM39.992 85.2198C39.5037 86.1464 39.8124 87.4016 40.6482 88.033C41.0577 88.3423 41.5605 88.5083 42.0672 88.59C42.7829 88.7053 43.6132 88.618 44.0733 88.0578C44.2413 87.8533 44.3442 87.6026 44.4145 87.3474C44.6483 86.4982 44.5294 85.5575 44.0916 84.7931C43.9724 84.585 43.7891 84.3679 43.5496 84.3782C43.4357 84.3831 43.33 84.4407 43.2167 84.4524C43.028 84.4718 42.8534 84.3641 42.6815 84.2841C41.732 83.8419 40.4802 84.2931 39.992 85.2198ZM46.0017 83.651C45.8514 84.2779 45.5403 84.8655 45.1064 85.3423C44.9841 85.4765 45.0141 85.684 45.0389 85.8639C45.1595 86.7398 44.9601 87.6563 44.4864 88.4028C45.2626 88.219 46.0564 88.1092 46.8535 88.0752C47.946 88.0287 49.0859 88.1164 50.0872 87.6769C49.5523 87.4441 49.0982 87.0299 48.8173 86.5186C48.6521 86.2179 48.4235 85.9577 48.1968 85.7001L46.4556 83.7215C46.3297 83.5785 46.0462 83.4658 46.0017 83.651ZM26.2275 83.6135C26.4772 84.3931 27.4163 84.6604 28.2299 84.8008L33.6595 85.7074C34.915 85.917 36.2035 86.1264 37.452 85.8788C37.6876 85.8321 37.8122 86.2062 37.6568 86.3892C37.5014 86.5723 37.2309 86.5941 36.9908 86.5949C35.903 86.5985 34.8217 86.4539 33.7451 86.2921L32.5984 86.1173C30.5689 85.8054 28.5404 85.4733 26.554 84.9564C26.2139 84.8679 25.8617 84.7667 25.6014 84.5307C25.3411 84.2947 25.2057 83.8825 25.3889 83.5827C25.5721 83.2828 26.1204 83.2788 26.2275 83.6135ZM55.5757 0.221755C59.5094 0.547688 62.7733 4.07938 63.3018 7.991C63.7136 11.0389 62.149 14.6693 59.1234 15.2213C60.1929 19.0426 60.7876 23.0631 60.2006 26.9875C59.6135 30.9119 57.7459 34.7454 54.5942 37.1562C53.7239 38.3267 54.3812 40.0923 55.5268 40.9951C56.6724 41.8978 58.155 42.2151 59.5258 42.7133C65.2694 44.8008 69.3133 50.4674 70.2559 56.5056C71.1985 62.5437 69.3158 68.8058 65.9133 73.8822C63.5827 77.3592 60.4123 80.4472 56.4458 81.7844C50.934 83.6426 44.8961 81.87 39.5302 79.6021L39.3678 79.5332C37.3499 78.6745 35.2957 77.701 33.8453 76.0622L33.7536 75.9567C32.1941 74.1311 29.2466 75.1171 27.1211 76.2337L31.361 77.9928C31.6647 78.1188 31.9942 78.2685 32.1351 78.5656C32.4315 79.1911 31.7012 79.7929 31.083 80.1042L28.5935 81.3575C24.6681 83.3278 20.5814 85.2638 16.203 85.3855C11.2719 85.5225 6.61071 83.3457 2.16764 81.1909L1.88568 81.0536C1.42544 80.8261 0.960168 80.5626 0.711409 80.119C0.440036 79.6352 0.591727 78.8806 1.12806 78.7387C6.16525 77.4066 10.9343 75.0686 15.0724 71.9026C14.7558 69.9317 14.8304 67.8987 15.2906 65.9563L15.314 65.8619C15.3803 65.6089 15.4807 65.3513 15.7033 65.2235C16.3188 64.8699 16.8534 65.8014 16.9622 66.5029L17.7857 71.8149C21.0821 71.4503 24.2813 70.2394 26.993 68.3301L20.4775 63.0826C19.3109 62.1388 18.1299 61.1185 17.5907 59.7251C17.0252 58.2639 17.4801 56.2831 18.9414 55.7176C19.0567 50.1823 18.7649 44.6385 18.0692 39.1459C17.1072 44.6317 17.8804 50.2561 18.6546 55.7715C17.3271 51.1763 16.7522 46.3647 16.9591 41.5861L16.9714 41.3207C17.0142 40.4548 17.1111 39.5201 17.6939 38.8783C18.7226 37.7455 20.7426 38.234 21.6816 39.4423C22.6206 40.6505 22.7778 42.272 22.8992 43.7974L33.8711 42.4572C35.1024 42.3098 36.3667 42.1954 37.547 42.5603C39.1266 43.0488 40.3952 44.4322 40.7453 46.048L41.0026 45.9777C42.4375 45.5808 43.9455 45.0639 44.7493 43.8279C45.5923 42.5317 44.8949 40.2874 43.3678 40.3052L43.3183 40.3066C38.4342 40.5179 33.6576 36.8937 32.546 32.1331C32.2632 30.9223 32.1534 29.5768 31.3034 28.6694C29.9565 27.2314 28.9302 25.3777 28.9368 23.4074C28.9434 21.4372 30.1997 19.4054 32.1128 18.9344C34.0259 18.4634 36.29 20.0596 36.1249 22.0229C37.0531 21.9284 38.0025 22.0492 38.8774 22.3731C38.3785 21.0279 39.6718 19.5431 41.0932 19.3478C42.5146 19.1526 43.8997 19.8625 45.0817 20.6757C46.2637 21.4889 47.3932 22.4463 48.7675 22.8585L48.8308 22.7119C49.1148 22.0488 49.3764 21.3405 49.2333 20.6395C49.0795 19.8866 48.2313 19.2354 47.5444 19.5801C47.0623 18.1988 46.2951 16.9176 45.305 15.8403L42.5534 17.1376C42.1989 16.6067 41.9817 15.9848 41.9286 15.3486C40.1118 16.3869 38.1398 17.1531 36.0986 17.614L36.3075 16.0555L30.2077 19.2238C29.307 15.0254 31.6639 10.5209 35.3307 8.28663C38.9975 6.05231 43.6877 5.89926 47.7715 7.22609C47.6413 3.28108 51.6421 -0.104177 55.5757 0.221755ZM85.5844 68.6501C82.0702 69.4981 78.6589 70.7713 75.4485 72.4332L75.2164 72.5544C73.4375 73.4916 71.6915 74.6145 70.5764 76.2809C71.3294 76.1504 72.1333 76.3466 72.7414 76.8095C73.1255 77.1018 73.4464 77.5401 73.4235 78.0223C73.4117 78.2722 73.3079 78.5107 73.1679 78.7181C72.6209 79.5285 71.4627 79.8576 70.5713 79.4559C69.6799 79.0541 69.1593 77.9685 69.4041 77.0219C65.6224 78.3131 62.3713 81.091 60.5023 84.6226L60.4399 84.7419C60.3478 84.9197 60.2353 85.1187 60.04 85.1628C59.7715 85.2236 59.5324 84.9238 59.5447 84.6488C59.557 84.3737 59.7332 84.1368 59.9036 83.9206C62.1073 81.1222 64.6827 78.4586 67.9786 77.1079L68.2269 77.0082C69.0044 76.6997 69.8182 76.397 70.3203 75.7393C71.5381 74.1439 73.2913 73.0487 75.0715 72.1219C76.6648 71.2923 78.313 70.5681 80.0016 69.9557C81.6962 69.341 83.4289 68.8396 85.1652 68.3538L91.0473 66.7161C89.4564 67.8342 87.4746 68.1939 85.5844 68.6501ZM10.7009 75.8319C7.50345 76.8983 4.36395 78.1384 1.30089 79.5451C1.1212 79.6276 1.10065 79.8944 1.21061 80.0587C1.32058 80.223 1.51251 80.309 1.69429 80.3868L7.28957 82.7814C8.13821 83.1446 8.98961 83.5088 9.87709 83.7627C12.3522 84.4708 15.0192 84.2982 17.4801 85.0541C17.7786 85.1458 18.099 85.0511 18.3962 84.9554C20.5425 84.2641 22.6636 83.4944 24.7538 82.6484C26.9406 81.7633 29.1076 80.7869 31.0491 79.4468C31.2258 79.3249 31.4091 79.1894 31.4897 78.9905C31.5703 78.7916 31.496 78.515 31.2896 78.4564C29.9793 78.0842 28.688 77.6452 27.4223 77.1417L27.3345 77.1059C26.9519 76.9459 26.5512 76.7184 26.4711 76.3198C25.3561 76.3645 24.3811 77.0678 23.5586 77.822C22.7362 78.5762 21.9636 79.4279 20.9502 79.8951C19.9369 80.3623 18.5767 80.3219 17.8747 79.4545L17.8294 79.398C17.768 79.3223 17.7014 79.2493 17.6091 79.2252C17.4939 79.195 17.3458 79.3099 17.3995 79.4163C17.5387 79.6918 17.2397 80.0403 16.9316 80.0211C16.6235 80.0019 16.3826 79.7213 16.3068 79.4221C16.258 79.2297 16.2623 79.0308 16.2856 78.8325L16.2915 78.7837C16.1545 79.2689 15.7251 79.6714 15.2227 79.7463C14.626 79.8353 13.9931 79.4525 13.7949 78.8827C13.6316 78.4132 12.9912 78.4049 12.5019 78.317C11.3893 78.1172 10.5444 76.9514 10.7009 75.8319ZM18.2573 57.1462C17.5982 58.3186 18.2104 59.8022 19.0222 60.8746C21.568 64.2372 25.832 65.8509 28.7413 68.9044C29.4723 69.6717 30.1095 70.5217 30.7386 71.375L32.7158 74.0603C33.0792 74.5538 33.4439 75.0489 33.8679 75.4914C34.9736 76.6452 36.4295 77.3896 37.8695 78.0826C40.7913 79.4885 43.797 80.7804 46.9693 81.4515C50.1415 82.1226 53.5121 82.1455 56.5643 81.0511C59.421 80.0268 61.8825 78.0622 63.795 75.7058C65.662 73.4056 67.0323 70.7392 68.1307 67.9866L68.2106 67.785C68.3687 67.3836 68.5239 66.9635 68.4911 66.5334C68.4564 66.0785 68.214 65.6648 67.9311 65.3069C66.8525 63.9422 65.0497 63.1703 63.3233 63.3836C61.6239 63.5936 60.0678 64.7728 59.4453 66.3663L59.4164 66.4424C58.0635 70.1098 54.6947 72.868 50.9103 73.8468C47.1259 74.8255 43.0097 74.1242 39.5554 72.2945C36.1011 70.4649 33.2825 67.5686 31.1809 64.2727L31.0661 64.0908C30.6865 63.4813 30.3413 62.8402 30.2077 62.1372C30.0606 61.3638 30.2101 60.4941 30.7686 59.9394C31.1375 59.5729 31.6625 59.3579 31.9308 58.9125C32.1992 58.4671 31.8841 57.6803 31.389 57.8395L31.0588 57.944C28.7836 58.6519 26.144 59.2011 24.3135 57.728L24.1376 57.5872C23.2836 56.9086 22.371 56.2608 21.3099 56.0274C20.1757 55.7779 18.8264 56.1339 18.2573 57.1462ZM27.3268 69.0308C24.5671 70.7745 21.4526 71.9541 18.2303 72.4761C17.8049 72.545 17.6905 73.0966 17.6838 73.5275C17.6625 74.897 17.7289 76.268 17.8822 77.6291C18.2313 77.4649 18.3741 77.0542 18.612 76.7506C18.85 76.447 19.3931 76.2807 19.577 76.6198C19.7055 76.8566 19.534 77.1533 19.315 77.3104C19.0961 77.4675 18.8268 77.5525 18.6315 77.7383C18.1457 78.2003 18.3996 79.109 18.9915 79.4239C19.5834 79.7388 20.3321 79.5744 20.8996 79.2174C21.467 78.8603 21.9055 78.3368 22.3866 77.8699C23.4157 76.8714 24.6745 76.111 26.0371 75.6646C27.7671 75.098 29.6934 75.0137 31.2153 74.015C31.3178 73.9477 31.4239 73.8688 31.4626 73.7524C31.5154 73.5936 31.426 73.4286 31.3312 73.2872L29.5103 70.6431C29.2202 70.222 28.8864 69.7696 28.3894 69.6491C28.1622 69.5939 27.9199 69.6153 27.6969 69.5449C27.474 69.4746 27.2639 69.256 27.3268 69.0308ZM14.6137 72.8717C13.9037 73.2031 13.4836 73.9825 13.3901 74.7604C13.2966 75.5383 13.4802 76.3216 13.6983 77.0742C13.8321 77.5361 13.9806 77.9967 14.202 78.4237C14.3432 78.6959 14.5301 78.9674 14.8131 79.0858C15.096 79.2042 15.4886 79.0977 15.5806 78.8052C15.6184 78.6847 15.6015 78.5544 15.5795 78.4299C15.4971 77.9624 15.3493 77.5064 15.1419 77.0793L15.0547 76.9063C14.9299 76.6565 14.8124 76.362 14.9729 76.144C15.1261 75.9359 15.5027 75.8499 15.4667 75.594L15.1151 73.0946C15.1048 73.0216 15.0927 72.9444 15.0453 72.888C14.9454 72.7692 14.7543 72.806 14.6137 72.8717ZM70.9008 76.7267C70.6664 76.7257 70.4197 76.758 70.2315 76.8977C70.1214 76.9795 70.0381 77.0938 69.9796 77.2179C69.7323 77.7425 69.9604 78.4167 70.4292 78.7583C70.8979 79.0998 71.5475 79.1318 72.0901 78.9272C72.5051 78.7707 72.9044 78.4163 72.8905 77.9729C72.8795 77.6232 72.614 77.3312 72.3212 77.1395C71.9029 76.8658 71.4007 76.7289 70.9008 76.7267ZM15.9458 65.789C15.8858 65.8336 15.8561 65.9072 15.8307 65.9776C15.4616 67.0019 15.4164 68.1122 15.4266 69.201C15.4521 71.9309 15.8028 74.6575 16.4689 77.305L16.502 77.4338C16.6382 77.9508 16.8243 78.481 17.246 78.8007C17.3244 74.6053 17.0522 70.4034 16.4331 66.2531C16.393 65.9837 16.1644 65.6265 15.9458 65.789ZM12.6212 74.8068C12.533 74.8315 12.4764 74.9155 12.4324 74.9958C12.0724 75.6527 12.0481 76.4827 12.3691 77.1596C12.513 77.463 12.7597 77.758 13.0935 77.7953C13.2296 77.6259 13.1674 77.3817 13.0912 77.1742L13.0253 76.9985C12.7803 76.3344 12.5792 75.6156 12.7952 74.948C12.8234 74.8609 12.7093 74.7821 12.6212 74.8068ZM11.4201 75.7168C11.1677 76.2781 11.2802 76.9844 11.6945 77.4395C11.8655 77.2646 11.7903 76.9782 11.7319 76.7407C11.6405 76.369 11.6198 75.98 11.6714 75.6007C11.6077 75.5073 11.4665 75.6137 11.4201 75.7168ZM16.7416 55.7117C17.1243 56.0413 17.3676 56.7527 16.9131 56.973C16.6219 57.1142 16.292 56.9077 16.017 56.7371C14.5882 55.8506 12.7613 55.7853 11.1415 56.2363C9.52164 56.6873 8.07347 57.6059 6.71431 58.5959C5.36081 59.5817 4.05572 60.6635 3.03797 61.9931C2.02022 63.3228 1.30034 64.9251 1.24127 66.5985C1.17048 68.6037 2.03679 70.5207 3.03853 72.2592C3.677 73.3672 4.39696 74.4596 5.38807 75.2641L5.59182 75.4253C5.87297 75.651 6.16165 75.9309 6.08995 76.2703C5.11849 76.2265 4.4134 75.3573 3.87841 74.5453C3.11766 73.3906 2.42421 72.1915 1.80274 70.9562C1.28598 69.9291 0.813632 68.8589 0.656637 67.7198C0.361374 65.5776 1.2311 63.3994 2.58293 61.7116C3.93476 60.0237 5.73383 58.7571 7.55347 57.5887C8.93563 56.7012 10.3581 55.85 11.9097 55.3108C13.5098 54.7547 15.4581 54.6061 16.7416 55.7117ZM57.8048 46.2765C55.5039 48.4242 52.4454 49.7435 49.3043 49.9433C47.916 50.0317 46.4825 49.899 45.2264 49.3013C43.9702 48.7036 42.9121 47.5893 42.6202 46.2292L42.5159 46.2614C41.6067 46.549 40.5657 47.0696 40.5749 48.0066C40.6137 51.9805 40.5212 55.9556 40.2976 59.9234C40.2547 60.6847 39.9648 61.6843 39.2026 61.6619C36.4944 61.5823 33.7685 62.2076 31.3658 63.4597C34.0702 67.7008 37.9162 71.4089 42.7004 72.9623C47.4845 74.5157 53.2545 73.545 56.607 69.795C57.6816 68.593 58.4725 67.172 59.2342 65.7484L59.4095 65.4199C59.5715 65.1162 59.7363 64.7554 59.5923 64.4428C59.5004 64.2432 59.6986 64.0359 59.8806 63.9127C62.5558 62.1021 66.539 62.5933 68.6941 64.9997C68.5234 64.6657 68.6786 64.2053 69.0168 64.0429C69.2856 64.4749 69.3424 65.0321 69.1665 65.5094C69.283 65.6743 69.4966 65.4091 69.5151 65.2082C69.8024 62.0801 69.7799 58.9237 69.4479 55.8C69.3281 54.6737 69.1655 53.5403 68.7625 52.4818C68.4091 51.5535 67.878 50.7026 67.296 49.8977C65.9571 48.0457 64.3294 46.403 62.4898 45.0472L62.3562 44.95C62.0645 44.7412 61.7575 44.5488 61.4129 44.4549C60.0487 44.0835 58.8383 45.3118 57.8048 46.2765ZM39.2175 44.4771C37.6965 44.9889 36.0495 44.8905 34.4485 45.0011C32.1923 45.157 29.9666 45.7438 27.9268 46.7204C27.0482 47.141 26.1983 47.6353 25.2692 47.9279C23.296 48.5492 21.0341 48.1655 19.3761 46.9282C19.0187 49.6568 19.1241 52.4454 19.6866 55.1392C19.7227 55.3122 19.8366 55.5335 20.0056 55.4816C21.1269 55.1373 22.3329 55.6245 23.3299 56.2425C24.3268 56.8605 25.2638 57.6311 26.3962 57.9369C27.7246 58.2957 29.1324 57.9641 30.4473 57.5473L30.5457 57.5159C31.2197 57.2994 32.0915 57.119 32.5237 57.6796C32.8882 58.1525 32.6581 58.8588 32.2721 59.3143C31.8862 59.7699 31.3628 60.1085 31.0479 60.6159C30.6613 61.2388 30.6593 62.0801 31.0429 62.7048C33.5541 61.6976 36.2419 61.1326 38.9461 61.0435C39.4884 61.0256 39.6786 60.3238 39.7119 59.7822C40.0039 55.0367 40.0936 50.2787 39.9805 45.5256C39.9685 45.0189 39.6979 44.3154 39.2175 44.4771ZM79.8746 57.3095L79.9821 57.3634C80.648 57.7018 81.3568 58.1528 81.456 58.882C81.4886 59.1221 81.4475 59.3662 81.3904 59.6017C81.3114 59.9278 81.191 60.2624 80.9375 60.4822C80.6688 60.7153 80.2911 60.7814 79.9357 60.7676C79.2357 60.7404 78.5351 60.4143 78.1297 59.8431C77.7243 59.2718 77.659 58.4548 78.0373 57.8652C78.4156 57.2756 79.247 56.9984 79.8746 57.3095ZM78.8364 58.1253C78.4215 58.2984 78.2721 58.8595 78.4453 59.2744C78.6185 59.6893 79.0297 59.9623 79.4569 60.1022C79.8939 60.2453 80.4568 60.2336 80.7172 59.8546C80.8039 59.7285 80.8449 59.5765 80.8689 59.4253C80.921 59.0962 80.8894 58.7317 80.6773 58.4746C80.4147 58.1562 79.9665 58.0922 79.5477 58.0685L79.4438 58.0633C79.2387 58.0541 79.0258 58.0463 78.8364 58.1253ZM26.4575 49.5479C26.5099 49.7471 26.4696 49.9574 26.4337 50.1602C26.1812 51.5887 26.1629 53.0584 26.3794 54.4928L26.4194 54.7468C26.4457 54.9263 26.4565 55.1159 26.3534 55.2604C26.2343 55.4272 25.9007 55.4104 25.8841 55.2062C25.742 53.4681 25.651 51.7259 25.6111 49.9826C25.6035 49.6496 25.6904 49.2067 26.0225 49.1811C26.2279 49.1653 26.405 49.3488 26.4575 49.5479ZM14.77 46.0651C15.0156 46.1389 15.2515 46.3071 15.3227 46.5536C15.3939 46.8 15.2319 47.1114 14.9759 47.1275C14.7373 47.1426 14.5553 46.9253 14.3361 46.8299C13.9425 46.6588 13.501 46.8978 13.1392 47.1286L12.9551 47.2476C12.6077 47.4763 12.2712 47.7329 12.0805 48.0977C11.8854 48.4708 11.8691 48.9093 11.8751 49.3304C11.8793 49.623 11.893 49.9199 11.9835 50.1983C12.1798 50.8022 12.74 51.2547 13.3614 51.3856C13.9828 51.5165 14.6473 51.3469 15.173 50.9906L15.2759 50.9206C15.3687 50.8595 15.466 50.8062 15.5752 50.8009C15.7253 50.7937 15.8896 50.9352 15.8386 51.0766C15.8233 51.119 15.7919 51.1533 15.7604 51.1856C14.9013 52.0682 13.4176 52.2571 12.3647 51.618C12.1768 51.504 12.0017 51.3664 11.8598 51.1987C11.4331 50.6946 11.3535 49.9881 11.3417 49.3277C11.3354 48.9704 11.3442 48.6076 11.4458 48.265C11.6653 47.5245 12.2854 46.9746 12.93 46.5493C13.4773 46.1882 14.1421 45.8762 14.77 46.0651ZM9.7991 44.546L11.9411 47.0897C11.8232 47.2172 11.6167 47.2255 11.4575 47.1563C11.316 47.0947 11.2031 46.9847 11.0968 46.8717L9.84003 45.5201C9.66868 46.8919 9.2536 48.233 8.62 49.4618C8.55833 49.5814 8.73305 49.6824 8.8669 49.6961C9.19379 49.7297 9.52435 49.6923 9.84669 49.6285L10.0128 49.595C10.2731 49.5432 10.5401 49.5027 10.7827 49.5988C11.0774 49.7155 11.2592 50.1444 11.0229 50.3556C10.8773 50.4858 10.6566 50.4696 10.4627 50.4457L8.37664 50.1876L8.31254 50.1785C8.10659 50.1447 7.88024 50.0641 7.85006 49.8656C7.83186 49.7459 7.89831 49.6316 7.96051 49.5278C8.70302 48.2886 9.1977 46.9017 9.4077 45.4724L9.43934 45.2457C9.48015 44.9675 9.55239 44.6657 9.7991 44.546ZM82.7764 48.5424C83.0349 48.7254 83.2788 49.0844 83.0785 49.3297C82.9532 49.4832 82.7117 49.487 82.5315 49.4044C82.3514 49.3219 82.2114 49.1738 82.0559 49.0509C81.4186 48.5471 80.4613 48.494 79.7721 48.9243C79.674 48.9855 79.5764 49.0616 79.5366 49.1702C79.4968 49.2788 79.5408 49.4247 79.6517 49.4575C80.5314 49.0847 81.5802 49.1368 82.4186 49.595C82.5398 49.6612 82.6671 49.7493 82.6969 49.8841C82.7267 50.0189 82.5819 50.1807 82.4614 50.1132C81.9143 49.8069 81.2613 49.6942 80.6432 49.7994C80.355 49.8484 80.0731 49.9432 79.781 49.9524C79.4889 49.9617 79.1693 49.8642 79.0142 49.6165C78.8711 49.3878 78.9051 49.0793 79.0446 48.8485C79.1842 48.6177 79.4129 48.4541 79.6522 48.3296C80.6261 47.8228 81.8802 47.9082 82.7764 48.5424ZM53.5935 36.1759C51.5049 37.9316 49.0506 39.25 46.4339 40.0231L46.2593 40.0738C45.9195 40.1708 45.492 40.3859 45.5635 40.7319L45.6075 40.9466C45.738 41.5921 45.8487 42.2495 45.7556 42.899C45.6552 43.5995 45.2691 44.3006 44.63 44.595L44.5712 44.6206C43.4333 45.089 43.2734 46.7888 44.0196 47.7673C44.7658 48.7458 46.0598 49.1247 47.2822 49.2661C50.8699 49.6809 54.6137 48.4781 57.2883 46.0512C58.2584 45.1709 59.1264 44.1173 60.3274 43.5943L57.324 42.4949C56.5137 42.1984 55.6929 41.8963 54.9877 41.3993C54.2824 40.9023 53.6943 40.1786 53.5501 39.3279C53.3735 38.2859 53.8731 37.1951 53.5935 36.1759ZM18.9477 38.9931C18.8723 39.0266 18.7954 39.0711 18.7591 39.1452C18.7228 39.2194 18.7351 39.3071 18.7479 39.3886L19.436 43.7264C19.6388 45.0047 19.9237 46.4213 20.978 47.172C22.1329 47.9944 23.7188 47.6722 25.0636 47.2027L25.1354 47.1774C27.6387 46.2883 30.0479 45.0506 32.6716 44.6342C34.5553 44.3353 36.5307 44.4632 38.3119 43.7813C37.6604 42.7979 36.2489 42.8031 35.0681 42.9321L25.4217 44.0284C24.6744 44.1133 23.8894 44.2125 23.2825 44.6567C23.017 44.8511 22.7655 45.1182 22.4367 45.1317C22.1168 45.1449 21.8387 44.679 22.0895 44.5077L22.1116 44.4941C22.3866 44.3427 22.368 43.948 22.3118 43.6392L22.02 42.0395C21.8725 41.246 21.6924 40.4385 21.2176 39.7907C20.7049 39.091 19.7404 38.6409 18.9477 38.9931ZM85.5433 45.4765C85.7758 45.7474 85.7858 46.163 85.6308 46.4845C85.4758 46.8061 85.1821 47.0426 84.8645 47.2055C84.4813 47.4021 84.0594 47.5047 83.6364 47.5923L83.425 47.6352C83.3422 47.6518 83.2549 47.6682 83.1747 47.6415C83.1081 47.6193 83.0541 47.5694 83.0103 47.5145C82.7922 47.2409 82.7999 46.8373 82.9474 46.5201C83.0949 46.2029 83.3592 45.9563 83.6306 45.7356C83.908 45.51 84.2098 45.2974 84.5578 45.2149C84.9057 45.1324 85.3104 45.2052 85.5433 45.4765ZM84.4027 45.9525L84.2913 46.0274C84.1249 46.1414 83.9644 46.266 83.8525 46.4323C83.7158 46.6356 83.6682 46.9192 83.8032 47.1236L84.698 46.6257C84.8437 46.5446 84.9947 46.4589 85.0893 46.3215C85.1839 46.1842 85.2027 45.9792 85.0858 45.8603C84.9103 45.6817 84.6111 45.8139 84.4027 45.9525ZM70.1299 36.1601C70.1924 36.1854 70.2345 36.242 70.271 36.2997L71.5819 38.4408C71.8161 38.8235 72.3491 38.8661 72.7967 38.8346C73.6543 38.7742 74.5038 38.5991 75.3155 38.3155C75.4517 38.2679 75.5808 38.4412 75.5515 38.5824C75.5221 38.7236 75.4007 38.8241 75.287 38.9128L73.3182 40.4475C73.0764 40.4303 73.145 40.0346 73.3411 39.8921L73.3991 39.8517C73.5881 39.7241 73.8173 39.5982 73.8054 39.3792L72.6676 39.7347C72.4504 39.8026 72.2089 39.8693 72.0022 39.7739C71.8649 39.7105 71.7687 39.5861 71.6817 39.4608L70.2362 37.351L70.2113 39.1985C70.2092 39.35 70.2027 39.5144 70.1065 39.6315C70.0383 39.7146 69.9361 39.7592 69.8342 39.7968L67.8397 40.5125C68.3723 41.0451 69.3693 40.4847 70.0067 40.8861C70.4434 41.161 70.5179 41.7737 70.4237 42.2811C70.3295 42.7885 70.1136 43.2822 70.1416 43.7974C70.5056 43.5334 70.7729 43.139 70.8833 42.7032C70.9279 42.5275 70.9498 42.3405 71.0476 42.1879C71.317 41.7672 71.9607 41.8528 72.4067 42.0778C72.8528 42.3028 73.3156 42.6268 73.8036 42.5198L73.0956 41.3877C73.031 41.2845 72.964 41.1726 72.9697 41.0509C72.9755 40.9292 73.091 40.8062 73.2076 40.8416C73.2587 40.8571 73.2967 40.8975 73.3305 40.9398L74.91 42.9873C74.3553 43.353 73.6233 43.1226 72.9828 42.9461L72.8878 42.9213C72.263 42.7666 71.5003 42.7513 71.1552 43.2808C70.912 43.654 70.6266 43.9997 70.3062 44.3092C70.1712 44.4396 70.0173 44.5695 69.8308 44.5908C69.6444 44.6121 69.4301 44.4708 69.4467 44.2838L69.6303 42.2134C69.6422 42.0794 69.6512 41.9335 69.5765 41.8215C69.4979 41.7036 69.3496 41.6578 69.213 41.62L67.4874 41.1435C67.1122 41.0399 67.1095 40.4559 67.3909 40.187C67.6723 39.9182 68.0868 39.8618 68.4618 39.7578C68.8368 39.6538 69.2424 39.433 69.3101 39.0497L69.748 36.5692C69.7855 36.3571 69.9303 36.0793 70.1299 36.1601ZM23.7034 1.18796L23.3848 1.44693C21.2614 3.17728 19.1691 4.99132 17.6118 7.24064C15.9767 9.60244 14.9728 12.5311 15.4596 15.3622C16.169 19.4877 19.8592 22.7732 20.017 26.9563C20.0379 27.512 20.6038 27.8578 21.0772 28.1495C22.9454 29.3009 24.3298 31.1282 25.2433 33.1236C26.1283 35.0566 26.6008 37.1511 26.9444 39.2502L26.9772 39.4534C27.0284 39.7735 27.0658 40.1378 26.8593 40.3877C26.6528 40.6376 26.1218 40.5501 26.1424 40.2266C26.3848 36.4232 25.0025 32.543 22.4101 29.7495C21.7366 29.0238 20.9543 28.3511 20.0059 28.067C19.9455 29.532 19.4523 31.0248 18.4081 32.0542C17.364 33.0835 15.7168 33.5538 14.365 32.9858C13.0133 32.4178 12.1864 30.7026 12.7947 29.3686C13.3043 28.251 14.57 27.6864 15.775 27.4485C16.9573 27.2151 18.183 27.2029 19.3697 27.4128C19.5294 27.4411 19.599 27.2178 19.5958 27.0557C19.51 22.7077 15.4908 19.3035 14.9632 14.9867C14.6749 12.6276 15.4798 10.2528 16.648 8.18294C18.182 5.46481 20.3643 3.11541 22.9621 1.38536L23.0301 1.34124C23.2382 1.21026 23.4807 1.09854 23.7034 1.18796ZM36.937 23.3336C36.3554 23.7077 36.3703 24.5379 36.3222 25.2277C36.2562 26.174 35.9309 27.1211 35.2963 27.8262C34.6618 28.5313 33.6978 28.9644 32.7567 28.8461C32.5132 28.8155 32.4392 29.1678 32.4711 29.4111C33.0182 33.5813 35.548 37.6756 39.48 39.1689C41.8838 40.0817 44.5991 39.9605 47.0499 39.1824C49.4423 38.4228 51.6077 37.0718 53.5866 35.5254L53.7311 35.4119C54.018 35.1853 54.3065 34.9491 54.506 34.6426C54.7082 34.3318 54.8078 33.9641 54.8563 33.5964C55.1159 31.6266 53.7996 29.5655 51.9032 28.9726C51.68 28.9028 51.7317 28.5408 51.9275 28.413C52.1233 28.2852 52.3755 28.2938 52.5991 28.2255C53.2049 28.0404 53.4836 27.3504 53.6219 26.7323C53.8119 25.8829 53.8652 24.9142 53.3388 24.2211C52.6274 23.2843 51.2442 23.2855 50.0714 23.3753L48.1683 23.521C47.5115 23.5712 46.666 23.8027 46.6352 24.4607C46.5688 25.878 45.9445 27.2897 44.8415 28.1821C43.7385 29.0745 42.1501 29.383 40.8407 28.8368C39.5521 28.2992 38.6417 26.8964 38.7906 25.5114L38.7987 25.4444C38.8762 24.8585 38.8335 24.2223 38.4903 23.7412C38.1471 23.2601 37.434 23.0138 36.937 23.3336ZM52.6554 1.18707C51.8068 1.42832 50.9917 1.81742 50.3217 2.39146C49.3855 3.1937 48.7631 4.35297 48.6116 5.57657C48.5579 6.01012 48.6442 6.56928 49.0652 6.68575C50.0938 6.97028 51.0141 7.63008 51.6138 8.51286C50.6414 7.93422 49.5754 7.51319 48.47 7.27114L53.1422 9.91486C53.413 10.0681 53.6942 10.2309 53.8645 10.4913C54.0348 10.7517 54.0526 11.1404 53.8186 11.3455L53.492 11.0913C52.6735 10.4578 51.8367 9.8437 50.9205 9.36425C50.2239 8.99969 49.4887 8.71684 48.7494 8.4474L48.346 8.30135C46.9775 7.80762 45.5965 7.31076 44.1551 7.11349C42.8172 6.93039 41.4437 7.01168 40.1367 7.35132L39.8789 7.41737C38.1134 7.86414 36.2725 8.22945 34.8129 9.30891C33.9446 9.95102 33.2646 10.8106 32.619 11.6763L32.4667 11.8829C31.184 13.6441 30.0119 15.8154 30.7624 17.8361C34.208 17.4116 36.8924 14.7456 40.0138 13.2259C40.2524 13.1098 40.6458 13.0742 40.6821 13.3371L37.1893 15.4011C37.2862 15.9341 37.1946 16.4995 36.9343 16.9745C39.4862 16.2534 41.8719 14.9514 43.8597 13.1963L43.9861 13.0836C44.3014 12.7998 44.9089 12.5649 45.0433 12.9673L44.8724 13.0628C44.2456 13.4154 43.622 13.801 43.1899 14.372C42.7186 14.9948 42.5309 15.9003 42.9487 16.5603L47.358 13.9641C47.5371 13.8586 47.7325 13.7493 47.9392 13.771C48.1459 13.7928 48.3397 14.0154 48.2504 14.2031L48.1005 14.2343C47.6245 14.3355 47.1419 14.4621 46.7713 14.7722C46.3617 15.1148 46.1497 15.7572 46.454 16.196C46.9999 16.9831 47.443 17.8415 47.7683 18.7424C47.7753 18.3485 48.3123 18.147 48.6664 18.3199C49.0204 18.4929 49.2077 18.8833 49.336 19.2559C49.703 20.3217 49.7999 21.4793 49.6154 22.5913C50.7242 22.9828 52.0246 22.5203 53.0911 23.0156C54.0811 23.4752 54.5654 24.6676 54.4966 25.7569C54.4278 26.8461 53.9131 27.8533 53.3634 28.7963C54.8997 29.9865 55.7203 32.0366 55.4296 33.958C55.6975 33.9143 55.9238 33.6832 55.9618 33.4144L56.571 33.7989C55.6181 34.3375 54.9401 35.3371 54.7921 36.4217C58.9789 32.5038 60.3689 26.2943 59.7648 20.5922L59.7412 20.3795C59.5018 18.3204 58.9322 16.1741 57.3837 14.8102C58.2139 14.3315 59.2787 14.5198 60.167 14.1603C61.0064 13.8207 61.5832 13.0336 61.9728 12.2162C63.2754 9.48376 62.8269 6.00714 60.8734 3.69479C58.9199 1.38243 55.5671 0.359323 52.6554 1.18707ZM38.9685 35.4555C39.1005 35.4773 39.2504 35.522 39.3021 35.6454C39.3847 35.8426 39.1533 36.0228 38.953 36.0974C38.6622 36.2058 38.3569 36.2751 38.0478 36.3031C37.7885 36.3265 37.4613 36.2765 37.3811 36.0287C37.3284 35.8659 37.4199 35.6829 37.5586 35.5824C37.6972 35.4819 37.8725 35.448 38.0428 35.4296C38.3506 35.3963 38.663 35.405 38.9685 35.4555ZM34.2323 32.6298C35.1435 33.7006 36.5689 34.2677 37.9748 34.2788C39.3808 34.2898 40.7602 33.7815 41.9274 32.9977L42.0256 32.9318C42.1739 32.8332 42.3277 32.7407 42.5015 32.7104C42.714 32.6735 42.9667 32.7627 43.039 32.9659C41.8181 34.0028 40.2877 34.6876 38.6925 34.8324C37.0973 34.9771 35.445 34.5678 34.1433 33.6343C33.9085 33.4659 33.6657 33.2443 33.656 32.9555C33.6463 32.6667 34.045 32.4098 34.2323 32.6298ZM15.134 28.0942C14.5005 28.2963 13.8628 28.5925 13.4631 29.124C12.8694 29.9136 12.9732 31.1116 13.6145 31.863C14.2558 32.6144 15.3402 32.9144 16.3077 32.7147C17.2752 32.515 18.1152 31.8622 18.6589 31.0374C19.2026 30.2126 19.4688 29.2279 19.5494 28.2433C19.5629 28.0782 19.5329 27.8597 19.3701 27.8294C17.965 27.568 16.4956 27.6598 15.134 28.0942ZM37.585 24.2469C37.6114 24.474 37.5235 24.6968 37.4428 24.9107C36.9865 26.1193 36.7088 27.3951 36.6214 28.684C36.6072 28.8928 36.5992 29.1093 36.6757 29.304C36.748 29.488 36.9158 29.648 37.1104 29.6589L37.145 29.6593C37.3221 29.653 37.4062 29.9171 37.2948 30.0549C37.1833 30.1928 36.9743 30.2082 36.8044 30.1576C36.4556 30.0538 36.2056 29.7291 36.1044 29.3796C36.0031 29.03 36.029 28.6568 36.0797 28.2964C36.2516 27.0746 36.6976 25.8899 36.7195 24.6562C36.7257 24.3081 36.7968 23.8388 37.1439 23.8111C37.3718 23.7929 37.5585 24.0199 37.585 24.2469ZM41.9206 20.1233C41.196 20.2724 40.6429 20.8668 40.2671 21.504C39.4972 22.8095 39.2779 24.4281 39.6726 25.8914C39.8498 26.5484 40.1527 27.1834 40.628 27.6704C41.1032 28.1574 41.7635 28.4843 42.4439 28.4731C42.9188 28.4652 43.3798 28.2966 43.7923 28.0613C45.17 27.2753 46.0452 25.6823 45.9699 24.098C45.8946 22.5137 44.8723 21.0109 43.4263 20.359C42.9554 20.1468 42.4265 20.0192 41.9206 20.1233ZM31.9202 19.4738C30.6255 19.9534 29.7898 21.2979 29.6116 22.667C29.4335 24.0361 29.8175 25.4211 30.3649 26.6886C30.5123 27.0299 30.6799 27.377 30.963 27.6181C31.246 27.8592 31.6745 27.9673 31.9961 27.7807C32.1459 27.6938 32.2857 27.897 32.3993 28.0276C32.6257 28.2877 33.0239 28.3099 33.3621 28.2423C34.4762 28.0197 35.3323 27.0461 35.6789 25.9642C36.0139 24.9182 35.9424 23.7861 35.7444 22.7039L35.7235 22.5921C35.5148 21.5006 35.0431 20.2739 33.9804 19.9489C33.4232 19.7784 32.751 19.878 32.3203 19.4856C32.2164 19.3909 32.0521 19.4249 31.9202 19.4738ZM52.4944 24.1018C52.9323 24.587 52.7531 25.3405 52.5341 25.9631L52.5162 26.0133C52.4286 26.2574 52.3377 26.5073 52.1702 26.7053C52.0026 26.9033 51.7394 27.0416 51.4854 26.9887C51.2315 26.9359 51.0336 26.6414 51.1402 26.4049C51.2726 26.1114 51.7227 26.0965 51.8851 25.8185L51.4463 25.7771C51.1507 25.7492 50.8325 25.7116 50.6136 25.5112C50.3946 25.3107 50.3671 24.8864 50.6333 24.7551C50.8179 24.664 51.0401 24.7532 51.2109 24.868C51.3817 24.9828 51.5451 25.128 51.7485 25.1593C51.9518 25.1906 52.1991 25.0308 52.1572 24.8294C52.0989 24.5489 52.2428 24.2385 52.4944 24.1018ZM42.4778 25.996C42.5125 26.1889 42.5252 26.3935 42.453 26.5757C42.3808 26.7579 42.2048 26.9104 42.009 26.9023C41.7057 26.8896 41.5433 26.5403 41.4903 26.2414C41.4249 25.8721 41.5271 25.3639 41.9011 25.3364C42.2212 25.3129 42.421 25.6801 42.4778 25.996ZM33.1331 25.212C33.2842 25.4322 33.2628 25.7264 33.2028 25.9865C33.126 26.3195 32.9329 26.6909 32.5931 26.7256C32.2862 26.757 32.0241 26.4824 31.9237 26.1907C31.8013 25.8347 31.8607 25.3997 32.1387 25.1458C32.4166 24.8918 32.9201 24.9016 33.1331 25.212ZM33.416 21.4548C33.5517 21.5171 33.6473 21.6881 33.5786 21.8206L33.4474 21.8551C32.7005 22.0544 31.9043 22.3318 31.5475 23.0071C31.462 23.1689 31.4066 23.3475 31.3001 23.4964C31.1937 23.6453 31.0142 23.7636 30.8351 23.7259C30.631 23.6829 30.5128 23.448 30.5347 23.2406C30.5564 23.0331 30.6827 22.8523 30.8179 22.6934C31.3677 22.0474 32.1425 21.5967 32.9759 21.4382C33.1225 21.4103 33.2804 21.3925 33.416 21.4548ZM42.9619 21.8278C43.1852 22.0077 43.3549 22.2476 43.5806 22.4246C43.7713 22.5742 44.0122 22.6924 44.0989 22.9187C44.1856 23.145 43.9249 23.4646 43.7358 23.3131C43.242 22.9175 42.694 22.5897 42.1118 22.3419C41.8479 22.2296 41.9078 21.7855 42.1652 21.6591C42.4227 21.5326 42.7385 21.6478 42.9619 21.8278ZM40.1956 20.4085C39.7089 20.5689 39.3631 21.0811 39.3961 21.5924C39.5822 21.4971 39.724 21.3191 39.7753 21.1164L39.768 21.096C39.984 20.9253 40.138 20.6777 40.1956 20.4085Z" fill="#00160A"/>
<path fill-rule="evenodd" clip-rule="evenodd" d="M12.7736 81.6933C12.9694 81.6951 13.1495 81.7857 13.3205 81.8856L13.413 81.9405C14.4614 82.5682 15.5678 83.0991 16.7134 83.5244C16.8709 83.5828 16.822 83.8472 16.6685 83.9154C16.5151 83.9836 16.338 83.9228 16.1815 83.8619L12.7981 82.5455C12.5816 82.4612 12.3303 82.3328 12.3113 82.1013C12.2924 81.8707 12.5422 81.6913 12.7736 81.6933Z" fill="#A9B5C6"/>
<path fill-rule="evenodd" clip-rule="evenodd" d="M7.37992 78.0072L17.8463 81.72L17.9121 81.7445C18.1887 81.8526 18.4879 82.0375 18.4584 82.3233C18.4343 82.556 18.1767 82.7061 17.9428 82.6983C17.745 82.6916 17.5622 82.6037 17.3873 82.5069L17.2927 82.4536C15.8333 81.6259 14.3022 80.9431 12.7319 80.3531C10.9531 79.6848 9.12396 79.1357 7.29193 78.6302C7.01176 78.5529 6.65673 78.3026 6.81739 78.0604C6.93007 77.8905 7.18782 77.939 7.37992 78.0072Z" fill="#A9B5C6"/>
</svg>
