<svg width="530" height="466" viewBox="0 0 530 466" fill="none" xmlns="http://www.w3.org/2000/svg">
<path d="M471.595 156.361C471.595 87.1656 427.369 31.0667 372.815 31.0667C318.261 31.0667 274.035 87.1656 274.035 156.361C274.035 166.847 275.051 177.019 276.97 186.759C280.371 204.047 276.42 222.677 266.839 234.207C266.735 234.341 266.621 234.461 266.517 234.595C257.683 245.349 245.519 248.407 234.683 242.56C211.787 230.239 185.293 223.184 157.057 223.184C70.3157 223.184 0 289.65 0 371.628C0 453.606 52.3764 389.81 139.117 389.81C204.549 389.81 278.556 482.245 302.168 428.488C314.808 399.7 335.713 380.652 359.065 374.999C397.018 365.796 426.54 333.025 428.261 293.647C429.111 274.137 434.721 255.701 444.655 242.351C461.35 219.933 471.595 189.668 471.595 156.361Z" fill="#F0F1FF"/>
<path d="M170.324 70.1804C207.394 52.148 261.834 35.5046 279.226 81.4218C306.462 153.32 333.066 95.1841 367.75 139.03C392.423 170.208 374.798 241.154 478.472 293.837C528.272 319.136 534.498 378.494 389.803 394.996C343.599 400.27 297.461 386.469 258.382 357.426C240.203 343.921 205.019 331.342 164.009 328.809C155.341 328.268 147.429 326.134 137.039 323.612C127.962 320.269 116.282 315.305 109.692 310.943C109.614 310.956 107.827 308.783 105.996 306.506C100.708 298.611 97.1112 291.009 95.6462 286.88L84.7445 257.101C83.5014 253.615 78.8035 233.334 78.5149 229.578L76.0845 207.92L74.6215 184.458C74.2219 180.831 75.5518 168.819 76.0845 165.217L76.7949 160.33C77.2721 157.076 78.1156 153.912 79.3143 150.915L80.9014 146.941C82.988 141.693 86.0957 137.101 89.9802 133.487C105.341 119.159 146.873 81.589 170.324 70.1804Z" fill="#E3E5FF"/>
<path d="M374.915 195.343C370.652 198.972 369.772 205.346 369.772 205.346C369.772 205.346 375.808 205.829 380.071 202.199C384.333 198.57 386.634 194.084 385.213 192.196C383.793 190.294 379.178 191.7 374.915 195.343Z" fill="#ACAFFA"/>
<path d="M365.648 210.06C361.963 212.056 360.392 216.622 360.392 216.622C360.392 216.622 364.78 217.961 368.464 215.979C372.149 213.984 374.5 211.051 373.72 209.417C372.941 207.784 369.332 208.078 365.648 210.06Z" fill="#ACAFFA"/>
<path d="M361.234 205.266C359.989 209.458 361.938 213.863 361.938 213.863C361.938 213.863 365.924 211.466 367.169 207.275C368.414 203.083 368.1 199.24 366.465 198.677C364.831 198.128 362.492 201.074 361.234 205.266Z" fill="#ACAFFA"/>
<path d="M359.989 219.702C355.249 221.349 352.583 226.478 352.583 226.478C352.583 226.478 357.588 228.956 362.316 227.309C367.056 225.661 370.376 222.635 369.722 220.532C369.081 218.443 364.73 218.068 359.989 219.702Z" fill="#ACAFFA"/>
<path d="M351.074 215.122C350.093 220.318 352.998 225.327 352.998 225.327C352.998 225.327 357.475 221.898 358.455 216.689C359.436 211.493 358.568 206.927 356.531 206.485C354.494 206.056 352.042 209.926 351.074 215.122Z" fill="#ACAFFA"/>
<path d="M356.242 230.764C351.275 231.206 347.566 235.544 347.566 235.544C347.566 235.544 351.904 239.174 356.858 238.732C361.825 238.29 365.711 236.147 365.535 233.951C365.371 231.755 361.209 230.335 356.242 230.764Z" fill="#ACAFFA"/>
<path d="M351.112 243.084C345.805 243.312 341.656 247.758 341.656 247.758C341.656 247.758 346.12 251.842 351.426 251.614C356.733 251.387 360.97 249.298 360.882 246.941C360.794 244.584 356.418 242.856 351.112 243.084Z" fill="#ACAFFA"/>
<path d="M346.535 255.337C341.228 254.989 336.676 258.966 336.676 258.966C336.676 258.966 340.725 263.519 346.032 263.868C351.338 264.216 355.752 262.595 355.89 260.238C356.028 257.882 351.829 255.685 346.535 255.337Z" fill="#ACAFFA"/>
<path d="M341.354 269.291C336.073 269.867 332.187 274.594 332.187 274.594C332.187 274.594 336.89 278.371 342.171 277.795C347.453 277.219 351.564 274.835 351.338 272.492C351.112 270.135 346.635 268.702 341.354 269.291Z" fill="#ACAFFA"/>
<path d="M347.05 224.724C349.402 229.398 347.993 235.076 347.993 235.076C347.993 235.076 342.775 233.174 340.424 228.5C338.072 223.827 337.645 219.193 339.481 218.149C341.304 217.104 344.699 220.05 347.05 224.724Z" fill="#ACAFFA"/>
<path d="M338.827 237.218C342.197 241.597 341.845 247.851 341.845 247.851C341.845 247.851 336.01 247.021 332.64 242.642C329.27 238.263 327.912 233.509 329.622 232.009C331.332 230.509 335.457 232.839 338.827 237.218Z" fill="#ACAFFA"/>
<path d="M333.281 249.016C337.054 253.007 337.293 259.261 337.293 259.261C337.293 259.261 331.408 259.06 327.636 255.083C323.863 251.092 322.065 246.512 323.624 244.838C325.184 243.151 329.509 245.026 333.281 249.016Z" fill="#ACAFFA"/>
<path d="M330.15 263.948C333.256 268.541 332.527 274.755 332.527 274.755C332.527 274.755 326.755 273.536 323.649 268.943C320.544 264.35 319.475 259.515 321.273 258.136C323.071 256.743 327.044 259.355 330.15 263.948Z" fill="#ACAFFA"/>
<path d="M337.129 283.821C332.074 285.549 329.195 291.026 329.195 291.026C329.195 291.026 334.526 293.691 339.581 291.963C344.636 290.236 348.195 287.008 347.515 284.758C346.836 282.509 342.184 282.094 337.129 283.821Z" fill="#ACAFFA"/>
<path d="M325.133 281.049C329.069 284.852 329.547 291.106 329.547 291.106C329.547 291.106 323.662 291.173 319.726 287.37C315.79 283.567 313.816 279.054 315.313 277.313C316.809 275.572 321.21 277.246 325.133 281.049Z" fill="#ACAFFA"/>
<path d="M334.991 299.395C330.087 301.578 327.661 307.283 327.661 307.283C327.661 307.283 333.181 309.452 338.085 307.27C342.989 305.087 346.271 301.551 345.416 299.382C344.573 297.213 339.895 297.213 334.991 299.395Z" fill="#ACAFFA"/>
<path d="M322.832 297.721C327.057 301.163 328.038 307.337 328.038 307.337C328.038 307.337 322.178 307.939 317.953 304.498C313.728 301.056 311.402 296.757 312.747 294.882C314.093 293.008 318.607 294.28 322.832 297.721Z" fill="#ACAFFA"/>
<path d="M374.903 201.235C374.903 201.235 350.131 218.618 336.199 262.073C322.266 305.542 328.78 344.82 328.78 344.82" stroke="#ACAFFA" stroke-width="1.1936" stroke-miterlimit="10"/>
<path d="M326.366 365.938C326.366 365.938 322.732 291.896 368.012 245.441C388.546 224.362 438.793 248.226 392.834 284.464C373.834 299.436 344.548 313.309 326.366 365.938Z" fill="#9A9CDE"/>
<path d="M385.365 258.765C385.365 258.765 319.462 309.118 326.391 393.23" stroke="#8E90CE" stroke-width="1.7513" stroke-miterlimit="10"/>
<path d="M141.497 200.994C146.804 202.347 150.148 207.717 150.148 207.717C150.148 207.717 144.88 210.89 139.573 209.524C134.267 208.159 130.382 205.159 130.922 202.802C131.45 200.458 136.178 199.641 141.497 200.994Z" fill="#ACAFFA"/>
<path d="M155.769 210.127C159.894 210.261 163.15 213.689 163.15 213.689C163.15 213.689 159.705 216.903 155.581 216.769C151.456 216.635 148.149 215.042 148.199 213.207C148.25 211.373 151.632 209.993 155.769 210.127Z" fill="#ACAFFA"/>
<path d="M157.844 203.78C160.648 207.007 160.635 211.881 160.635 211.881C160.635 211.881 156.071 211.52 153.267 208.292C150.463 205.065 149.205 201.436 150.475 200.191C151.733 198.959 155.027 200.566 157.844 203.78Z" fill="#ACAFFA"/>
<path d="M164.735 216.287C169.676 215.631 174.153 219.059 174.153 219.059C174.153 219.059 170.62 223.559 165.678 224.229C160.736 224.885 156.524 223.653 156.26 221.456C155.996 219.26 159.793 216.957 164.735 216.287Z" fill="#ACAFFA"/>
<path d="M170.972 208.105C173.927 212.364 173.31 218.202 173.31 218.202C173.31 218.202 167.891 217.118 164.923 212.859C161.968 208.601 160.912 204.074 162.584 202.762C164.257 201.45 168.017 203.833 170.972 208.105Z" fill="#ACAFFA"/>
<path d="M172.543 224.604C177.208 222.756 182.301 225.005 182.301 225.005C182.301 225.005 179.824 230.255 175.159 232.103C170.494 233.951 166.118 233.777 165.401 231.701C164.672 229.639 167.878 226.465 172.543 224.604Z" fill="#ACAFFA"/>
<path d="M182.1 233.415C186.991 231.219 192.524 233.362 192.524 233.362C192.524 233.362 190.11 239.08 185.218 241.289C180.327 243.486 175.649 243.512 174.794 241.343C173.939 239.174 177.209 235.625 182.1 233.415Z" fill="#ACAFFA"/>
<path d="M191.141 242.441C195.806 239.722 201.502 241.263 201.502 241.263C201.502 241.263 199.654 247.208 194.989 249.94C190.323 252.659 185.684 253.194 184.627 251.119C183.571 249.043 186.488 245.159 191.141 242.441Z" fill="#ACAFFA"/>
<path d="M201.414 252.712C206.431 250.838 211.826 253.355 211.826 253.355C211.826 253.355 209.084 258.899 204.067 260.774C199.05 262.649 194.385 262.354 193.656 260.131C192.914 257.908 196.397 254.587 201.414 252.712Z" fill="#ACAFFA"/>
<path d="M178.453 214.975C178.189 220.278 181.735 224.777 181.735 224.777C181.735 224.777 185.696 220.693 185.96 215.39C186.224 210.087 184.753 205.708 182.678 205.587C180.604 205.467 178.705 209.672 178.453 214.975Z" fill="#ACAFFA"/>
<path d="M190.877 222.541C189.569 228.032 192.398 233.522 192.398 233.522C192.398 233.522 197.34 230.121 198.648 224.644C199.956 219.153 199.277 214.238 197.126 213.663C194.989 213.087 192.185 217.064 190.877 222.541Z" fill="#ACAFFA"/>
<path d="M200.609 230.71C198.786 236.026 201.075 241.798 201.075 241.798C201.075 241.798 206.318 238.959 208.141 233.643C209.965 228.326 209.763 223.358 207.676 222.555C205.589 221.751 202.433 225.394 200.609 230.71Z" fill="#ACAFFA"/>
<path d="M209.411 242.803C208.431 248.36 211.574 253.663 211.574 253.663C211.574 253.663 216.315 249.94 217.296 244.383C218.276 238.825 217.308 233.951 215.133 233.522C212.945 233.08 210.38 237.245 209.411 242.803Z" fill="#ACAFFA"/>
<path d="M211.034 263.961C216.302 263.238 221.093 266.881 221.093 266.881C221.093 266.881 217.333 271.702 212.065 272.438C206.796 273.161 202.294 271.862 202.005 269.519C201.729 267.175 205.765 264.684 211.034 263.961Z" fill="#ACAFFA"/>
<path d="M220.779 256.02C218.742 261.243 220.791 267.122 220.791 267.122C220.791 267.122 226.148 264.524 228.185 259.288C230.222 254.065 230.209 249.083 228.172 248.186C226.123 247.289 222.816 250.784 220.779 256.02Z" fill="#ACAFFA"/>
<path d="M219.182 277.085C224.488 276.844 228.977 280.902 228.977 280.902C228.977 280.902 224.853 285.374 219.534 285.615C214.227 285.856 209.839 284.156 209.738 281.799C209.65 279.442 213.875 277.326 219.182 277.085Z" fill="#ACAFFA"/>
<path d="M229.53 270.054C227.078 275.076 228.663 281.116 228.663 281.116C228.663 281.116 234.208 279.013 236.648 273.978C239.1 268.956 239.489 264.002 237.515 262.917C235.554 261.832 231.97 265.033 229.53 270.054Z" fill="#ACAFFA"/>
<path d="M143.861 206.324C143.861 206.324 173.222 210.837 203.187 243.847C233.164 276.871 242.96 315.385 242.96 315.385" stroke="#ACAFFA" stroke-width="1.1936" stroke-miterlimit="10"/>
<path d="M233.227 265.89C233.227 265.89 239.904 269.693 253.56 245.159C267.216 220.626 233.227 216.127 233.227 265.89Z" fill="#32285F"/>
<path d="M268.838 132.67L268.473 125.854C268.071 121.435 269.856 111.03 270.837 117.096C271.717 122.52 275.829 108.405 276.307 108.324C277.64 108.124 277.59 119.359 276.735 121.542L274.056 126.376L272.459 132.108L268.838 132.67Z" fill="#FFB49B"/>
<path d="M216.818 168.774C214.843 172.042 215.875 176.394 219.081 178.255C230.247 184.723 249.41 178.617 257.948 173.541C266.625 168.386 279.74 155.704 281.387 139.366C282.116 132.108 276.747 125.72 269.894 125.667C269.655 125.667 269.416 125.667 269.177 125.667C263.003 125.72 257.974 131.05 257.735 137.625C257.471 144.964 254.767 157.351 250.63 161.944C246.078 166.98 233.466 170.622 224.702 166.337C221.86 164.944 218.503 165.989 216.818 168.774Z" fill="#5046AF"/>
<path d="M340.323 269.88C339.191 274.259 342.058 274.916 347.164 276.094C352.269 277.259 356.104 277.326 356.381 275.92C356.645 274.608 354.771 272.867 350.295 270.014C344.913 266.586 341.065 267.028 340.323 269.88Z" fill="#41378C"/>
<path d="M340.059 262.595L341.48 269.599C341.618 270.751 342.574 271.595 343.655 271.528C344.749 271.461 345.604 270.483 345.604 269.318L345.906 260.252L340.059 262.595Z" fill="#FFB49B"/>
<path d="M361.649 295.981C360.153 300.239 362.957 301.163 367.949 302.81C372.941 304.457 376.751 304.873 377.141 303.507C377.518 302.234 375.795 300.319 371.558 297.052C366.49 293.128 362.63 293.208 361.649 295.981Z" fill="#41378C"/>
<path d="M360.367 289.298L362.844 295.954C363.158 297.065 364.227 297.735 365.296 297.481C366.365 297.213 367.056 296.115 366.88 294.963L365.774 285.964L360.367 289.298Z" fill="#FFB49B"/>
<path d="M239.716 231.634C231.806 270.389 261.105 263.908 261.105 263.908C261.105 263.908 320.808 243.512 330.276 245.052C339.808 246.606 359.625 290.41 359.625 290.41C359.864 290.785 360.279 290.999 360.706 290.945C363.284 290.637 365.359 289.66 367.169 288.307C367.597 287.986 367.748 287.397 367.559 286.874C365.195 280.165 353.149 214.493 326.152 208.855C308.598 205.186 241.79 221.47 239.716 231.634Z" fill="#A8D29F"/>
<path d="M260.727 207.864C257.27 211.533 241.388 212.913 238.685 216.14C233.441 222.394 234.346 227.791 234.346 227.791L234.9 243.338C235.466 259.435 250.152 271.179 264.575 266.358C265.028 266.211 265.481 266.037 265.933 265.85C270.083 264.162 273.679 261.283 276.345 257.507C285.926 243.928 309.981 211.118 317.211 213.636C326.378 216.836 339.141 263.519 339.141 263.519C339.317 263.935 339.707 264.216 340.122 264.243C342.712 264.39 344.913 263.787 346.9 262.769C347.365 262.528 347.604 261.979 347.516 261.43C346.221 254.4 344.51 187.509 318.746 177.197C302.022 170.542 265.091 203.244 260.727 207.864Z" fill="#82B378"/>
<path d="M260.727 207.864C260.727 207.864 246.28 199.561 237.151 185.353C232.636 178.322 224.425 154.016 212.002 163.404C203.715 169.658 194.184 187.335 210.983 220.626C215.523 229.639 225.72 263.653 233.227 265.876C234.284 252.605 240.143 223.934 260.727 207.864Z" fill="#41378C"/>
<path d="M216.139 175.081C214.001 176.26 211.373 175.363 210.266 173.086L203.665 159.48L211.411 155.222L218.012 168.828C219.106 171.104 218.276 173.903 216.139 175.081Z" fill="#FFB49B"/>
<path d="M218.201 169.35C218.138 169.176 218.088 168.988 218 168.828L212.039 156.548L204.294 160.806L206.444 165.239C209.424 168.56 214.567 170.743 218.201 169.35Z" fill="#FFA587"/>
<path d="M218.88 167.073C214.743 169.35 208.883 167.502 204.759 163.484C202.986 161.757 200.018 153.575 200.018 153.575C200.018 153.575 209.852 142.125 213.988 143.21C216.868 143.973 218.591 149.852 219.823 154.606C221.08 159.387 220.691 166.069 218.88 167.073Z" fill="#FFB49B"/>
<path d="M200.999 151.968C200.987 151.941 200.974 151.914 200.961 151.874C198.786 151.285 194.209 150.856 192.952 153.052C188.362 161.114 203.74 167.97 206.456 165.225L204.344 160.485C202.76 157.605 202.47 154.927 200.999 151.968Z" fill="#7772D6"/>
<path d="M201.276 158.329C201.879 159.922 203.464 160.793 204.973 160.418C205.224 160.351 205.35 160.043 205.249 159.788L203.212 154.351C203.112 154.097 202.823 153.963 202.609 154.097C201.276 154.941 200.685 156.735 201.276 158.329Z" fill="#FFA587"/>
<path d="M213.988 143.196C212.605 142.835 210.292 143.906 207.953 145.473C204.973 147.481 203.464 151.258 204.055 154.967L204.495 157.78C204.495 157.78 204.595 153.36 206.834 153.36C209.336 153.374 209.65 150.803 209.889 150.012C210.669 147.414 211.826 146.665 213.02 146.531C214.403 146.37 215.485 145.821 216.189 144.964C215.548 144.053 214.818 143.41 213.988 143.196Z" fill="#FFA587"/>
<path d="M216.151 136.835C214.542 133.755 211.499 131.8 208.267 131.331C209.789 134.411 208.33 136.273 203.703 136.581C200.459 136.795 197.302 137.732 194.75 139.888L194.398 140.183L194.31 140.25C192.159 142.085 190.927 144.937 191.229 147.843C191.392 149.383 191.832 150.722 192.499 151.874C193.04 152.811 193.153 153.936 193.065 155.034C193.002 155.824 193.14 156.641 193.505 157.391C194.611 159.668 196.158 160.096 198.434 158.837C199.377 158.315 199.465 156.936 200.006 156.092C200.433 155.423 200.949 155.155 201.364 154.874C201.842 154.552 202.47 154.673 202.797 155.168L204.482 157.78L204.155 154.619C204.017 153.253 204.922 151.874 206.205 151.86C208.707 151.834 209.261 149.637 209.575 148.874C210.606 146.383 211.826 145.767 213.033 145.767C217.019 145.781 219.006 142.326 216.151 136.835Z" fill="#5046AF"/>
<path d="M225.934 239.374L231.869 239.173C236.321 238.839 230.448 233.335 233.655 233.335C233.655 233.335 235.239 235.25 236.886 237.874C238.119 239.816 239.502 237.299 241.652 239.147C244.444 241.544 245.462 244.985 245.462 245.909C245.462 247.449 238.156 249.753 235.994 248.722L231.203 245.534L225.482 243.553L225.934 239.374Z" fill="#FFB49B"/>
<path d="M210.329 178.764C207.714 175.671 203.552 176.501 198.572 183.331C190.21 194.794 185.495 215.792 185.08 224.041C184.539 234.861 201.49 251.239 217.899 253.556C225.18 254.587 231.769 248.628 232.008 240.807C232.02 240.526 232.02 240.258 232.033 239.977C232.146 232.92 226.915 227.027 220.301 226.572C212.92 226.063 204.369 222.702 203.149 219.997C202.219 217.934 200.056 201.208 210.204 189.276C212.455 186.652 212.693 181.55 210.329 178.764Z" fill="#5046AF"/>
<path d="M191.191 253.677C248.995 265.461 251.674 294.481 293.27 293.999C334.878 293.517 314.684 388.664 314.684 388.664C314.684 388.664 269.819 326.406 203.175 324.13C132.029 321.692 133.387 241.879 191.191 253.677Z" fill="#9A9CDE"/>
<path d="M186.778 281.29C193.932 286.406 201.49 290.852 209.235 294.789C216.969 298.779 224.941 302.221 233.089 305.047C235.126 305.756 237.15 306.493 239.225 307.069C241.287 307.672 243.337 308.368 245.412 308.917L251.661 310.497C253.749 311.033 255.861 311.354 257.961 311.796L261.117 312.412L264.298 312.854L270.686 313.738C275.075 314.233 279.388 315.439 283.512 317.153C291.773 320.688 298.74 327.116 303.807 334.749C306.335 338.593 308.384 342.757 310.069 347.056C311.754 351.355 313.049 355.828 313.904 360.381C315.64 369.474 316.155 378.834 315.187 388.034C314.684 392.628 313.829 397.181 312.509 401.587C311.201 405.979 309.39 410.251 306.838 413.96C311.427 406.14 313.301 396.953 313.955 387.927C314.659 378.848 313.929 369.674 312.006 360.849C310.019 352.051 306.812 343.521 301.921 336.169C296.992 328.897 290.353 322.911 282.544 319.644C278.658 317.983 274.584 316.805 270.397 316.296L263.972 315.345L260.74 314.876L257.546 314.22C249.008 312.586 240.608 310.149 232.46 307.015C216.189 300.761 200.584 292.325 186.778 281.29Z" fill="#8E90CE"/>
<path d="M369.672 360.648C369.672 360.648 381.152 309.613 447.054 297.641C469.764 293.516 494.208 332.178 448.123 335.7C429.086 337.173 403.459 333.129 369.672 360.648Z" fill="#9A9CDE"/>
<path d="M453.48 314.742C453.48 314.742 388.055 318.706 358.594 379.276" stroke="#8E90CE" stroke-width="1.415" stroke-miterlimit="10"/>
<path d="M293.66 365.563C293.66 365.563 269.756 319.67 203.25 326.955C180.327 329.46 166.508 373.679 211.801 363.929C230.511 359.899 254.176 348.69 293.66 365.563Z" fill="#BFC0F3"/>
<path d="M201.364 345.248C201.364 345.248 265.393 330.397 309.026 380.348" stroke="#B1B3E3" stroke-width="1.415" stroke-miterlimit="10"/>
<path d="M293.27 97.2228C293.27 99.5797 291.472 101.495 289.259 101.495C287.046 101.495 285.247 99.5797 285.247 97.2228C285.247 94.8659 287.046 92.9509 289.259 92.9509C291.472 92.9643 293.27 94.8659 293.27 97.2228Z" fill="white"/>
<path d="M332.602 79.104V67.6274H343.379L332.602 79.104Z" fill="#9A9CDE"/>
<path d="M356.569 108.311H350.873V114.377H356.569V108.311Z" fill="#ACAFFA"/>
<path d="M350.873 162.949C350.873 164.301 349.842 165.386 348.585 165.386C347.314 165.386 346.296 164.288 346.296 162.949C346.296 161.596 347.327 160.511 348.585 160.511C349.842 160.498 350.873 161.596 350.873 162.949Z" fill="white"/>
<path d="M381.668 84.0054C383.855 84.0054 385.628 82.1167 385.628 79.787C385.628 77.4573 383.855 75.5687 381.668 75.5687C379.48 75.5687 377.707 77.4573 377.707 79.787C377.707 82.1167 379.48 84.0054 381.668 84.0054Z" fill="white"/>
<path d="M407.282 125.278C407.282 127.006 405.961 128.398 404.352 128.398C402.73 128.398 401.422 127.006 401.422 125.278C401.422 123.551 402.73 122.158 404.352 122.158C405.974 122.145 407.282 123.551 407.282 125.278Z" fill="white"/>
<path d="M95.1985 288.963C95.1985 291.32 93.4004 293.235 91.1873 293.235C88.9742 293.235 87.1761 291.32 87.1761 288.963C87.1761 286.606 88.9742 284.691 91.1873 284.691C93.4004 284.705 95.1985 286.606 95.1985 288.963Z" fill="white"/>
<path d="M134.531 270.845V259.368H145.307L134.531 270.845Z" fill="#9A9CDE"/>
<path d="M135.625 310.859H129.929V316.925H135.625V310.859Z" fill="#ACAFFA"/>
<path d="M152.802 354.689C152.802 356.042 151.771 357.126 150.513 357.126C149.243 357.126 148.225 356.028 148.225 354.689C148.225 353.35 149.256 352.252 150.513 352.252C151.771 352.238 152.802 353.337 152.802 354.689Z" fill="white"/>
<path d="M219.358 118.596C221.545 118.596 223.319 116.707 223.319 114.377C223.319 112.048 221.545 110.159 219.358 110.159C217.17 110.159 215.397 112.048 215.397 114.377C215.397 116.707 217.17 118.596 219.358 118.596Z" fill="white"/>
<path d="M105.849 184.174C105.849 185.902 104.529 187.295 102.919 187.295C101.297 187.295 99.9893 185.902 99.9893 184.174C99.9893 182.447 101.31 181.054 102.919 181.054C104.541 181.041 105.849 182.447 105.849 184.174Z" fill="white"/>
</svg>
