<svg width="130" height="128" viewBox="0 0 130 128" fill="none" xmlns="http://www.w3.org/2000/svg">
<g clip-path="url(#clip0_33_1290)">
<path fill-rule="evenodd" clip-rule="evenodd" d="M2.03085 105.461C1.71679 104.02 1.3724 102.586 1.07166 101.143C0.926226 100.445 0.843088 99.7333 0.744173 99.0263C0.559711 97.7076 0.377421 96.3885 0.208937 95.0679C0.149679 94.6032 0.107205 94.1336 0.101865 93.6656C0.0586231 89.8756 -0.0447082 86.0842 0.0216599 82.2958C0.052397 80.5414 0.417187 78.7927 0.635901 77.0418C0.923589 74.7391 1.52794 72.5092 2.22524 70.3029C3.22879 67.1277 4.24488 63.9563 5.25769 60.7838C5.80178 59.0796 6.3861 57.387 6.88061 55.6685C7.10882 54.8755 7.20108 54.0373 7.28926 53.2125C7.37309 52.4286 7.46272 51.6266 7.38735 50.8483C7.24632 49.392 7.00369 47.9445 6.7732 46.4982C6.57646 45.2634 6.34646 44.0338 6.11513 42.805C5.75582 40.8965 5.64972 38.9703 5.68831 37.0337C5.71877 35.5059 5.67153 33.9701 5.81552 32.4528C6.02364 30.2594 6.34024 28.0617 7.20859 26.0147C7.87301 24.4484 8.60935 22.9009 9.45601 21.4263C10.2924 19.9696 11.2855 18.5996 12.2523 17.2212C12.8421 16.3804 13.467 15.5548 14.1565 14.795C15.2187 13.6245 16.3169 12.4818 17.4596 11.3895C19.2444 9.68378 21.2436 8.24588 23.3684 6.99191C25.3736 5.80851 27.4957 4.87055 29.7244 4.18382C31.2499 3.71376 32.7883 3.28481 34.3066 2.79279C35.3927 2.44078 36.4337 1.93751 37.5328 1.64126C38.8967 1.27361 40.2906 0.991265 41.6879 0.780413C43.1222 0.564001 44.5752 0.465789 46.0218 0.339497C47.0832 0.246868 48.1468 0.17005 49.2108 0.126474C50.6283 0.068432 52.047 0.0338224 53.4655 0.0179274C55.0717 -7.41989e-05 56.6792 -0.0132278 58.285 0.0225463C59.5102 0.0498449 60.7351 0.139107 61.9576 0.232471C63.6014 0.357999 65.2442 0.500089 66.8847 0.66152C68.0995 0.781058 69.3155 0.90862 70.5214 1.09402C72.1633 1.34646 73.8006 1.63468 75.432 1.94869C77.7332 2.39163 80.0441 2.80303 82.3196 3.35567C84.7234 3.93947 87.1279 4.56909 89.3852 5.6141C91.4148 6.55374 93.448 7.4941 95.4222 8.54202C97.2207 9.4967 98.939 10.6013 100.699 11.6295C101.374 12.0242 102.077 12.3727 102.747 12.7758C103.196 13.0461 103.648 13.3332 104.032 13.6855C105.776 15.2858 107.504 16.9036 109.222 18.5323C110.05 19.3178 110.842 20.1412 111.651 20.9475C112.558 21.8525 113.509 22.7192 114.363 23.6726C115.447 24.8827 116.44 26.1724 117.492 27.411C118.907 29.077 119.857 31.02 120.883 32.9236C121.58 34.2159 122.013 35.603 122.522 36.9635C122.87 37.8933 123.269 38.8296 123.427 39.7985C123.669 41.2774 124.547 42.4519 125.074 43.7872C125.614 45.1555 126.045 46.5672 126.504 47.9664C126.896 49.1636 127.303 50.3586 127.622 51.5758C127.916 52.6962 128.104 53.8443 128.333 54.9814C128.51 55.8563 128.695 56.73 128.845 57.6092C128.952 58.233 129.006 58.8654 129.087 59.4935C129.229 60.5958 129.382 61.6966 129.514 62.7998C129.602 63.5365 129.681 64.2752 129.726 65.0154C129.784 65.946 129.805 66.879 129.839 67.8111C129.877 68.85 129.98 69.8925 129.933 70.9277C129.821 73.3677 125.793 83.1766 124.167 85.5832C123.224 86.9787 122.316 88.3978 121.348 89.7761C120.081 91.5816 118.784 93.3677 117.475 95.1435C115.907 97.2695 114.331 99.3906 112.72 101.484C111.959 102.473 111.124 103.408 110.291 104.34C109.595 105.118 108.896 105.904 108.121 106.602C106.608 107.963 105.048 109.273 103.494 110.589C101.446 112.323 99.1986 113.789 96.8767 115.109C94.9817 116.186 92.9757 117.092 90.956 117.922C87.9106 119.173 84.8159 120.306 81.7318 121.461C79.3747 122.344 77.0171 123.23 74.6305 124.028C72.6121 124.702 70.5672 125.312 68.5055 125.839C66.76 126.285 64.9784 126.598 63.2036 126.92C61.9607 127.145 60.7055 127.312 59.4502 127.457C58.2268 127.599 56.9971 127.686 55.769 127.784C55.1223 127.835 54.4737 127.877 53.8251 127.89C51.6726 127.935 49.5199 127.982 47.3672 127.994C46.3073 127.999 45.2447 127.964 44.1879 127.885C42.7043 127.775 41.2182 127.655 39.7455 127.452C38.0654 127.221 36.3998 126.885 34.7254 126.61C33.3476 126.383 31.9599 126.212 30.5876 125.957C28.232 125.519 25.8735 125.084 23.5376 124.555C21.6677 124.132 19.8061 123.642 17.9825 123.054C15.0814 122.117 12.363 120.776 9.90842 118.956C9.08552 118.345 8.27166 117.693 7.57939 116.944C5.92993 115.159 4.60362 113.146 3.64491 110.85C2.91118 109.077 2.42792 107.282 2.03085 105.461Z" fill="#EBF1FA"/>
<path d="M71.4716 109.349C71.2564 110.475 71.171 111.596 70.7937 112.608C70.3043 113.921 69.1715 114.714 67.8635 115.118C66.4265 115.562 64.9466 115.873 63.4759 116.198C62.9873 116.307 62.4696 116.286 61.9646 116.316C60.1464 116.426 58.3277 116.527 56.5097 116.64C55.5178 116.702 54.5277 116.794 53.5355 116.849C52.5841 116.902 51.6303 116.963 50.6786 116.948C50.4675 116.945 49.1474 117.135 47.3003 117.265C46.9417 117.29 47.4999 119.222 46.855 119.425C45.4182 119.876 41.899 119.749 41.2849 118.791C40.6711 117.833 40.8888 117.429 40.208 117.152C36.8793 115.798 33.4506 115.481 32.446 112.608C31.7771 110.695 33.05 106.164 32.6799 102.685C31.7307 93.7654 29.8429 83.8126 29.7813 83.7616C29.7876 83.7548 27.7711 83.9266 27.621 83.1896C25.7579 74.0444 24.908 61.9917 29.7813 58.9525C32.7158 57.1224 38.3056 55.2428 44.5025 53.7074C45.4032 53.4843 45.935 52.1646 46.855 51.9571C47.0608 51.9109 47.6905 50.7185 48.2304 49.5208C48.7742 48.3148 49.2316 47.103 50.348 47.0501C52.6428 46.9412 56.6015 44.0101 59.287 44.9247C61.7463 45.7622 62.9931 50.4769 63.9427 49.9059C64.9 49.3304 65.7469 50.3294 67.058 50.3294C76.4418 50.3294 83.5093 68.1064 84.492 72.4806C82.8496 74.844 77.9854 74.844 73.389 76.2444C72.6285 75.3089 71.1003 72.5033 70.6068 70.9249C70.0987 69.3008 69.9235 72.984 69.888 74.2892C69.842 75.9771 69.9938 77.6714 70.0774 79.3621C70.1324 80.4766 70.2238 81.589 70.2879 82.7032C70.4002 84.659 70.5189 86.6146 70.6068 88.5717C70.6684 89.949 70.6417 91.3312 70.7309 92.7062C70.8218 94.115 71.0102 95.5175 71.1476 96.9237C71.2283 97.7504 71.302 98.5784 71.3611 99.4071C71.4113 100.106 71.4817 100.807 71.4618 101.506C71.4236 102.859 71.2817 104.21 71.2757 105.562C71.2726 106.268 71.5098 106.972 71.5589 107.683C71.5957 108.216 71.5053 108.758 71.4716 109.349Z" fill="white"/>
<path d="M86.4765 24.9987C85.8713 24.4271 85.5014 23.713 85.0255 23.0775C85.0116 23.0588 84.998 23.0392 84.9884 23.0183C84.616 22.2126 84.2523 21.4073 84.0755 20.5267C83.972 20.0125 83.9765 19.5113 84.0548 19.0013C84.0938 18.7476 84.1102 18.49 84.1607 18.239C84.3158 17.4685 84.6926 16.7974 85.1346 16.1593C85.2677 15.9674 85.4205 15.7887 85.5499 15.5943C86.0349 14.8666 86.7192 14.3981 87.5161 14.0716C88.0346 13.8592 88.567 13.6801 89.0744 13.4399C89.1369 13.4103 89.2057 13.3839 89.2736 13.3774C90.113 13.2983 90.9521 13.216 91.7927 13.1492C92.6124 13.0838 93.4334 13.1019 94.2537 13.1547C94.6981 13.1831 95.1444 13.1955 95.5872 13.2402C96.5473 13.3375 97.4758 13.5537 98.3671 13.9424C98.9898 14.2139 99.6176 14.4678 100.215 14.7963C100.901 15.1737 101.483 15.6749 102.034 16.2193C102.286 16.4685 102.479 16.7606 102.651 17.0676C102.754 17.251 102.846 17.4429 102.966 17.614C103.668 18.6095 103.819 19.718 103.649 20.89C103.609 21.1663 103.52 21.436 103.543 21.7205C103.404 22.2882 103.27 22.8583 102.931 23.3499C102.664 23.7355 102.376 24.1031 102.017 24.4103C101.892 24.5168 101.767 24.6241 101.655 24.7427C101.411 25.0001 101.114 25.1847 100.832 25.3936C100.225 25.8435 99.5488 26.1612 98.8799 26.4954C98.7969 26.5368 98.7088 26.5699 98.6197 26.5968C98.2615 26.7055 97.9021 26.8106 97.5429 26.9163C97.1383 27.035 96.7358 27.1612 96.3281 27.2693C95.6903 27.4387 95.0286 27.4412 94.3788 27.5272C94.287 27.5393 94.1898 27.5327 94.0982 27.5171C93.4047 27.3998 92.7019 27.3639 92.0051 27.2773C91.8892 27.263 91.7755 27.2329 91.6611 27.2091C90.8807 27.0471 90.0957 26.9033 89.3387 26.6459C89.1492 26.5816 88.9779 26.5961 88.8013 26.6996C88.5996 26.8175 88.3854 26.9142 88.1745 27.0164C87.7288 27.2321 87.3411 27.5356 86.9396 27.8186C86.8256 27.8989 86.7061 27.972 86.5847 28.0408C86.4909 28.0939 86.3303 28.014 86.3056 27.9032C86.2752 27.767 86.2454 27.6322 86.2857 27.4891C86.5112 26.6908 86.5034 25.8742 86.4765 24.9987Z" fill="white"/>
<path fill-rule="evenodd" clip-rule="evenodd" d="M47.16 51.2936C47.16 51.2936 48.1816 49.8989 48.5342 49.1719C48.8868 48.4448 49.2185 47.0501 49.2185 47.0501C49.2185 47.0501 56.5077 57.3422 55.3543 57.4761C53.0486 57.744 47.16 51.2936 47.16 51.2936Z" fill="#A9B5C6"/>
<path d="M78.5929 84.2398C77.4389 82.4101 74.9868 78.1451 73.8575 76.3435C73.8314 76.3019 79.0899 71.4801 83.7707 72.7007C84.2355 72.822 85.1291 74.6285 85.5673 74.844C86.3831 75.245 86.2372 73.2854 87.7985 70.5245C90.2568 66.1772 94.7848 59.6849 96.5623 55.8092C97.2848 54.2339 96.774 53.0061 96.6978 52.6623C96.4156 51.3899 95.7537 50.3519 94.7979 49.4801C94.1779 48.9146 94.1533 47.6527 94.8591 47.3049C95.3804 47.0483 95.9679 46.967 96.5623 47.2631C97.2412 47.6013 97.9169 47.9212 98.3839 48.5515C98.447 48.6367 98.5577 48.6867 98.6464 48.7531C98.6891 48.6455 98.7361 48.5397 98.7737 48.4305C99.15 47.3354 99.4962 46.2291 99.9086 45.148C100.273 44.1924 100.676 43.2476 101.135 42.334C101.286 42.0329 101.667 41.6453 101.935 41.6514C102.329 41.6602 102.586 42.0846 102.645 42.5294C102.676 42.7651 102.71 43.001 102.754 43.2347C102.774 43.3373 102.824 43.4342 102.86 43.5337C102.931 43.4485 102.997 43.3582 103.075 43.279C103.309 43.04 103.517 42.7581 103.792 42.5806C104.169 42.3365 104.599 42.6076 104.569 43.0764C104.527 43.7238 104.476 44.382 104.32 45.0085C104.038 46.1345 103.673 47.2402 103.348 48.3555C103.328 48.4219 103.347 48.4995 103.348 48.5718C103.421 48.5325 103.531 48.512 103.562 48.4512C103.767 48.0547 103.986 47.6611 104.142 47.2447C104.393 46.5715 104.773 45.995 105.322 45.5399C105.45 45.4339 105.657 45.4236 105.828 45.3691C105.878 45.5275 106.001 45.7056 105.964 45.8408C105.7 46.8179 105.471 47.8128 105.103 48.7522C104.175 51.1189 103.184 53.4608 102.21 55.8092C101.647 57.1662 100.993 58.4911 100.515 59.8768C100.028 61.2897 99.7437 62.771 99.3015 64.2009C98.8325 65.717 98.2919 67.2117 97.7645 68.7094C96.9628 70.9855 96.2413 73.2965 95.304 75.5161C94.5712 77.251 93.6175 78.9019 92.658 80.5292C91.9392 81.7486 91.1162 82.9207 90.2212 84.0178C89.6957 84.6623 88.9492 85.1321 88.2834 85.6572C87.2177 86.4977 86.0074 87.0341 84.6826 87.337C83.1577 87.6855 81.8043 87.4142 80.6663 86.3048C79.9771 85.6326 79.3014 84.9465 78.5929 84.2398Z" fill="white"/>
<path fill-rule="evenodd" clip-rule="evenodd" d="M42.7197 39.1281C42.5728 39.4244 42.5823 39.6837 42.7737 39.9352C42.8595 40.048 42.9523 40.1555 43.0452 40.2631C43.1448 40.3784 43.2444 40.4939 43.3354 40.6157C43.4725 40.7998 43.6145 40.9817 43.7564 41.1636C44.1291 41.641 44.5021 42.1188 44.7947 42.641C45.2079 43.3789 45.6867 43.923 46.5554 44.0793C46.908 44.1428 47.0411 44.4238 47.0834 44.7936C47.1421 45.3085 47.2382 45.8306 47.4097 46.3176C47.5323 46.6659 47.8568 46.8969 48.27 46.8523C48.4637 46.8314 48.6565 46.7988 48.8494 46.7663C49.1461 46.7161 49.4425 46.6659 49.7403 46.6588C50.0255 46.652 50.3956 46.7263 50.5874 46.9098C51.1 47.4001 51.572 47.9334 52.0435 48.4659C52.1411 48.5761 52.2384 48.6861 52.3362 48.7958C52.3723 48.8362 52.4076 48.8769 52.4428 48.9175L52.443 48.9177C52.7872 49.3144 53.1071 49.683 53.7914 49.4463C54.6039 49.1653 55.4582 49.0394 56.3395 49.0965C57.1478 49.1489 57.4635 48.8759 57.7122 48.0866C57.7378 48.0057 57.7594 47.923 57.781 47.8403C57.8227 47.6807 57.8643 47.5212 57.934 47.3747C57.9605 47.3194 57.9865 47.2631 58.0128 47.2068V47.2066C58.1566 46.8976 58.3034 46.5816 58.525 46.3387C58.9255 45.9002 59.4445 45.9676 59.9764 46.1556C60.5752 46.3673 60.8858 46.2375 61.1441 45.6948C61.2534 45.465 61.2895 45.4678 61.4896 45.6149C61.6512 45.7339 61.9061 45.7888 62.1122 45.7736C62.6226 45.7359 63.1336 45.6649 63.6336 45.5582C63.8144 45.5197 64.0538 45.3771 64.1156 45.2221C64.1912 45.0326 64.2672 44.8432 64.3432 44.6538C64.7722 43.5855 65.2019 42.5157 65.5454 41.4198C66.1045 39.6372 66.5207 37.812 66.5197 35.9291C66.5191 34.6675 66.4819 33.4062 66.445 32.1448C66.4355 31.8251 66.4261 31.5054 66.4172 31.1857C66.4131 31.0342 66.4094 30.8824 66.4057 30.7306V30.73C66.3893 30.0382 66.3727 29.3456 66.3031 28.6587C66.1774 27.4194 66.0153 26.1835 65.8535 24.9479L65.8531 24.9446C65.826 24.7382 65.7991 24.5316 65.7722 24.3251C65.6929 23.7165 65.6005 23.1094 65.5083 22.5024L65.5081 22.5018C65.4777 22.3013 65.4471 22.1006 65.4171 21.9001L65.352 21.4651C65.2078 20.5003 65.0636 19.5352 64.911 18.5715C64.9051 18.5338 64.8997 18.4948 64.8942 18.4553C64.8665 18.2547 64.8365 18.0399 64.7231 17.9043C64.6217 17.7832 64.5204 17.6617 64.4194 17.5401C63.7719 16.7623 63.1225 15.9824 62.4002 15.2785C61.8334 14.7263 61.1505 14.2829 60.4797 13.8475L60.3925 13.7909C58.5597 12.6001 56.5068 12.064 54.349 11.9225C53.7577 11.8838 53.1634 11.8927 52.5688 11.9016C52.2129 11.907 51.857 11.9123 51.5015 11.9075C51.177 11.903 51.0015 12.0061 50.7907 12.2883C50.5114 12.6629 50.0939 12.9642 49.6815 13.2051C48.652 13.8067 47.7459 14.5133 47.0501 15.5066C46.136 16.8114 45.2985 18.1538 44.7512 19.6504C44.3289 20.8048 44.0369 21.9904 43.9363 23.2321C43.9036 23.6329 43.8227 24.0286 43.7416 24.4244C43.5847 25.1904 43.4276 25.9574 43.6214 26.7651C43.705 27.1131 43.7535 27.47 43.8022 27.8268C43.8591 28.245 43.9159 28.6628 44.0291 29.0654C44.0498 29.1396 44.0708 29.2135 44.0915 29.2874C44.4524 30.5664 44.8062 31.8216 44.7358 33.1979C44.6602 34.6773 44.1338 35.9698 43.5239 37.3703C43.4461 37.5421 43.3692 37.7145 43.2926 37.8868V37.887C43.1074 38.3035 42.9221 38.7201 42.7197 39.1281ZM66.8491 29.3872C66.85 29.3999 66.8485 29.4136 66.8471 29.4271C66.8444 29.4517 66.8419 29.4756 66.852 29.4924C66.8832 29.5442 66.9208 29.5924 66.9584 29.6405C66.9732 29.6595 66.988 29.6786 67.0026 29.6978C67.0184 29.6835 67.0352 29.67 67.0518 29.6563C67.0878 29.6268 67.1237 29.5973 67.1529 29.5621C67.2354 29.4623 67.3186 29.3628 67.4016 29.2635L67.4018 29.2633L67.402 29.2631C67.6386 28.98 67.8754 28.697 68.0976 28.4029C68.5874 27.7541 69.0663 27.0969 69.5356 26.4329C69.8122 26.0415 69.537 25.8795 69.2091 25.8562C68.526 25.8079 67.9475 26.0958 67.3605 26.4323C66.9411 26.6727 66.6323 26.8741 66.7419 27.5085L66.7584 27.7938C66.7888 28.3249 66.8192 28.8559 66.8491 29.3872ZM43.4567 29.6882C43.4419 29.7122 43.4272 29.7363 43.4165 29.7595C43.1242 29.6206 42.8534 29.4547 42.5851 29.2905C42.3504 29.1467 42.1177 29.0044 41.8748 28.8823C41.3254 28.6067 41.1321 28.1057 40.9563 27.6081C40.7538 27.0352 41.2044 26.4882 41.8152 26.4923C41.8423 26.4925 41.8696 26.4925 41.8969 26.4927C42.1146 26.4935 42.3358 26.4942 42.5451 26.54C42.9564 26.6299 42.9973 26.9478 43.0365 27.2542C43.0487 27.3492 43.0608 27.443 43.0838 27.5288C43.2306 28.0768 43.3378 28.6357 43.445 29.1942C43.4672 29.3097 43.4894 29.4253 43.512 29.5406C43.5206 29.5846 43.4886 29.6364 43.4567 29.6882Z" fill="white"/>
<path d="M63.049 37.4784C63.843 37.4784 64.4866 36.8366 64.4866 36.0448C64.4866 35.2531 63.843 34.6112 63.049 34.6112C62.255 34.6112 61.6114 35.2531 61.6114 36.0448C61.6114 36.8366 62.255 37.4784 63.049 37.4784Z" fill="#FFB61D"/>
<path d="M48.0569 36.2496C48.8508 36.2496 49.4945 35.6078 49.4945 34.816C49.4945 34.0242 48.8508 33.3824 48.0569 33.3824C47.2629 33.3824 46.6193 34.0242 46.6193 34.816C46.6193 35.6078 47.2629 36.2496 48.0569 36.2496Z" fill="#FFB61D"/>
<path fill-rule="evenodd" clip-rule="evenodd" d="M54.853 17.542C55.6723 17.7175 56.5607 17.9304 57.3886 17.4822C57.6689 17.3303 57.9324 17.1434 58.1879 16.9516C58.3437 16.8347 58.484 16.6895 58.6064 16.5372C59.5788 15.3284 60.2964 15.5089 61.6354 16.2981C63.3484 17.3079 65.3321 20.2492 60.021 20.2492C57.3458 20.2492 46.661 18.7966 48.1528 17.3526C48.7625 16.7624 49.5614 16.3674 50.2691 15.8764C50.5357 15.6915 50.807 15.5064 51.0422 15.2855C51.3831 14.9654 51.5897 15.1344 51.8025 15.4286C52.0822 15.8154 52.374 16.1933 52.6876 16.6018C53.4249 16.9441 54.109 17.3826 54.853 17.542Z" fill="#A9B5C6"/>
<path fill-rule="evenodd" clip-rule="evenodd" d="M83.4789 72.8408C83.2012 73.0075 82.924 73.1738 82.6258 73.2867C81.9045 73.5594 81.1732 73.806 80.4347 74.0553H80.4345C79.9669 74.2132 79.4961 74.3719 79.023 74.539C78.8804 74.5943 78.7552 74.6307 78.6338 74.666H78.6336C78.605 74.6744 78.5767 74.6826 78.5486 74.691C78.1261 74.8163 77.7039 74.9431 77.2818 75.0696H77.2816L77.2814 75.0698H77.2812H77.281H77.2808V75.07H77.2806H77.2804H77.2802H77.28L77.2798 75.0703C76.2207 75.3879 75.1616 75.7057 74.0969 76.0035C73.6657 76.1242 73.3091 75.989 73.0748 75.5241C72.4924 74.3688 71.8693 73.2334 71.2423 72.1013C71.1987 72.0226 71.0913 71.9794 70.9839 71.936C70.934 71.9159 70.8841 71.8959 70.8406 71.8721C70.8243 71.927 70.7985 71.9866 70.7724 72.0464C70.7165 72.175 70.6607 72.3036 70.7017 72.382C71.4006 73.7214 72.1184 75.0518 72.8692 76.3627C72.9621 76.5249 73.2982 76.6738 73.4837 76.6372C74.4695 76.4434 75.4479 76.2065 76.4195 75.9497C76.7951 75.8503 77.1666 75.7342 77.5381 75.6183C78.0735 75.451 78.6085 75.2839 79.1546 75.1673C81.0299 74.7669 82.824 74.1888 84.4335 73.1195C85.0114 72.7355 85.1699 72.1484 84.889 71.5399C84.7914 71.3292 84.6922 71.1188 84.5928 70.9083L84.5926 70.9081V70.9077L84.5924 70.9073L84.5922 70.9071L84.592 70.9067V70.9063L84.5918 70.9061L84.5916 70.9056L84.5914 70.9054V70.905L84.5908 70.9038C84.246 70.1733 83.9005 69.4417 83.6305 68.6842C82.8024 66.3622 81.8704 64.085 80.7729 61.8791C80.0784 60.483 79.3409 59.1053 78.5572 57.7573C77.51 55.9563 76.4133 54.1567 74.7297 52.8753C73.5603 51.9852 72.308 51.147 70.9765 50.5385C69.0304 49.6495 66.8931 49.4547 64.7663 49.3068C64.3317 49.2765 63.875 49.1141 63.4914 48.9005C62.7216 48.4723 62.4091 47.7137 62.0942 46.95C62.0597 46.8664 62.0252 46.7827 61.9901 46.6995C61.8346 46.3311 62.0848 46.2621 62.2421 46.2295C62.6473 46.1459 63.0753 46.0798 63.4825 46.1208C64.1173 46.1847 64.4665 45.8901 64.6994 45.3652C65.2707 44.0781 65.771 42.7692 66.1487 41.4069C66.6715 39.5209 67.1182 37.6351 67.0706 35.6585C67.0498 34.8021 67.0548 33.9448 67.0595 33.0877V33.0873C67.062 32.6404 67.0644 32.1933 67.0634 31.7465C67.063 31.6244 67.0482 31.4968 67.0334 31.3696C67.0036 31.114 66.974 30.8599 67.0634 30.6561C67.2827 30.1552 67.6431 29.7054 67.9929 29.2733C68.2697 28.9315 68.5587 28.5995 68.8479 28.2675C69.198 27.8653 69.5482 27.4633 69.8762 27.0436C70.1403 26.7057 70.3372 26.2754 70.0713 25.8267C69.8115 25.3884 69.3948 25.2105 68.9107 25.3194C68.8277 25.3381 68.7441 25.3557 68.6604 25.3733C68.0518 25.5017 67.4365 25.6315 67.0069 26.1695C66.8005 26.428 66.6812 26.4288 66.6276 26.054C66.5879 25.7755 66.5315 25.4994 66.475 25.2234C66.4165 24.9375 66.3579 24.6518 66.3181 24.3632C66.269 24.0077 66.2359 23.6501 66.2029 23.2925C66.171 22.9464 66.139 22.6003 66.0926 22.2562C66.0273 21.7731 65.9536 21.2912 65.8798 20.8091C65.7683 20.0795 65.6568 19.35 65.5744 18.6171C65.5256 18.1819 65.4044 17.8333 65.1115 17.5161C64.9598 17.3515 64.8053 17.1885 64.6511 17.0254C64.1779 16.5256 63.7041 16.0251 63.2961 15.4768C62.17 13.9637 60.5708 13.1702 58.9114 12.4505C57.842 11.9867 56.7363 11.655 55.5603 11.5881C55.043 11.5586 54.5259 11.5218 54.0088 11.4851C53.481 11.4476 52.9529 11.41 52.4245 11.3802C51.9898 11.3558 51.5478 11.3383 51.1184 11.3922C50.905 11.4191 50.6914 11.5892 50.5154 11.7384C50.3414 11.8857 50.1761 12.0433 50.0106 12.2008C49.7976 12.4037 49.5847 12.6065 49.354 12.7871C49.1109 12.9775 48.8531 13.1523 48.596 13.3269C48.1738 13.6135 47.7523 13.8995 47.3968 14.2529C46.9883 14.6592 46.662 15.1487 46.3361 15.6374V15.6374V15.6374C46.2162 15.8173 46.0964 15.997 45.9726 16.1724C45.0535 17.4745 44.3475 18.8817 43.9587 20.4308C43.7182 21.3897 43.5145 22.358 43.3122 23.3259L43.2802 23.4791C43.1319 24.1877 42.983 24.8979 42.8896 25.6143L42.8854 25.6461C42.8117 26.2136 42.806 26.2568 42.2601 26.0555C41.6961 25.8476 41.2102 25.9879 40.8132 26.3694C40.4232 26.7442 40.3803 27.2499 40.5159 27.7594C40.9131 29.2522 42.0572 29.877 43.4247 30.2494C43.5441 30.2819 43.6759 30.3981 43.7328 30.5101C44.3224 31.6731 44.3479 32.9103 43.9747 34.1098C43.6311 35.2143 43.2241 36.2992 42.8171 37.384V37.3842L42.8168 37.3844V37.3846V37.3848H42.8166V37.385V37.3852V37.3854H42.8164V37.3856V37.3858C42.6369 37.864 42.4575 38.3422 42.2835 38.8223C42.1042 39.3171 42.0058 39.7707 42.4168 40.2497C43.3005 41.2805 44.1444 42.3473 44.7818 43.5562C45.0347 44.0357 45.4226 44.3808 45.943 44.4848C46.4388 44.5841 46.5059 44.8285 46.5645 45.2923C46.6413 45.9037 46.8454 46.5461 47.1765 47.0583C47.2816 47.2209 47.5652 47.2648 47.8554 47.3098C48.009 47.3338 48.1645 47.3577 48.2966 47.3999C48.4042 47.4343 48.5753 47.5777 48.5621 47.6359C48.5385 47.7393 48.5157 47.8431 48.4927 47.9472V47.9474V47.9476C48.3826 48.4469 48.2721 48.9486 48.0863 49.4199C47.6794 50.4517 46.814 51.0972 45.974 51.7237C45.8592 51.8093 45.745 51.8947 45.6323 51.9805C44.1659 53.0985 42.4213 53.7125 40.6687 54.2423C39.8451 54.4913 39.0095 54.7008 38.1738 54.9104H38.1736C37.6314 55.0463 37.0893 55.1823 36.5502 55.3292C36.2144 55.4205 35.8823 55.5289 35.5506 55.637H35.5504H35.5502C35.0583 55.7973 34.5669 55.9575 34.0635 56.0628C32.1289 56.4674 30.4225 57.3 28.9237 58.575C27.9161 59.4319 27.3754 60.5843 26.8318 61.7431C26.8053 61.7994 26.7788 61.8557 26.7523 61.9121C26.0175 63.4741 25.373 65.1395 25.2823 66.8297C25.2568 67.3038 25.2931 67.7808 25.3295 68.2582C25.3478 68.4997 25.3663 68.7409 25.3765 68.9822C25.3999 69.5241 25.4199 70.0664 25.44 70.6087C25.4835 71.7881 25.5271 72.9674 25.6049 74.1446C25.6484 74.8009 25.7655 75.4532 25.8824 76.1045C25.916 76.2915 25.9495 76.4785 25.9813 76.6652C26.0678 77.174 26.1643 77.681 26.2611 78.1881C26.3253 78.5263 26.3898 78.8646 26.4512 79.2033C26.4913 79.4243 26.5344 79.6451 26.5773 79.8656V79.8659C26.6932 80.4596 26.809 81.0537 26.8677 81.6531C26.9217 82.204 26.9059 82.7621 26.8903 83.3194C26.8856 83.4843 26.8811 83.6491 26.8782 83.8138C26.8733 84.1038 26.924 84.3385 27.2735 84.2598C27.6188 84.182 27.9582 84.0776 28.2973 83.9729C28.4039 83.9399 28.5105 83.9072 28.6173 83.8752C28.9773 83.7671 29.1979 83.8937 29.2443 84.2629C29.2903 84.6281 29.3307 84.9938 29.3712 85.3596C29.4326 85.915 29.494 86.4702 29.5745 87.0226C29.7702 88.3659 29.9855 89.7065 30.2175 91.044C30.6437 93.499 31.2579 95.9103 32.0648 98.2663C32.7824 100.361 33.5583 102.436 34.3418 104.507C34.7932 105.7 35.2758 106.881 35.7584 108.062C35.8819 108.364 36.0051 108.666 36.1279 108.968C36.6255 110.191 37.1338 111.41 37.6429 112.629C37.761 112.912 37.8779 113.196 37.9945 113.479C38.3369 114.311 38.6792 115.142 39.0571 115.957C39.3853 116.665 39.7581 117.352 40.1308 118.039C40.2407 118.241 40.3508 118.444 40.4594 118.647C40.4933 118.71 40.5611 118.755 40.629 118.8C40.6605 118.821 40.6921 118.842 40.7202 118.864C40.7338 118.827 40.7496 118.79 40.7652 118.753C40.8022 118.667 40.8391 118.58 40.8475 118.491C40.8541 118.421 40.8145 118.345 40.7765 118.272C40.7664 118.253 40.7566 118.234 40.7475 118.215C40.6208 117.95 40.4898 117.687 40.3586 117.424C40.0838 116.872 39.8088 116.32 39.574 115.752C38.761 113.783 37.981 111.801 37.2039 109.817C36.8547 108.926 36.5134 108.032 36.1719 107.138C35.8359 106.258 35.4999 105.377 35.1563 104.5C34.9427 103.954 34.7168 103.413 34.4911 102.872C34.0869 101.903 33.683 100.934 33.349 99.942C32.6405 97.8352 32.0065 95.7004 31.4325 93.553C31.109 92.3431 30.8868 91.1051 30.6648 89.8693V89.8691C30.625 89.6469 30.5851 89.4247 30.5447 89.2029C30.4328 88.5891 30.3615 87.9679 30.2902 87.3468C30.2658 87.1348 30.2416 86.9228 30.2157 86.7113C30.1029 85.7917 29.9968 84.8712 29.8935 83.9504C29.8592 83.6436 29.9953 83.4982 30.3093 83.3991C31.5122 83.0194 32.7091 82.6216 33.9062 82.2239C34.3307 82.0828 34.7554 81.9415 35.1803 81.8012C35.4964 81.697 35.833 81.5968 36.1788 81.494C37.4599 81.1131 38.87 80.6941 39.8451 79.8759C39.9016 79.8286 40.0493 79.8015 40.0848 79.8362C40.1485 79.8984 40.1934 80.017 40.1867 80.1077C40.153 80.5618 40.1121 81.0158 40.0712 81.4694C39.9907 82.3644 39.9102 83.2594 39.885 84.1558C39.8529 85.2928 39.9076 86.4334 39.9622 87.5719L39.9624 87.5725V87.5729V87.5735V87.5739V87.5745V87.5749V87.5755V87.5762V87.5766L39.9626 87.5772V87.5776V87.5782C39.9698 87.7265 39.9768 87.8748 39.9838 88.0228C40.0174 88.7454 40.0714 89.4736 40.2014 90.1837C40.5321 91.9906 41.2182 93.6814 42.0239 95.3237C42.141 95.5625 42.2802 95.7923 42.4195 96.0217C42.6273 96.3647 42.8349 96.7072 42.9668 97.0772C43.1686 97.6433 43.382 98.2055 43.5954 98.7679C44.1813 100.312 44.7675 101.856 45.1154 103.481C45.2248 103.991 45.3526 104.499 45.4803 105.006C45.6222 105.568 45.7639 106.131 45.8806 106.699C46.0607 107.575 46.2008 108.459 46.341 109.343V109.343V109.343V109.343V109.343C46.3733 109.547 46.4055 109.75 46.4384 109.953C46.4782 110.202 46.523 110.451 46.5677 110.7C46.6889 111.375 46.8103 112.05 46.8397 112.73C46.8978 114.081 46.9163 115.434 46.9347 116.788C46.9446 117.51 46.9545 118.233 46.9705 118.955C46.9727 119.063 47.0185 119.169 47.0645 119.276C47.0859 119.325 47.1073 119.375 47.1241 119.425C47.1526 119.374 47.1878 119.325 47.2231 119.275C47.2995 119.167 47.3759 119.059 47.3825 118.948C47.418 118.339 47.4387 117.728 47.4597 117.118V117.118V117.118V117.118V117.117V117.117V117.117V117.117V117.116V117.116V117.116V117.115V117.115V117.115V117.115C47.4732 116.722 47.4866 116.33 47.5038 115.938C47.512 115.751 47.5318 115.564 47.5513 115.377V115.377V115.377V115.376V115.376C47.5806 115.095 47.6098 114.815 47.601 114.536C47.5917 114.244 47.5835 113.952 47.5751 113.66V113.66V113.659V113.659V113.659V113.658V113.658V113.658V113.658V113.657V113.657V113.657V113.656C47.5367 112.316 47.4985 110.975 47.3722 109.642C47.2876 108.748 47.0752 107.864 46.8639 106.984C46.8234 106.815 46.7828 106.646 46.7433 106.478C46.6485 106.073 46.5558 105.668 46.4632 105.264C46.135 103.827 45.8066 102.39 45.3752 100.985C44.6668 98.6778 43.7051 96.463 42.6004 94.3073C42.0983 93.3274 41.6772 92.2814 41.3953 91.2191C40.8416 89.133 40.7935 86.9767 40.7459 84.8325L40.7414 84.6307C40.7192 83.644 40.7599 82.6556 40.8005 81.6677V81.6675V81.6671C40.8145 81.33 40.8284 80.9929 40.8397 80.656C40.8547 80.2134 40.8888 79.7712 40.9229 79.3293V79.3287V79.3278V79.3272L40.9231 79.3266V79.3258C40.9305 79.2302 40.9379 79.1345 40.9451 79.0389C40.9782 78.5985 41.0184 78.1584 41.0587 77.7181L41.0589 77.7179C41.147 76.7558 41.2351 75.7938 41.2472 74.8306C41.2568 74.0561 41.2063 73.2809 41.156 72.5055C41.1141 71.8633 41.0724 71.221 41.0646 70.5784C41.0539 69.6717 40.7915 68.8337 40.5288 67.9952C40.4456 67.7292 40.3623 67.4632 40.2871 67.1949C40.2581 67.0919 40.1511 67.0106 40.0441 66.9293C39.9946 66.8916 39.9451 66.8539 39.9035 66.8142C39.887 66.8723 39.8636 66.9319 39.84 66.9915C39.7887 67.1218 39.7373 67.2518 39.7609 67.3669C39.8077 67.5975 39.878 67.8246 39.9478 68.0516C40.0458 68.369 40.1435 68.6856 40.1772 69.0098C40.3284 70.4614 40.4715 71.9196 40.4949 73.3772C40.5048 73.9873 40.4571 74.5988 40.4093 75.2101C40.3561 75.8921 40.3027 76.5739 40.3296 77.2528C40.3678 78.2215 39.8722 78.7366 39.2087 79.2281C38.3359 79.8747 37.089 80.2482 35.9698 80.5837C35.6732 80.6726 35.3857 80.7588 35.1163 80.8466C33.4435 81.3924 31.7806 81.9685 30.1177 82.5446C29.431 82.7826 28.7442 83.0206 28.0566 83.2565L28.0451 83.2604C27.8153 83.3395 27.6257 83.4046 27.626 83.0134C27.6264 82.5366 27.5769 82.0584 27.5276 81.5829L27.5249 81.5575C27.4968 81.2868 27.4693 81.016 27.4417 80.7455V80.7449C27.3354 79.6981 27.229 78.6514 27.0906 77.609C27.0061 76.9722 26.9035 76.3378 26.8008 75.7033C26.678 74.9449 26.5554 74.1867 26.4638 73.4249C26.3348 72.3536 26.2582 71.2706 26.2496 70.1921C26.2407 69.0997 26.2744 68.0069 26.3081 66.9141C26.3212 66.4852 26.3346 66.0564 26.3453 65.6275C26.3738 64.4768 26.9404 63.421 27.4929 62.3915C27.6997 62.0063 27.9044 61.6247 28.0784 61.2434C28.9602 59.3084 30.6209 58.2416 32.4904 57.488C33.3885 57.1259 34.3256 56.8582 35.2623 56.5909L35.2625 56.5907H35.2627H35.2629L35.2631 56.5905H35.2633H35.2635H35.2637V56.5903H35.2639H35.2641H35.2643C35.6079 56.4922 35.9513 56.3941 36.2926 56.2913C37.0589 56.0609 37.8267 55.8365 38.5948 55.612L38.5952 55.6118H38.5954H38.5956L38.5959 55.6116H38.5961H38.5963L38.5965 55.6114H38.5967H38.5969H38.5971C40.1119 55.1686 41.6265 54.7258 43.1263 54.237C44.4645 53.801 45.7387 53.1763 46.7926 52.2092C47.0812 51.9444 47.2233 51.9913 47.478 52.234C48.3091 53.0264 49.1602 53.7981 50.0112 54.5698L50.1576 54.7029C51.6086 56.0187 53.2232 57.0948 55.0188 57.8793C55.2847 57.9957 55.7203 57.9795 55.9676 57.8361C56.525 57.5128 57.0464 57.1259 57.5668 56.74C57.674 56.6604 57.7812 56.5809 57.8886 56.5021C58.1045 56.3433 58.3209 56.1852 58.5372 56.0269C59.4363 55.3695 60.3358 54.7119 61.2103 54.023C62.1392 53.2912 62.804 52.327 63.4663 51.3663C63.5723 51.2125 63.6781 51.0591 63.785 50.9065C63.8269 50.8465 63.6789 50.5379 63.584 50.5186C63.2117 50.4435 63.0408 50.6853 62.8615 50.9391C62.8274 50.9872 62.7931 51.0359 62.757 51.0828C62.6083 51.2764 62.4631 51.4748 62.3177 51.6739C61.8673 52.2903 61.4144 52.9101 60.8454 53.3887C59.937 54.1524 58.9831 54.8614 58.0287 55.5708C57.3501 56.0751 56.6716 56.5795 56.0091 57.1038C55.5969 57.43 55.2934 57.4061 54.8949 57.1818C54.8077 57.1326 54.7204 57.0837 54.6331 57.035L54.6329 57.0347C53.7036 56.5141 52.7817 55.9978 51.9776 55.261C50.9442 54.314 49.8594 53.4221 48.7751 52.5306C48.465 52.2756 48.1549 52.0208 47.846 51.7646C47.5597 51.5271 47.6112 51.3802 47.8575 51.1556C48.6827 50.4027 49.1254 49.4715 49.2454 48.3479C49.2528 48.2793 49.2552 48.204 49.2577 48.1255C49.2692 47.7712 49.2828 47.3573 49.758 47.2469C50.2147 47.1407 50.5552 47.4382 50.828 47.7682C51.0029 47.9801 51.1701 48.1989 51.3373 48.4174C51.5451 48.6894 51.753 48.9611 51.976 49.22L52.0179 49.2687C52.4442 49.7648 52.9139 50.311 53.6551 50.0554C54.6916 49.6982 55.7376 49.6316 56.8147 49.6189C57.121 49.6153 57.5463 49.3869 57.7032 49.1313C57.9626 48.7088 58.1542 48.2447 58.3458 47.7811V47.7809V47.7807H58.346V47.7804V47.7802H58.3462V47.78V47.7798L58.3464 47.7796V47.7794V47.7792H58.3466V47.779L58.3468 47.7788V47.7786V47.7784L58.347 47.7782V47.778V47.7778H58.3472C58.421 47.599 58.4947 47.4204 58.5723 47.2443C58.8473 46.6207 59.1332 46.3876 59.8216 46.6375C60.1206 46.7462 60.5166 46.8326 60.787 46.7253C61.3231 46.5127 61.4243 46.7704 61.5746 47.1525C61.5808 47.1681 61.587 47.1839 61.5933 47.1996C61.9443 48.0862 62.3012 48.9753 63.1484 49.5534C63.7068 49.9345 64.3387 50.04 64.9715 50.1457C65.0302 50.1555 65.0889 50.1653 65.1477 50.1754C65.6979 50.2694 66.2499 50.3536 66.8017 50.4379H66.8022C67.5959 50.5592 68.3897 50.6802 69.1779 50.8303C71.2312 51.2211 72.991 52.2729 74.4993 53.6338C75.5526 54.5843 76.4037 55.7814 77.2334 56.9485V56.9487L77.2574 56.9823C77.86 57.83 78.3498 58.7612 78.8369 59.6869C78.8932 59.7938 78.9492 59.9005 79.0055 60.007C79.1569 60.2935 79.3097 60.5798 79.4623 60.8661C80.1597 62.1742 80.858 63.4839 81.4494 64.8389C82.1339 66.407 82.7579 68.0014 83.382 69.596V69.5962C83.6851 70.3703 83.988 71.1442 84.2979 71.9155C84.4014 72.1734 84.4347 72.337 84.1201 72.4849C83.8997 72.5883 83.6892 72.7146 83.4791 72.8408H83.4789ZM43.2927 37.887C43.3695 37.7145 43.4461 37.5421 43.5241 37.3703C44.1339 35.9698 44.6603 34.6773 44.736 33.1979C44.8065 31.8216 44.4524 30.5666 44.0918 29.2876C44.0708 29.2137 44.0501 29.1396 44.0292 29.0654C43.9162 28.6628 43.8593 28.245 43.8022 27.8268V27.8266V27.8264C43.7538 27.4698 43.7051 27.1131 43.6217 26.7651C43.4278 25.9574 43.5849 25.1906 43.7418 24.4246C43.8228 24.0286 43.9039 23.6331 43.9363 23.2321C44.0372 21.9904 44.3292 20.8048 44.7514 19.6505C45.2988 18.1539 46.1363 16.8114 47.0504 15.5067C47.7462 14.5134 48.6523 13.8068 49.6818 13.2052C50.094 12.9643 50.5117 12.6629 50.791 12.2884C51.0015 12.0061 51.1773 11.9031 51.5018 11.9075C51.8573 11.9124 52.2132 11.907 52.5691 11.9017C53.1637 11.8928 53.7578 11.8838 54.3491 11.9226C56.5071 12.064 58.5598 12.6001 60.3927 13.7909L60.4798 13.8475C61.1505 14.283 61.8336 14.7264 62.4002 15.2786C63.1225 15.9824 63.7719 16.7623 64.4194 17.5401C64.5207 17.6617 64.6219 17.7832 64.7232 17.9043C64.8368 18.0399 64.8665 18.2548 64.8945 18.4553C64.9 18.4948 64.9053 18.5338 64.9113 18.5715C65.0637 19.535 65.2079 20.4997 65.352 21.4645L65.3522 21.4649L65.4173 21.9001C65.4473 22.1008 65.4777 22.3013 65.5083 22.502V22.5026C65.6007 23.1094 65.6929 23.7165 65.7722 24.3251C65.7993 24.533 65.8264 24.7407 65.8538 24.9483C66.0156 26.1839 66.1774 27.4194 66.3033 28.6587C66.3729 29.3456 66.3896 30.0382 66.406 30.7298V30.73C66.4097 30.882 66.4132 31.034 66.4175 31.1857C66.4263 31.5052 66.4356 31.8247 66.445 32.1442V32.1446V32.145V32.1452V32.1454V32.1456V32.1458V32.146V32.1462V32.1464V32.1466V32.1468V32.147V32.1472C66.4822 33.4078 66.5194 34.6685 66.52 35.9291C66.521 37.812 66.1047 39.6372 65.5457 41.4198C65.2021 42.5157 64.7725 43.5853 64.3437 44.6536L64.3435 44.6538C64.2675 44.8432 64.1913 45.0326 64.1157 45.2223C64.0539 45.3771 63.8144 45.5197 63.6339 45.5582C63.1336 45.6649 62.6226 45.7361 62.1125 45.7736C61.9063 45.789 61.6514 45.7339 61.4896 45.6149C61.2898 45.4681 61.2536 45.465 61.1444 45.6948C60.886 46.2377 60.5753 46.3675 59.9766 46.1558C59.4447 45.9676 58.9255 45.9002 58.5253 46.3389C58.3037 46.5816 58.1566 46.8976 58.0131 47.2066C57.9868 47.2631 57.9607 47.3194 57.9342 47.3749C57.8644 47.5212 57.8229 47.6807 57.781 47.8403V47.8405V47.8407C57.7595 47.9232 57.7379 48.0059 57.7124 48.0868C57.4637 48.8759 57.1481 49.1491 56.3397 49.0965C55.4583 49.0394 54.6039 49.1653 53.7917 49.4463C53.1074 49.683 52.7874 49.3144 52.443 48.9177C52.4079 48.8772 52.3724 48.8364 52.3364 48.7958C52.2387 48.6861 52.1411 48.5761 52.0438 48.4659H52.0436C51.5722 47.9332 51.1003 47.4001 50.5877 46.9098C50.3959 46.7263 50.0258 46.652 49.7403 46.6588C49.4425 46.6659 49.1462 46.7161 48.8496 46.7663C48.6568 46.7988 48.4637 46.8314 48.2701 46.8523C47.8569 46.8969 47.5326 46.6659 47.41 46.3176C47.2385 45.8306 47.1424 45.3087 47.0836 44.7938C47.0413 44.4238 46.9083 44.1428 46.5556 44.0793C45.6869 43.923 45.2082 43.3789 44.7948 42.641C44.5023 42.1188 44.1294 41.641 43.7566 41.1636L43.7564 41.1634V41.1632H43.7562V41.163H43.756V41.1627C43.6143 40.9813 43.4726 40.7996 43.3354 40.6159C43.2444 40.4939 43.1448 40.3786 43.0452 40.2631C42.9526 40.1555 42.8598 40.048 42.7739 39.9354C42.5825 39.6837 42.5729 39.4244 42.7199 39.1283C42.9222 38.7201 43.1075 38.3035 43.2927 37.8872V37.887ZM66.7578 27.7805L66.7422 27.5085C66.6325 26.8741 66.9414 26.6727 67.3608 26.4323C67.9477 26.0958 68.526 25.8081 69.2091 25.8562C69.5373 25.8795 69.8123 26.0417 69.5356 26.4331C69.0666 27.0969 68.5874 27.7541 68.0976 28.4029C67.8756 28.697 67.6388 28.98 67.402 29.2633L67.4018 29.2635L67.4016 29.2637C67.3187 29.363 67.2355 29.4623 67.1531 29.5623C67.124 29.5975 67.088 29.6268 67.0519 29.6563C67.0457 29.6614 67.0396 29.6665 67.0334 29.6716C67.0229 29.6802 67.0127 29.6888 67.0026 29.6978C66.9882 29.6786 66.9734 29.6595 66.9586 29.6407C66.9211 29.5926 66.8835 29.5442 66.8523 29.4924C66.842 29.4756 66.8447 29.4517 66.8471 29.4273C66.8486 29.4136 66.85 29.3999 66.8494 29.3872C66.819 28.8516 66.7884 28.3161 66.7578 27.7805ZM43.457 29.6882C43.4422 29.7124 43.4274 29.7363 43.4165 29.7597C43.1245 29.6206 42.8536 29.4547 42.5854 29.2907V29.2905C42.3507 29.1469 42.118 29.0044 41.875 28.8823C41.3256 28.6067 41.1324 28.1059 40.9564 27.6081C40.7539 27.0354 41.2045 26.4882 41.8153 26.4923C41.8426 26.4925 41.8699 26.4927 41.8972 26.4927C42.1149 26.4935 42.3359 26.4944 42.5453 26.54C42.9565 26.6299 42.9974 26.9478 43.0368 27.2542C43.0489 27.3492 43.061 27.4432 43.0838 27.5288C43.2309 28.0768 43.3381 28.636 43.4453 29.1942C43.4675 29.3097 43.4896 29.4253 43.5122 29.5408C43.5207 29.5846 43.4888 29.6364 43.457 29.6882ZM76.0223 80.1452C76.8723 81.5022 77.7248 82.8635 78.5929 84.24C78.8145 84.4607 79.0326 84.6795 79.2491 84.8966C79.7251 85.3739 80.1926 85.8427 80.6664 86.3048C81.8043 87.4142 83.1577 87.6855 84.6828 87.337C86.0074 87.0341 87.2179 86.4977 88.2836 85.6572C88.4524 85.5241 88.6265 85.3942 88.8009 85.2644H88.8011C89.3139 84.8824 89.8292 84.4986 90.2213 84.0178C91.1163 82.9206 91.9392 81.7486 92.6582 80.5292C93.6175 78.9019 94.5714 77.251 95.304 75.5161C95.9868 73.899 96.5553 72.2336 97.1234 70.5683L97.1238 70.5673C97.3355 69.9472 97.547 69.327 97.7645 68.7094L97.8303 68.5232L97.8785 68.3864L97.919 68.2717L98.0036 68.0327L98.0038 68.0319V68.0317H98.004V68.0315V68.0313C98.4536 66.7599 98.9033 65.4883 99.3015 64.2009C99.4948 63.5759 99.6578 62.9408 99.8209 62.3061C100.031 61.4889 100.241 60.672 100.515 59.8768C100.83 58.9638 101.221 58.0772 101.612 57.1904C101.815 56.7312 102.018 56.2721 102.21 55.8092C102.412 55.322 102.615 54.8352 102.817 54.3484L102.818 54.348C103.593 52.4878 104.368 50.6278 105.103 48.7522C105.394 48.0086 105.599 47.2302 105.802 46.4533L105.802 46.4523L105.803 46.4517V46.4513L105.803 46.4511V46.4507L105.803 46.4503V46.4499L105.803 46.4497V46.4492L105.803 46.4488V46.4484V46.4482L105.804 46.4478C105.857 46.2451 105.91 46.0425 105.964 45.8408C105.989 45.7484 105.94 45.636 105.89 45.5233C105.867 45.4713 105.844 45.4193 105.828 45.3691C105.774 45.3863 105.717 45.399 105.659 45.4119C105.535 45.4396 105.41 45.4672 105.322 45.5399C104.773 45.995 104.393 46.5715 104.142 47.2447C104.013 47.5896 103.841 47.9187 103.669 48.2466V48.2468C103.651 48.2816 103.632 48.3166 103.614 48.3514C103.597 48.3846 103.58 48.418 103.562 48.4512C103.541 48.4927 103.483 48.5155 103.425 48.5382C103.398 48.5489 103.372 48.5593 103.348 48.5718C103.348 48.5489 103.346 48.5253 103.344 48.5018C103.339 48.4514 103.335 48.401 103.348 48.3555C103.452 48.0004 103.559 47.6463 103.667 47.2922L103.667 47.2918L103.667 47.2914V47.2912L103.667 47.2908V47.2904L103.668 47.29V47.2895L103.668 47.2891V47.2889L103.668 47.2883L103.668 47.2877L103.668 47.2871L103.669 47.2865C103.898 46.5301 104.128 45.774 104.32 45.0085C104.476 44.382 104.527 43.724 104.569 43.0764C104.599 42.6078 104.169 42.3365 103.792 42.5806C103.596 42.7071 103.434 42.8865 103.272 43.0657C103.207 43.138 103.142 43.2103 103.075 43.2789C103.022 43.3334 102.974 43.393 102.926 43.4526C102.904 43.4799 102.882 43.5071 102.86 43.5337C102.848 43.5026 102.836 43.4719 102.823 43.4409C102.796 43.3732 102.768 43.3054 102.754 43.2347C102.71 43.001 102.676 42.7651 102.645 42.5294C102.586 42.0846 102.329 41.6602 101.935 41.6514C101.667 41.6453 101.286 42.0329 101.135 42.334C100.676 43.2476 100.273 44.1924 99.9086 45.148C99.6254 45.8906 99.3734 46.6452 99.1214 47.3997L99.1212 47.4003C99.0062 47.7442 98.8914 48.0879 98.7737 48.4305C98.7481 48.505 98.7181 48.5781 98.6879 48.6513C98.6739 48.6851 98.66 48.719 98.6464 48.753C98.6185 48.732 98.5881 48.7127 98.5579 48.6932C98.4924 48.6515 98.4271 48.6097 98.3839 48.5515C97.9352 47.9457 97.2934 47.6266 96.6416 47.3024L96.5625 47.2631C95.9679 46.967 95.3804 47.0483 94.8591 47.3049C94.1533 47.6527 94.1779 48.9146 94.7979 49.4801C95.7539 50.3519 96.4156 51.3898 96.6978 52.6623C97.0811 54.3902 96.7182 55.9518 95.6938 57.3821L95.6439 57.4519L95.5416 57.5947C95.031 58.3068 94.5199 59.0197 94.0504 59.7582C92.8471 61.6509 91.6556 63.5517 90.4915 65.4686L90.4223 65.5823C89.346 67.3544 88.2684 69.1282 87.2736 70.946C86.8236 71.7679 86.4589 72.6366 86.0943 73.5048C85.9655 73.8111 85.837 74.1177 85.7045 74.4221C85.5862 74.6938 85.5026 74.7893 85.2773 74.5128C85.1087 74.3061 84.9159 74.112 84.705 73.9494C84.6403 73.8996 84.5419 73.8929 84.4437 73.8861C84.3992 73.883 84.3546 73.88 84.3131 73.8728C84.3107 73.9033 84.3035 73.9379 84.2965 73.9725C84.2813 74.0473 84.2661 74.1222 84.2967 74.1562C84.3367 74.2011 84.3766 74.2463 84.4166 74.2918C84.6243 74.5275 84.8348 74.7663 85.0866 74.9437C85.8723 75.4975 85.9655 75.4332 86.3126 74.5202C86.3311 74.4716 86.3494 74.4233 86.3677 74.3748C86.3927 74.3084 86.4178 74.2422 86.4426 74.1759L86.4428 74.1757C86.7435 73.3776 87.046 72.5739 87.4567 71.8334C88.5715 69.8225 89.7483 67.8447 90.9324 65.8731C92.1037 63.9234 93.2952 61.9854 94.5162 60.0664C94.7918 59.633 95.0982 59.2179 95.4044 58.803L95.4046 58.8028V58.8026C95.8336 58.2216 96.262 57.641 96.6044 57.0128C97.8771 54.6783 97.691 52.3555 96.2088 50.1569C96.0618 49.9388 95.871 49.7492 95.6806 49.5598C95.4707 49.3511 95.2613 49.1426 95.1111 48.8972C94.9495 48.6326 94.9316 48.1532 95.0682 47.8794C95.1604 47.6946 95.6776 47.564 95.9316 47.6428C97.1525 48.0223 98.3133 48.5157 98.5698 49.9986C98.5819 50.0681 98.663 50.1256 98.7442 50.1832C98.7817 50.21 98.8195 50.2368 98.8503 50.2647C98.8649 50.2426 98.8815 50.2208 98.8982 50.1993C98.9341 50.1526 98.9701 50.106 98.9863 50.0533C99.1374 49.5585 99.2828 49.0621 99.4282 48.5657L99.496 48.3344C99.6059 47.9596 99.7121 47.5836 99.8182 47.2076L99.8185 47.2074V47.2072L99.8187 47.207V47.2066V47.2064L99.8189 47.2062V47.206V47.2056L99.8191 47.2054V47.2052V47.205L99.8193 47.2048V47.2043L99.8195 47.2041V47.2039V47.2037V47.2035L99.8197 47.2033V47.2031V47.2029L99.8199 47.2027V47.2025V47.2023L99.8201 47.2021V47.2019V47.2017V47.2015C100.07 46.3167 100.32 45.432 100.617 44.563C100.803 44.0177 101.074 43.5003 101.344 42.9842C101.428 42.8241 101.512 42.6637 101.593 42.503C101.649 42.3926 101.795 42.3158 101.916 42.258C101.947 42.2431 102.091 42.3524 102.099 42.4153C102.112 42.5241 102.131 42.6346 102.15 42.7454C102.204 43.0549 102.258 43.367 102.194 43.6513C102.063 44.2278 101.884 44.793 101.705 45.3587V45.3589C101.603 45.6798 101.502 46.0007 101.409 46.3237C101.198 47.06 101.002 47.8015 100.83 48.5476C100.815 48.6117 100.886 48.6953 100.956 48.7791C100.988 48.8178 101.021 48.8565 101.045 48.8933C101.078 48.8651 101.116 48.8389 101.154 48.8126V48.8124H101.154C101.236 48.7555 101.319 48.6984 101.345 48.6222C101.519 48.1218 101.677 47.6162 101.835 47.1108C101.889 46.9363 101.944 46.7618 101.999 46.5875C102.369 45.4205 102.761 44.2646 103.637 43.3535C103.691 43.2968 103.764 43.2576 103.838 43.2185H103.838V43.2183H103.838C103.854 43.2095 103.871 43.2009 103.887 43.1919C103.904 43.1823 103.921 43.1725 103.938 43.1622C103.949 43.2032 103.965 43.2452 103.981 43.2871C104.016 43.3777 104.052 43.4682 104.033 43.5462C103.726 44.8461 103.406 46.1429 103.08 47.438C103.031 47.6293 102.975 47.819 102.918 48.0084C102.827 48.3135 102.736 48.6185 102.68 48.93C102.655 49.0682 102.716 49.2216 102.777 49.3752C102.805 49.4451 102.832 49.5149 102.852 49.5833C102.907 49.5641 102.968 49.5501 103.029 49.5362C103.162 49.5057 103.295 49.4752 103.359 49.3918C103.686 48.966 103.987 48.5163 104.249 48.0481C104.403 47.7729 104.537 47.4868 104.671 47.2005V47.2003C104.783 46.9621 104.894 46.7237 105.017 46.4918C105.062 46.4085 105.156 46.3516 105.25 46.2946C105.294 46.2684 105.337 46.2424 105.375 46.2135C105.371 46.2563 105.369 46.3004 105.367 46.3442C105.363 46.439 105.359 46.5336 105.327 46.618C105.28 46.7427 105.232 46.8675 105.185 46.9922C104.847 47.8867 104.508 48.7815 104.144 49.6656C103.994 50.0296 103.826 50.3859 103.658 50.7423L103.658 50.7425V50.7427V50.7429L103.658 50.7431L103.658 50.7433V50.7435V50.7437L103.658 50.7439V50.7441V50.7443L103.657 50.7445V50.7447C103.495 51.0904 103.332 51.4361 103.186 51.7886C102.913 52.4464 102.649 53.1083 102.386 53.7704C101.917 54.9499 101.448 56.1293 100.925 57.2842C100.183 58.9197 99.5903 60.5975 99.0951 62.3167C98.8978 63.0018 98.6953 63.6862 98.4685 64.3621C98.2266 65.084 97.9763 65.8031 97.7257 66.5223L97.7255 66.5231C97.2359 67.9293 96.7465 69.3352 96.3193 70.7598C95.6905 72.857 94.9906 74.9201 94.0627 76.903C93.0736 79.0165 91.8529 81.0021 90.4307 82.8426C89.7627 83.7075 88.919 84.5091 87.996 85.0874C86.9429 85.7473 85.814 86.3564 84.5514 86.6093C83.7118 86.7774 82.8657 86.8759 82.0955 86.4332C80.6787 85.6187 79.62 84.4038 78.6858 83.1029C77.9813 82.1223 77.3153 81.1147 76.6491 80.1069C76.2659 79.5271 75.8824 78.9471 75.4918 78.3725C75.4282 78.2787 75.3171 78.217 75.2062 78.1552C75.1546 78.1267 75.1028 78.098 75.056 78.0661C75.054 78.1195 75.0511 78.173 75.048 78.2264V78.2266C75.0402 78.3688 75.0324 78.5111 75.04 78.6524C75.0416 78.6823 75.0751 78.7085 75.1106 78.7362C75.1382 78.7575 75.1667 78.7798 75.1829 78.8054C75.4622 79.251 75.7413 79.6967 76.0209 80.1429L76.0217 80.1442L76.0223 80.1452ZM71.4717 109.35C71.4084 109.681 71.3563 110.012 71.3045 110.34C71.1809 111.126 71.0599 111.893 70.7937 112.608C70.3043 113.921 69.1715 114.715 67.8635 115.118C66.5775 115.515 65.2574 115.806 63.9399 116.096V116.096H63.9397H63.9395L63.929 116.098L63.914 116.102C63.768 116.134 63.622 116.166 63.476 116.198C63.1262 116.276 62.7613 116.287 62.3967 116.299C62.2524 116.303 62.108 116.308 61.9646 116.316C61.2415 116.36 60.5184 116.402 59.7953 116.444C58.7001 116.508 57.6048 116.572 56.5098 116.64C56.0637 116.668 55.618 116.702 55.1722 116.736C54.6269 116.778 54.0815 116.819 53.5356 116.849C53.4489 116.854 53.3623 116.859 53.2756 116.864L53.2725 116.864L53.2692 116.864C52.4062 116.913 51.5416 116.961 50.6787 116.948C50.0769 116.939 49.4758 116.866 48.8755 116.794H48.8753C48.7182 116.774 48.5611 116.755 48.4042 116.738C48.3409 116.73 48.2836 116.67 48.2263 116.611C48.1998 116.583 48.1733 116.555 48.1462 116.533C48.1672 116.51 48.1873 116.483 48.2074 116.455C48.2514 116.395 48.2951 116.336 48.3483 116.326C48.404 116.315 48.4598 116.304 48.5161 116.292C48.7677 116.241 49.0246 116.189 49.2682 116.22C50.9518 116.437 52.6219 116.295 54.2953 116.107C55.1135 116.016 55.936 115.959 56.7579 115.903H56.7581L56.9462 115.89C57.5169 115.851 58.0883 115.819 58.6598 115.787H58.66L58.6602 115.786H58.6606H58.6608H58.6612H58.6614H58.6619H58.6621H58.6625H58.6627H58.6631H58.6633L58.6637 115.786H58.6641H58.6643C59.7499 115.725 60.8355 115.664 61.9164 115.555C64.014 115.344 66.0891 114.968 68.0522 114.165C69.1869 113.7 69.9679 112.817 70.2641 111.651L70.2943 111.533C70.621 110.249 70.9533 108.944 70.8215 107.593C70.7907 107.279 70.7385 106.965 70.6863 106.651V106.651H70.6861V106.651V106.65C70.606 106.169 70.5262 105.689 70.5241 105.207C70.5216 104.574 70.5682 103.941 70.6149 103.308C70.6555 102.756 70.6964 102.204 70.7044 101.652C70.7116 101.16 70.6471 100.666 70.5824 100.173C70.5551 99.9631 70.5276 99.7532 70.5056 99.5434C70.4865 99.3612 70.4688 99.1789 70.451 98.9964C70.4037 98.511 70.3563 98.0257 70.2852 97.5436C70.0289 95.8099 69.9297 94.0695 69.9587 92.3175C69.9663 91.8587 69.9376 91.3996 69.909 90.9402V90.94V90.9398V90.9396V90.9394V90.9392V90.939C69.8895 90.6275 69.8702 90.3158 69.862 90.0041C69.8437 89.3036 69.8308 88.6032 69.8176 87.9026V87.9024V87.9022V87.902V87.9018V87.9016V87.9014V87.901C69.7991 86.902 69.7804 85.9029 69.7466 84.9043C69.7188 84.0839 69.6716 83.2641 69.6244 82.4443C69.5942 81.9186 69.5638 81.3926 69.5387 80.8667C69.5182 80.436 69.5036 80.0051 69.489 79.574V79.5738V79.5736V79.5734V79.5732V79.573V79.5728C69.4716 79.0542 69.4541 78.5357 69.4262 78.0177C69.4063 77.6493 69.372 77.2809 69.3379 76.9124C69.2738 76.2196 69.2097 75.5272 69.2401 74.8386C69.2732 74.0915 69.405 73.3487 69.5371 72.6057V72.6055H69.5373V72.6053V72.6051V72.6049V72.6047V72.6045C69.5962 72.2735 69.6552 71.9423 69.7051 71.6108C69.7386 71.389 69.7731 71.1674 69.8073 70.9456C69.9006 70.3435 69.994 69.7412 70.07 69.1368C70.1129 68.7956 70.1446 68.453 70.1762 68.1105C70.2128 67.714 70.2495 67.3178 70.3035 66.9239C70.3154 66.8367 70.4142 66.7611 70.513 66.6857C70.5586 66.6509 70.6042 66.6161 70.6412 66.5801C70.6609 66.6214 70.687 66.6634 70.713 66.7056C70.7695 66.7961 70.8258 66.8869 70.8165 66.9704C70.6907 68.1099 70.5467 69.2476 70.3961 70.3842C70.3399 70.808 70.2703 71.2311 70.2006 71.6542C70.0565 72.5316 69.9121 73.4085 69.8881 74.2891C69.8538 75.5452 69.9291 76.8045 70.0043 78.0634C70.0302 78.4964 70.0561 78.9293 70.0774 79.362C70.1088 79.9967 70.152 80.6306 70.1951 81.2644V81.2646V81.2648V81.265L70.1953 81.2653V81.2654V81.2657V81.2659V81.2661V81.2663V81.2665V81.2667V81.2669V81.2671C70.228 81.7457 70.2604 82.2243 70.2879 82.7031C70.3068 83.0296 70.3257 83.356 70.3446 83.6825L70.3448 83.6845V83.6864L70.345 83.6884V83.6891C70.4395 85.3162 70.5337 86.9435 70.6069 88.5717C70.6336 89.1685 70.6436 89.7663 70.6539 90.3639V90.3641V90.3643V90.3645V90.3647C70.6672 91.146 70.6804 91.9273 70.7309 92.7062C70.7907 93.6298 70.8921 94.5508 70.9936 95.472L70.9938 95.4722V95.4724V95.4728V95.473V95.4733V95.4734V95.4739L70.994 95.4741V95.4743V95.4747V95.4749V95.4751C71.0472 95.9578 71.1004 96.4405 71.1476 96.9236C71.2283 97.7506 71.302 98.5784 71.3614 99.407C71.3704 99.5348 71.3803 99.6626 71.3901 99.7906V99.7917V99.7919C71.4341 100.363 71.478 100.936 71.462 101.506C71.4454 102.091 71.4095 102.676 71.3735 103.261V103.261C71.3263 104.028 71.2792 104.795 71.276 105.562C71.2741 105.957 71.3476 106.352 71.4214 106.747C71.4793 107.058 71.5374 107.37 71.559 107.683C71.5838 108.042 71.5507 108.405 71.5165 108.785V108.785C71.4996 108.969 71.4828 109.157 71.4717 109.35ZM31.9463 111.309C32.3978 113.218 33.6345 114.633 35.2204 115.808L35.3524 115.861C36.0439 116.137 36.7091 116.402 37.3877 116.627C37.5177 116.67 37.6698 116.647 37.822 116.623C37.8918 116.613 37.9619 116.602 38.0294 116.598C37.9904 116.556 37.9514 116.515 37.9126 116.474C37.7984 116.352 37.6842 116.231 37.5641 116.115C37.5487 116.1 37.5189 116.103 37.4875 116.105C37.4606 116.107 37.4324 116.109 37.4111 116.101C37.2336 116.03 37.0476 115.969 36.8615 115.908C36.4356 115.77 36.0094 115.631 35.6855 115.367C34.8957 114.723 34.1754 113.967 33.5456 113.164C32.9231 112.372 32.6058 111.419 32.6643 110.374C32.6855 109.996 32.697 109.617 32.7083 109.238C32.7243 108.703 32.7403 108.168 32.7843 107.635C32.8175 107.23 32.8808 106.827 32.944 106.424C32.9999 106.069 33.0558 105.714 33.0911 105.356C33.1683 104.575 33.2164 103.79 33.2646 103.006C33.2761 102.818 33.2876 102.631 33.2995 102.443C33.3041 102.372 33.2572 102.273 33.201 102.23C33.1548 102.195 33.0239 102.194 32.9915 102.231C32.9689 102.257 32.9447 102.284 32.9198 102.31C32.8118 102.427 32.6962 102.553 32.6799 102.685C32.612 103.239 32.5647 103.796 32.5173 104.353V104.353V104.353V104.353V104.353V104.354V104.354V104.354C32.4957 104.607 32.4744 104.859 32.4509 105.112C32.4438 105.188 32.4279 105.263 32.4121 105.338C32.4002 105.396 32.3881 105.453 32.3799 105.51C32.3343 105.831 32.285 106.151 32.2357 106.472C32.1166 107.247 31.9975 108.022 31.9295 108.801C31.9244 108.86 31.919 108.92 31.9137 108.979C31.8443 109.758 31.7718 110.571 31.9463 111.309ZM60.7663 57.4349H60.7665C61.9314 56.6507 63.0814 55.8764 64.0241 54.8504C64.5211 54.3095 64.9618 53.717 65.4023 53.1247L65.4025 53.1245C65.5964 52.8638 65.7903 52.6031 65.9891 52.3467C66.0113 52.3182 66.03 52.2844 66.0486 52.251C66.0823 52.1904 66.1156 52.1306 66.1667 52.105C66.2702 52.053 66.3855 52.0241 66.5005 51.995C66.5485 51.9832 66.5966 51.9711 66.6436 51.9573C66.6284 52.0047 66.6165 52.0542 66.6046 52.104C66.5791 52.2115 66.5534 52.319 66.4933 52.4014C66.3696 52.5707 66.2466 52.7407 66.1236 52.9109C65.6272 53.597 65.1304 54.2837 64.5893 54.9333C64.1015 55.519 63.5637 56.0857 62.9625 56.5506C61.919 57.3575 60.8466 58.1411 59.7171 58.8198C58.4815 59.5622 57.1846 60.2108 55.8801 60.8278C55.2336 61.1336 54.5288 61.0939 53.8886 60.6781C51.9532 59.4209 50.0662 58.1007 48.4576 56.4312C48.0125 55.9692 47.6012 55.4715 47.2122 54.9616C47.1492 54.879 47.1576 54.7424 47.1658 54.6056C47.1697 54.5427 47.1734 54.4799 47.1703 54.4221C47.228 54.433 47.2925 54.4375 47.3568 54.442C47.4966 54.4518 47.6367 54.4616 47.709 54.5364C47.9037 54.7381 48.082 54.9558 48.26 55.1737H48.2602V55.1739H48.2604V55.1741C48.4672 55.4267 48.6736 55.679 48.9057 55.9059C49.5044 56.4912 50.1338 57.0505 50.7914 57.5691C51.5798 58.191 52.3908 58.7848 53.2014 59.3785C53.3816 59.5102 53.5615 59.6421 53.7414 59.7742C53.8601 59.8614 53.988 59.9364 54.1158 60.0113C54.249 60.0891 54.3821 60.1672 54.5047 60.2589C55.0167 60.6421 55.4577 60.391 55.862 60.1608C55.9625 60.1037 56.0606 60.0478 56.1569 60.0033C57.1158 59.5601 58.0429 59.0483 58.9835 58.529C59.2835 58.3633 59.5852 58.1968 59.8896 58.0315C60.1808 57.8292 60.4741 57.6317 60.7663 57.4349ZM101.215 52.6248C101.374 52.4302 101.535 52.2324 101.704 52.0286C101.818 52.0159 101.927 52.0145 102.032 52.0131C102.149 52.0116 102.26 52.0102 102.37 51.9936C102.462 51.9797 102.548 51.9272 102.635 51.8748C102.674 51.8513 102.712 51.8277 102.752 51.8076C102.72 51.7718 102.692 51.7298 102.663 51.688C102.6 51.5975 102.537 51.507 102.453 51.4755C101.654 51.1785 100.244 52.2711 100.286 53.1493C100.29 53.2314 100.338 53.3113 100.385 53.3914C100.407 53.4284 100.429 53.4653 100.447 53.5026C100.474 53.4755 100.503 53.4491 100.531 53.4229L100.531 53.4225C100.593 53.3649 100.655 53.3072 100.708 53.2429C100.877 53.0389 101.044 52.8339 101.215 52.6248ZM61.1795 37.8794C61.4377 37.9404 61.6691 38.0283 61.9006 38.1161C61.8654 38.1745 61.8338 38.2364 61.8022 38.2984C61.734 38.4317 61.6656 38.5653 61.564 38.6646C60.3165 39.8825 58.7972 40.5942 57.107 40.9477C56.9022 40.9905 56.6739 40.9344 56.4508 40.8797C56.3835 40.8629 56.3163 40.8465 56.2506 40.833C56.1896 40.8203 56.0976 40.6546 56.1087 40.643C56.1325 40.6176 56.1569 40.5895 56.1816 40.561C56.2724 40.4568 56.3691 40.3454 56.4773 40.3292C58.1714 40.0763 59.5924 39.3003 60.8201 38.1348C60.878 38.0797 60.9464 38.0352 61.0218 37.9865C61.0717 37.9544 61.1245 37.9199 61.1795 37.8794ZM98.9846 53.496C99.2377 52.8681 99.0333 52.2729 98.8012 51.6536C98.7733 51.6215 98.7458 51.5899 98.7187 51.5584C98.6858 51.5205 98.6536 51.4832 98.6215 51.4462C98.4536 51.2518 98.2958 51.0689 98.1305 50.8934C98.1198 50.8819 97.919 51.0122 97.9251 51.0267C98.0083 51.2235 98.1067 51.4148 98.2129 51.601C98.5384 52.1724 98.5805 52.7929 98.5686 53.4311C98.5669 53.52 98.6199 53.6099 98.6729 53.6998C98.6973 53.7414 98.7218 53.7827 98.7409 53.8241C98.7669 53.7899 98.7961 53.7567 98.8251 53.7235C98.8879 53.6515 98.9508 53.5796 98.9846 53.496ZM52.6876 16.6018C52.8979 16.6994 53.1039 16.8048 53.308 16.9093C53.82 17.1715 54.3211 17.4281 54.8532 17.542L54.9362 17.5599C55.732 17.7311 56.5886 17.9154 57.3885 17.4822C57.6689 17.3303 57.9326 17.1434 58.1881 16.9517C58.3437 16.8347 58.484 16.6895 58.6066 16.5372C59.579 15.3284 60.2966 15.5089 61.6354 16.2981C63.3486 17.3079 63.9726 19.0314 64.5755 20.746C64.877 21.6027 65.0664 22.5012 65.2549 23.3947L65.2551 23.3955V23.3961L65.2553 23.3968C65.2806 23.5162 65.3056 23.6353 65.3311 23.7543C65.4555 24.3382 65.5081 24.9403 65.5543 25.5371C65.6092 26.2449 65.635 26.9554 65.6609 27.6652L65.6656 27.7957C65.6798 28.1842 65.6874 28.5731 65.6948 28.9622V28.9624V28.9626V28.9628V28.963C65.7094 29.7208 65.724 30.4783 65.788 31.232C65.886 32.3848 65.7014 33.4959 65.4434 34.5981C65.1465 35.8672 64.1789 36.4792 63.0063 36.7645C62.5124 36.8845 61.9969 36.9193 61.4824 36.9539H61.4822H61.482C61.3044 36.9658 61.1269 36.9779 60.9505 36.9932C59.1348 37.1524 57.3306 37.3764 55.5766 37.895C55.0325 38.0557 54.5127 37.9818 54.0566 37.6793C53.1357 37.0688 52.0955 36.8458 51.0348 36.6746C49.0564 36.3557 47.1785 35.8175 45.7288 34.3169C45.346 33.9208 45.1006 33.4969 45.1252 32.9003C45.169 31.8425 45.0158 30.8013 44.8628 29.7611C44.7755 29.167 44.6882 28.5733 44.6377 27.9771C44.4847 26.1745 44.5518 24.3634 45.1045 22.5681C45.7208 20.5656 46.6612 18.7966 48.153 17.3526C48.5627 16.956 49.0579 16.6475 49.5534 16.3388C49.7952 16.1882 50.0371 16.0375 50.2692 15.8764L50.3082 15.8494H50.3084C50.5622 15.6734 50.8185 15.4956 51.0424 15.2855C51.3831 14.9654 51.5899 15.1344 51.8027 15.4287C52.0567 15.78 52.3208 16.124 52.602 16.4902V16.4902L52.6876 16.6018ZM63.6787 19.8443C63.6503 19.7767 63.6216 19.7092 63.593 19.6417C63.5312 19.4964 63.4696 19.3511 63.4102 19.2048C62.8444 17.8116 61.8447 16.8339 60.4757 16.2459C60.2629 16.1546 59.8928 16.2076 59.701 16.3427C59.5415 16.4552 59.4293 16.632 59.3164 16.8102C59.2523 16.9111 59.188 17.0124 59.1147 17.1028C58.4598 17.9105 57.6919 18.542 56.571 18.4424C55.8772 18.3808 55.1765 18.292 54.5049 18.1165C53.4522 17.8414 52.4937 17.3476 51.8129 16.4674C51.7897 16.4375 51.7677 16.4089 51.7466 16.3815L51.7464 16.3813C51.2991 15.8005 51.2935 15.7934 50.6838 16.2015C50.4827 16.336 50.2761 16.4649 50.0693 16.5939L50.0691 16.594C49.5538 16.9154 49.0377 17.2373 48.6073 17.6477C47.1518 19.0351 46.1958 20.703 45.6222 22.6773C45.1053 24.4566 45.0741 26.2207 45.1589 28.005C45.2277 29.4537 45.459 30.8988 45.6898 32.3342C45.6949 32.3654 45.6999 32.3967 45.7048 32.4282L45.705 32.4293C45.806 33.065 45.9099 33.7189 46.4665 34.211C47.5205 35.1431 48.7693 35.6446 50.1122 35.9115C50.2944 35.9477 50.4768 35.9825 50.6589 36.0176C51.9394 36.2625 53.2123 36.5062 54.3657 37.1931C54.6347 37.3535 55.042 37.3887 55.3632 37.3387C56.0857 37.2259 56.8055 37.0946 57.5253 36.9631H57.5255C58.2714 36.8269 59.0174 36.6909 59.7665 36.5754C60.191 36.5099 60.6213 36.4747 61.0513 36.4394C61.6383 36.3913 62.2244 36.3432 62.7947 36.2185C63.5801 36.0468 64.4632 35.7812 64.7178 34.8647C64.9653 33.9741 65.1787 33.048 65.2126 32.1302C65.2594 30.8617 65.2058 29.5887 65.1522 28.3173V28.3171V28.3169V28.3167C65.1425 28.0854 65.1327 27.8542 65.1237 27.623C65.105 27.1522 65.0653 26.682 65.0255 26.2117V26.2115C64.9817 25.694 64.938 25.1767 64.9224 24.6583C64.8739 23.0429 64.3204 21.562 63.7454 20.0232V20.0231L63.6787 19.8443ZM62.5828 25.1902C61.6728 24.4812 60.6057 24.336 59.4328 24.4535C59.3238 24.473 59.2313 24.4947 59.1457 24.5148C59.0738 24.5316 59.0069 24.5473 58.9395 24.5596C57.8311 24.7605 56.8809 25.2117 56.228 26.1816C56.1596 26.2834 55.9035 26.335 55.7622 26.2998C55.1393 26.1442 54.5612 26.131 54.0776 26.6332C54.0176 26.6953 53.9619 26.7616 53.9063 26.828C53.8806 26.8585 53.8549 26.8888 53.8289 26.9189C53.819 26.8747 53.8054 26.8298 53.7919 26.7852C53.7627 26.6885 53.7336 26.592 53.7416 26.4989C53.8383 25.3891 53.3054 24.6981 52.3346 24.2313C51.4262 23.7947 50.4721 23.7015 49.4906 23.7027C47.9959 23.7046 46.7228 24.6698 46.1975 26.0815C45.8765 26.9435 45.9635 27.7815 46.2402 28.5778C46.5105 29.355 46.8175 30.1859 47.6201 30.6168C47.7217 30.6715 47.824 30.7286 47.9271 30.7861C48.3986 31.0499 48.8839 31.3215 49.3859 31.3815C49.4308 31.3868 49.476 31.3924 49.5216 31.3979C50.2661 31.4888 51.0646 31.5865 51.768 31.0854C52.831 30.3278 53.4109 29.2573 53.7186 28.0422C53.864 27.469 54.1572 27.1239 54.6699 26.8947C55.4414 26.5499 55.9253 26.8534 56.0058 27.65C56.1001 28.5819 56.3056 29.4986 56.8534 30.2967C57.4949 31.232 58.3661 31.8007 59.4419 32.1964C60.7382 32.673 61.6695 32.3826 62.6095 31.6246C64.3562 30.2162 64.5299 26.7071 62.5828 25.1902ZM58.5259 25.2324C59.2587 25.0145 60.0541 24.944 60.8302 25.1503C61.7114 25.2164 62.2901 25.712 62.7173 26.3137C63.1459 26.9179 63.5345 27.6027 63.5072 28.3857C63.4778 29.2256 63.1611 29.9817 62.6319 30.6426C62.1778 31.2095 61.5863 31.572 60.8846 31.7272C60.7373 31.7598 60.572 31.7174 60.4087 31.6756C60.3504 31.6606 60.2925 31.6457 60.2356 31.6342C58.368 31.2609 57.1177 30.241 56.7457 28.307C56.7219 28.1835 56.6919 28.0613 56.6619 27.9392C56.5412 27.4489 56.4219 26.964 56.7236 26.4401C57.1364 25.7231 57.8365 25.4374 58.5259 25.2324ZM53.0893 26.4956C53.2058 27.4811 52.8858 28.367 52.4459 29.2237C52.3574 29.3409 52.2814 29.4525 52.2095 29.5578C52.1046 29.7122 52.0084 29.8533 51.8955 29.9792C51.274 30.6735 50.531 30.8918 49.5881 30.6934C48.9275 30.5543 48.3395 30.3839 47.7901 29.9647C47.1282 29.4597 46.8444 28.7627 46.6544 28.0293C46.3519 26.8609 46.7641 25.8802 47.6038 25.0413C48.2822 24.3638 49.1398 24.2797 49.9966 24.3655C50.8214 24.4482 51.6269 24.6522 52.3547 25.139C52.8765 25.488 53.0248 25.9502 53.0893 26.4956ZM52.8757 22.417C53.4226 22.4477 53.8767 22.39 54.2907 22.0568C54.3665 21.9955 54.5257 22.0373 54.6848 22.0791C54.7578 22.0983 54.8309 22.1176 54.8958 22.1268C54.8652 22.162 54.8356 22.1983 54.806 22.2347C54.7419 22.3134 54.6779 22.392 54.6035 22.4592C53.9108 23.0836 53.1485 23.04 52.3052 22.7799C51.5681 22.5524 50.7941 22.3771 50.027 22.3295C48.8751 22.2581 47.8899 22.7051 47.1196 23.5909C47.053 23.6673 46.9501 23.7124 46.8471 23.7572C46.7994 23.7781 46.7518 23.799 46.7076 23.8229C46.7216 23.7609 46.7296 23.6937 46.7374 23.6265C46.7544 23.4817 46.7715 23.3372 46.8501 23.2444C48.1356 21.7289 49.8095 21.666 51.5817 22.0441C51.83 22.0971 52.0731 22.1735 52.3268 22.2529C52.5032 22.3082 52.6843 22.3652 52.8757 22.417ZM61.3598 22.8004C60.3128 22.6402 59.2706 22.6582 58.331 23.355C58.1938 23.4559 58.0585 23.5528 57.9254 23.6478C57.6588 23.8385 57.4015 24.0226 57.1565 24.2219C57.1012 24.267 57.0928 24.3689 57.0842 24.4711C57.0803 24.518 57.0764 24.5651 57.068 24.6065C57.1047 24.6018 57.1433 24.6002 57.182 24.5987C57.2672 24.5952 57.3526 24.5918 57.4179 24.5539C57.6054 24.4455 57.7757 24.305 57.9439 24.1664L57.9517 24.1598C58.9944 23.3001 60.1529 22.953 61.4878 23.3382C61.9519 23.4721 62.4202 23.5954 62.8925 23.6935C62.9693 23.7095 63.0576 23.6689 63.1461 23.6282C63.1868 23.6095 63.2277 23.5909 63.2671 23.5776C63.2371 23.5459 63.2088 23.5088 63.1806 23.4717C63.1192 23.3912 63.0578 23.3107 62.9783 23.2835C62.8769 23.2487 62.7754 23.2126 62.674 23.1766C62.2417 23.0232 61.8067 22.8688 61.3598 22.8004ZM55.6975 34.0206C55.0672 34.0652 54.4635 34.1019 53.8613 34.0847C53.7814 34.0822 53.7044 33.9814 53.6276 33.8807C53.5921 33.8342 53.5565 33.7877 53.5208 33.7508C53.567 33.7314 53.6132 33.7072 53.6592 33.683C53.7596 33.6304 53.8601 33.578 53.9628 33.5733C54.5175 33.5481 55.0738 33.5499 55.6291 33.5561C55.7618 33.5577 55.8943 33.5788 56.0267 33.6001C56.0871 33.6097 56.1475 33.6193 56.2081 33.6273H56.2079L56.2077 33.6275H56.2075V33.6277C56.0465 33.7496 55.8852 33.8717 55.6975 34.0206ZM59.0291 26.3033C58.6462 26.7274 58.6879 27.6203 59.1371 28.0713C60.0477 28.0981 60.594 27.1876 60.1699 26.4214C59.9345 25.9961 59.3599 25.9367 59.0291 26.3033ZM50.9409 25.7399C51.1327 26.3045 51.0073 26.8892 50.5799 27.2042C50.4556 27.2957 50.1408 27.3244 50.0533 27.239C49.5592 26.7581 49.4764 25.9443 50.1833 25.522C50.5053 25.3295 50.7349 25.4185 50.9409 25.7399ZM85.7711 23.1586C86.0489 23.5747 86.3286 23.9937 86.7082 24.3524C86.733 25.1652 86.7404 25.9234 86.5311 26.6645C86.4938 26.7975 86.5215 26.9226 86.5496 27.049C86.5724 27.152 86.7215 27.2261 86.8086 27.1768C86.9211 27.1129 87.032 27.0451 87.1378 26.9705C87.2089 26.9205 87.2795 26.8698 87.35 26.819C87.6494 26.6033 87.9488 26.3879 88.2836 26.2257C88.3242 26.206 88.3651 26.1865 88.406 26.1669C88.5614 26.0927 88.7169 26.0184 88.865 25.9316C89.0289 25.8355 89.1878 25.822 89.3636 25.8818C89.9695 26.088 90.5944 26.2156 91.2191 26.3432C91.319 26.3637 91.4186 26.384 91.5182 26.4047C91.5481 26.411 91.5779 26.4176 91.6079 26.4243C91.6841 26.4413 91.7603 26.4585 91.8373 26.4679C92.0858 26.4989 92.3353 26.5228 92.5847 26.5468C92.9839 26.5851 93.3833 26.6236 93.7793 26.6906C93.8643 26.7051 93.9545 26.7112 94.0395 26.7C94.2408 26.6734 94.4431 26.6553 94.6454 26.6373C95.0497 26.6015 95.4539 26.5654 95.8482 26.4606C96.1185 26.3889 96.3863 26.3086 96.6539 26.2283C96.7611 26.1964 96.8681 26.1642 96.9751 26.1327C97.0248 26.1181 97.0745 26.1034 97.1242 26.0889C97.408 26.0055 97.6916 25.9221 97.9742 25.8361C98.0568 25.8111 98.1385 25.7804 98.2155 25.7419C98.2823 25.7085 98.349 25.6754 98.4158 25.6424C98.9703 25.3669 99.5239 25.0919 100.026 24.7189C100.09 24.672 100.154 24.6264 100.218 24.5807C100.419 24.4382 100.619 24.296 100.79 24.1148C100.894 24.005 101.009 23.9059 101.124 23.8074L101.126 23.8062C101.459 23.5209 101.727 23.1797 101.974 22.8217C102.282 22.3738 102.409 21.8558 102.534 21.3387L102.542 21.3088C102.527 21.1249 102.562 20.9478 102.598 20.7704C102.613 20.6932 102.629 20.6158 102.64 20.5377C102.798 19.4497 102.657 18.4206 102.007 17.4963C101.927 17.3835 101.861 17.2609 101.796 17.1384C101.769 17.0884 101.742 17.0384 101.714 16.989C101.554 16.7039 101.375 16.4328 101.141 16.2014C100.63 15.6959 100.09 15.2306 99.4539 14.8802C99.0021 14.6314 98.5314 14.4288 98.0597 14.2257C97.9531 14.1798 97.8465 14.1339 97.7399 14.0874C96.9129 13.7266 96.0515 13.5258 95.1606 13.4355C94.8863 13.4078 94.6102 13.3934 94.3344 13.3791C94.1974 13.372 94.0605 13.3648 93.9235 13.3561C93.1626 13.3071 92.4008 13.2903 91.6404 13.3509C90.9904 13.4027 90.3412 13.4644 89.6922 13.526C89.5626 13.5384 89.4328 13.5507 89.3032 13.5629C89.2402 13.5689 89.1763 13.5934 89.1184 13.6209C88.8138 13.7652 88.4996 13.8857 88.1854 14.0063C88.0139 14.072 87.8424 14.1378 87.6726 14.2074C86.9333 14.5105 86.2985 14.9455 85.8485 15.6212C85.7834 15.7189 85.7121 15.8123 85.6406 15.9057C85.5803 15.9849 85.5199 16.064 85.4632 16.1456C85.0531 16.7381 84.7035 17.3611 84.5596 18.0765C84.5314 18.2168 84.5146 18.3594 84.498 18.502C84.4869 18.5963 84.4758 18.6906 84.4614 18.7843C84.3887 19.2578 84.3846 19.7231 84.4805 20.2005C84.6446 21.018 84.982 21.7657 85.3275 22.5137C85.3365 22.5331 85.349 22.5513 85.362 22.5688C85.5051 22.76 85.638 22.9589 85.7711 23.1586ZM87.1093 26.2203C87.106 26.2207 87.1025 26.2209 87.0992 26.2214C87.0969 26.2252 87.1021 26.2308 87.1148 26.2377C87.113 26.232 87.1111 26.2261 87.1093 26.2203ZM87.1629 26.2185C87.1448 26.2187 87.1265 26.2189 87.1093 26.2203C87.0727 26.097 87.0926 25.9723 87.1275 25.8537C87.2128 25.5637 87.2499 25.2662 87.2869 24.9684C87.3089 24.7927 87.3306 24.617 87.3625 24.4429C87.3824 24.3333 87.3578 24.2215 87.2411 24.1676C86.8702 23.9968 86.6281 23.6868 86.3962 23.3736C86.203 23.1125 86.0194 22.8397 85.8692 22.5524C85.7296 22.2851 85.6261 21.9963 85.5312 21.709C85.409 21.3385 85.3036 20.9621 85.2053 20.5844C85.117 20.2466 85.1083 19.8978 85.1114 19.5502C85.112 19.4749 85.1172 19.3994 85.1223 19.324C85.1291 19.2258 85.1356 19.1277 85.1324 19.0298C85.0972 17.962 85.5277 17.0484 86.0773 16.1749C86.4227 15.6261 86.9185 15.2251 87.4841 14.9408C88.1421 14.6101 88.8262 14.3201 89.5538 14.1652C90.2344 14.0204 90.9191 13.9004 91.618 13.8771C91.8763 13.8685 92.1318 13.8546 92.3873 13.7669C92.5637 13.7064 92.7656 13.708 92.9601 13.7095C92.9843 13.7097 93.0083 13.7099 93.0322 13.71C93.2928 13.7108 93.5544 13.7282 93.8136 13.7569C93.8362 13.7594 93.8588 13.7619 93.8814 13.7644C94.1397 13.7932 94.3971 13.8219 94.6583 13.8253C94.832 13.8277 95.0066 13.8655 95.1787 13.9029C95.1982 13.9072 95.2177 13.9114 95.2372 13.9156C95.6934 14.0136 96.1359 14.1574 96.5785 14.3013C96.8593 14.3925 97.14 14.4838 97.4242 14.5634C97.5869 14.6426 97.7497 14.7215 97.9126 14.8004C98.2771 14.977 98.6415 15.1537 99.0042 15.334C99.7114 15.6855 100.274 16.2231 100.835 16.7601L100.895 16.817C101.282 17.1866 101.512 17.6585 101.683 18.1508C101.846 18.6209 101.959 19.1062 101.994 19.6096C102.051 20.4485 101.906 21.2464 101.608 22.0299C101.298 22.8461 100.796 23.5237 100.104 24.0333C99.2101 24.6915 98.2369 25.2244 97.1747 25.5734C96.7217 25.7223 96.2688 25.8707 95.7987 25.9686C95.0898 26.1161 94.3741 26.1286 93.6561 26.1362C93.6267 26.1366 93.5973 26.1351 93.568 26.1337C93.532 26.1321 93.4963 26.1304 93.4604 26.1317C92.1556 26.1802 90.917 25.8601 89.6918 25.463C89.5747 25.4251 89.4564 25.3913 89.3382 25.3575C89.2687 25.3376 89.1993 25.3178 89.1301 25.2971C88.996 25.257 88.8703 25.2795 88.757 25.3557C88.538 25.5029 88.3033 25.6227 88.0688 25.7427C87.8003 25.8798 87.5317 26.017 87.2865 26.1949C87.2559 26.2173 87.2095 26.2179 87.1629 26.2185Z" fill="#00160A"/>
<path fill-rule="evenodd" clip-rule="evenodd" d="M71.5844 60.5854C71.6787 60.503 71.7746 60.4193 71.8748 60.3361C71.9415 60.2487 72.0095 60.1653 72.076 60.0836C72.2377 59.8854 72.3911 59.6974 72.4985 59.486C72.7649 58.9619 72.6234 58.7731 72.0617 58.5216C71.8056 58.4069 71.5706 58.247 71.3353 58.0866C71.181 57.9815 71.0266 57.8763 70.866 57.7837L70.8299 57.7628C70.6128 57.6373 70.3758 57.5 70.1392 57.4806C68.9012 57.3788 67.8403 59.0076 68.3334 60.1872C68.8431 61.4068 69.8593 61.7757 70.9227 61.1068C71.1556 60.9603 71.3653 60.7771 71.5844 60.5854ZM68.7823 59.6908C68.749 59.2796 68.8059 58.9031 69.1068 58.5943C69.1844 58.5351 69.2501 58.4921 69.3079 58.4546C69.3637 58.4182 69.4122 58.3866 69.4561 58.3502C69.9767 57.9176 70.3109 57.9459 70.829 58.3655C71.135 58.6135 71.5002 58.8063 71.8662 58.958C72.1471 59.0746 72.1759 59.2339 72.0027 59.3996C71.8929 59.5048 71.784 59.6134 71.675 59.7221L71.6748 59.7223C71.2907 60.1053 70.9034 60.4916 70.4479 60.7555C69.7543 61.1576 68.8488 60.5163 68.7823 59.6908ZM37.2896 60.4701L37.3691 60.3998V60.3996C37.8146 60.0054 38.242 59.6271 38.7199 59.3295C39.2505 58.9992 39.8537 59.1409 40.3205 59.5763C41.0383 60.2458 41.5143 60.168 41.9828 59.5966C42.0278 59.5417 42.0775 59.487 42.1348 59.4459C42.197 59.4012 42.2588 59.3521 42.3208 59.3025C42.5989 59.0805 42.885 58.8523 43.267 58.9988C43.7381 59.1794 43.9275 59.606 44.0761 60.092C44.4148 61.1989 43.7262 62.139 42.8638 62.6293C41.8731 63.1925 40.806 63.4124 39.7114 63.5756C38.9248 63.693 37.4096 63.0112 37.0687 62.4562C36.6288 61.7398 36.8972 61.1312 37.2896 60.4701ZM42.0497 62.3847H42.05C42.8606 61.985 43.6662 61.5877 43.5301 60.4252C43.5229 60.3638 43.5194 60.2995 43.5159 60.2349C43.5003 59.9429 43.4847 59.6482 43.1175 59.6109C42.8838 59.587 42.5755 59.7823 42.382 59.9642C41.5803 60.7185 40.9153 60.79 40.0747 59.9994C39.8182 59.7584 39.5311 59.5083 39.0435 59.7006C38.1945 60.0355 37.817 60.7328 37.5275 61.4783C37.3954 61.8181 37.4295 62.2954 37.9403 62.4558C38.092 62.5035 38.2442 62.5604 38.3968 62.6176C38.7866 62.7634 39.1784 62.91 39.566 62.9029C40.1788 62.8914 40.7888 62.7364 41.4269 62.5742C41.5864 62.5334 41.7481 62.4925 41.9117 62.4531C41.9575 62.4302 42.0037 62.4075 42.0497 62.3847ZM59.9433 89.8138C59.922 89.8574 59.9006 89.901 59.8795 89.9445C59.5307 90.6608 59.1937 91.3533 58.4102 91.6582C57.5943 91.9757 56.2768 92.0799 55.6361 91.2679C55.2561 90.7866 55.2311 90.1474 55.6568 89.6909C55.7913 89.5463 55.9343 89.406 56.0774 89.2655C56.4401 88.9094 56.8034 88.5526 57.0359 88.1256C57.2581 87.7175 57.3575 87.2429 57.4567 86.7682L57.4569 86.768C57.5025 86.5491 57.5485 86.3301 57.6062 86.1176C57.7904 85.4411 57.9835 84.7556 58.6499 84.3798C59.1299 84.1091 59.5121 84.285 59.8706 84.721C60.5221 85.513 60.4598 86.4076 60.3982 87.2933C60.3824 87.5229 60.3664 87.7519 60.3629 87.9784C60.3563 88.4193 60.2243 88.8584 60.0889 89.3079V89.3081C60.0386 89.4751 59.9881 89.6434 59.9433 89.8138ZM58.3425 86.4518C58.3367 86.488 58.331 86.5243 58.3252 86.5605C58.21 87.2892 58.0936 88.0243 57.5976 88.6114C57.2218 89.0564 56.797 89.4687 56.3508 89.8441C55.9296 90.1986 55.8569 90.6164 56.2362 90.9943C56.9038 91.6592 58.5228 91.357 58.9945 90.4468C59.2748 89.9064 59.5129 89.3366 59.7012 88.7578C60.0497 87.6867 59.8339 86.6396 59.4377 85.6236C59.3777 85.4698 59.2093 85.2685 59.0779 85.2582C58.9543 85.2488 58.7824 85.4425 58.6877 85.5841C58.5511 85.7882 58.4653 86.0262 58.3579 86.357C58.3527 86.3885 58.3476 86.4203 58.3425 86.4518ZM58.4302 63.9898C57.9373 63.6367 57.4688 63.6309 56.9628 63.7464C56.1347 63.9355 55.2395 64.8978 55.2395 65.8827C55.2395 66.8744 55.6819 67.6 56.4974 68.0677C57.2844 68.5193 58.1129 68.8341 59.089 68.745C60.2321 68.6408 61.0961 68.1945 61.5635 67.1525C61.6609 66.9356 61.6516 66.6712 61.6426 66.4068C61.6383 66.2856 61.6342 66.1645 61.6401 66.048C61.5397 66.0484 61.4362 66.0408 61.3327 66.0332C61.0998 66.0162 60.8667 65.9992 60.6685 66.0736C60.299 66.2124 60.1015 66.0849 59.9774 65.81C59.6343 65.0502 59.1147 64.48 58.4302 63.9898ZM56.6939 64.553C57.1702 64.3293 58.0476 64.0805 58.5684 64.553C59.089 65.0256 59.2864 65.4684 59.4172 65.7713C59.7328 66.502 60.1768 66.7425 60.9266 66.5411C60.9973 66.5221 61.0731 66.5221 61.1489 66.5221C61.184 66.5221 61.2191 66.5221 61.2538 66.5203C61.2431 66.5549 61.2337 66.5899 61.224 66.6249C61.2035 66.7005 61.183 66.7758 61.1515 66.8467C60.4108 68.5199 58.0299 68.2703 56.9168 67.5639C56.2378 67.133 55.8519 66.571 55.8848 65.7521C55.9074 65.1845 56.2039 64.7831 56.6939 64.553ZM61.5557 77.8084C61.429 77.9153 61.3091 78.0284 61.191 78.14C60.9242 78.3917 60.6664 78.6348 60.3615 78.7781C59.6954 79.0915 58.9845 78.9305 58.3367 78.6127C57.2431 78.0763 56.5687 77.2608 56.6362 75.9703C56.6843 75.0508 57.2351 74.5144 57.9788 74.0723C58.606 73.6993 59.2184 73.6209 59.8741 73.9357C60.3641 74.171 60.4991 74.6269 60.6324 75.077C60.6591 75.1671 60.6857 75.2572 60.7151 75.3451C60.7533 75.4594 60.7638 75.5833 60.7741 75.707C60.7854 75.8413 60.7964 75.9757 60.8435 76.0965C60.9117 76.2716 61.077 76.4883 61.2415 76.5337C62.0521 76.758 62.1328 76.9562 61.6224 77.638C61.6087 77.6563 61.6019 77.6798 61.5937 77.7081C61.5853 77.7367 61.5756 77.7703 61.5557 77.8084ZM60.5077 77.8887C60.5309 77.8768 60.5551 77.866 60.5794 77.8553C60.6317 77.832 60.6841 77.8088 60.7268 77.774C61.239 77.3568 61.2374 77.3554 60.7449 76.9298L60.719 76.9075C60.5751 76.7828 60.4584 76.5858 60.4089 76.4008C60.3582 76.21 60.3231 76.0133 60.2882 75.8171C60.2315 75.4993 60.175 75.1825 60.0514 74.8929C59.9419 74.6361 59.5876 74.3754 59.3048 74.3223C58.7269 74.2138 57.4518 75.2417 57.4006 75.829C57.3318 76.6208 57.5703 77.2952 58.3071 77.7386C58.9988 78.1545 59.6883 78.395 60.5077 77.8887ZM30.9952 67.8881C32.1806 67.1291 32.9393 66.1219 33.0974 64.6506C33.0974 64.52 33.1019 64.3942 33.1062 64.2724V64.2722C33.1155 64.0108 33.1241 63.7663 33.0871 63.5292C33.0066 63.0141 32.8366 62.5133 32.1239 62.6284C31.7754 62.6848 31.4173 62.8445 31.124 63.045C30.5169 63.4603 30.3122 64.1472 30.1173 64.8006L30.0998 64.8591C29.8111 65.8246 29.3633 66.5039 28.2157 66.5033C28.0157 66.5033 27.6904 66.8778 27.6395 67.124C27.5004 67.7945 28.171 68.4824 28.8918 68.5099C29.6642 68.5394 30.3411 68.3069 30.9952 67.8881ZM29.4679 67.9305C29.4052 67.944 29.3428 67.9575 29.2814 67.9735C28.7624 68.0311 28.515 67.7603 28.2763 67.4992C28.2576 67.4787 28.2387 67.4582 28.22 67.438C28.1816 67.3966 28.202 67.2283 28.2498 67.1938C28.2611 67.1857 28.2726 67.1773 28.2841 67.1689L28.2845 67.1686C28.4351 67.0591 28.5987 66.9401 28.7715 66.9108C29.6445 66.7625 30.1275 66.2559 30.4294 65.4328C30.6837 64.7395 31.0659 64.0811 31.4772 63.4642C31.6087 63.267 32.02 63.1728 32.2915 63.1925C32.3975 63.2 32.5429 63.6492 32.5487 63.8998C32.5932 65.8796 31.4898 67.1125 29.8612 67.8187C29.7371 67.8726 29.6024 67.9016 29.4679 67.9305ZM31.7806 72.663C31.9923 72.024 32.4532 71.6151 32.9074 71.2116H32.9076C33.0682 71.0689 33.2282 70.9267 33.3761 70.7756C33.6694 70.4756 34.3452 70.8686 34.495 71.3771C34.5576 71.5895 34.6186 71.8025 34.6796 72.0154C34.8334 72.552 34.987 73.0884 35.1655 73.6166C35.3201 74.0747 35.2561 74.4331 34.9271 74.7917C34.6777 75.0633 34.4522 75.3736 34.2879 75.7025C33.8842 76.5108 33.2898 76.7121 32.3885 76.0084C31.1979 75.0791 31.3563 73.9117 31.7806 72.663ZM34.6024 73.8154C34.5354 73.6485 34.4685 73.4816 34.4017 73.3145C34.2175 72.8551 34.0335 72.3958 33.8503 71.9358C33.8129 71.8416 33.7786 71.7459 33.7441 71.6505C33.7283 71.6065 33.7127 71.5624 33.6965 71.5186C33.6501 71.5407 33.602 71.5608 33.5541 71.5809H33.5539C33.45 71.6245 33.3459 71.6679 33.2574 71.7326C32.6008 72.2123 32.2905 72.9266 32.1529 73.6725C32.0432 74.2666 32.0172 74.9439 32.4903 75.4356C32.7074 75.6613 33.0539 75.7961 33.3664 75.8745C33.4141 75.8864 33.4997 75.7379 33.5903 75.5804C33.6418 75.4909 33.6948 75.3987 33.7437 75.3312C33.8265 75.2167 33.9125 75.1042 33.9984 74.9918V74.9916C34.1395 74.8071 34.2808 74.6223 34.4079 74.4286C34.4945 74.2963 34.5315 74.1314 34.5835 73.8994C34.5894 73.8724 34.5958 73.8443 34.6024 73.8154ZM46.7143 70.7027C45.6318 70.2941 44.5532 70.5411 44.4914 71.9397C44.5569 72.0894 44.6173 72.2391 44.6769 72.387C44.8457 72.806 45.0079 73.2084 45.2581 73.5459C46.1609 74.7637 47.3027 75.1296 48.5725 74.6223C49.3799 74.3 49.3836 73.5631 48.843 73.1007C48.3349 72.6663 47.8975 72.1772 47.6287 71.5194C47.4876 71.1745 47.0789 70.8403 46.7143 70.7027ZM47.7921 74.0927C47.2085 74.1988 46.6205 74.3057 46.1576 73.7618C45.5821 73.1974 45.1847 72.6245 45.1334 71.8643C45.1129 71.5585 45.234 71.3924 45.5209 71.2786C45.9239 71.1186 46.8509 71.3138 46.9403 71.7107C47.067 72.2731 47.4007 72.6802 47.7348 73.088C47.8667 73.249 47.9987 73.4099 48.1181 73.5807C48.1873 73.6799 48.2612 73.8599 48.2173 73.9326C48.163 74.0215 47.9907 74.0569 47.863 74.08L47.8312 74.0858L47.7921 74.0927ZM44.0616 85.017C44.0829 84.8867 44.0959 84.7563 44.1084 84.6287C44.1375 84.3307 44.1653 84.0499 44.2975 83.8324C44.6399 83.2692 44.5598 82.7844 44.279 82.2628C44.2515 82.2118 44.2365 82.1541 44.2213 82.0963C44.2068 82.0406 44.1924 81.9847 44.1665 81.9349C43.9383 81.4924 44.0453 81.0586 44.444 80.8741C44.7241 80.7442 45.1925 80.785 45.4755 80.9374C46.395 81.4321 46.8121 82.3101 46.9538 83.2999C47.0779 84.1648 46.8834 85.0053 46.5305 85.7987C46.0752 86.8221 45.1562 86.6918 44.5699 86.0852C44.3856 85.8945 44.2866 85.6222 44.1821 85.334C44.1441 85.2293 44.1053 85.1226 44.0616 85.017ZM45.8887 82.1764C45.8339 82.1217 45.7801 82.0658 45.7261 82.0099C45.5934 81.8723 45.4606 81.7346 45.3135 81.6144C45.2513 81.5636 45.1613 81.5466 45.0716 81.5294C45.0307 81.5216 44.99 81.5139 44.9518 81.503C44.9428 81.5456 44.9268 81.5921 44.911 81.6386C44.8765 81.7389 44.8422 81.8393 44.8769 81.9007C45.2628 82.5794 45.1749 83.2047 44.7707 83.8437C44.6855 83.9784 44.6543 84.147 44.623 84.3157C44.6076 84.3993 44.5922 84.4828 44.5701 84.5627C44.4501 84.9969 44.7701 85.821 45.1778 85.9461C45.1876 85.9492 45.1977 85.9525 45.2079 85.9558L45.2118 85.957H45.2125C45.4297 86.0252 45.7226 86.117 45.8953 85.7551C46.4515 84.5904 46.6361 83.4398 45.8887 82.1764ZM77.5295 71.0623C78.2212 71.3656 79.3838 71.2642 80.2591 70.305C80.3236 70.2058 80.3881 70.1092 80.4515 70.0139L80.4519 70.0131C80.6507 69.7147 80.8405 69.4292 81.0013 69.1284C81.4032 68.3759 80.7064 67.217 79.8459 67.2342C79.6013 67.2391 79.3577 67.2854 79.1139 67.3317C78.8872 67.3749 78.6603 67.4179 78.4321 67.4277C77.741 67.4576 77.1931 67.7022 76.8072 68.2807C76.1399 69.281 76.3907 70.5632 77.5295 71.0623ZM78.6253 68.1896C78.6592 68.1888 78.6933 68.1879 78.7274 68.1879C78.8081 68.1742 78.8858 68.165 78.958 68.1564C79.1554 68.1326 79.3152 68.1136 79.4049 68.0245C79.6992 67.7323 79.9555 67.8678 80.1823 68.0456C80.4277 68.2379 80.5634 68.4738 80.4456 68.849C80.1673 69.7342 79.6651 70.3869 78.7465 70.6222C78.2321 70.7541 77.7505 70.6275 77.3939 70.1831C77.0719 69.7817 77.0226 69.3565 77.26 68.9017C77.5005 68.4415 77.8369 68.1306 78.405 68.1863C78.4779 68.1935 78.5516 68.1916 78.6253 68.1896ZM65.3179 69.4475C65.996 69.0004 66.6421 68.9719 67.2578 69.4788C67.4322 69.6224 67.5858 69.8065 67.7023 70C67.7536 70.085 67.7842 70.1856 67.8144 70.2849C67.8534 70.4133 67.892 70.5399 67.9738 70.63C68.3381 71.0306 68.1101 71.3898 67.8125 71.5366C67.0607 71.9073 66.2675 72.2098 65.466 72.4592C65.0439 72.5905 64.4802 72.0931 64.3777 71.6173C64.153 70.5739 64.5771 69.8857 65.3179 69.4475ZM67.172 70.9212C67.1198 70.8505 67.0683 70.7793 67.0167 70.708V70.7078C66.8915 70.5345 66.7662 70.3613 66.631 70.196L66.6191 70.1813C66.5282 70.0698 66.4119 69.9271 66.2953 69.9144C65.4208 69.8196 64.6718 70.827 65.0285 71.6144C65.1335 71.8463 65.3487 72.0949 65.604 71.8229C65.957 71.4469 66.3932 71.3703 66.8547 71.289L66.8859 71.2837C67.0135 71.2612 67.1133 71.082 67.172 70.9212ZM63.503 92.9186C63.485 93.0054 63.4661 93.0961 63.4367 93.1903C63.4412 93.2596 63.4601 93.3218 63.4778 93.3808C63.4952 93.4383 63.5117 93.4928 63.5129 93.5475C63.5433 94.8715 65.2776 95.8945 66.36 95.738C67.1163 95.6289 67.5306 95.3547 67.6394 94.6598C67.7361 94.0419 67.5842 93.3656 67.0987 92.9708C66.5394 92.5163 65.8646 92.1739 65.1936 91.8929C64.3968 91.5591 63.8939 91.8262 63.5813 92.6232C63.5449 92.7158 63.5246 92.8143 63.503 92.9186ZM64.2968 92.682C64.3442 92.5927 64.3917 92.5032 64.4311 92.4133C64.5276 92.4363 64.6242 92.458 64.7199 92.4799C65.6163 92.6834 66.4483 92.8723 66.8479 93.7619C67.0373 94.184 67.2531 94.6903 66.7335 95.0188C66.4828 95.1771 66.1 95.2264 65.7966 95.1843C65.0425 95.0796 63.9707 94.2688 64.0697 93.2747C64.0898 93.0717 64.1933 92.8768 64.2968 92.682ZM64.8074 79.5502C65.682 79.632 66.3758 80.0176 66.5199 80.9371C66.5709 81.2626 66.7773 81.3058 67.0042 81.3533C67.0373 81.3603 67.0707 81.3672 67.1042 81.3752C67.6066 81.495 68.0056 81.9075 67.9265 82.5586C67.8694 83.0304 67.6263 83.2227 66.9486 83.1848C66.4951 83.1594 66.0192 83.1115 65.6013 82.9501C64.2487 82.4279 63.861 81.3177 63.9565 80.1433C63.9922 79.7026 64.3188 79.523 64.8074 79.5502ZM66.7957 81.9085C66.2158 81.945 65.9389 81.5984 65.8938 81.0938C65.8461 80.5607 65.4633 80.3903 65.086 80.2224L65.0429 80.2031C64.7733 80.0827 64.456 80.3959 64.5001 80.691C64.6654 81.794 65.9254 82.7521 67.0549 82.6657C67.4718 82.6337 67.4191 82.4193 67.2685 82.2004C67.2192 82.1287 67.1293 82.0848 67.0225 82.0326C66.952 81.9982 66.8742 81.9603 66.7957 81.9085ZM53.9506 100.345C53.9637 100.204 53.9646 100.061 53.9654 99.9207C53.9672 99.612 53.9691 99.3206 54.1009 99.1105C54.423 98.5983 54.8109 98.1272 55.1991 97.6562V97.656L55.1993 97.6558C55.3572 97.4641 55.5151 97.2724 55.6687 97.0778C55.9328 96.7432 56.3426 96.549 56.6765 96.7301C57.016 96.914 57.3454 97.2884 57.4748 97.6515C57.7822 98.5151 57.3945 99.2573 56.8145 99.891C56.65 100.071 56.4635 100.23 56.2768 100.389C56.1298 100.515 55.9825 100.641 55.846 100.777C55.0884 101.531 54.4129 101.179 53.9506 100.345ZM55.8318 100.131C56.6061 99.6235 57.1057 98.9643 57.0731 97.9855C57.0616 97.6435 56.933 97.4153 56.6221 97.271C56.2953 97.1192 56.0725 97.3236 55.9721 97.544C55.718 98.1006 55.3551 98.5757 54.9914 99.0519V99.0521C54.8657 99.2168 54.7398 99.3816 54.6183 99.55C54.4946 99.7214 54.571 100.136 54.6959 100.36C54.8415 100.622 55.1327 100.578 55.3788 100.377C55.4389 100.328 55.5114 100.294 55.5952 100.255C55.6663 100.222 55.7453 100.184 55.8318 100.131ZM51.3576 93.9438C51.6925 93.169 51.7431 92.338 51.559 91.4753C51.5436 91.46 51.5317 91.4491 51.5225 91.4405C51.5079 91.427 51.4999 91.4194 51.4948 91.4104C51.1233 90.7512 50.7347 90.4562 50.2983 90.6004C49.746 90.7829 49.54 91.195 49.5205 91.7932C49.5066 92.2198 49.3367 92.5962 48.7617 92.7635C47.908 93.0119 47.9696 93.775 48.4961 94.1879C48.6972 94.3456 48.9531 94.4369 49.2063 94.5273C49.286 94.5555 49.3655 94.5838 49.4427 94.6141C49.9272 94.8035 51.1183 94.4967 51.3576 93.9438ZM50.9822 91.8243C51.0035 91.8606 51.0251 91.8966 51.0485 91.9308C51.0485 92.1229 51.0608 92.3078 51.0727 92.485C51.0978 92.8555 51.1204 93.1922 51.022 93.4887C50.7696 94.2494 49.27 94.3847 48.7917 93.7265C48.7405 93.656 48.8831 93.3118 48.981 93.2888C49.7738 93.1047 50.0681 92.5925 50.0954 91.8286C50.1011 91.6629 50.2609 91.4645 50.4069 91.3615C50.4618 91.3228 50.693 91.4956 50.817 91.6027C50.885 91.6615 50.9335 91.743 50.9822 91.8243Z" fill="#FFB61D"/>
</g>
<defs>
<clipPath id="clip0_33_1290">
<rect width="130" height="128" fill="white"/>
</clipPath>
</defs>
</svg>
