<svg width="138" height="111" viewBox="0 0 138 111" fill="none" xmlns="http://www.w3.org/2000/svg">
<path fill-rule="evenodd" clip-rule="evenodd" d="M79.5801 110.938C95.9974 110.938 110.404 98.7257 102.313 82.1386C94.2225 65.5515 124.286 66.0873 133.117 54.6234C143.887 40.6427 140.768 -18.7033 71.6297 17.4769C60.5546 23.2725 32.1113 11.5145 22.6766 17.3486C11.571 24.216 -4.05405 38.278 11.571 52.6826C19.2675 59.778 -8.32649 78.1944 3.75915 94.6907C15.5517 110.787 23.8181 95.4426 41.7721 98.7257C59.726 102.009 67.3873 110.938 79.5801 110.938Z" fill="#EBF1FA"/>
<path d="M60.5249 82.081C60.5249 82.081 64.305 80.3029 65.7163 79.0658C67.1275 77.8287 68.882 74.7552 68.882 74.7552C68.882 74.7552 88.1539 88.6733 100.72 86.6879C103.615 86.2305 109.257 84.306 109.616 80.9152C110.599 71.6562 97.0069 69.29 99.9758 64.5946C101.788 61.7285 107.418 65.9941 107.418 65.9941L130.769 77.4798C130.769 77.4798 122.702 97.3651 103.125 98.1621C79.0428 99.1424 60.5249 82.081 60.5249 82.081Z" fill="white"/>
<path fill-rule="evenodd" clip-rule="evenodd" d="M42.0116 4.20518C41.7924 4.11914 40.6154 2.67797 39.1212 2.41567C38.4422 2.29647 39.0585 3.16108 38.3112 3.16886C36.0855 3.19203 32.4686 2.77389 31.7986 3.16886C31.3006 3.46147 32.3973 4.4837 31.7986 4.53063C26.1497 4.97341 17.5319 10.6136 15.6622 13.35C15.0671 14.2208 19.8796 12.7433 19.1129 13.1738C18.2522 13.657 17.2978 16.821 16.7271 19.2646C16.332 20.9473 16.0833 23.1129 15.9955 25.4688C15.9223 27.5027 15.9516 27.8392 16.2442 28.9513C16.5808 30.1951 16.8442 30.5609 17.2978 30.3853C17.4587 30.3268 17.5319 30.1073 17.5319 29.6976C17.5319 29.3757 17.7075 28.4099 17.927 27.5466L18.3074 25.9955L18.4684 26.6394C18.6732 27.3856 19.8731 29.6976 20.9559 31.3803C21.0143 31.4696 21.2656 31.356 21.4921 30.8084C21.6986 30.3093 21.6148 29.5121 21.9656 28.6576C22.7645 26.7113 24.3332 24.1807 26.1497 22.155C28.8343 19.1613 29.725 15.6966 32.2415 12.9155C36.9378 7.72523 42.832 4.52727 42.0116 4.20518Z" fill="white"/>
<path fill-rule="evenodd" clip-rule="evenodd" d="M19.1796 13.88C18.4262 14.4858 17.308 19.3996 17.2888 19.4817C16.8937 21.1645 16.5129 27.008 16.9021 28.1143C17.2914 29.2207 18.3815 25.2325 18.3815 25.2325C18.3815 25.2325 20.029 29.5108 21.4848 30.6837C21.547 30.7338 19.7544 25.3907 19.1796 22.2715C18.4208 18.1539 19.6083 13.5353 19.1796 13.88Z" fill="#A9B5C6"/>
<path fill-rule="evenodd" clip-rule="evenodd" d="M47.2591 99.937C48.6638 99.6297 51.034 98.5597 51.9415 98.1937C52.849 97.8278 55.6143 93.9231 56.6093 89.5187C57.3263 86.2703 57.6921 81.6464 57.2824 80.8709C57.2219 80.7608 57.0005 78.6582 57.5898 79.3448C58.8994 80.8709 60.454 83.2667 65.3594 78.9736C66.6954 77.8043 68.4663 76.2952 68 74.9611C66.6954 71.2283 61.0403 63.7121 60.1782 63.1427C59.1474 62.4619 53.9373 63.0404 46.1837 60.7519C37.3906 58.1566 33.7291 50.5141 30.2881 51.509C27.5053 52.3135 20.8379 57.2577 19.1646 60.3886C11.265 75.1698 20.8379 85.5272 23.018 88.502L25.1348 89.4163L25.208 91.3038L25.3104 92.4891C25.5006 94.7571 25.5738 94.962 26.598 95.7229C29.1587 97.669 34.2069 99.4834 38.7723 100.127C40.894 100.42 45.5032 100.317 47.2591 99.937Z" fill="white"/>
<path fill-rule="evenodd" clip-rule="evenodd" d="M25.9673 90.6129L26.0697 91.7981C26.26 94.0661 26.3331 94.271 27.3574 95.0319C28.868 96.1799 31.2444 97.2822 33.8766 98.1253C35.7062 98.7114 37.6595 99.1722 39.5316 99.4363C41.6533 99.7289 46.2626 99.6265 48.0185 99.246C48.8864 99.058 41.7473 93.4493 37.5416 95.0319C34.3118 96.2472 26.6993 86.9767 29.7944 84.5548C33.2665 81.8379 26.9041 71.1219 26.6993 68.7954C26.4944 66.469 25.6877 65.9131 25.6641 65.9947C25.6406 66.0763 25.6406 66.3546 25.7039 67.0253C25.9769 69.9161 25.9673 90.6129 25.9673 90.6129Z" fill="#A9B5C6"/>
<path fill-rule="evenodd" clip-rule="evenodd" d="M25.205 68.1313C25.5122 68.0715 25.8097 68.272 25.8695 68.5792C26.9739 74.2529 31.6452 78.094 39.9982 80.1025C48.4008 82.123 54.1243 82.014 57.14 79.8573C57.3946 79.6753 57.2048 81.2344 57.0183 81.3539C55.0514 82.6153 48.364 84.4973 40.3836 82.7963C30.1798 80.6213 25.3888 72.0414 24.7571 68.7958C24.6973 68.4886 24.8978 68.1911 25.205 68.1313Z" fill="#FFB61D"/>
<path fill-rule="evenodd" clip-rule="evenodd" d="M20.9499 57.8947C21.2216 57.7392 31.3562 69.3544 45.2644 71.9836C59.1726 74.6127 62.54 72.9406 63.0813 69.3544C63.128 69.045 63.4168 68.832 63.7262 68.8787C64.0357 68.9254 64.2487 69.2141 64.202 69.5236C63.516 74.0685 57.0804 75.1496 45.0738 73.1007C33.218 71.0776 25.0897 66.2709 20.7395 58.6679C20.5841 58.3963 20.6783 58.0501 20.9499 57.8947Z" fill="#FFB61D"/>
<path fill-rule="evenodd" clip-rule="evenodd" d="M79.3249 57.2505C78.9445 57.1189 78.5348 56.8262 78.2714 56.4897L77.8324 55.9483L79.3835 54.4118C81.7685 52.0706 83.5976 49.6709 85.1779 46.8176C85.7047 45.8665 87.0362 42.6912 87.0362 42.3839C87.0362 42.2815 87.1972 41.8718 87.3874 41.4475C87.6801 40.8329 87.8996 40.5988 88.5288 40.2476C89.275 39.8086 90.1237 39.6623 90.4895 39.911C91.1919 40.3793 91.1919 41.8572 90.4895 44.4032C89.714 47.198 88.6751 49.2027 86.5241 52.0853C86.1876 52.5243 85.5584 53.3876 85.1048 53.9875C83.8903 55.5971 83.1001 56.3726 82.0319 56.9725C80.9784 57.5578 80.3638 57.631 79.3249 57.2505ZM89.8311 55.9336L90.8846 56.4019C91.1031 56.5027 93.513 57.6607 96.4079 59.0517C101.075 61.2942 107.003 64.1424 107.039 64.1424C107.097 64.1424 107.372 63.5075 107.434 62.767C107.58 61.172 108.122 59.0064 108.751 57.4993C109.044 56.8262 109.278 55.985 109.278 55.9118C109.278 55.8784 109.04 55.7825 108.65 55.6254C108.187 55.4384 107.508 55.1648 106.761 54.8069C103.073 53.0364 95.8596 49.4222 94.9671 48.8808C94.0891 48.3686 93.9135 48.3247 93.9135 48.6613C93.9135 49.1003 93.0209 51.1342 92.3332 52.2316C91.9674 52.8315 91.2504 53.9143 90.7383 54.6313L89.8311 55.9336ZM106.79 61.5086C107.21 61.7518 106.483 62.1085 106.307 62.1671C105.273 62.2549 104.056 62.0604 103.059 61.4793C102.537 61.1096 98.4314 58.8285 95.7078 57.3153C94.4627 56.6236 93.5064 56.0923 93.3136 55.9775C92.699 55.6117 92.1137 55.2166 92.0113 55.0996C91.704 54.7045 91.9967 54.5289 92.86 54.6021C93.379 54.6461 105.884 60.9833 106.79 61.5086ZM47.309 99.8165C48.4378 99.5696 50.1899 98.8301 51.3056 98.3593L51.3061 98.3591C51.5787 98.244 51.8132 98.1451 51.9914 98.0732C52.8989 97.7073 55.6642 93.8025 56.6592 89.3981C57.3762 86.1497 57.742 81.5259 57.3323 80.7503C57.0853 80.3013 58.5523 81.8074 59.6452 82.9294L59.6456 82.9298L59.6458 82.93C59.9771 83.2702 60.274 83.575 60.4783 83.7793C66.858 90.1151 76.3545 95.2073 86.2168 97.5923C91.1334 98.7922 94.6305 99.2166 99.3276 99.2166C107.214 99.2166 113.433 97.6655 119.081 94.2561C119.35 94.0942 119.601 93.9453 119.841 93.8035C121.81 92.6378 122.983 91.9434 126.193 88.33C129.794 84.2768 132.997 74.8681 134.065 71.6197C134.533 70.1564 135.675 64.3364 135.675 62.8841C135.675 61.1646 135.075 60.3526 134.255 59.5186C132.807 58.0992 130.846 57.5871 129.222 58.2017L128.461 58.4943L128.227 57.7188C127.89 56.5482 127.188 55.6117 126.105 54.9094C124.495 53.8412 124.261 53.768 122.813 53.768C121.686 53.768 121.379 53.8266 120.662 54.1631L119.828 54.5435L119.652 54.0168C119.316 52.934 118.187 51.4245 117.311 50.9878C116.534 50.6006 115.19 50.5651 114.253 50.7391C112.204 51.1195 110.741 52.0707 110.141 53.4022C109.965 53.8119 109.746 54.1338 109.658 54.1338C109.585 54.1338 106.702 53.3288 103.264 51.807C102.684 51.5495 102.139 51.3079 101.627 51.0812C95.4522 48.3442 94.1138 47.751 94.2355 47.0078C94.3379 46.3786 94.3086 46.0274 94.133 45.486C93.8257 44.5788 93.4746 44.3301 92.4796 44.3301C91.6894 44.3301 91.6894 44.3301 91.7772 43.935C92.2454 41.6962 92.2308 40.4086 91.7333 39.5891C91.3967 39.0477 91.0017 38.8282 90.0945 38.6966C89.5677 38.6234 89.3189 38.6673 88.7336 38.9892C88.3386 39.1941 88.002 39.3404 87.9727 39.3111C87.9435 39.2819 88.0459 38.4771 88.2069 37.526C89.4067 30.4877 88.4798 24.4236 85.4216 17.9853C85.3925 17.9242 85.3589 17.8521 85.3206 17.7697L85.3195 17.7675C84.3898 15.7715 80.6515 7.74544 69.9601 3.69562C69.4762 3.51231 69.0183 3.33506 68.5782 3.16472C64.9364 1.75506 62.5153 0.817926 56.6738 0.827651C50.1265 0.838551 47.909 1.76413 43.5924 3.73952C42.9924 4.01753 42.4657 4.17849 42.4218 4.11996C42.3779 4.0468 42.0999 3.87121 41.8218 3.72488C41.5438 3.57856 40.9439 3.21275 40.5049 2.9201C39.2465 2.07141 38.471 1.72023 38.0759 1.80803C37.6223 1.92509 37.6223 2.30553 38.0759 2.48112C38.2661 2.55429 38.4856 2.80304 38.5734 3.05179C38.7636 3.57856 38.9831 3.63709 39.1148 3.19812C39.1734 3.03716 39.2612 2.9201 39.305 2.94936C39.3216 2.95762 39.3766 2.98337 39.4605 3.02266L39.4606 3.02269L39.4611 3.02297L39.4617 3.02324L39.4623 3.0235L39.4624 3.02356C39.6763 3.12368 40.0756 3.31062 40.5049 3.52003C41.1048 3.81268 41.7633 4.11996 41.9389 4.19312C42.2608 4.31018 42.1584 4.39798 40.7683 5.2174C35.3396 8.40728 30.9206 13.3677 28.4477 19.0158C28.0673 19.8645 27.7307 20.3913 27.3796 20.6839C26.487 21.4302 24.7311 23.5519 24.3214 24.386C24.1019 24.8396 23.6336 25.5419 23.2678 25.9516C22.9167 26.3614 22.5362 26.8881 22.4045 27.1076C22.2875 27.3417 22.1704 27.5027 22.1265 27.4734C22.0972 27.4295 22.1411 26.7125 22.2436 25.8785C22.463 23.9324 22.463 23.4202 22.2875 23.3763C22.0241 23.3032 21.6436 24.3274 21.4827 25.6005C21.3656 26.376 21.3363 27.5466 21.4095 28.7465L21.4973 30.6487L20.4584 28.9659C20.1005 28.4023 19.7482 27.8387 19.4982 27.439L19.4982 27.4389C19.3394 27.1849 19.2219 26.997 19.1707 26.9174C18.7903 26.3614 18.5708 25.5273 18.7318 25.2493C18.8196 25.0883 18.8049 25.0152 18.6586 25.0152C18.3513 25.0152 17.7514 25.9955 17.3563 27.1222C17.1661 27.649 16.9759 28.088 16.9173 28.088C16.6978 28.088 16.8003 22.8496 17.0344 21.1668C17.5173 17.8452 18.7903 13.7481 19.361 13.7481C19.478 13.7481 19.5804 13.6896 19.5804 13.6018C19.5804 13.3384 19.2 13.4409 18.8927 13.7774C18.205 14.5237 17.2978 16.821 16.7271 19.2646C16.332 20.9473 16.0833 23.1129 15.9955 25.4688C15.9223 27.5027 15.9516 27.8392 16.2442 28.9513C16.5808 30.1951 16.8442 30.5609 17.2978 30.3853C17.4587 30.3268 17.5319 30.1073 17.5319 29.6976C17.5319 29.3756 17.7075 28.4099 17.927 27.5466L18.3074 25.9955L18.4684 26.6394C18.6732 27.3856 19.8731 29.6976 20.9559 31.3803C21.7022 32.5216 21.7168 32.5948 21.9655 34.38C22.0972 35.3896 22.5069 37.8454 23.4581 41.6231C24.2984 44.9609 29.0227 48.272 30.2024 49.0987L30.2024 49.0987C30.3578 49.2077 30.4517 49.2734 30.467 49.2905C30.6133 49.4514 30.8182 49.5392 30.9353 49.4953C31.067 49.4514 31.1401 49.51 31.1401 49.6709C31.1401 49.8172 31.2425 50.0075 31.3596 50.0953C31.5059 50.1977 31.6084 50.5928 31.6376 51.2805C31.7108 52.656 32.7351 55.2898 33.5252 56.1531C34.0374 56.7092 35.1055 56.9433 36.2908 56.7384C37.0663 56.6214 37.2858 56.5336 37.2126 56.358C37.1687 56.2409 37.4467 56.3872 37.8272 56.6799C42.2754 60.0746 46.7823 62.1085 51.8451 62.9865C53.8059 63.323 57.0543 63.5133 58.8248 63.3816C59.9601 63.3073 60.2722 63.2869 60.3301 63.3984C60.352 63.4407 60.3374 63.502 60.3173 63.5864C60.2149 63.9961 60.3466 64.2449 62.4976 67.8884C64.2096 70.771 64.3559 70.9612 66.2581 72.9073C70.2967 77.0776 74.7011 80.3114 79.6907 82.8135C84.3878 85.1547 91.8869 87.1008 98.7423 87.7154C105.598 88.33 110.521 82.038 110.507 80.4284C110.478 78.2189 110.17 76.7703 109.424 75.3656C108.692 74.0048 108.209 73.5365 106.015 72.0733C103.571 70.4491 102.064 69.1175 101.069 67.6982C100.44 66.8056 100.206 65.7959 100.206 65.2545C100.206 64.9034 100.659 64.1132 101.332 63.9522C101.947 63.7913 102.064 63.8059 102.752 64.1425C103.161 64.3327 104.229 64.8302 105.107 65.2545C106 65.6642 106.863 66.074 107.039 66.1617C107.557 66.3056 107.775 67.3189 107.894 67.868C107.921 67.9907 107.942 68.0903 107.961 68.1518C108.166 68.9127 109.135 69.8951 109.761 70.2296C110.859 70.817 113.565 70.8955 114.312 70.0907C114.502 69.8858 115.132 69.634 115.262 69.7103C115.392 69.7866 115.862 70.4198 115.862 70.9319C115.877 71.8099 116.331 72.6147 117.296 73.4195C119.125 74.9412 120.545 75.3071 121.979 74.634C122.725 74.2828 123.337 74.1456 123.337 74.1456C123.337 74.1456 123.947 74.9239 123.983 75.19C124.271 77.269 127.349 78.1405 128.168 78.2283C128.356 78.2471 128.721 78.1668 129.093 78.0852C129.589 77.9761 130.096 77.8647 130.202 77.9848C130.411 78.2206 126.705 84.3499 126.193 85.1255C121.32 92.4417 111.838 96.9193 100.235 97.3875C92.699 97.6948 83.4367 95.5877 75.4034 91.754C70.2674 89.2811 65.7167 86.2522 60.8441 82.0087C59.9954 81.2771 59.015 80.4431 58.6638 80.1504C58.3127 79.8724 57.4786 78.9213 56.8348 78.0433C55.752 76.5801 55.1374 76.0533 55.1374 76.5508C55.1374 76.7703 55.8398 78.1165 56.6446 79.4481C56.9665 79.9748 57.1713 80.3406 57.0982 80.2821C57.025 80.2236 56.7909 81.2771 56.5714 82.6233C55.8544 86.9399 54.6692 91.1979 53.4693 93.8464C52.8108 95.2804 51.5483 96.3513 51.1678 96.6439C49.7631 97.7121 47.6602 98.1923 44.7483 98.4849C41.0609 98.8507 35.6323 98.0313 31.4913 96.4803C30.3939 96.0706 27.5698 94.8853 27.3796 94.7536C27.3681 94.7422 27.3033 94.3212 27.2128 93.7337L27.1574 93.3742L27.1308 93.2026C26.604 89.5884 25.8724 75.6729 25.8724 69.2346C25.8724 66.5715 25.8432 65.9862 25.6676 65.9862C25.3017 65.9862 25.1554 66.3373 24.9945 67.5957C24.6287 70.4637 24.7018 85.4327 25.0969 88.5787L25.1847 89.2957L24.6872 89.0177C23.9263 88.5787 21.0291 85.6376 20.0194 84.2768C19.1647 83.1134 18.6567 81.6234 18.2766 80.5087L18.2765 80.5085C18.1882 80.2493 18.1067 80.0104 18.0294 79.8006C15.9077 73.9183 16.6539 67.3177 19.5804 61.3769C22.068 56.3141 25.1262 53.5046 29.6037 52.1438C30.3353 51.9243 30.9792 51.6902 31.0523 51.6317C31.3303 51.3683 29.5452 51.5 28.5648 51.8073C25.3749 52.7876 22.0387 55.4654 19.7707 58.8894C16.5808 63.6889 15.1468 70.771 16.1564 76.8142C16.3906 78.2482 17.3417 81.3503 17.6051 81.5698C17.6284 81.5931 17.7486 81.8452 17.9303 82.2266L17.9306 82.227L17.9307 82.2273L17.9307 82.2274C18.434 83.2832 19.4087 85.328 20.1072 86.2522C20.9559 87.4081 23.5166 89.9249 24.5848 90.7004L25.2579 91.1833L25.3603 92.3685C25.5505 94.6366 25.6237 94.8414 26.6479 95.6023C29.2086 97.5484 34.2568 99.3629 38.8222 100.007C40.9439 100.299 45.5531 100.197 47.309 99.8165ZM96.7669 86.0766C88.2654 85.3303 77.9934 81.2768 70.5601 75.0141C67.4287 72.3656 63.3609 67.2153 61.7513 64.3619C61.4147 63.7766 61.166 63.4986 60.8733 63.4255C60.5661 63.3377 60.8294 63.2499 62.0878 63.045C67.3994 62.1378 72.5647 59.9283 76.735 56.7823L77.3495 56.3287L77.5251 56.7531C77.9202 57.7042 79.442 58.6699 80.5687 58.6699C81.0223 58.6699 82.5441 57.9822 83.4659 57.353L84.0951 56.9286L84.6073 57.4408C85.0755 57.909 85.1633 57.9383 86.0412 57.9383C87.0509 57.9383 88.2654 57.4847 88.9385 56.8408L89.3043 56.5043L90.3432 57.192C90.8992 57.5871 92.4503 58.4504 93.7818 59.1381C95.7719 60.1624 97.8789 61.3477 99.8836 62.5768L100.205 62.7816L99.8982 63.1913C99.5763 63.6303 98.9766 64.4644 98.9766 65.7374C98.9766 67.1714 100.468 69.7478 103.322 71.5172C105.565 72.9073 109.424 75.6416 109.278 79.6383C109.26 80.121 108.722 81.321 108.005 82.4038C107.536 83.0915 106.234 84.1158 105.049 84.7157C103.03 85.7254 99.4739 86.3107 96.7669 86.0766ZM18.7464 20.3913C19.1415 20.4791 19.4049 20.6108 19.3463 20.6693C19.1561 20.8595 18.1465 20.7717 17.9123 20.5376C17.5465 20.1864 17.6343 19.9377 18.1465 19.8353C18.4098 19.7914 18.8049 19.5719 19.0244 19.3524C19.2439 19.1329 19.4341 19.0305 19.4341 19.1036C19.4341 19.2939 18.7025 19.967 18.3367 20.1133C18.1026 20.2157 18.1757 20.2596 18.7464 20.3913ZM24.5701 20.6254C24.9945 20.3913 24.9067 20.2303 24.4092 20.3035C23.9117 20.3767 23.8824 20.3181 24.2043 19.8206C24.336 19.6304 24.4092 19.3524 24.3799 19.2061C24.336 19.0159 24.2336 19.1036 23.9995 19.5719C23.8239 19.9084 23.5751 20.1864 23.4581 20.1864C23.0922 20.1864 23.063 20.4791 23.4142 20.6108C23.8678 20.801 24.2189 20.801 24.5701 20.6254ZM19.5073 12.6361C19.1561 12.6946 18.0587 13.1336 17.0929 13.6165C16.1125 14.0847 15.2785 14.4798 15.22 14.4652C13.7274 14.3042 15.8053 11.8167 19.5804 9.27062C23.1947 6.82699 25.6383 5.53934 27.9063 4.88087C29.3257 4.47116 30.9206 4.41263 31.3742 4.74918C31.623 4.9394 31.5352 4.95404 30.4524 4.96867C28.1112 4.96867 25.4042 6.16853 20.9998 9.10966C18.7171 10.6314 16.0686 12.8117 16.0686 13.1629C16.0686 13.236 16.493 13.0897 17.0198 12.8556C18.1465 12.3434 19.3024 12.0801 19.8146 12.1971C20.356 12.3434 20.2389 12.5337 19.5073 12.6361ZM25.1701 13.8945C26.5455 13.6165 26.604 13.6018 26.604 13.4555C26.604 13.3823 26.0773 13.3092 25.4188 13.2799L24.2336 13.236L25.331 11.9922C25.9309 11.3045 26.6333 10.6168 26.8821 10.4558C27.4235 10.1047 27.4527 9.8559 27.0138 9.70958L26.6772 9.60715L27.043 9.47546C27.2479 9.4023 27.6283 9.37303 27.8917 9.41693C28.2868 9.47546 28.3746 9.44619 28.3307 9.24134C28.2868 9.03648 28.1258 8.99259 27.4088 9.00722C25.3164 9.03648 24.4238 9.59252 26.0626 9.8559C26.5162 9.92907 26.8967 10.0461 26.8967 10.1193C26.8967 10.1778 26.8235 10.2363 26.7357 10.2363C26.4577 10.2363 24.1019 12.6214 23.8092 13.2067C23.3556 14.0701 23.6044 14.2018 25.1701 13.8945ZM34.8275 8.21706C34.4032 8.24633 34.3007 8.31949 34.33 8.52435L34.3345 8.55414C34.3509 8.66239 34.3604 8.72457 34.3361 8.74345C34.3034 8.76894 34.2092 8.71553 33.9879 8.59001L33.9496 8.56824C33.6715 8.42192 33.6423 8.34876 33.8032 8.2317C33.9057 8.1439 34.1837 8.01221 34.4032 7.96831L34.8129 7.86588L34.5056 7.54397C34.3446 7.35375 34.2568 7.17816 34.3007 7.11963C34.4178 7.00257 35.8518 7.16353 36.0566 7.32448C36.1444 7.39765 36.2761 7.38301 36.3639 7.29522C36.5688 7.09036 36.8468 7.25132 36.8468 7.57324C36.8468 7.74883 36.8029 7.76346 36.6712 7.63177C36.5541 7.51471 36.4517 7.51471 36.32 7.61713C36.203 7.71956 36.1152 7.71956 36.042 7.6025C35.9981 7.52934 35.7201 7.45618 35.4274 7.45618C35.1574 7.45618 35.0298 7.45618 35.0037 7.50763C34.9804 7.55377 35.0387 7.64131 35.1494 7.80735C35.3828 8.17204 35.369 8.17316 34.8325 8.21666L34.8275 8.21706ZM32.6034 4.32482C32.6034 4.1346 32.4278 3.79806 32.2083 3.57857L31.7986 3.16886L33.9935 3.25665C35.208 3.31518 36.5834 3.44688 37.0663 3.57857C37.5492 3.69563 38.1052 3.78342 38.31 3.78342C38.6173 3.78342 38.5588 3.72489 37.9881 3.41761C36.9931 2.90548 35.7201 2.65672 33.2765 2.48113C30.35 2.27628 28.8721 2.5543 29.1501 3.28592C29.194 3.43224 29.4281 3.50541 29.7793 3.50541C30.4963 3.50541 31.6669 3.92975 32.062 4.32482C32.4863 4.74917 32.6034 4.74917 32.6034 4.32482ZM25.4627 43.0717C26.6479 44.5934 28.2136 46.3201 28.9452 46.9054C29.3842 47.2566 29.7647 47.5492 29.7939 47.5492C29.8086 47.5492 29.4866 46.8761 29.0769 46.0567C27.4235 42.7644 26.4577 39.4867 26.0041 35.7115C25.9017 34.8775 25.7407 34.1751 25.5651 33.8825C25.214 33.2972 25.214 32.5363 25.5798 31.8193C25.77 31.4388 25.8724 30.956 25.8724 30.4292V29.6244L25.1701 30.356C24.4823 31.073 23.8239 31.3657 23.8239 30.9267C23.8239 30.6048 24.9067 29.0537 25.4773 28.5709C25.9309 28.1904 25.9895 28.0587 26.1358 26.9174C26.2382 26.2297 26.4723 25.0152 26.6626 24.2104C26.8674 23.4056 26.9845 22.7179 26.9552 22.6886C26.8528 22.5862 23.4142 26.5354 22.9459 27.7953C22.8431 28.072 22.5655 28.5562 22.346 28.8489L21.9655 29.3374C21.9655 29.3374 22.0837 30.0214 22.2143 30.881C22.3462 31.7495 22.4081 32.3465 22.4632 32.8783C22.537 33.5897 22.5986 34.1842 22.7996 35.1555C23.0337 36.3554 23.2678 37.3943 23.3264 37.4674C23.3703 37.5552 23.5605 38.2283 23.7507 38.9746C24.1604 40.628 24.8481 42.2669 25.4627 43.0717ZM84.8414 56.914L84.5341 56.6067C84.5341 56.6067 89.6342 50.127 90.548 47.7394C91.2454 45.9174 91.6559 45.4007 92.2097 45.4007C92.5193 45.4007 92.7722 45.4714 92.8892 45.647C93.0941 45.9543 93.2915 46.3347 93.0281 47.637C92.5891 49.7441 91.916 51.1342 89.8968 54.1338C89.4285 54.8215 88.8286 55.5824 88.5652 55.8458C87.9506 56.4165 86.568 57.0018 85.7632 57.1335C85.2511 57.2066 85.1048 57.1774 84.8414 56.914Z" fill="#00160A"/>
<path d="M125.359 71.2283C127.179 66.2684 126.904 65.2116 126.588 65.1082C126.588 65.1082 125.893 65.5033 125.585 66.3373C125.015 67.903 123.061 72.0001 122.33 72.7317C121.466 73.5951 121.466 73.5951 120.589 73.5951C119.711 73.5951 117.179 72.2729 116.834 70.9696C116.282 68.8844 118.657 61.6403 118.716 61.2306L118.321 60.9526C118.057 61.2013 114.631 71.5904 110.126 68.8834C109.61 68.5734 108.517 67.1129 108.429 66.3373C107.941 64.0839 110.179 56.2044 110.559 54.5858C110.9 53.1372 112.672 51.7926 114.853 51.7926C118.203 51.7926 117.753 54.7217 119.254 55.7538C119.919 56.2112 121.012 55.382 121.349 55.3191C123.237 54.9679 123.96 55.3768 125.344 56.475C126.412 57.3228 127.203 59.0006 128.072 59.5918C128.556 59.9202 129.068 59.4712 129.236 59.3869C129.925 59.0413 131.402 59.2991 131.812 59.5918C132.412 59.8536 133.884 61.2685 134.117 62.0914C135.171 65.8209 131.843 74.0892 130.586 75.6403C128.507 78.2077 123.538 76.1883 125.359 71.2283Z" fill="white"/>
<path fill-rule="evenodd" clip-rule="evenodd" d="M41.2365 57.6376C45.2458 60.1691 49.3799 61.8225 54.0916 62.2761C57.8083 62.6273 62.8195 62.1444 66.4191 60.9738C69.448 59.9935 73.5451 57.2776 76.2814 54.9803C81.593 50.532 84.9438 43.5838 86.4071 36.209C86.6119 35.1701 86.9243 32.5586 86.9097 29.9687C86.9097 26.9544 85.5831 18.7172 81.5637 13.9676C73.2736 4.17171 59.6465 -0.24107 48.194 3.52937C44.0626 4.88949 39.664 7.35374 36.3424 10.5729C32.1575 14.6554 29.07 20.2157 27.8409 25.8931C26.5532 31.8924 28.2283 39.0624 31.1401 44.9446C33.4667 49.627 37.3004 55.1355 41.2365 57.6376ZM80.3053 39.9549C77.5544 48.2223 70.3845 54.3972 61.3709 56.2702C59.9954 56.5482 59.0443 56.6506 57.1128 56.6799C55.752 56.7238 54.3912 56.7091 54.1131 56.6799C47.8065 55.919 43.0071 53.5924 38.5881 49.1734C36.6566 47.2273 35.8372 46.1737 34.6373 44.0959C32.7497 40.8036 31.7401 37.4381 31.4328 33.3849C30.3792 19.4987 40.3147 7.9244 54.3034 6.72453C59.7906 6.25629 65.8777 7.93903 70.5015 11.2167C72.2135 12.4312 75.3156 15.504 76.2814 16.938C76.6764 17.5087 80.5102 23.1129 81.1833 26.3321C82.0466 30.517 81.71 35.7554 80.3053 39.9549Z" fill="white"/>
<path fill-rule="evenodd" clip-rule="evenodd" d="M86.9149 29.9687C86.9149 39.7902 82.2691 50.5277 76.2733 55.1134C73.4128 57.3012 69.6745 59.9504 66.4191 60.9739C61.6482 62.4738 54.0916 62.2761 54.0916 62.2761C54.0916 62.2761 61.8009 61.2456 64.6579 60.0958C72.8503 56.7988 77.3225 51.7378 80.084 46.8817C85.5351 37.2962 86.9149 29.7301 86.9149 29.9687Z" fill="#A9B5C6"/>
<path fill-rule="evenodd" clip-rule="evenodd" d="M54.2595 54.924C50.3526 54.4265 46.475 53.0364 43.3436 50.9732C41.4853 49.7587 38.6759 46.9054 37.315 44.8715C35.3689 41.945 34.0813 38.8136 33.4521 35.4481C32.9984 33.0045 33.0131 29.244 33.4667 27.0637C33.9349 24.8396 34.5349 23.1422 35.603 20.9912C36.8468 18.5037 38.1637 16.6747 40.1391 14.6993C43.5046 11.3338 47.4115 9.19745 52.0646 8.17317C53.5717 7.85126 59.0297 7.58787 59.2199 7.83663C59.2638 7.90979 59.5564 8.10001 59.8637 8.26097C60.171 8.43656 60.9904 9.05112 61.6635 9.65106C62.6732 10.529 63.1268 11.085 64.0047 12.4605C64.6046 13.397 65.0875 14.2457 65.0875 14.3188C65.0875 14.4798 65.5558 14.7724 65.8191 14.7724C66.185 14.7724 66.4337 13.675 66.5069 11.7435C66.5508 10.6753 66.6386 9.79738 66.6971 9.79738C66.9019 9.79738 69.1554 11.0411 70.2089 11.7435C72.2721 13.119 74.3353 15.0504 75.857 17.0697C76.5448 17.9769 76.6472 18.2111 76.6472 18.7671C76.6472 19.2792 76.7935 19.6743 77.2471 20.4645C78.3885 22.4545 79.281 24.9566 79.8224 27.7222C80.1736 29.5805 80.1736 33.0923 79.8078 35.0384C78.8128 40.3939 75.857 45.7202 72.0087 49.1003C68.7456 51.9536 65.2777 53.7095 61.1806 54.5728C59.7759 54.8801 55.5618 55.085 54.2595 54.924ZM43.7972 44.9154C43.9289 44.769 44.0167 44.5495 43.9728 44.4471C43.9596 44.4164 43.7765 44.3302 43.5083 44.2042L43.5083 44.2042C42.8831 43.9103 41.7962 43.3993 41.3252 42.8668C39.4522 40.7305 38.7645 39.1355 38.3401 35.8432C37.9304 32.6387 38.2746 30.4723 39.0132 26.9906C39.3735 25.2921 40.3312 23.8891 40.927 23.0163C41.3321 22.4228 41.5699 22.0744 41.339 22.0448C40.7683 21.957 40.6805 22.0009 40.0806 22.5715C38.7929 23.8007 38.2076 24.7811 37.593 26.6686C36.6419 29.6244 36.4581 37.6123 38.3401 41.2133C40.2221 44.8144 43.4607 45.2958 43.7972 44.9154ZM64.6046 32.6241C64.3561 34.8972 63.3023 38.1844 62.0732 39.6184C61.5025 40.2915 59.4078 41.4475 57.6396 41.2133C55.9316 40.9872 54.596 40.1891 53.4547 38.4771C52.4743 36.9992 51.968 35.2053 51.6256 32.946C51.0344 29.0446 53.6156 24.503 54.7277 23.3763C55.8544 22.2204 56.6592 21.8107 57.6835 21.796C58.6785 21.796 59.3223 22.0155 60.3319 22.7325C62.1756 24.0202 65.0875 28.207 64.6046 32.6241ZM44.88 20.523C45.1727 20.1865 45.2166 20.0255 45.1288 19.3963C45.0703 18.811 44.9532 18.5769 44.6459 18.3281C44.1045 17.8892 43.4314 17.8892 42.9339 18.3574C42.5827 18.6939 42.5388 18.811 42.5827 19.6158C42.6266 20.4791 42.6559 20.5376 43.1388 20.801C43.7826 21.1522 44.4118 21.0498 44.88 20.523ZM54.0107 11.4948C51.3769 13.3823 50.2355 14.1579 49.0503 14.8895C48.1138 15.4748 47.8212 15.4894 47.8212 14.9627C47.8212 14.6846 48.026 14.3774 48.5528 13.8945L49.2844 13.2214L47.8651 13.0312C46.2701 12.8263 44.7191 12.3873 44.3825 12.0508C43.8265 11.4801 44.3094 11.3484 45.8897 11.6411C46.592 11.7581 47.9529 11.9045 48.9186 11.9337L50.6745 12.0069L51.9475 11.085C54.7423 9.06576 57.6396 7.92442 59.0297 8.2756C59.893 8.48046 59.7905 8.71458 58.8102 8.83164C57.6835 8.96333 56.9957 9.34377 54.0107 11.4948Z" fill="white"/>
<path d="M57.7713 39.2087C57.7713 39.1355 57.8591 39.0623 57.9761 39.0623C58.0932 39.0623 58.2395 39.1355 58.2834 39.2087C58.3273 39.2965 58.2395 39.355 58.0786 39.355C57.903 39.355 57.7713 39.2965 57.7713 39.2087Z" fill="white"/>
<path d="M58.6492 39.077C58.6492 38.916 59.015 38.7697 59.4247 38.7697C59.7466 38.7843 59.7466 38.7843 59.4686 38.9892C59.1467 39.238 58.6492 39.2819 58.6492 39.077Z" fill="white"/>
<path d="M56.3812 38.6966C56.3373 38.5795 56.2787 38.3746 56.2348 38.2576C56.1909 38.1112 56.2641 38.0381 56.4543 38.0381C56.6153 38.0381 56.747 38.1259 56.747 38.2429C56.747 38.36 56.7909 38.5502 56.8348 38.6819C56.8933 38.8429 56.8494 38.916 56.6885 38.916C56.5568 38.916 56.4104 38.8136 56.3812 38.6966Z" fill="white"/>
<path d="M57.1567 38.3307C57.0835 37.8918 57.2445 37.7455 57.7713 37.7455C57.9322 37.7455 58.0639 37.8918 58.1224 38.1405C58.2395 38.5649 58.0493 38.7697 57.5371 38.7697C57.303 38.7697 57.2006 38.6673 57.1567 38.3307Z" fill="white"/>
<path d="M55.6642 38.4039C55.3861 38.1844 55.3861 38.1844 55.6934 38.1844C55.8836 38.1844 56.0153 38.2722 56.0153 38.4039C56.0153 38.6673 56.0153 38.6673 55.6642 38.4039Z" fill="white"/>
<path d="M58.6053 38.3893C58.4151 38.1991 58.5029 37.6284 58.737 37.5406C59.1613 37.3796 59.3516 37.4528 59.4394 37.8332C59.4979 38.0527 59.5271 38.243 59.4979 38.2576C59.3808 38.3893 58.6931 38.4771 58.6053 38.3893Z" fill="white"/>
<path d="M59.9076 38.082C59.8637 38.0381 59.8198 37.8479 59.8198 37.6723C59.8198 37.4235 59.9369 37.3211 60.288 37.2479C60.5953 37.1894 60.7856 37.2187 60.8733 37.3357C61.0197 37.5698 61.0197 37.8625 60.888 37.9357C60.6246 38.082 60.01 38.1698 59.9076 38.082Z" fill="white"/>
<path d="M54.9911 37.6284C54.9911 37.4528 55.1228 37.3065 55.313 37.2626C55.6934 37.1601 55.6788 37.1455 55.752 37.5259C55.7812 37.7454 55.7081 37.8332 55.4008 37.8625C55.0789 37.9064 54.9911 37.8479 54.9911 37.6284Z" fill="white"/>
<path d="M56.1031 37.643C55.8983 37.4235 56.03 37.0138 56.308 37.0138C56.4982 37.0138 56.6007 37.1162 56.6007 37.2918C56.6007 37.5698 56.2641 37.804 56.1031 37.643Z" fill="white"/>
<path d="M56.9811 37.204C56.8641 36.926 57.1128 36.7212 57.5957 36.7212C57.8152 36.7212 57.9176 36.809 57.9176 36.9992C57.9176 37.1601 57.7859 37.3065 57.5957 37.365C57.1128 37.4821 57.0835 37.4821 56.9811 37.204Z" fill="white"/>
<path d="M61.2099 37.1601C61.2538 37.087 61.327 37.0138 61.3708 37.0138C61.4147 37.0138 61.4001 37.087 61.3562 37.1601C61.3123 37.2479 61.2392 37.3064 61.1953 37.3064C61.1514 37.3064 61.166 37.2479 61.2099 37.1601Z" fill="white"/>
<path d="M58.298 36.9114C58.181 36.6187 58.3273 36.4724 58.7955 36.3992C59.0589 36.37 59.176 36.4285 59.2052 36.6334C59.3076 37.1162 58.4736 37.3796 58.298 36.9114Z" fill="white"/>
<path d="M54.7862 36.6626C54.6545 36.1798 54.6838 36.1359 55.0642 36.1359C55.2691 36.1359 55.4301 36.1944 55.4301 36.2676C55.4301 36.3407 55.474 36.5017 55.5179 36.6187C55.5618 36.7651 55.474 36.8529 55.2252 36.8968C54.9472 36.9553 54.8448 36.8968 54.7862 36.6626Z" fill="white"/>
<path d="M59.6735 36.5017C59.6735 36.2383 59.7759 36.1212 60.0539 36.0481C60.4636 35.9456 60.6978 36.1505 60.6978 36.6187C60.6978 36.8089 60.5807 36.8675 60.1856 36.8675C59.732 36.8675 59.6735 36.8236 59.6735 36.5017Z" fill="white"/>
<path d="M54.3473 36.5017C54.3034 36.3846 54.3326 36.2822 54.4058 36.2822C54.4936 36.2822 54.5521 36.3846 54.5521 36.5017C54.5521 36.6187 54.5229 36.7211 54.4936 36.7211C54.4643 36.7211 54.4058 36.6187 54.3473 36.5017Z" fill="white"/>
<path d="M55.8251 36.6187C55.6203 36.4285 55.7373 36.0188 56.0007 35.9456C56.1617 35.9017 56.3226 35.9164 56.3665 35.9603C56.5421 36.1212 56.4397 36.5456 56.2202 36.6334C55.9422 36.7358 55.9422 36.7358 55.8251 36.6187Z" fill="white"/>
<path d="M61.0489 36.5163C60.888 36.092 61.0636 35.77 61.4733 35.7261C61.7806 35.6822 61.8683 35.7408 61.8683 35.9749C61.8683 36.4578 61.7074 36.7211 61.4147 36.7211C61.2538 36.7211 61.0928 36.6334 61.0489 36.5163Z" fill="white"/>
<path d="M56.8494 36.3261C56.6738 36.1651 56.7324 35.8725 56.9811 35.7847C57.2591 35.6822 57.8444 35.9749 57.6835 36.1358C57.4786 36.3114 56.9518 36.4431 56.8494 36.3261Z" fill="white"/>
<path d="M58.1224 35.9603C57.9907 35.7554 58.459 35.4042 58.8394 35.4042C59.015 35.4042 59.0882 35.492 59.0589 35.653C59.0004 35.9456 58.2541 36.1798 58.1224 35.9603Z" fill="white"/>
<path d="M54.1131 35.8578C54.1131 35.7847 54.0692 35.6237 54.0253 35.492C53.9814 35.3603 53.9961 35.2579 54.0839 35.2579C54.2741 35.2579 54.4204 35.8139 54.2448 35.931C54.1717 35.9749 54.1131 35.9456 54.1131 35.8578Z" fill="white"/>
<path d="M54.5082 35.5213C54.4204 35.1994 54.596 34.9653 54.9326 34.9653C55.1228 34.9653 55.313 35.5359 55.1959 35.7262C55.035 35.9749 54.5814 35.8286 54.5082 35.5213Z" fill="white"/>
<path d="M55.5325 35.5945C55.313 35.375 55.4447 34.8482 55.7373 34.775C55.9568 34.7165 56.0739 34.7897 56.1909 35.0531C56.2787 35.2433 56.3226 35.4335 56.2934 35.4628C56.1471 35.5945 55.6203 35.6969 55.5325 35.5945Z" fill="white"/>
<path d="M59.4833 35.5945C59.293 35.4042 59.3808 35.2872 59.8198 35.1262C60.1856 35.0092 60.2881 35.0238 60.3612 35.1994C60.4929 35.5506 59.7613 35.8871 59.4833 35.5945Z" fill="white"/>
<path d="M60.7709 35.2579C60.6246 35.0238 60.8294 34.8189 61.2099 34.8189C61.6635 34.8189 61.7952 35.1994 61.3855 35.3164C60.9465 35.4335 60.8733 35.4189 60.7709 35.2579Z" fill="white"/>
<path d="M62.0147 34.9068C62.0147 34.6873 62.2781 34.4531 62.3951 34.5702C62.4975 34.6726 62.2927 35.1116 62.1464 35.1116C62.0732 35.1116 62.0147 35.0238 62.0147 34.9068Z" fill="white"/>
<path d="M53.9229 34.7165C53.8644 34.6726 53.8205 34.4824 53.8351 34.3214C53.8351 34.0434 53.8497 34.0434 53.9814 34.3653C54.1278 34.7165 54.0985 34.8921 53.9229 34.7165Z" fill="white"/>
<path d="M54.2009 34.497C54.0692 33.9849 54.0839 33.941 54.4643 33.941C54.8887 33.941 55.152 34.4824 54.8301 34.6872C54.4936 34.8921 54.3034 34.8336 54.2009 34.497Z" fill="white"/>
<path d="M59.2345 34.7897C59.2345 34.7458 59.3077 34.5116 59.3955 34.2483C59.6003 33.663 60.0539 33.6337 60.1563 34.2044C60.2002 34.4238 60.2149 34.6141 60.2002 34.6287C60.1271 34.7165 59.2345 34.8482 59.2345 34.7897Z" fill="white"/>
<path d="M55.2398 34.4239C55.1813 34.38 55.1374 34.2044 55.1374 34.0434C55.1374 33.8093 55.1813 33.7947 55.3569 33.941C55.4739 34.0434 55.5764 34.219 55.5764 34.3214C55.5764 34.5409 55.4008 34.5995 55.2398 34.4239Z" fill="white"/>
<path d="M60.5075 34.1312C60.4197 33.6776 60.61 33.4727 61.0636 33.5313C61.2831 33.5605 61.3562 33.6922 61.3562 34.0141C61.3562 34.3799 61.2977 34.4677 60.9758 34.497C60.6539 34.5409 60.5807 34.4677 60.5075 34.1312Z" fill="white"/>
<path d="M61.9415 34.1897C61.7513 33.6044 61.8098 33.4288 62.2049 33.3849C62.5561 33.341 62.6 33.3849 62.6 33.7654C62.6 34.0873 62.5122 34.219 62.2927 34.2775C62.1317 34.3214 61.9708 34.2775 61.9415 34.1897Z" fill="white"/>
<path d="M53.7034 33.3557C53.7034 33.0777 53.7327 32.9606 53.7766 33.1069C53.8059 33.2386 53.8059 33.4728 53.7766 33.6191C53.7327 33.7508 53.7034 33.6337 53.7034 33.3557Z" fill="white"/>
<path d="M54.0692 33.5459C53.879 33.3703 53.9668 32.7996 54.2009 32.7118C54.5375 32.5802 54.6984 32.7411 54.6984 33.224C54.6984 33.5313 54.6253 33.6483 54.435 33.6483C54.2887 33.6483 54.1131 33.6044 54.0692 33.5459Z" fill="white"/>
<path d="M54.9472 33.1508C54.8887 32.9313 54.8594 32.6972 54.9179 32.6533C55.0642 32.507 55.152 32.7411 55.1081 33.1655L55.0642 33.5752L54.9472 33.1508Z" fill="white"/>
<path d="M59.6735 33.0484C59.6735 32.8874 59.7467 32.7996 59.8198 32.8435C59.9076 32.8874 59.9661 33.0338 59.9661 33.1508C59.9661 33.2679 59.9076 33.3557 59.8198 33.3557C59.7467 33.3557 59.6735 33.224 59.6735 33.0484Z" fill="white"/>
<path d="M60.3319 33.2386C60.1271 33.0191 60.288 32.6241 60.6246 32.5363C61.0489 32.4338 61.0636 32.4338 61.1953 32.8582C61.283 33.1216 61.2245 33.1801 60.8441 33.2386C60.61 33.2825 60.3758 33.2679 60.3319 33.2386Z" fill="white"/>
<path d="M61.6781 32.9606C61.5172 32.8143 61.5611 32.3314 61.722 32.3314C61.8098 32.3314 61.8684 32.2729 61.8684 32.1851C61.8684 32.1119 61.7806 32.0388 61.6635 32.0388C61.4147 32.0388 61.2099 31.3218 61.4147 31.1169C61.6781 30.8535 61.9708 31.1315 62.1464 31.8485C62.2488 32.229 62.3512 32.668 62.3951 32.8143C62.4537 33.0045 62.3951 33.063 62.1171 33.063C61.9269 33.063 61.722 33.0191 61.6781 32.9606Z" fill="white"/>
<path d="M62.4683 32.1851C62.3659 31.7461 62.1025 30.8682 61.9122 30.2243C61.6196 29.2879 61.5903 29.0537 61.7513 28.9513C61.8537 28.8781 61.9854 28.8196 62.0293 28.8196C62.1903 28.8196 62.7756 31.8193 62.717 32.4046L62.6731 32.9899L62.4683 32.1851Z" fill="white"/>
<path d="M53.5571 32.1119C53.5571 31.8778 53.5864 31.79 53.6303 31.9363C53.6595 32.068 53.6595 32.2729 53.6303 32.3753C53.5864 32.4631 53.5571 32.3607 53.5571 32.1119Z" fill="white"/>
<path d="M53.8497 32.0827C53.9083 31.5705 54.3326 31.4535 54.4497 31.9217C54.5521 32.3021 54.5814 32.2583 54.1424 32.4046C53.8351 32.4924 53.8058 32.4631 53.8497 32.0827Z" fill="white"/>
<path d="M60.0247 31.951C59.9076 31.5266 60.1564 31.2779 60.6246 31.3364C60.9758 31.3803 61.1075 32.0095 60.8148 32.1997C60.449 32.4338 60.1125 32.3314 60.0247 31.951Z" fill="white"/>
<path d="M54.6984 31.8339C54.6984 31.5852 54.7716 31.4535 54.9325 31.4535C55.0789 31.4535 55.1374 31.5559 55.1081 31.7754C55.035 32.2436 54.6984 32.2875 54.6984 31.8339Z" fill="white"/>
<path d="M53.3961 31.2193C53.3961 31.0584 53.44 31.0145 53.4839 31.1315C53.5278 31.234 53.5132 31.3657 53.4693 31.4096C53.4254 31.4681 53.3815 31.3803 53.3961 31.2193Z" fill="white"/>
<path d="M53.6742 31.1754C53.6742 30.956 53.762 30.8682 53.9814 30.8682C54.1863 30.8682 54.2595 30.9413 54.2302 31.1169C54.157 31.4974 53.6742 31.5413 53.6742 31.1754Z" fill="white"/>
<path d="M54.479 31.0437C54.3765 30.7804 54.3765 30.7804 54.8155 30.6633C55.0789 30.5755 55.1374 30.6194 55.1374 30.8389C55.1374 31.1901 54.6106 31.3657 54.479 31.0437Z" fill="white"/>
<path d="M59.7759 30.8389C59.6735 30.4731 59.8637 30.2829 60.3758 30.2829C60.6246 30.2829 60.6978 30.3707 60.6978 30.6487C60.6978 30.8682 60.61 31.0145 60.4929 31.0145C60.3758 31.0145 60.1856 31.0584 60.0686 31.1023C59.9369 31.1462 59.8344 31.0584 59.7759 30.8389Z" fill="white"/>
<path d="M61.0489 30.5023C60.9319 30.2097 61.1075 29.9902 61.444 29.9902C61.6489 29.9902 61.722 30.0926 61.722 30.356C61.722 30.6194 61.6489 30.7218 61.4294 30.7218C61.2684 30.7218 61.0928 30.6194 61.0489 30.5023Z" fill="white"/>
<path d="M53.5278 30.2975C53.5278 29.9902 53.8644 29.639 54.0107 29.8C54.0692 29.8439 54.1131 30.0487 54.1131 30.239C54.1131 30.4731 54.0253 30.5755 53.8205 30.5755C53.6303 30.5755 53.5278 30.4731 53.5278 30.2975Z" fill="white"/>
<path d="M54.3326 30.1219C54.2156 29.7561 54.3472 29.5951 54.8448 29.522C55.2984 29.4634 55.4447 29.9463 55.0496 30.239C54.6692 30.517 54.435 30.4731 54.3326 30.1219Z" fill="white"/>
<path d="M59.6296 30.0341C59.5272 29.9463 59.4833 29.4049 59.5711 29.4049C59.5857 29.4049 59.8052 29.3464 60.0686 29.2732C60.5075 29.1415 60.5368 29.1562 60.5222 29.5512C60.5075 29.8439 60.4197 29.9902 60.2003 30.0488C59.8052 30.1512 59.7466 30.1512 59.6296 30.0341Z" fill="white"/>
<path d="M59.0882 29.6976C59.0882 29.5951 59.1321 29.5512 59.1906 29.5951C59.2345 29.6537 59.2345 29.7415 59.1906 29.8C59.1321 29.8439 59.0882 29.8 59.0882 29.6976Z" fill="white"/>
<path d="M60.727 29.4634C60.7709 29.2147 61.2245 28.8489 61.3269 28.9659C61.3708 29.0098 61.444 29.1854 61.4879 29.3756C61.5903 29.6683 61.5464 29.6976 61.1367 29.6976C60.7856 29.6976 60.6831 29.639 60.727 29.4634Z" fill="white"/>
<path d="M53.6742 29.4488C53.6742 29.3756 53.7473 29.2293 53.8205 29.1123C53.9376 28.9367 53.9668 28.9513 53.9668 29.2293C53.9668 29.4049 53.9083 29.5512 53.8205 29.5512C53.7473 29.5512 53.6742 29.5073 53.6742 29.4488Z" fill="white"/>
<path d="M54.1131 29.1269C54.1131 28.7172 54.4204 28.5855 54.6545 28.8928C54.8008 29.1123 54.8008 29.1854 54.6545 29.2879C54.3472 29.4781 54.1131 29.4195 54.1131 29.1269Z" fill="white"/>
<path d="M58.5614 28.9367C58.298 28.644 58.298 28.6294 58.5468 28.7172C58.6931 28.7757 58.8833 28.8196 58.9565 28.8196C59.0296 28.8196 59.0882 28.922 59.0882 29.0391C59.0882 29.3464 58.8833 29.3171 58.5614 28.9367Z" fill="white"/>
<path d="M55.4154 28.9221C54.7862 28.4392 54.6984 27.3564 55.2837 27.3564C55.6788 27.3564 56.0446 27.9709 55.9861 28.5416C55.9422 29.0684 55.7666 29.1854 55.4154 28.9221Z" fill="white"/>
<path d="M59.4247 29.0098C59.4833 28.9659 59.571 28.9659 59.6296 29.0098C59.6735 29.0683 59.6296 29.1122 59.5271 29.1122C59.4247 29.1122 59.3808 29.0683 59.4247 29.0098Z" fill="white"/>
<path d="M61.6342 28.4392C61.6781 28.3075 61.722 28.1758 61.722 28.1465C61.722 28.1172 61.7952 28.088 61.8684 28.088C61.9561 28.088 62.0147 28.2197 62.0147 28.3806C62.0147 28.5562 61.9123 28.6733 61.7806 28.6733C61.6196 28.6733 61.5757 28.6001 61.6342 28.4392Z" fill="white"/>
<path d="M53.9668 28.3953C53.9668 28.0587 54.2741 27.5027 54.4497 27.5027C54.757 27.5027 54.5375 28.4392 54.2156 28.4977C54.0839 28.5269 53.9668 28.483 53.9668 28.3953Z" fill="white"/>
<path d="M57.2591 28.2343L56.8201 28.1319L57.2152 28.0295C57.6249 27.9124 57.9176 28.0002 57.9176 28.2489C57.9176 28.3953 57.9029 28.3953 57.2591 28.2343Z" fill="white"/>
<path d="M56.747 27.532C56.747 26.932 57.0835 26.8442 57.3908 27.371C57.5957 27.7222 57.6103 27.7953 57.4201 27.7953C57.303 27.7953 57.1128 27.8392 56.9811 27.8831C56.8055 27.9563 56.747 27.8685 56.747 27.532Z" fill="white"/>
<path d="M59.293 27.7368C58.6346 27.4442 58.2102 26.6686 58.2102 25.7468C58.2102 25.0883 58.2688 24.9274 58.6638 24.5615C58.9126 24.3274 59.1613 24.1372 59.2345 24.1372C59.5564 24.1372 60.7417 25.2639 61.1367 25.9663L61.5903 26.7711L61.1075 27.2832C60.5514 27.8685 59.9369 28.0295 59.293 27.7368Z" fill="white"/>
<path d="M56.2348 27.3564C56.1909 27.2832 56.2202 27.2101 56.2934 27.2101C56.3812 27.2101 56.4543 27.2832 56.4543 27.3564C56.4543 27.4442 56.4251 27.5027 56.3958 27.5027C56.3519 27.5027 56.2787 27.4442 56.2348 27.3564Z" fill="white"/>
<path d="M54.318 27.1222C54.3619 26.9905 54.4058 26.8589 54.4058 26.8296C54.4058 26.8003 54.5375 26.7711 54.6984 26.7711C55.0642 26.7711 55.0789 27.0052 54.7131 27.21C54.318 27.4149 54.2156 27.4003 54.318 27.1222Z" fill="white"/>
<path d="M55.474 26.9467C55.1374 26.9028 55.035 26.7125 55.2545 26.5808C55.313 26.5369 55.5764 26.4638 55.8398 26.4053C56.2348 26.3175 56.308 26.3467 56.308 26.5955C56.308 26.9028 56.0007 27.0345 55.474 26.9467Z" fill="white"/>
<path d="M56.6006 26.4492C56.6006 26.2736 56.6153 26.1711 56.6445 26.2004C56.6592 26.2297 56.7762 26.376 56.8787 26.5223C57.0543 26.7272 57.0396 26.7711 56.8348 26.7711C56.6884 26.7711 56.6006 26.654 56.6006 26.4492Z" fill="white"/>
<path d="M54.5521 26.3467C54.5521 26.2589 54.6253 26.1565 54.6984 26.1126C54.7862 26.0687 54.8448 26.1272 54.8448 26.2443C54.8448 26.376 54.7862 26.4784 54.6984 26.4784C54.6253 26.4784 54.5521 26.4199 54.5521 26.3467Z" fill="white"/>
<path d="M55.0935 26.1272C54.9764 25.8346 56.0154 25.5127 56.191 25.7907C56.3226 26.0248 56.191 26.1272 55.6349 26.2443C55.2984 26.3174 55.152 26.2882 55.0935 26.1272Z" fill="white"/>
<path d="M56.469 25.659C56.469 25.498 56.5129 25.4541 56.5567 25.5712C56.6006 25.6736 56.586 25.8053 56.5421 25.8492C56.4982 25.9078 56.4543 25.82 56.469 25.659Z" fill="white"/>
<path d="M55.2252 25.4249C55.4008 25.103 55.9129 24.5762 56.0446 24.5762C56.1909 24.5762 56.2056 25.2639 56.0593 25.3517C55.9861 25.381 55.752 25.4542 55.5325 25.5127C55.2106 25.5858 55.1374 25.5712 55.2252 25.4249Z" fill="white"/>
<path d="M56.3958 25.0883C56.2348 24.6494 56.308 24.4591 56.6592 24.4006C57.025 24.3274 57.025 24.3274 56.7909 24.7811C56.4982 25.3664 56.5129 25.3664 56.3958 25.0883Z" fill="white"/>
<path d="M56.308 24.2104C56.308 24.1811 56.6007 23.9763 56.9665 23.7714C57.4055 23.508 57.7127 23.4202 57.9322 23.4788C58.1956 23.5666 58.1225 23.6251 57.4786 23.9324C56.7616 24.2543 56.308 24.3713 56.308 24.2104Z" fill="white"/>
<path d="M64.429 11.246C64.034 10.6753 63.1999 9.75345 62.6 9.19742C62 8.64138 61.605 8.18777 61.722 8.18777C62.0439 8.18777 64.5022 8.86087 65.1168 9.12426C65.6289 9.34374 65.6435 9.37301 65.5118 9.82662C65.4387 10.09 65.3802 10.7485 65.3802 11.2899C65.3802 11.8459 65.3363 12.2849 65.2777 12.2849C65.2046 12.2849 64.8388 11.8166 64.429 11.246Z" fill="white"/>
<path d="M34.6519 55.5678C34.052 55.2605 33.9203 55.085 33.1594 53.5778C32.062 51.4415 32.0327 50.944 33.0716 52.1585C33.4813 52.6413 34.4324 53.6363 35.1787 54.368C36.4517 55.5971 36.5102 55.6849 36.0859 55.6264C35.7786 55.5825 35.6616 55.6117 35.7347 55.7288C35.9103 55.9922 35.3543 55.919 34.6519 55.5678Z" fill="white"/>
<path fill-rule="evenodd" clip-rule="evenodd" d="M59.1743 82.227C59.0529 81.9385 59.1882 81.6063 59.4767 81.4848L59.7919 81.351C62.857 80.0396 64.6163 79.2518 65.8117 78.0009C67.0071 76.7499 67.1502 74.9125 67.3747 73.7944C67.4364 73.4876 68.1311 74.0265 68.438 74.0881C68.7448 74.1497 68.9436 74.4484 68.8819 74.7553C68.6119 76.0995 67.8848 77.3811 66.7141 78.5976C65.5474 79.8101 63.2886 81.1096 59.9164 82.5294C59.628 82.6508 59.2957 82.5154 59.1743 82.227Z" fill="#00160A"/>
<path fill-rule="evenodd" clip-rule="evenodd" d="M73.035 23.8433C73.304 23.6832 73.6517 23.7714 73.8118 24.0403C75.4147 26.7329 76.2733 29.8109 76.2733 33.0133C76.2733 42.7151 68.4085 50.58 58.7067 50.58C56.1287 50.58 53.6283 50.0239 51.3386 48.9646C51.0545 48.8332 49.9816 47.7868 51.0622 48.2124C52.1429 48.6379 56.324 49.5932 58.7368 49.5932C67.8127 49.5932 74.2333 42.0892 74.2333 33.0133C74.2333 30.0164 73.035 27.3563 72.838 24.62C72.8151 24.3029 72.7661 24.0033 73.035 23.8433Z" fill="#00160A"/>
<path fill-rule="evenodd" clip-rule="evenodd" d="M16.9136 66.7313C17.1139 66.4908 17.4712 66.0049 17.7117 66.2052C18.6982 67.0269 19.7509 67.9789 20.877 68.1626C22.0487 68.3538 23.4389 68.3538 25.0455 68.1593C25.3562 68.1217 25.6386 68.3431 25.6762 68.6538C25.7138 68.9645 25.4924 69.2468 25.1817 69.2844C23.4755 69.491 21.9804 69.491 20.6944 69.2812C19.3628 69.0639 18.1244 68.4772 16.9864 67.5293C16.7459 67.329 16.7133 66.9717 16.9136 66.7313Z" fill="#00160A"/>
<path d="M28.9453 46.9054C28.2136 46.3201 26.6479 44.5934 25.4627 43.0717C24.8482 42.2669 24.1604 40.628 23.7507 38.9746C23.5605 38.2283 23.3703 37.5552 23.3264 37.4674C23.2678 37.3943 23.0337 36.3554 22.7996 35.1555C22.4484 33.4581 22.5227 32.9113 22.2143 30.881C22.0837 30.0214 21.9655 29.3374 21.9655 29.3374L22.346 28.8489C22.5655 28.5562 22.8431 28.072 22.9459 27.7953C23.4142 26.5354 26.8528 22.5862 26.9552 22.6886C26.9845 22.7179 26.8674 23.4056 26.6626 24.2104C26.4724 25.0152 26.2382 26.2297 26.1358 26.9174C25.9895 28.0587 25.931 28.1904 25.4773 28.5709C24.9067 29.0537 23.8239 30.6048 23.8239 30.9267C23.8239 31.3657 24.4823 31.073 25.1701 30.356L25.8724 29.6244V30.4292C25.8724 30.956 25.77 31.4388 25.5798 31.8193C25.214 32.5363 25.214 33.2972 25.5651 33.8825C25.7407 34.1751 25.9017 34.8775 26.0041 35.7115C26.4577 39.4867 27.4235 42.7644 29.0769 46.0567C29.4867 46.8761 29.8086 47.5492 29.7939 47.5492C29.7647 47.5492 29.3842 47.2566 28.9453 46.9054Z" fill="white"/>
<path fill-rule="evenodd" clip-rule="evenodd" d="M89.8311 55.9336L90.8846 56.4019C91.1031 56.5027 93.513 57.6607 96.4079 59.0517C101.075 61.2943 107.003 64.1425 107.039 64.1425C107.097 64.1425 107.372 63.5076 107.434 62.767C107.58 61.1721 108.122 59.0065 108.751 57.4993C109.044 56.8262 109.278 55.985 109.278 55.9118C109.278 55.8784 109.04 55.7825 108.65 55.6254C108.187 55.4384 107.508 55.1648 106.761 54.8069C103.073 53.0364 95.8597 49.4222 94.9671 48.8808C94.0891 48.3686 93.9135 48.3247 93.9135 48.6613C93.9135 49.1003 93.021 51.1342 92.3332 52.2316C91.9674 52.8316 91.2504 53.9144 90.7383 54.6313L89.8311 55.9336ZM106.79 61.5086C107.21 61.7518 106.483 62.1085 106.307 62.1671C105.273 62.2549 104.056 62.0604 103.059 61.4793C102.537 61.1096 98.4314 58.8285 95.7078 57.3153C94.4627 56.6236 93.5064 56.0923 93.3136 55.9775C92.699 55.6117 92.1137 55.2166 92.0113 55.0996C91.704 54.7045 91.9967 54.5289 92.86 54.6021C93.379 54.6461 105.884 60.9833 106.79 61.5086Z" fill="white"/>
<path d="M79.3249 57.2505C78.9445 57.1188 78.5348 56.8262 78.2714 56.4896L77.8324 55.9482L79.3834 54.4118C81.7685 52.0706 83.5244 49.512 85.1047 46.6587C85.6315 45.7075 87.1972 41.8718 87.3874 41.4474C87.68 40.8329 87.8995 40.5988 88.5287 40.2476C89.275 39.8086 90.1237 39.6623 90.4895 39.911C91.1918 40.3793 91.1918 41.8572 90.4895 44.4032C89.714 47.198 88.6751 49.2027 86.5241 52.0853C86.1875 52.5242 85.5583 53.3876 85.1047 53.9875C83.8902 55.5971 83.1001 56.3726 82.0319 56.9725C80.9784 57.5578 80.3638 57.631 79.3249 57.2505Z" fill="white"/>
<path d="M84.8413 56.914L84.5341 56.6067C84.5341 56.6067 89.6342 50.127 90.548 47.7394C91.2454 45.9174 91.6559 45.4007 92.2096 45.4007C92.5193 45.4007 92.7722 45.4714 92.8892 45.647C93.0941 45.9543 93.2915 46.3347 93.0281 47.637C92.5891 49.7441 91.916 51.1342 89.8967 54.1338C89.4285 54.8215 88.8286 55.5824 88.5652 55.8458C87.9506 56.4165 86.568 57.0018 85.7632 57.1335C85.2511 57.2066 85.1047 57.1774 84.8413 56.914Z" fill="white"/>
<path fill-rule="evenodd" clip-rule="evenodd" d="M93.4081 50.1383C93.7032 49.4632 93.9135 48.8744 93.9135 48.6613C93.9135 48.3247 94.0891 48.3686 94.9671 48.8808C95.8596 49.4222 103.073 53.0364 106.761 54.8069C108.136 55.4654 109.278 55.8387 109.278 55.9118C109.278 55.985 93.0953 50.8541 93.4081 50.1383Z" fill="#A9B5C6"/>
<path fill-rule="evenodd" clip-rule="evenodd" d="M43.3436 50.9732C41.4853 49.7587 38.6759 46.9054 37.315 44.8715C35.3689 41.945 34.0813 38.8136 33.4521 35.4481C32.9984 33.0045 33.0131 29.244 33.4667 27.0637C33.9349 24.8396 34.5349 23.1422 35.603 20.9912C36.8468 18.5037 38.1637 16.6746 40.1391 14.6992C42.0762 12.7621 33.4667 20.773 35.603 35.1061C37.315 47.1172 44.6726 51.8488 43.3436 50.9732Z" fill="#A9B5C6"/>
</svg>
