<svg width="130" height="128" viewBox="0 0 130 128" fill="none" xmlns="http://www.w3.org/2000/svg">
<path fill-rule="evenodd" clip-rule="evenodd" d="M126.984 105.466C127.296 104.025 127.638 102.591 127.936 101.147C128.081 100.449 128.163 99.7378 128.261 99.0308C128.444 97.712 128.625 96.3928 128.793 95.0722C128.851 94.6075 128.894 94.1379 128.899 93.6699C128.942 89.8797 129.044 86.0881 128.978 82.2995C128.948 80.5451 128.586 78.7962 128.369 77.0453C128.083 74.7425 127.483 72.5125 126.791 70.3061C125.795 67.1307 124.786 63.9593 123.781 60.7866C123.24 59.0823 122.66 57.3896 122.169 55.671C121.943 54.878 121.851 54.0397 121.764 53.215C121.681 52.431 121.592 51.6289 121.666 50.8506C121.806 49.3942 122.047 47.9467 122.276 46.5003C122.471 45.2655 122.7 44.0358 122.929 42.807C123.286 40.8984 123.391 38.9721 123.353 37.0354C123.323 35.5076 123.37 33.9717 123.227 32.4543C123.02 30.2608 122.706 28.063 121.844 26.0159C121.184 24.4495 120.453 22.902 119.613 21.4274C118.782 19.9706 117.797 18.6005 116.837 17.222C116.251 16.3812 115.631 15.5556 114.946 14.7958C113.892 13.6252 112.802 12.4824 111.667 11.3901C109.896 9.68427 107.911 8.2463 105.802 6.99228C103.811 5.80883 101.704 4.87082 99.4918 4.18406C97.9774 3.71398 96.4501 3.28501 94.9428 2.79297C93.8647 2.44095 92.8313 1.93765 91.7401 1.64138C90.3862 1.27372 89.0025 0.991363 87.6153 0.780501C86.1914 0.56408 84.749 0.465863 83.3128 0.339566C82.2592 0.246933 81.2033 0.170111 80.147 0.126533C78.7399 0.0684884 77.3315 0.0338773 75.9233 0.0179816C74.3288 -2.07941e-05 72.733 -0.013175 71.1389 0.0226007C69.9226 0.0499006 68.7066 0.139167 67.493 0.232534C65.8611 0.358068 64.2303 0.500165 62.6017 0.661604C61.3958 0.781147 60.1886 0.908714 58.9915 1.09412C57.3615 1.34658 55.7362 1.6348 54.1165 1.94883C51.8321 2.39179 49.5381 2.80321 47.2791 3.35587C44.8927 3.9397 42.5057 4.56934 40.2649 5.6144C38.25 6.55409 36.2316 7.49449 34.2717 8.54246C32.4864 9.49718 30.7805 10.6018 29.0337 11.6301C28.3633 12.0248 27.6657 12.3733 27.0006 12.7764C26.5547 13.0467 26.1054 13.3339 25.7243 13.6862C23.993 15.2866 22.2774 16.9044 20.5723 18.5332C19.7501 19.3187 18.9638 20.1422 18.1611 20.9485C17.2602 21.8536 16.316 22.7203 15.4687 23.6737C14.393 24.8839 13.4064 26.1736 12.362 27.4123C10.9573 29.0784 10.015 31.0214 8.99618 32.9251C8.30442 34.2175 7.87424 35.6046 7.36883 36.9652C7.02346 37.895 6.62793 38.8314 6.47054 39.8004C6.23017 41.2793 5.35839 42.4539 4.83524 43.7892C4.29924 45.1576 3.8713 46.5693 3.41624 47.9686C3.02704 49.1659 2.62296 50.3609 2.30613 51.5781C2.01438 52.6986 1.82763 53.8468 1.5999 54.9839C1.42456 55.8588 1.24128 56.7326 1.09184 57.6118C0.985825 58.2357 0.931992 58.8681 0.851669 59.4963C0.710785 60.5985 0.558701 61.6994 0.428207 62.8027C0.340958 63.5394 0.262253 64.2781 0.216995 65.0183C0.159912 65.949 0.139114 66.8821 0.105469 67.8142C0.0679626 68.8532 -0.0349884 69.8956 0.0121002 70.931C0.123016 73.3711 4.12146 83.1804 5.73576 85.5871C6.67197 86.9827 7.57392 88.4018 8.53439 89.7802C9.79272 91.5858 11.0796 93.3719 12.3797 95.1478C13.9363 97.2739 15.5005 99.3951 17.0999 101.489C17.8555 102.478 18.684 103.413 19.511 104.345C20.2023 105.123 20.8959 105.909 21.6651 106.606C23.1675 107.968 24.7164 109.278 26.2589 110.594C28.2922 112.328 30.5228 113.794 32.8278 115.114C34.709 116.191 36.7005 117.098 38.7054 117.927C41.7287 119.178 44.801 120.311 47.8626 121.466C50.2025 122.349 52.543 123.236 54.9123 124.033C56.916 124.708 58.946 125.317 60.9927 125.844C62.7255 126.291 64.4941 126.604 66.256 126.926C67.4899 127.151 68.736 127.318 69.9821 127.463C71.1966 127.605 72.4174 127.692 73.6366 127.789C74.2786 127.841 74.9225 127.883 75.5663 127.896C77.7032 127.941 79.8402 127.988 81.9772 127.999C83.0295 128.005 84.0843 127.97 85.1335 127.891C86.6063 127.781 88.0815 127.661 89.5436 127.458C91.2115 127.226 92.8649 126.891 94.5271 126.616C95.895 126.389 97.2726 126.218 98.6349 125.963C100.973 125.525 103.315 125.09 105.634 124.561C107.49 124.138 109.338 123.648 111.148 123.059C114.028 122.123 116.727 120.782 119.164 118.961C119.981 118.351 120.789 117.698 121.476 116.949C123.113 115.164 124.43 113.151 125.382 110.855C126.11 109.082 126.59 107.287 126.984 105.466Z" fill="#EBF1FA"/>
<path d="M65.9226 69.9241C65.9226 69.9241 60.1434 63.1865 65.5667 58.9074C65.5667 58.9074 69.5272 56.5112 72.7571 56.7062C72.7571 56.7062 68.1815 64.3752 69.6614 65.1365C71.1414 65.8993 74.145 56.2242 74.145 56.2242C74.145 56.2242 83.1588 55.3506 86.0578 56.7436C86.0578 56.7436 78.3522 63.0445 79.9757 63.4205C81.5993 63.7949 89.9216 57.611 89.9216 57.611C89.9216 57.611 98.311 59.0369 97.8629 64.1521C97.4149 69.2658 94.5253 70.8445 93.2545 70.7088C91.9838 70.5731 84.5529 67.7385 84.3905 68.7775C84.2282 69.818 88.7023 73.2173 91.8339 73.3764C91.8339 73.3764 85.9189 79.8941 81.9895 78.0127C78.0587 76.1313 77.723 73.1502 75.2736 72.0316C72.8227 70.9131 70.7324 70.9163 71.744 72.0566C72.7556 73.197 77.1907 74.3061 78.591 76.7819C79.9929 79.2591 81.2496 80.9284 77.1829 80.3184C73.1162 79.7069 66.5049 76.7335 66.2161 73.328C65.9273 69.9225 65.9226 69.9241 65.9226 69.9241Z" fill="#82B378"/>
<path d="M93.7401 64.2894C93.7401 64.2894 70.9557 63.4111 65.9226 69.9241C65.9226 69.9241 64.8096 73.2547 61.386 76.2873C61.386 76.2873 56.4951 79.9019 56.1563 86.3603L57.0446 86.4398C57.0446 86.4398 58.4511 80.4245 61.0082 77.5806C61.1082 77.4776 61.2518 77.3294 61.4313 77.15C61.8466 76.7663 62.1354 76.4792 62.3321 76.2639C63.6044 75.0409 65.3669 73.4809 66.2161 73.3296C66.213 73.328 64.004 65.2613 93.7401 64.2894Z" fill="#82B378"/>
<path d="M45.7187 61.4517C45.7187 61.4517 54.9106 56.3068 50.6206 49.3258C50.6206 49.3258 47.1893 45.0389 43.5113 43.936C43.5113 43.936 45.4721 54.3475 43.5113 54.5924C41.5506 54.8373 42.1625 42.8347 42.1625 42.8347C42.1625 42.8347 32.4805 38.1812 28.6807 38.5478C28.6807 38.5478 34.6863 48.7143 32.7256 48.4694C30.7648 48.2245 24.024 37.9363 24.024 37.9363C24.024 37.9363 14.0953 36.0986 12.5029 41.9782C10.909 47.8579 13.4833 50.7969 14.9539 51.1635C16.4245 51.5317 25.8629 51.4084 25.6178 52.633C25.3727 53.8576 18.9987 55.817 15.4441 54.7156C15.4441 54.7156 19.3656 64.3923 24.5141 63.9009C29.6627 63.4111 31.255 60.2271 34.4428 59.9822C37.629 59.7373 39.9582 60.5953 38.3643 61.4517C36.7704 62.3097 31.3784 61.7325 28.8041 63.9196C26.2298 66.1068 24.1473 67.453 28.9274 68.4327C33.7075 69.4124 42.2874 68.8009 44.0031 65.1255C45.7187 61.4517 45.7187 61.4517 45.7187 61.4517Z" fill="#A8D29F"/>
<path d="M48.1697 70.3921C45.5954 65.6154 45.7187 61.4502 45.7187 61.4502C42.7776 52.1416 17.038 43.8128 17.038 43.8128C49.7636 57.04 44.0031 65.124 44.0031 65.124C44.8851 65.6372 46.2073 68.0895 47.1253 69.9709C47.2564 70.2907 47.4625 70.7337 47.77 71.3359C47.8949 71.6073 47.9948 71.8304 48.0635 71.9848C49.7479 76.1984 48.8566 83.4727 48.8566 83.4727L49.8775 83.7473C52.1396 76.4152 48.1697 70.3921 48.1697 70.3921Z" fill="#82B378"/>
<path d="M60.3432 54.3568C60.3432 54.3568 48.2259 47.5755 53.8802 38.3731C53.8802 38.3731 58.4043 32.7228 63.2516 31.2689C63.2516 31.2689 60.6664 44.9922 63.2516 45.3151C65.8368 45.638 65.0281 29.8149 65.0281 29.8149C65.0281 29.8149 77.7918 23.6795 82.7998 24.1646C82.7998 24.1646 74.8834 37.565 77.4686 37.2421C80.0538 36.9192 88.9397 23.3581 88.9397 23.3581C88.9397 23.3581 102.026 20.937 104.128 28.6855C106.227 36.4356 102.835 40.3106 100.896 40.7942C98.9573 41.2778 86.5168 41.1171 86.84 42.7317C87.1631 44.3463 95.565 46.9297 100.25 45.4758C100.25 45.4758 95.0795 58.2303 88.2934 57.5845C81.5072 56.9386 79.4075 52.7407 75.2066 52.4177C71.0056 52.0948 67.9365 53.2243 70.0362 54.3553C72.1359 55.4847 79.2452 54.725 82.639 57.6079C86.0313 60.4907 88.7789 62.266 82.4782 63.5577C76.1776 64.8494 64.8673 64.0429 62.6053 59.1991C60.3432 54.3568 60.3432 54.3568 60.3432 54.3568Z" fill="#A8D29F"/>
<path d="M98.1502 31.1082C98.1502 31.1082 64.221 42.0874 60.3432 54.3568C60.3432 54.3568 60.5056 59.8465 57.1117 66.1426C57.1117 66.1426 51.8789 74.083 54.8622 83.7473L56.2078 83.3853C56.2078 83.3853 55.0308 73.796 57.2522 68.2424C57.3428 68.038 57.4739 67.7448 57.6394 67.386C58.0453 66.5935 58.3169 66.01 58.4902 65.5873C59.7001 63.1084 61.4438 59.8761 62.6053 59.1991C62.6053 59.2007 55.012 48.5443 98.1502 31.1082Z" fill="#82B378"/>
<path d="M36.1991 80.9876C36.1991 94.0869 46.8256 104.707 59.9358 104.707C73.0444 104.707 83.6725 94.0885 83.6725 80.9876H36.1991Z" fill="#699DEE"/>
<path d="M65.7759 104.526C64.8111 104.647 63.826 104.707 62.8269 104.707C49.7183 104.707 39.0918 94.0869 39.0918 80.9876H44.9881C44.9881 93.0901 54.0582 103.074 65.7759 104.526Z" fill="#A1C7FF"/>
<path d="M81.0701 102.988H38.7999C37.1825 102.988 35.8712 104.299 35.8712 105.915H83.9987C83.9987 104.299 82.6874 102.988 81.0701 102.988Z" fill="#4A75CB"/>
<path d="M84.2111 80.9876H35.4185V81.7146H84.2111V80.9876Z" fill="#4A75CB"/>
</svg>
