<svg width="336" height="502" viewBox="0 0 336 502" fill="none" xmlns="http://www.w3.org/2000/svg">
<g opacity="0.24">
<path opacity="0.24" d="M203.64 376.884C201.35 387.436 190.76 394.179 180.31 396.558C169.86 398.936 158.94 398.16 148.38 399.995C116.66 405.508 93.52 433.305 78.08 461.768C72.64 471.787 67.65 482.299 59.68 490.412C41.92 508.474 14.27 480.364 0.419988 501.61L-2.70001 286.97C4.21999 274.694 18.26 267.316 32.27 266.973C46.28 266.621 60.01 272.738 70.46 282.152C84.28 294.62 93.49 313.044 110.54 320.402C133.26 330.208 160.9 316.39 183.69 326.005C196.65 331.478 206.05 344.672 207.06 358.802C207.37 363.197 206.94 367.601 206.5 371.985" fill="#6F9DF7"/>
</g>
<g opacity="0.24">
<path opacity="0.24" d="M203.64 374.314C201.35 382.81 190.76 388.253 180.31 390.168C169.86 392.083 158.94 391.458 148.38 392.929C116.66 397.374 93.52 419.759 78.08 442.699C72.64 450.772 67.65 459.238 59.68 465.769C41.92 480.323 14.27 457.676 0.419988 474.79L-2.70001 301.887C4.21999 291.989 18.26 286.053 32.27 285.77C46.28 285.488 60.01 290.407 70.46 297.996C84.28 308.035 93.49 322.881 110.54 328.807C133.26 336.709 160.9 325.572 183.69 333.323C196.65 337.727 206.05 348.36 207.06 359.739C207.37 363.277 206.94 366.825 206.5 370.353" fill="#6F9DF7"/>
</g>
<g opacity="0.24">
<path opacity="0.24" d="M188.18 205.421C206.78 203.708 224.37 190.061 228.55 171.718C232.72 153.374 221.23 132.138 203.06 127.794C193.79 125.576 183.79 127.481 174.77 124.397C158.83 118.934 151.81 100.52 147.48 84.122C143.15 67.7236 138.09 49.2288 123.28 41.1758C117.67 38.1219 111.26 36.993 105.23 34.9168C92.01 30.3611 80.48 20.9676 73.28 8.89308C71.37 5.688 69.63 2.17046 66.52 0.134524C63.28 -1.98204 59.19 -2.07275 55.33 -2.09291C35.33 -2.20378 19.1 -0.046896 -0.889995 -0.157764C-0.889995 59.7714 -5.06999 110.629 -0.889995 165.459C-0.699995 167.978 -6.28999 167.454 -4.93999 169.581C-0.969995 175.85 8.37 173.471 15.61 172.03C29.94 169.168 45.52 173.582 56.26 183.56C60.22 187.239 63.56 191.603 67.88 194.829C77.38 201.914 90.05 202.428 101.87 202.68C106.08 202.771 110.39 202.841 114.35 201.42C117.96 200.13 121.04 197.681 124.41 195.836C140.27 187.128 159.78 192.47 176.99 197.983" fill="#6F9DF7"/>
</g>
<g opacity="0.24">
<path opacity="0.24" d="M172.89 198.255C191.53 198.83 210.2 189.547 215.92 175.013C221.64 160.48 212.02 141.935 194.33 136.452C185.3 133.66 175.19 134.164 166.48 130.676C151.1 124.528 145.69 108.755 142.78 94.9064C139.88 81.058 136.43 65.4256 122.38 57.2819C117.06 54.1977 110.79 52.5952 104.97 50.267C92.21 45.1469 80.13 36.9729 75.42 25.6442C66.25 3.56135 49.62 0.205078 37.65 0.205078C17.66 0.205078 22.33 12.6122 2.45998 10.4049C1.72998 79.9695 -1.33002 138.608 -0.26002 151.701C0.92998 166.285 30.95 154.503 43.64 159.079C52.95 162.435 58.23 167.384 62.26 170.478C71.11 177.271 75.57 185.425 87.3 186.876C91.47 187.39 95.76 187.904 99.82 187.169C103.53 186.493 106.8 184.83 110.3 183.671C126.81 178.239 145.76 184.669 162.4 190.988" fill="#6F9DF7"/>
</g>
<g opacity="0.24">
<path opacity="0.24" d="M332.91 80.3021C339.44 66.7964 332.77 48.4528 319.13 42.4054C312.51 39.4725 304.33 38.8375 299.79 33.1631C296.39 28.9098 296.08 23.0036 294.08 17.9339C289.55 6.47416 277.08 0.55785 265.36 -3L139.48 -0.34925C152.23 3.28923 164.08 10.0622 173.72 19.2139C183.67 28.6679 191.65 40.8533 204.05 46.6486C215.59 52.0409 229.4 51.0531 240.66 57.0097C253.05 63.561 259.89 77.0365 268.65 88.0326C277.42 99.0287 291.99 108.523 304.76 102.738" fill="#6F9DF7"/>
</g>
<g opacity="0.24">
<path opacity="0.24" d="M333.44 60.2652C338.6 50.0049 333.33 36.0759 322.55 31.4799C317.32 29.2525 310.86 28.7687 307.27 24.465C304.58 21.2297 304.34 16.7546 302.76 12.8944C299.18 4.19633 289.33 -0.298856 280.07 -3L180.64 -0.984221C190.71 1.7774 200.07 6.91763 207.69 13.8721C215.55 21.0482 221.86 30.3108 231.65 34.7052C240.77 38.7972 251.67 38.0513 260.57 42.5667C270.36 47.5457 275.76 57.7757 282.68 66.1312C289.61 74.4765 301.12 81.693 311.2 77.2986" fill="#6F9DF7"/>
</g>
<path opacity="0.44" d="M60.1247 313.631C61.0661 307.785 57.1271 302.277 51.3265 301.328C45.526 300.379 40.0606 304.349 39.1193 310.195C38.1779 316.042 42.117 321.55 47.9175 322.499C53.718 323.448 59.1834 319.478 60.1247 313.631Z" fill="#6F9DF7"/>
<path opacity="0.44" d="M36.65 354.136C39.7704 354.136 42.3 351.586 42.3 348.441C42.3 345.296 39.7704 342.746 36.65 342.746C33.5296 342.746 31 345.296 31 348.441C31 351.586 33.5296 354.136 36.65 354.136Z" fill="#6F9DF7"/>
<path opacity="0.44" d="M98.5 364.86C103.089 364.86 106.81 361.11 106.81 356.484C106.81 351.858 103.089 348.108 98.5 348.108C93.9105 348.108 90.19 351.858 90.19 356.484C90.19 361.11 93.9105 364.86 98.5 364.86Z" fill="#6F9DF7"/>
<path opacity="0.44" d="M86.87 405.084C86.87 407.302 85.08 409.106 82.88 409.106C80.68 409.106 78.89 407.302 78.89 405.084C78.89 402.867 80.68 401.063 82.88 401.063C85.08 401.063 86.87 402.867 86.87 405.084Z" fill="#6F9DF7"/>
<path opacity="0.44" d="M54.61 467.422C63.9768 467.422 71.57 459.769 71.57 450.329C71.57 440.888 63.9768 433.235 54.61 433.235C45.2433 433.235 37.65 440.888 37.65 450.329C37.65 459.769 45.2433 467.422 54.61 467.422Z" fill="#6F9DF7"/>
<path opacity="0.44" d="M45.63 389.331C45.63 391.367 43.99 393.02 41.97 393.02C39.95 393.02 38.31 391.367 38.31 389.331C38.31 387.295 39.95 385.642 41.97 385.642C43.99 385.642 45.63 387.295 45.63 389.331Z" fill="#6F9DF7"/>
<path opacity="0.44" d="M114.341 90.9072C118.496 86.7193 118.496 79.9294 114.341 75.7414C110.186 71.5535 103.449 71.5535 99.2942 75.7414C95.1391 79.9294 95.1391 86.7193 99.2942 90.9072C103.449 95.0952 110.186 95.0952 114.341 90.9072Z" fill="#6F9DF7"/>
<path opacity="0.44" d="M86.87 130.586C86.87 134.476 83.74 137.621 79.89 137.621C76.03 137.621 72.91 134.466 72.91 130.586C72.91 126.695 76.04 123.551 79.89 123.551C83.74 123.551 86.87 126.695 86.87 130.586Z" fill="#6F9DF7"/>
<path opacity="0.44" d="M59.7995 53.8194C61.9939 44.453 56.2392 35.0671 46.9461 32.8555C37.6531 30.6438 28.3406 36.4439 26.1463 45.8103C23.9519 55.1767 29.7066 64.5626 38.9997 66.7742C48.2927 68.9859 57.6052 63.1859 59.7995 53.8194Z" fill="#6F9DF7"/>
<path opacity="0.44" d="M46.3 100.087C46.3 101.941 44.81 103.443 42.97 103.443C41.13 103.443 39.64 101.941 39.64 100.087C39.64 98.2324 41.13 96.7307 42.97 96.7307C44.81 96.7307 46.3 98.2324 46.3 100.087Z" fill="#6F9DF7"/>
<path opacity="0.44" d="M224.87 20.9777C227.99 20.9777 230.52 18.4281 230.52 15.2831C230.52 12.1381 227.99 9.5885 224.87 9.5885C221.75 9.5885 219.22 12.1381 219.22 15.2831C219.22 18.4281 221.75 20.9777 224.87 20.9777Z" fill="#6F9DF7"/>
<path opacity="0.44" d="M276.41 26.6823C276.41 29.0912 274.47 31.0364 272.09 31.0364C269.7 31.0364 267.77 29.0811 267.77 26.6823C267.77 24.2735 269.71 22.3282 272.09 22.3282C274.48 22.3282 276.41 24.2735 276.41 26.6823Z" fill="#6F9DF7"/>
<path opacity="0.44" d="M254.13 43.1109C254.682 43.1109 255.13 42.6597 255.13 42.103C255.13 41.5464 254.682 41.0952 254.13 41.0952C253.578 41.0952 253.13 41.5464 253.13 42.103C253.13 42.6597 253.578 43.1109 254.13 43.1109Z" fill="#6F9DF7"/>
<path opacity="0.44" d="M251.47 13.61C252.387 13.61 253.13 12.8609 253.13 11.9369C253.13 11.0129 252.387 10.2638 251.47 10.2638C250.553 10.2638 249.81 11.0129 249.81 11.9369C249.81 12.8609 250.553 13.61 251.47 13.61Z" fill="#6F9DF7"/>
</svg>
